<svg xmlns="http://www.w3.org/2000/svg" xmlns:xlink="http://www.w3.org/1999/xlink" width="200" zoomAndPan="magnify" viewBox="0 0 150 52.499999" height="70" preserveAspectRatio="xMidYMid meet" version="1.0"><defs><clipPath id="019adc48d2"><path d="M 0.707031 0 L 58 0 L 58 52 L 0.707031 52 Z M 0.707031 0 " clip-rule="nonzero"/></clipPath></defs><path fill="#ffffff" d="M 46.402344 22.367188 C 46.78125 22.949219 46.753906 23.703125 46.832031 24.386719 C 46.804688 25.824219 46.929688 27.542969 46.675781 29.007812 C 46.550781 29.613281 46.148438 30.246094 45.515625 30.472656 C 44.507812 30.925781 43.144531 30.800781 42.210938 30.269531 C 41.425781 29.714844 41.328125 28.777344 41.226562 27.894531 C 41.148438 26.152344 41.023438 24.308594 41.503906 22.71875 C 41.878906 21.734375 42.917969 21.480469 43.851562 21.40625 C 44.835938 21.40625 45.792969 21.558594 46.402344 22.367188 " fill-opacity="1" fill-rule="nonzero"/><g clip-path="url(#019adc48d2)"><path fill="#ffffff" d="M 33.144531 44.460938 C 33.222656 44.613281 33.019531 44.566406 32.96875 44.613281 C 30.292969 45.195312 27.316406 45.222656 24.636719 44.566406 C 24.589844 44.4375 24.765625 44.414062 24.839844 44.335938 C 27.1875 42.796875 30.851562 42.796875 33.144531 44.460938 M 24.109375 43.882812 C 23.984375 44.035156 23.78125 44.183594 23.605469 44.285156 C 21.484375 43.730469 19.511719 42.769531 17.695312 41.457031 L 17.695312 41.382812 C 18.304688 41.003906 18.90625 40.597656 19.566406 40.320312 C 21.003906 41.761719 22.492188 42.84375 24.109375 43.882812 Z M 40.113281 41.382812 C 38.699219 42.519531 37.058594 43.277344 35.394531 43.90625 L 34.207031 44.285156 C 34.003906 44.183594 33.828125 44.035156 33.652344 43.882812 L 33.703125 43.804688 C 35.316406 42.84375 36.78125 41.6875 38.171875 40.296875 C 38.851562 40.574219 39.507812 40.953125 40.113281 41.382812 Z M 37.414062 39.941406 C 36.605469 40.875 35.570312 41.683594 34.609375 42.367188 C 34.03125 42.71875 33.449219 43.097656 32.84375 43.402344 L 31.757812 42.921875 L 31.832031 42.742188 C 32.742188 41.507812 33.550781 40.246094 34.257812 38.90625 L 34.332031 38.855469 C 35.417969 39.109375 36.453125 39.460938 37.414062 39.941406 Z M 23.527344 38.882812 C 24.261719 40.269531 25.167969 41.582031 26.078125 42.898438 C 25.722656 43.097656 25.296875 43.226562 24.941406 43.425781 C 23.273438 42.59375 21.683594 41.429688 20.347656 40.042969 L 20.347656 39.964844 C 21.332031 39.488281 22.367188 39.132812 23.425781 38.855469 Z M 33.5 38.65625 L 33.523438 38.730469 C 32.820312 40.09375 31.933594 41.40625 30.976562 42.644531 C 30.546875 42.695312 30.140625 42.515625 29.714844 42.492188 L 29.285156 42.441406 C 29.234375 40.953125 29.207031 39.636719 29.285156 38.148438 C 30.722656 38.175781 32.164062 38.328125 33.5 38.65625 Z M 28.527344 42.417969 C 27.996094 42.542969 27.417969 42.542969 26.910156 42.671875 C 25.875 41.433594 25.019531 40.09375 24.285156 38.703125 L 24.410156 38.601562 C 25.722656 38.351562 27.085938 38.148438 28.5 38.148438 Z M 23.226562 36.609375 C 22.972656 36.609375 22.695312 36.558594 22.519531 36.632812 L 23.148438 38.125 L 23.074219 38.199219 C 21.9375 38.527344 20.828125 38.933594 19.742188 39.386719 L 19.640625 39.335938 C 18.933594 38.550781 18.25 37.695312 17.695312 36.835938 C 17.570312 36.40625 17.066406 36.65625 16.785156 36.609375 C 17.394531 37.71875 18.203125 38.703125 19.007812 39.714844 C 18.328125 40.117188 17.644531 40.574219 16.9375 40.902344 C 15.425781 39.738281 14.007812 38.222656 12.949219 36.632812 C 12.644531 36.582031 12.445312 36.609375 12.140625 36.632812 C 13.960938 39.511719 16.785156 42.035156 19.742188 43.527344 L 19.765625 43.503906 L 19.792969 43.578125 C 21.785156 44.5625 23.90625 45.269531 26.152344 45.574219 C 33.902344 46.609375 41.300781 43.25 45.589844 36.632812 C 45.363281 36.609375 45.035156 36.609375 44.78125 36.632812 C 43.722656 38.175781 42.382812 39.664062 40.917969 40.828125 L 40.667969 40.800781 C 40.035156 40.398438 39.355469 40.070312 38.75 39.664062 C 39.558594 38.679688 40.339844 37.695312 40.945312 36.609375 L 40.164062 36.609375 C 39.53125 37.542969 38.875 38.527344 38.042969 39.363281 C 36.929688 38.90625 35.921875 38.503906 34.785156 38.199219 L 34.660156 38.101562 C 34.839844 37.59375 35.167969 37.113281 35.265625 36.609375 L 34.585938 36.609375 L 33.902344 37.972656 C 32.414062 37.644531 30.773438 37.46875 29.257812 37.367188 C 29.183594 37.140625 29.285156 36.8125 29.183594 36.613281 L 28.527344 36.613281 C 28.476562 36.914062 28.601562 37.140625 28.453125 37.394531 C 26.886719 37.46875 25.371094 37.644531 23.90625 37.949219 Z M 7.21875 17.214844 L 5.65625 17.238281 C 5.628906 18.578125 5.628906 20.144531 5.65625 21.507812 C 6.511719 21.535156 7.320312 21.507812 8.15625 21.585938 L 8.15625 30.167969 L 8.128906 30.523438 L 5.628906 30.574219 C 5.578125 31.988281 5.578125 33.351562 5.628906 34.738281 L 16.765625 34.738281 L 16.765625 30.574219 C 15.929688 30.523438 14.996094 30.597656 14.1875 30.5 L 14.214844 21.632812 L 14.261719 21.558594 L 16.761719 21.535156 C 16.785156 20.09375 16.8125 18.554688 16.738281 17.238281 Z M 50.113281 18.730469 C 46.832031 16.609375 41.832031 16.457031 38.449219 18.378906 C 36.605469 19.335938 35.394531 21.230469 35.015625 23.175781 C 34.335938 26.382812 34.511719 30.195312 36.933594 32.59375 C 39.761719 35.121094 43.878906 35.675781 47.539062 34.640625 C 47.710938 34.605469 48.261719 34.460938 48.640625 34.257812 L 48.75 34.210938 C 49.882812 33.730469 50.972656 32.945312 51.777344 31.886719 C 53.648438 29.109375 53.773438 24.941406 52.636719 21.8125 C 52.179688 20.601562 51.246094 19.515625 50.113281 18.730469 Z M 28.703125 17.921875 C 25.925781 16.734375 22.039062 16.609375 19.511719 18.453125 C 17.875 19.664062 17.367188 21.835938 17.796875 23.753906 C 18.125 25.574219 19.84375 26.914062 21.484375 27.542969 C 23.730469 28.351562 26.078125 28.933594 28.351562 29.714844 C 28.578125 29.816406 28.878906 30.042969 28.832031 30.320312 C 28.832031 30.550781 28.601562 30.675781 28.425781 30.777344 C 26.054688 31.433594 23.480469 30.929688 21.761719 29.109375 C 21.558594 28.855469 21.433594 28.554688 21.230469 28.300781 L 17.824219 28.328125 C 17.773438 30.375 17.746094 32.71875 17.824219 34.742188 L 21.609375 34.714844 L 21.660156 33.503906 C 22.089844 33.707031 22.519531 33.960938 22.949219 34.1875 C 25.574219 35.296875 28.957031 35.550781 31.558594 34.1875 C 33.449219 33.125 34.460938 31.078125 34.183594 28.882812 C 33.902344 26.738281 31.882812 24.792969 29.839844 24.261719 L 23.730469 22.46875 L 23.273438 22.242188 C 23.074219 22.0625 22.949219 21.835938 23 21.558594 C 23.476562 20.726562 24.589844 20.980469 25.421875 21.003906 C 27.1875 21.257812 29.007812 21.863281 30.042969 23.503906 C 31.152344 23.503906 32.4375 23.527344 33.652344 23.480469 C 33.703125 21.40625 33.625 19.589844 33.601562 17.492188 C 32.464844 17.46875 31.074219 17.46875 29.941406 17.519531 C 29.886719 17.820312 29.988281 18.253906 29.863281 18.554688 Z M 30.75 9.335938 C 31.734375 10.597656 32.691406 11.886719 33.347656 13.273438 C 31.988281 13.605469 30.597656 13.78125 29.183594 13.78125 C 29.132812 12.441406 29.15625 10.953125 29.183594 9.5625 C 29.6875 9.488281 30.242188 9.414062 30.75 9.335938 Z M 28.375 9.539062 C 28.453125 10.851562 28.398438 12.367188 28.398438 13.753906 C 27.695312 13.855469 27.0625 13.730469 26.355469 13.679688 C 25.675781 13.578125 24.816406 13.503906 24.136719 13.273438 C 24.867188 11.886719 25.722656 10.550781 26.761719 9.3125 Z M 25.925781 9.058594 L 25.851562 9.261719 C 24.890625 10.472656 24.136719 11.785156 23.375 13.074219 L 23.273438 13.097656 C 22.242188 12.820312 21.230469 12.492188 20.273438 12.0625 L 20.320312 11.914062 C 21.710938 10.574219 23.175781 9.460938 24.789062 8.605469 C 25.167969 8.753906 25.546875 8.882812 25.925781 9.058594 Z M 37.285156 11.9375 L 37.234375 12.011719 C 36.25 12.441406 35.242188 12.847656 34.15625 13.074219 C 33.375 11.734375 32.515625 10.398438 31.558594 9.109375 C 31.910156 8.90625 32.339844 8.757812 32.71875 8.554688 C 34.359375 9.386719 35.949219 10.574219 37.285156 11.9375 Z M 24.03125 8.125 C 22.46875 9.109375 20.929688 10.269531 19.511719 11.683594 C 18.832031 11.429688 18.203125 11.054688 17.59375 10.625 L 17.59375 10.574219 C 19.1875 9.386719 20.953125 8.503906 22.820312 7.898438 L 23.050781 7.746094 L 23.050781 7.796875 C 23.25 7.847656 23.402344 7.621094 23.578125 7.769531 C 23.730469 7.898438 23.90625 7.996094 24.03125 8.125 Z M 39.9375 10.523438 L 39.886719 10.625 L 38.144531 11.609375 L 38.019531 11.609375 C 36.679688 10.246094 35.113281 9.058594 33.527344 8.125 C 33.578125 7.949219 33.828125 7.820312 34.003906 7.695312 C 36.125 8.25 38.117188 9.210938 39.9375 10.523438 Z M 32.996094 7.441406 L 32.996094 7.492188 C 30.796875 9.109375 27.238281 9.261719 24.917969 7.769531 C 24.789062 7.667969 24.539062 7.617188 24.511719 7.441406 C 27.1875 6.8125 30.34375 6.761719 32.996094 7.441406 Z M 30.394531 6.308594 C 29.714844 6.230469 28.878906 6.203125 28.148438 6.28125 C 27.871094 6.253906 27.542969 6.28125 27.214844 6.308594 C 21.152344 6.785156 15.578125 9.941406 12.089844 15.320312 C 12.34375 15.296875 12.644531 15.398438 12.898438 15.296875 C 13.507812 14.4375 14.1875 13.605469 14.945312 12.796875 C 15.601562 12.164062 16.207031 11.558594 16.914062 11.105469 C 17.570312 11.535156 18.304688 11.886719 18.933594 12.292969 C 18.148438 13.273438 17.34375 14.261719 16.761719 15.320312 C 16.941406 15.398438 17.265625 15.371094 17.519531 15.320312 C 18.148438 14.386719 18.832031 13.453125 19.640625 12.621094 C 20.726562 13.023438 21.785156 13.453125 22.898438 13.753906 L 23 13.855469 L 22.367188 15.324219 C 22.644531 15.371094 22.820312 15.347656 23.097656 15.324219 C 23.328125 14.890625 23.503906 14.414062 23.757812 13.984375 C 25.21875 14.3125 26.761719 14.488281 28.324219 14.539062 C 28.527344 14.714844 28.375 15.09375 28.453125 15.324219 L 29.132812 15.324219 C 29.207031 15.070312 29.109375 14.792969 29.207031 14.566406 C 30.671875 14.488281 32.210938 14.335938 33.625 13.984375 L 33.75 14.007812 L 34.433594 15.324219 C 34.660156 15.324219 34.964844 15.371094 35.140625 15.273438 L 34.507812 13.808594 L 34.558594 13.753906 C 35.722656 13.453125 36.808594 13 37.917969 12.542969 C 38.699219 13.378906 39.429688 14.363281 40.089844 15.324219 C 40.363281 15.324219 40.644531 15.347656 40.847656 15.273438 C 40.542969 14.714844 40.164062 14.160156 39.761719 13.679688 C 39.429688 13.199219 39.078125 12.769531 38.648438 12.316406 L 38.648438 12.191406 L 40.414062 11.15625 L 40.667969 11.054688 C 42.207031 12.242188 43.574219 13.679688 44.65625 15.273438 C 44.957031 15.273438 45.214844 15.371094 45.464844 15.246094 C 42.082031 10.09375 36.503906 6.785156 30.46875 6.308594 L 30.445312 6.359375 Z M 57.003906 51.886719 L 0.707031 51.886719 L 0.707031 0.121094 L 57.003906 0.121094 Z M 57.003906 51.886719 " fill-opacity="1" fill-rule="nonzero"/></g><path stroke-linecap="butt" transform="matrix(0.879609, 0, 0, 0.879878, 0.707549, 0.119418)" fill="none" stroke-linejoin="miter" d="M 71.804239 7.167313 L 71.804239 55.16756 " stroke="#022899" stroke-width="1" stroke-opacity="1" stroke-miterlimit="4"/><path fill="#ffffff" d="M 70.011719 9.621094 L 71.011719 9.621094 L 71.011719 17.152344 L 70.011719 17.152344 Z M 70.011719 9.621094 " fill-opacity="1" fill-rule="nonzero"/><path fill="#ffffff" d="M 72.554688 11.699219 L 73.398438 11.699219 L 73.398438 12.5625 L 73.417969 12.5625 C 73.800781 11.886719 74.410156 11.570312 75.191406 11.570312 C 76.625 11.570312 77.070312 12.394531 77.070312 13.566406 L 77.070312 17.15625 L 76.171875 17.15625 L 76.171875 13.460938 C 76.171875 12.796875 75.75 12.363281 75.066406 12.363281 C 73.976562 12.363281 73.449219 13.09375 73.449219 14.074219 L 73.449219 17.15625 L 72.554688 17.15625 Z M 72.554688 11.699219 " fill-opacity="1" fill-rule="nonzero"/><path fill="#ffffff" d="M 79.667969 11.699219 L 80.753906 11.699219 L 80.753906 12.492188 L 79.667969 12.492188 L 79.667969 15.878906 C 79.667969 16.289062 79.785156 16.363281 80.34375 16.363281 L 80.753906 16.363281 L 80.753906 17.15625 L 80.070312 17.15625 C 79.140625 17.15625 78.773438 16.964844 78.773438 15.960938 L 78.773438 12.492188 L 77.84375 12.492188 L 77.84375 11.699219 L 78.773438 11.699219 L 78.773438 10.0625 L 79.667969 10.0625 Z M 79.667969 11.699219 " fill-opacity="1" fill-rule="nonzero"/><path fill="#ffffff" d="M 86.398438 15.425781 C 86.15625 16.625 85.292969 17.28125 84.070312 17.28125 C 82.328125 17.28125 81.503906 16.078125 81.453125 14.410156 C 81.453125 12.773438 82.527344 11.570312 84.015625 11.570312 C 85.945312 11.570312 86.535156 13.375 86.484375 14.695312 L 82.402344 14.695312 C 82.371094 15.644531 82.90625 16.488281 84.101562 16.488281 C 84.839844 16.488281 85.355469 16.128906 85.515625 15.421875 L 86.398438 15.421875 Z M 85.535156 13.90625 C 85.492188 13.050781 84.851562 12.363281 83.964844 12.363281 C 83.023438 12.363281 82.464844 13.070312 82.402344 13.90625 Z M 85.535156 13.90625 " fill-opacity="1" fill-rule="nonzero"/><path fill="#ffffff" d="M 87.382812 11.699219 L 88.226562 11.699219 L 88.226562 12.847656 L 88.25 12.847656 C 88.679688 11.972656 89.28125 11.542969 90.253906 11.574219 L 90.253906 12.523438 C 88.808594 12.523438 88.28125 13.347656 88.28125 14.726562 L 88.28125 17.15625 L 87.382812 17.15625 Z M 87.382812 11.699219 " fill-opacity="1" fill-rule="nonzero"/><path fill="#ffffff" d="M 91.121094 11.699219 L 91.964844 11.699219 L 91.964844 12.5625 L 91.984375 12.5625 C 92.363281 11.886719 92.976562 11.570312 93.757812 11.570312 C 95.191406 11.570312 95.636719 12.394531 95.636719 13.566406 L 95.636719 17.15625 L 94.738281 17.15625 L 94.738281 13.460938 C 94.738281 12.796875 94.316406 12.363281 93.628906 12.363281 C 92.542969 12.363281 92.015625 13.09375 92.015625 14.074219 L 92.015625 17.15625 L 91.117188 17.15625 L 91.117188 11.699219 Z M 91.121094 11.699219 " fill-opacity="1" fill-rule="nonzero"/><path fill="#ffffff" d="M 101.820312 17.132812 C 101.660156 17.226562 101.460938 17.28125 101.175781 17.28125 C 100.714844 17.28125 100.417969 17.027344 100.417969 16.4375 C 99.921875 17.015625 99.257812 17.28125 98.496094 17.28125 C 97.507812 17.28125 96.691406 16.839844 96.691406 15.75 C 96.691406 14.515625 97.613281 14.253906 98.539062 14.074219 C 99.53125 13.882812 100.375 13.945312 100.375 13.269531 C 100.375 12.492188 99.730469 12.363281 99.164062 12.363281 C 98.402344 12.363281 97.84375 12.597656 97.800781 13.398438 L 96.902344 13.398438 C 96.957031 12.046875 98 11.574219 99.214844 11.574219 C 100.195312 11.574219 101.261719 11.792969 101.261719 13.070312 L 101.261719 15.878906 C 101.261719 16.300781 101.261719 16.488281 101.546875 16.488281 C 101.617188 16.488281 101.703125 16.480469 101.820312 16.4375 Z M 100.363281 14.335938 C 100.015625 14.589844 99.339844 14.601562 98.738281 14.707031 C 98.148438 14.8125 97.640625 15.023438 97.640625 15.6875 C 97.640625 16.277344 98.148438 16.488281 98.699219 16.488281 C 99.878906 16.488281 100.363281 15.75 100.363281 15.253906 Z M 100.363281 14.335938 " fill-opacity="1" fill-rule="nonzero"/><path fill="#ffffff" d="M 103.902344 11.699219 L 104.988281 11.699219 L 104.988281 12.492188 L 103.902344 12.492188 L 103.902344 15.878906 C 103.902344 16.289062 104.019531 16.363281 104.578125 16.363281 L 104.988281 16.363281 L 104.988281 17.15625 L 104.304688 17.15625 C 103.375 17.15625 103.003906 16.964844 103.003906 15.960938 L 103.003906 12.492188 L 102.078125 12.492188 L 102.078125 11.699219 L 103.003906 11.699219 L 103.003906 10.0625 L 103.902344 10.0625 Z M 103.902344 11.699219 " fill-opacity="1" fill-rule="nonzero"/><path fill="#ffffff" d="M 106.933594 10.714844 L 106.035156 10.714844 L 106.035156 9.621094 L 106.933594 9.621094 Z M 106.035156 11.699219 L 106.933594 11.699219 L 106.933594 17.15625 L 106.035156 17.15625 Z M 106.035156 11.699219 " fill-opacity="1" fill-rule="nonzero"/><path fill="#ffffff" d="M 110.679688 11.570312 C 112.40625 11.570312 113.324219 12.828125 113.324219 14.429688 C 113.324219 16.027344 112.40625 17.28125 110.679688 17.28125 C 108.949219 17.28125 108.03125 16.023438 108.03125 14.429688 C 108.03125 12.828125 108.949219 11.570312 110.679688 11.570312 Z M 110.679688 16.488281 C 111.617188 16.488281 112.375 15.75 112.375 14.429688 C 112.375 13.101562 111.617188 12.363281 110.679688 12.363281 C 109.738281 12.363281 108.980469 13.101562 108.980469 14.429688 C 108.980469 15.75 109.738281 16.488281 110.679688 16.488281 Z M 110.679688 16.488281 " fill-opacity="1" fill-rule="nonzero"/><path fill="#ffffff" d="M 114.382812 11.699219 L 115.226562 11.699219 L 115.226562 12.5625 L 115.25 12.5625 C 115.628906 11.886719 116.238281 11.570312 117.019531 11.570312 C 118.457031 11.570312 118.898438 12.394531 118.898438 13.566406 L 118.898438 17.15625 L 118 17.15625 L 118 13.460938 C 118 12.796875 117.582031 12.363281 116.894531 12.363281 C 115.808594 12.363281 115.28125 13.09375 115.28125 14.074219 L 115.28125 17.15625 L 114.382812 17.15625 Z M 114.382812 11.699219 " fill-opacity="1" fill-rule="nonzero"/><path fill="#ffffff" d="M 125.085938 17.132812 C 124.925781 17.226562 124.726562 17.28125 124.441406 17.28125 C 123.976562 17.28125 123.679688 17.027344 123.679688 16.4375 C 123.1875 17.015625 122.519531 17.28125 121.761719 17.28125 C 120.769531 17.28125 119.957031 16.839844 119.957031 15.75 C 119.957031 14.515625 120.875 14.253906 121.804688 14.074219 C 122.796875 13.882812 123.640625 13.945312 123.640625 13.269531 C 123.640625 12.492188 122.996094 12.363281 122.425781 12.363281 C 121.667969 12.363281 121.109375 12.597656 121.066406 13.398438 L 120.167969 13.398438 C 120.222656 12.046875 121.265625 11.574219 122.476562 11.574219 C 123.457031 11.574219 124.523438 11.792969 124.523438 13.070312 L 124.523438 15.878906 C 124.523438 16.300781 124.523438 16.488281 124.808594 16.488281 C 124.882812 16.488281 124.96875 16.480469 125.085938 16.4375 Z M 123.628906 14.335938 C 123.28125 14.589844 122.605469 14.601562 122.003906 14.707031 C 121.414062 14.8125 120.90625 15.023438 120.90625 15.6875 C 120.90625 16.277344 121.414062 16.488281 121.960938 16.488281 C 123.144531 16.488281 123.628906 15.75 123.628906 15.253906 Z M 123.628906 14.335938 " fill-opacity="1" fill-rule="nonzero"/><path fill="#ffffff" d="M 125.972656 9.621094 L 126.871094 9.621094 L 126.871094 17.152344 L 125.972656 17.152344 Z M 125.972656 9.621094 " fill-opacity="1" fill-rule="nonzero"/><path fill="#ffffff" d="M 73.152344 23.519531 C 75.546875 23.519531 76.761719 25.417969 76.761719 27.464844 C 76.761719 29.511719 75.546875 31.410156 73.152344 31.410156 C 70.757812 31.410156 69.546875 29.511719 69.546875 27.464844 C 69.546875 25.417969 70.757812 23.519531 73.152344 23.519531 Z M 73.152344 30.566406 C 74.988281 30.566406 75.757812 28.984375 75.757812 27.464844 C 75.757812 25.945312 74.988281 24.363281 73.152344 24.363281 C 71.316406 24.363281 70.546875 25.945312 70.546875 27.464844 C 70.546875 28.984375 71.316406 30.566406 73.152344 30.566406 Z M 73.152344 30.566406 " fill-opacity="1" fill-rule="nonzero"/><path fill="#ffffff" d="M 77.808594 25.777344 L 78.652344 25.777344 L 78.652344 26.925781 L 78.675781 26.925781 C 79.109375 26.050781 79.710938 25.621094 80.679688 25.652344 L 80.679688 26.601562 C 79.234375 26.601562 78.707031 27.421875 78.707031 28.804688 L 78.707031 31.234375 L 77.808594 31.234375 Z M 77.808594 25.777344 " fill-opacity="1" fill-rule="nonzero"/><path fill="#ffffff" d="M 85.765625 30.769531 C 85.765625 32.542969 84.953125 33.449219 83.234375 33.449219 C 82.210938 33.449219 81.03125 33.035156 80.976562 31.84375 L 81.875 31.84375 C 81.917969 32.5 82.699219 32.730469 83.289062 32.730469 C 84.460938 32.730469 84.921875 31.886719 84.921875 30.664062 L 84.921875 30.304688 L 84.902344 30.304688 C 84.605469 30.96875 83.890625 31.296875 83.203125 31.296875 C 81.578125 31.296875 80.765625 30.019531 80.765625 28.53125 C 80.765625 27.242188 81.398438 25.648438 83.285156 25.648438 C 83.972656 25.648438 84.585938 25.957031 84.914062 26.558594 L 84.921875 26.558594 L 84.921875 25.777344 L 85.765625 25.777344 Z M 84.878906 28.394531 C 84.878906 27.433594 84.460938 26.441406 83.332031 26.441406 C 82.179688 26.441406 81.714844 27.378906 81.714844 28.425781 C 81.714844 29.40625 82.074219 30.503906 83.257812 30.503906 C 84.4375 30.503906 84.878906 29.417969 84.878906 28.394531 Z M 84.878906 28.394531 " fill-opacity="1" fill-rule="nonzero"/><path fill="#ffffff" d="M 91.953125 31.210938 C 91.792969 31.304688 91.59375 31.359375 91.308594 31.359375 C 90.84375 31.359375 90.550781 31.105469 90.550781 30.515625 C 90.054688 31.09375 89.390625 31.359375 88.628906 31.359375 C 87.636719 31.359375 86.824219 30.917969 86.824219 29.828125 C 86.824219 28.59375 87.742188 28.332031 88.671875 28.152344 C 89.664062 27.960938 90.507812 28.023438 90.507812 27.347656 C 90.507812 26.570312 89.863281 26.441406 89.292969 26.441406 C 88.535156 26.441406 87.976562 26.675781 87.933594 27.476562 L 87.035156 27.476562 C 87.089844 26.125 88.132812 25.652344 89.347656 25.652344 C 90.328125 25.652344 91.394531 25.871094 91.394531 27.148438 L 91.394531 29.957031 C 91.394531 30.378906 91.394531 30.566406 91.675781 30.566406 C 91.75 30.566406 91.835938 30.558594 91.953125 30.515625 Z M 90.496094 28.414062 C 90.148438 28.667969 89.472656 28.679688 88.871094 28.785156 C 88.28125 28.890625 87.773438 29.101562 87.773438 29.765625 C 87.773438 30.355469 88.28125 30.566406 88.828125 30.566406 C 90.011719 30.566406 90.496094 29.828125 90.496094 29.332031 Z M 90.496094 28.414062 " fill-opacity="1" fill-rule="nonzero"/><path fill="#ffffff" d="M 92.789062 25.777344 L 93.632812 25.777344 L 93.632812 26.640625 L 93.652344 26.640625 C 94.03125 25.964844 94.644531 25.648438 95.425781 25.648438 C 96.859375 25.648438 97.304688 26.472656 97.304688 27.644531 L 97.304688 31.234375 L 96.40625 31.234375 L 96.40625 27.539062 C 96.40625 26.875 95.984375 26.441406 95.300781 26.441406 C 94.210938 26.441406 93.683594 27.171875 93.683594 28.152344 L 93.683594 31.234375 L 92.789062 31.234375 Z M 92.789062 25.777344 " fill-opacity="1" fill-rule="nonzero"/><path fill="#ffffff" d="M 99.605469 24.792969 L 98.710938 24.792969 L 98.710938 23.699219 L 99.605469 23.699219 Z M 98.710938 25.777344 L 99.605469 25.777344 L 99.605469 31.234375 L 98.710938 31.234375 Z M 98.710938 25.777344 " fill-opacity="1" fill-rule="nonzero"/><path fill="#ffffff" d="M 100.558594 30.546875 L 103.847656 26.570312 L 100.769531 26.570312 L 100.769531 25.777344 L 105.007812 25.777344 L 105.007812 26.390625 L 101.675781 30.441406 L 105.15625 30.441406 L 105.15625 31.234375 L 100.558594 31.234375 Z M 100.558594 30.546875 " fill-opacity="1" fill-rule="nonzero"/><path fill="#ffffff" d="M 110.898438 31.210938 C 110.738281 31.304688 110.539062 31.359375 110.253906 31.359375 C 109.789062 31.359375 109.496094 31.105469 109.496094 30.515625 C 109 31.09375 108.335938 31.359375 107.574219 31.359375 C 106.582031 31.359375 105.769531 30.917969 105.769531 29.828125 C 105.769531 28.59375 106.6875 28.332031 107.617188 28.152344 C 108.609375 27.960938 109.453125 28.023438 109.453125 27.347656 C 109.453125 26.570312 108.808594 26.441406 108.238281 26.441406 C 107.480469 26.441406 106.921875 26.675781 106.878906 27.476562 L 105.980469 27.476562 C 106.035156 26.125 107.078125 25.652344 108.292969 25.652344 C 109.273438 25.652344 110.339844 25.871094 110.339844 27.148438 L 110.339844 29.957031 C 110.339844 30.378906 110.339844 30.566406 110.625 30.566406 C 110.695312 30.566406 110.78125 30.558594 110.898438 30.515625 Z M 109.441406 28.414062 C 109.09375 28.667969 108.417969 28.679688 107.816406 28.785156 C 107.226562 28.890625 106.71875 29.101562 106.71875 29.765625 C 106.71875 30.355469 107.226562 30.566406 107.773438 30.566406 C 108.957031 30.566406 109.441406 29.828125 109.441406 29.332031 Z M 109.441406 28.414062 " fill-opacity="1" fill-rule="nonzero"/><path fill="#ffffff" d="M 112.980469 25.777344 L 114.066406 25.777344 L 114.066406 26.570312 L 112.980469 26.570312 L 112.980469 29.957031 C 112.980469 30.367188 113.09375 30.441406 113.65625 30.441406 L 114.066406 30.441406 L 114.066406 31.234375 L 113.382812 31.234375 C 112.453125 31.234375 112.082031 31.042969 112.082031 30.039062 L 112.082031 26.570312 L 111.15625 26.570312 L 111.15625 25.777344 L 112.082031 25.777344 L 112.082031 24.140625 L 112.980469 24.140625 Z M 112.980469 25.777344 " fill-opacity="1" fill-rule="nonzero"/><path fill="#ffffff" d="M 116.007812 24.792969 L 115.109375 24.792969 L 115.109375 23.699219 L 116.007812 23.699219 Z M 115.113281 25.777344 L 116.007812 25.777344 L 116.007812 31.234375 L 115.113281 31.234375 Z M 115.113281 25.777344 " fill-opacity="1" fill-rule="nonzero"/><path fill="#ffffff" d="M 119.753906 25.648438 C 121.484375 25.648438 122.402344 26.90625 122.402344 28.507812 C 122.402344 30.105469 121.484375 31.359375 119.753906 31.359375 C 118.023438 31.359375 117.105469 30.101562 117.105469 28.507812 C 117.105469 26.90625 118.023438 25.648438 119.753906 25.648438 Z M 119.753906 30.566406 C 120.695312 30.566406 121.453125 29.828125 121.453125 28.507812 C 121.453125 27.179688 120.695312 26.441406 119.753906 26.441406 C 118.816406 26.441406 118.054688 27.179688 118.054688 28.507812 C 118.054688 29.828125 118.816406 30.566406 119.753906 30.566406 Z M 119.753906 30.566406 " fill-opacity="1" fill-rule="nonzero"/><path fill="#ffffff" d="M 123.460938 25.777344 L 124.304688 25.777344 L 124.304688 26.640625 L 124.324219 26.640625 C 124.707031 25.964844 125.316406 25.648438 126.097656 25.648438 C 127.535156 25.648438 127.976562 26.472656 127.976562 27.644531 L 127.976562 31.234375 L 127.078125 31.234375 L 127.078125 27.539062 C 127.078125 26.875 126.65625 26.441406 125.972656 26.441406 C 124.886719 26.441406 124.359375 27.171875 124.359375 28.152344 L 124.359375 31.234375 L 123.460938 31.234375 Z M 123.460938 25.777344 " fill-opacity="1" fill-rule="nonzero"/><path fill="#ffffff" d="M 132.632812 26.570312 L 131.714844 26.570312 L 131.714844 25.777344 L 132.632812 25.777344 L 132.632812 24.964844 C 132.632812 24.078125 133.160156 23.613281 134.140625 23.613281 C 134.308594 23.613281 134.554688 23.644531 134.722656 23.699219 L 134.722656 24.480469 C 134.5625 24.425781 134.375 24.40625 134.214844 24.40625 C 133.78125 24.40625 133.53125 24.542969 133.53125 25.015625 L 133.53125 25.777344 L 134.585938 25.777344 L 134.585938 26.570312 L 133.53125 26.570312 L 133.53125 31.234375 L 132.632812 31.234375 Z M 132.632812 26.570312 " fill-opacity="1" fill-rule="nonzero"/><path fill="#ffffff" d="M 137.742188 25.648438 C 139.472656 25.648438 140.386719 26.90625 140.386719 28.507812 C 140.386719 30.105469 139.472656 31.359375 137.742188 31.359375 C 136.011719 31.359375 135.09375 30.101562 135.09375 28.507812 C 135.09375 26.90625 136.011719 25.648438 137.742188 25.648438 Z M 137.742188 30.566406 C 138.679688 30.566406 139.4375 29.828125 139.4375 28.507812 C 139.4375 27.179688 138.679688 26.441406 137.742188 26.441406 C 136.800781 26.441406 136.042969 27.179688 136.042969 28.507812 C 136.042969 29.828125 136.800781 30.566406 137.742188 30.566406 Z M 137.742188 30.566406 " fill-opacity="1" fill-rule="nonzero"/><path fill="#ffffff" d="M 141.414062 25.777344 L 142.257812 25.777344 L 142.257812 26.925781 L 142.28125 26.925781 C 142.710938 26.050781 143.3125 25.621094 144.285156 25.652344 L 144.285156 26.601562 C 142.839844 26.601562 142.3125 27.421875 142.3125 28.804688 L 142.3125 31.234375 L 141.414062 31.234375 Z M 141.414062 25.777344 " fill-opacity="1" fill-rule="nonzero"/><path fill="#ffffff" d="M 74.324219 39.980469 C 74.207031 38.90625 73.492188 38.441406 72.457031 38.441406 C 71.613281 38.441406 70.769531 38.746094 70.769531 39.726562 C 70.769531 40.65625 71.972656 40.792969 73.1875 41.066406 C 74.390625 41.34375 75.589844 41.765625 75.589844 43.242188 C 75.589844 44.847656 74.019531 45.492188 72.648438 45.492188 C 70.960938 45.492188 69.535156 44.667969 69.535156 42.832031 L 70.484375 42.832031 C 70.484375 44.097656 71.539062 44.648438 72.679688 44.648438 C 73.585938 44.648438 74.589844 44.363281 74.589844 43.273438 C 74.589844 42.238281 73.386719 42.0625 72.183594 41.796875 C 70.980469 41.53125 69.765625 41.183594 69.765625 39.800781 C 69.765625 38.273438 71.128906 37.597656 72.5 37.597656 C 74.039062 37.597656 75.210938 38.324219 75.273438 39.980469 Z M 74.324219 39.980469 " fill-opacity="1" fill-rule="nonzero"/><path fill="#ffffff" d="M 77.90625 39.855469 L 78.992188 39.855469 L 78.992188 40.648438 L 77.90625 40.648438 L 77.90625 44.035156 C 77.90625 44.445312 78.023438 44.519531 78.582031 44.519531 L 78.992188 44.519531 L 78.992188 45.3125 L 78.304688 45.3125 C 77.378906 45.3125 77.007812 45.121094 77.007812 44.117188 L 77.007812 40.648438 L 76.082031 40.648438 L 76.082031 39.855469 L 77.007812 39.855469 L 77.007812 38.21875 L 77.90625 38.21875 Z M 77.90625 39.855469 " fill-opacity="1" fill-rule="nonzero"/><path fill="#ffffff" d="M 84.816406 45.289062 C 84.660156 45.382812 84.457031 45.4375 84.171875 45.4375 C 83.710938 45.4375 83.414062 45.183594 83.414062 44.59375 C 82.917969 45.171875 82.253906 45.4375 81.492188 45.4375 C 80.503906 45.4375 79.6875 44.992188 79.6875 43.90625 C 79.6875 42.671875 80.609375 42.410156 81.535156 42.230469 C 82.527344 42.039062 83.371094 42.101562 83.371094 41.425781 C 83.371094 40.648438 82.726562 40.519531 82.160156 40.519531 C 81.398438 40.519531 80.839844 40.753906 80.796875 41.554688 L 79.902344 41.554688 C 79.953125 40.203125 80.996094 39.730469 82.210938 39.730469 C 83.191406 39.730469 84.257812 39.949219 84.257812 41.226562 L 84.257812 44.035156 C 84.257812 44.457031 84.257812 44.644531 84.542969 44.644531 C 84.613281 44.644531 84.699219 44.636719 84.816406 44.59375 Z M 83.359375 42.492188 C 83.011719 42.746094 82.335938 42.757812 81.734375 42.863281 C 81.144531 42.96875 80.636719 43.179688 80.636719 43.84375 C 80.636719 44.433594 81.144531 44.644531 81.691406 44.644531 C 82.875 44.644531 83.359375 43.90625 83.359375 43.410156 Z M 83.359375 42.492188 " fill-opacity="1" fill-rule="nonzero"/><path fill="#ffffff" d="M 85.652344 39.855469 L 86.496094 39.855469 L 86.496094 40.71875 L 86.515625 40.71875 C 86.898438 40.042969 87.507812 39.726562 88.289062 39.726562 C 89.726562 39.726562 90.167969 40.550781 90.167969 41.722656 L 90.167969 45.3125 L 89.269531 45.3125 L 89.269531 41.617188 C 89.269531 40.953125 88.851562 40.519531 88.164062 40.519531 C 87.078125 40.519531 86.550781 41.25 86.550781 42.230469 L 86.550781 45.3125 L 85.652344 45.3125 Z M 85.652344 39.855469 " fill-opacity="1" fill-rule="nonzero"/><path fill="#ffffff" d="M 96.394531 45.3125 L 95.5 45.3125 L 95.5 44.570312 L 95.476562 44.570312 C 95.183594 45.171875 94.484375 45.4375 93.738281 45.4375 C 92.058594 45.4375 91.226562 44.105469 91.226562 42.566406 C 91.226562 41.027344 92.050781 39.726562 93.714844 39.726562 C 94.273438 39.726562 95.078125 39.9375 95.476562 40.582031 L 95.5 40.582031 L 95.5 37.777344 L 96.394531 37.777344 Z M 93.863281 44.644531 C 95.066406 44.644531 95.53125 43.613281 95.53125 42.585938 C 95.53125 41.511719 95.046875 40.519531 93.8125 40.519531 C 92.585938 40.519531 92.175781 41.5625 92.175781 42.628906 C 92.175781 43.652344 92.703125 44.644531 93.863281 44.644531 Z M 93.863281 44.644531 " fill-opacity="1" fill-rule="nonzero"/><path fill="#ffffff" d="M 102.613281 45.289062 C 102.457031 45.382812 102.253906 45.4375 101.972656 45.4375 C 101.507812 45.4375 101.210938 45.183594 101.210938 44.59375 C 100.714844 45.171875 100.050781 45.4375 99.289062 45.4375 C 98.300781 45.4375 97.488281 44.992188 97.488281 43.90625 C 97.488281 42.671875 98.40625 42.410156 99.332031 42.230469 C 100.324219 42.039062 101.167969 42.101562 101.167969 41.425781 C 101.167969 40.648438 100.527344 40.519531 99.957031 40.519531 C 99.195312 40.519531 98.636719 40.753906 98.59375 41.554688 L 97.699219 41.554688 C 97.75 40.203125 98.792969 39.730469 100.007812 39.730469 C 100.988281 39.730469 102.054688 39.949219 102.054688 41.226562 L 102.054688 44.035156 C 102.054688 44.457031 102.054688 44.644531 102.339844 44.644531 C 102.414062 44.644531 102.496094 44.636719 102.613281 44.59375 Z M 101.15625 42.492188 C 100.808594 42.746094 100.132812 42.757812 99.53125 42.863281 C 98.941406 42.96875 98.433594 43.179688 98.433594 43.84375 C 98.433594 44.433594 98.941406 44.644531 99.492188 44.644531 C 100.671875 44.644531 101.15625 43.90625 101.15625 43.410156 Z M 101.15625 42.492188 " fill-opacity="1" fill-rule="nonzero"/><path fill="#ffffff" d="M 103.417969 39.855469 L 104.261719 39.855469 L 104.261719 41.003906 L 104.285156 41.003906 C 104.714844 40.128906 105.316406 39.695312 106.289062 39.730469 L 106.289062 40.679688 C 104.839844 40.679688 104.316406 41.5 104.316406 42.882812 L 104.316406 45.3125 L 103.417969 45.3125 Z M 103.417969 39.855469 " fill-opacity="1" fill-rule="nonzero"/><path fill="#ffffff" d="M 111.648438 45.3125 L 110.75 45.3125 L 110.75 44.570312 L 110.730469 44.570312 C 110.4375 45.171875 109.738281 45.4375 108.988281 45.4375 C 107.3125 45.4375 106.480469 44.105469 106.480469 42.566406 C 106.480469 41.027344 107.304688 39.726562 108.96875 39.726562 C 109.527344 39.726562 110.332031 39.9375 110.730469 40.582031 L 110.75 40.582031 L 110.75 37.777344 L 111.648438 37.777344 Z M 109.117188 44.644531 C 110.320312 44.644531 110.785156 43.613281 110.785156 42.585938 C 110.785156 41.511719 110.300781 40.519531 109.066406 40.519531 C 107.839844 40.519531 107.429688 41.5625 107.429688 42.628906 C 107.429688 43.652344 107.957031 44.644531 109.117188 44.644531 Z M 109.117188 44.644531 " fill-opacity="1" fill-rule="nonzero"/><path fill="#ffffff" d="M 113.984375 38.871094 L 113.085938 38.871094 L 113.085938 37.777344 L 113.984375 37.777344 Z M 113.085938 39.855469 L 113.984375 39.855469 L 113.984375 45.3125 L 113.085938 45.3125 Z M 113.085938 39.855469 " fill-opacity="1" fill-rule="nonzero"/><path fill="#ffffff" d="M 114.933594 44.625 L 118.226562 40.648438 L 115.144531 40.648438 L 115.144531 39.855469 L 119.386719 39.855469 L 119.386719 40.46875 L 116.050781 44.519531 L 119.535156 44.519531 L 119.535156 45.3125 L 114.933594 45.3125 Z M 114.933594 44.625 " fill-opacity="1" fill-rule="nonzero"/><path fill="#ffffff" d="M 125.277344 45.289062 C 125.117188 45.382812 124.917969 45.4375 124.632812 45.4375 C 124.167969 45.4375 123.871094 45.183594 123.871094 44.59375 C 123.378906 45.171875 122.710938 45.4375 121.953125 45.4375 C 120.960938 45.4375 120.148438 44.992188 120.148438 43.90625 C 120.148438 42.671875 121.066406 42.410156 121.996094 42.230469 C 122.988281 42.039062 123.832031 42.101562 123.832031 41.425781 C 123.832031 40.648438 123.1875 40.519531 122.617188 40.519531 C 121.859375 40.519531 121.300781 40.753906 121.257812 41.554688 L 120.359375 41.554688 C 120.414062 40.203125 121.457031 39.730469 122.667969 39.730469 C 123.652344 39.730469 124.714844 39.949219 124.714844 41.226562 L 124.714844 44.035156 C 124.714844 44.457031 124.714844 44.644531 125 44.644531 C 125.074219 44.644531 125.160156 44.636719 125.277344 44.59375 Z M 123.820312 42.492188 C 123.472656 42.746094 122.796875 42.757812 122.195312 42.863281 C 121.605469 42.96875 121.097656 43.179688 121.097656 43.84375 C 121.097656 44.433594 121.605469 44.644531 122.152344 44.644531 C 123.335938 44.644531 123.820312 43.90625 123.820312 43.410156 Z M 123.820312 42.492188 " fill-opacity="1" fill-rule="nonzero"/><path fill="#ffffff" d="M 127.355469 39.855469 L 128.445312 39.855469 L 128.445312 40.648438 L 127.355469 40.648438 L 127.355469 44.035156 C 127.355469 44.445312 127.472656 44.519531 128.03125 44.519531 L 128.445312 44.519531 L 128.445312 45.3125 L 127.757812 45.3125 C 126.832031 45.3125 126.460938 45.121094 126.460938 44.117188 L 126.460938 40.648438 L 125.53125 40.648438 L 125.53125 39.855469 L 126.460938 39.855469 L 126.460938 38.21875 L 127.359375 38.21875 L 127.359375 39.855469 Z M 127.355469 39.855469 " fill-opacity="1" fill-rule="nonzero"/><path fill="#ffffff" d="M 130.386719 38.871094 L 129.488281 38.871094 L 129.488281 37.777344 L 130.386719 37.777344 Z M 129.488281 39.855469 L 130.386719 39.855469 L 130.386719 45.3125 L 129.488281 45.3125 Z M 129.488281 39.855469 " fill-opacity="1" fill-rule="nonzero"/><path fill="#ffffff" d="M 134.132812 39.726562 C 135.863281 39.726562 136.78125 40.984375 136.78125 42.585938 C 136.78125 44.183594 135.863281 45.4375 134.132812 45.4375 C 132.402344 45.4375 131.484375 44.179688 131.484375 42.585938 C 131.484375 40.984375 132.40625 39.726562 134.132812 39.726562 Z M 134.132812 44.644531 C 135.070312 44.644531 135.832031 43.90625 135.832031 42.585938 C 135.832031 41.257812 135.074219 40.519531 134.132812 40.519531 C 133.195312 40.519531 132.433594 41.257812 132.433594 42.585938 C 132.433594 43.90625 133.195312 44.644531 134.132812 44.644531 Z M 134.132812 44.644531 " fill-opacity="1" fill-rule="nonzero"/><path fill="#ffffff" d="M 137.839844 39.855469 L 138.683594 39.855469 L 138.683594 40.71875 L 138.703125 40.71875 C 139.085938 40.042969 139.695312 39.726562 140.476562 39.726562 C 141.910156 39.726562 142.355469 40.550781 142.355469 41.722656 L 142.355469 45.3125 L 141.457031 45.3125 L 141.457031 41.617188 C 141.457031 40.953125 141.035156 40.519531 140.351562 40.519531 C 139.261719 40.519531 138.734375 41.25 138.734375 42.230469 L 138.734375 45.3125 L 137.839844 45.3125 Z M 137.839844 39.855469 " fill-opacity="1" fill-rule="nonzero"/></svg>