<svg xmlns="http://www.w3.org/2000/svg" xmlns:xlink="http://www.w3.org/1999/xlink" width="190" zoomAndPan="magnify" viewBox="0 0 142.5 36.000001" height="48" preserveAspectRatio="xMidYMid meet" version="1.0"><defs><g><g id="id1"/></g><clipPath id="id2"><path d="M 24.660156 0 L 54.867188 0 L 54.867188 30 L 24.660156 30 Z M 24.660156 0 " clip-rule="nonzero"/></clipPath><clipPath id="id3"><path d="M 34 26 L 45 26 L 45 35.027344 L 34 35.027344 Z M 34 26 " clip-rule="nonzero"/></clipPath></defs><g clip-path="url(#id2)"><path fill="rgb(100%, 100%, 100%)" d="M 29.496094 29.160156 L 29.496094 11.648438 L 39.765625 5.695312 L 50.03125 11.648438 L 50.03125 23.554688 L 44.597656 26.703125 L 49.433594 29.507812 L 54.867188 26.359375 L 54.867188 8.847656 L 47.3125 4.464844 L 39.765625 0.0898438 L 32.210938 4.464844 L 24.660156 8.847656 L 24.660156 26.359375 Z M 29.496094 29.160156 " fill-opacity="1" fill-rule="evenodd"/></g><g clip-path="url(#id3)"><path fill="rgb(15.289307%, 66.268921%, 87.838745%)" d="M 34.332031 26.359375 L 34.332031 31.964844 L 39.765625 35.113281 L 44.597656 32.3125 L 39.765625 29.507812 Z M 34.332031 26.359375 " fill-opacity="1" fill-rule="evenodd"/></g><path fill="rgb(15.289307%, 66.268921%, 87.838745%)" d="M 34.332031 20.75 L 38.277344 23.039062 L 39.765625 23.902344 L 45.199219 20.75 L 45.199219 14.453125 L 39.765625 11.304688 L 34.332031 14.453125 Z M 34.332031 20.75 " fill-opacity="1" fill-rule="evenodd"/><path fill="rgb(39.219666%, 78.819275%, 95.289612%)" d="M 39.765625 17.601562 L 45.199219 14.453125 L 39.765625 11.304688 L 34.332031 14.453125 Z M 39.765625 17.601562 " fill-opacity="1" fill-rule="evenodd"/><path fill="rgb(16.468811%, 49.798584%, 73.728943%)" d="M 45.199219 14.453125 L 39.765625 17.601562 L 39.765625 23.902344 L 45.199219 20.75 Z M 45.199219 14.453125 " fill-opacity="1" fill-rule="evenodd"/><g fill="rgb(100%, 100%, 100%)" fill-opacity="1"><g transform="translate(61.476789, 17.417795)"><g><path d="M 3.5625 -3.046875 C 3.4375 -3.046875 3.304688 -3.046875 3.171875 -3.046875 C 3.035156 -3.046875 2.835938 -3.054688 2.578125 -3.078125 L 2.578125 0 L 1.015625 0 L 1.015625 -7.890625 C 1.566406 -7.960938 2.242188 -8 3.046875 -8 C 4.140625 -8 4.953125 -7.796875 5.484375 -7.390625 C 6.023438 -6.992188 6.296875 -6.375 6.296875 -5.53125 C 6.296875 -4.875 6.050781 -4.3125 5.5625 -3.84375 C 5.40625 -3.695312 5.21875 -3.566406 5 -3.453125 L 6.21875 -0.921875 C 6.445312 -0.398438 6.625 -0.0859375 6.75 0.015625 L 6.71875 0.046875 C 6.34375 -0.015625 5.742188 -0.015625 4.921875 0.046875 Z M 3.15625 -6.609375 C 2.957031 -6.609375 2.765625 -6.597656 2.578125 -6.578125 L 2.578125 -4.328125 C 2.773438 -4.296875 3.003906 -4.28125 3.265625 -4.28125 C 3.523438 -4.28125 3.742188 -4.300781 3.921875 -4.34375 C 4.097656 -4.394531 4.25 -4.46875 4.375 -4.5625 C 4.65625 -4.769531 4.796875 -5.082031 4.796875 -5.5 C 4.796875 -5.914062 4.648438 -6.207031 4.359375 -6.375 C 4.085938 -6.53125 3.6875 -6.609375 3.15625 -6.609375 Z M 3.15625 -6.609375 "/></g></g></g><g fill="rgb(100%, 100%, 100%)" fill-opacity="1"><g transform="translate(69.0302, 17.417795)"><g><path d="M 4.96875 -1.421875 C 5.207031 -1.421875 5.375 -1.441406 5.46875 -1.484375 L 5.5 -1.484375 L 5.4375 0 L 1.015625 0 L 1.015625 -7.890625 C 1.117188 -7.890625 1.238281 -7.882812 1.375 -7.875 L 1.78125 -7.859375 C 2.0625 -7.859375 2.363281 -7.859375 2.6875 -7.859375 C 3.582031 -7.859375 4.472656 -7.875 5.359375 -7.90625 C 5.316406 -7.550781 5.296875 -7.085938 5.296875 -6.515625 C 5.296875 -6.453125 5.296875 -6.40625 5.296875 -6.375 L 5.296875 -6.359375 C 5.085938 -6.410156 4.796875 -6.4375 4.421875 -6.4375 L 2.5625 -6.4375 L 2.5625 -4.9375 L 3.953125 -4.9375 C 4.390625 -4.9375 4.648438 -4.945312 4.734375 -4.96875 L 4.75 -3.515625 C 4.5625 -3.535156 4.316406 -3.546875 4.015625 -3.546875 L 2.5625 -3.546875 L 2.5625 -1.421875 Z M 4.96875 -1.421875 "/></g></g></g><g fill="rgb(100%, 100%, 100%)" fill-opacity="1"><g transform="translate(75.597406, 17.417795)"><g><path d="M 3.828125 0.03125 C 3.710938 0.0078125 3.507812 0 3.21875 0 L 2.546875 0 C 2.410156 0 2.296875 0.00390625 2.203125 0.015625 L 2.203125 0 C 2.210938 -0.03125 2.21875 -0.0625 2.21875 -0.09375 C 2.21875 -0.125 2.210938 -0.160156 2.203125 -0.203125 C 2.203125 -0.242188 2.1875 -0.316406 2.15625 -0.421875 C 2.132812 -0.523438 2.101562 -0.671875 2.0625 -0.859375 L 0.046875 -7.875 C 0.296875 -7.863281 0.597656 -7.859375 0.953125 -7.859375 C 1.316406 -7.859375 1.550781 -7.875 1.65625 -7.90625 L 3.046875 -2.5625 L 4.40625 -7.875 C 4.46875 -7.875 4.523438 -7.867188 4.578125 -7.859375 L 4.703125 -7.859375 C 4.828125 -7.859375 4.988281 -7.859375 5.1875 -7.859375 C 5.382812 -7.859375 5.585938 -7.875 5.796875 -7.90625 L 7.1875 -2.5625 L 8.375 -7.875 C 8.601562 -7.863281 8.910156 -7.859375 9.296875 -7.859375 C 9.679688 -7.859375 9.910156 -7.875 9.984375 -7.90625 L 8.296875 -1.671875 C 8.078125 -0.953125 7.960938 -0.523438 7.953125 -0.390625 C 7.941406 -0.253906 7.9375 -0.160156 7.9375 -0.109375 C 7.9375 -0.0664062 7.941406 -0.03125 7.953125 0 L 7.9375 0.03125 C 7.8125 0.0078125 7.613281 0 7.34375 0 C 7.101562 0 6.882812 0 6.6875 0 C 6.5 0 6.363281 0.00390625 6.28125 0.015625 L 6.28125 0 C 6.289062 -0.03125 6.296875 -0.0625 6.296875 -0.09375 C 6.296875 -0.125 6.289062 -0.15625 6.28125 -0.1875 C 6.28125 -0.226562 6.269531 -0.300781 6.25 -0.40625 C 6.238281 -0.507812 6.210938 -0.65625 6.171875 -0.84375 L 6.015625 -1.65625 L 5.046875 -5.328125 L 4.125 -1.671875 C 3.9375 -0.921875 3.835938 -0.488281 3.828125 -0.375 C 3.816406 -0.15625 3.820312 -0.03125 3.84375 0 Z M 3.828125 0.03125 "/></g></g></g><g fill="rgb(100%, 100%, 100%)" fill-opacity="1"><g transform="translate(86.203896, 17.417795)"><g><path d="M 1.59375 0.046875 C 1.25 0.015625 0.851562 0 0.40625 0 L -0.0625 0 L 2.5 -7.203125 C 2.613281 -7.523438 2.671875 -7.710938 2.671875 -7.765625 C 2.671875 -7.816406 2.671875 -7.847656 2.671875 -7.859375 L 2.671875 -7.875 C 2.929688 -7.863281 3.203125 -7.859375 3.484375 -7.859375 C 3.722656 -7.859375 4.007812 -7.859375 4.34375 -7.859375 C 4.332031 -7.835938 4.328125 -7.8125 4.328125 -7.78125 C 4.328125 -7.707031 4.390625 -7.507812 4.515625 -7.1875 L 7.140625 0.015625 C 7.054688 0.015625 6.960938 0.015625 6.859375 0.015625 C 6.859375 0.015625 6.753906 0.0078125 6.546875 0 C 6.453125 0 6.363281 0 6.28125 0 L 5.375 0 L 4.8125 -1.703125 L 2.140625 -1.703125 Z M 4.359375 -3.125 L 3.453125 -5.859375 L 2.59375 -3.125 Z M 4.359375 -3.125 "/></g></g></g><g fill="rgb(100%, 100%, 100%)" fill-opacity="1"><g transform="translate(93.780928, 17.417795)"><g><path d="M 3.5625 -3.046875 C 3.4375 -3.046875 3.304688 -3.046875 3.171875 -3.046875 C 3.035156 -3.046875 2.835938 -3.054688 2.578125 -3.078125 L 2.578125 0 L 1.015625 0 L 1.015625 -7.890625 C 1.566406 -7.960938 2.242188 -8 3.046875 -8 C 4.140625 -8 4.953125 -7.796875 5.484375 -7.390625 C 6.023438 -6.992188 6.296875 -6.375 6.296875 -5.53125 C 6.296875 -4.875 6.050781 -4.3125 5.5625 -3.84375 C 5.40625 -3.695312 5.21875 -3.566406 5 -3.453125 L 6.21875 -0.921875 C 6.445312 -0.398438 6.625 -0.0859375 6.75 0.015625 L 6.71875 0.046875 C 6.34375 -0.015625 5.742188 -0.015625 4.921875 0.046875 Z M 3.15625 -6.609375 C 2.957031 -6.609375 2.765625 -6.597656 2.578125 -6.578125 L 2.578125 -4.328125 C 2.773438 -4.296875 3.003906 -4.28125 3.265625 -4.28125 C 3.523438 -4.28125 3.742188 -4.300781 3.921875 -4.34375 C 4.097656 -4.394531 4.25 -4.46875 4.375 -4.5625 C 4.65625 -4.769531 4.796875 -5.082031 4.796875 -5.5 C 4.796875 -5.914062 4.648438 -6.207031 4.359375 -6.375 C 4.085938 -6.53125 3.6875 -6.609375 3.15625 -6.609375 Z M 3.15625 -6.609375 "/></g></g></g><g fill="rgb(100%, 100%, 100%)" fill-opacity="1"><g transform="translate(101.334338, 17.417795)"><g><path d="M 2.921875 0.140625 C 2.285156 0.140625 1.6875 0.09375 1.125 0 L 1.125 -7.90625 C 1.644531 -7.96875 2.25 -8 2.9375 -8 C 3.625 -8 4.242188 -7.90625 4.796875 -7.71875 C 5.359375 -7.53125 5.828125 -7.265625 6.203125 -6.921875 C 6.953125 -6.222656 7.328125 -5.253906 7.328125 -4.015625 C 7.328125 -2.609375 6.910156 -1.546875 6.078125 -0.828125 C 5.316406 -0.179688 4.265625 0.140625 2.921875 0.140625 Z M 2.65625 -1.296875 C 2.914062 -1.242188 3.171875 -1.21875 3.421875 -1.21875 C 3.679688 -1.21875 3.957031 -1.269531 4.25 -1.375 C 4.550781 -1.476562 4.8125 -1.632812 5.03125 -1.84375 C 5.488281 -2.289062 5.71875 -2.941406 5.71875 -3.796875 C 5.71875 -5.210938 5.207031 -6.082031 4.1875 -6.40625 C 3.84375 -6.507812 3.445312 -6.5625 3 -6.5625 L 2.84375 -6.5625 C 2.78125 -6.5625 2.71875 -6.5625 2.65625 -6.5625 Z M 2.65625 -1.296875 "/></g></g></g><g fill="rgb(100%, 100%, 100%)" fill-opacity="1"><g transform="translate(109.897566, 17.417795)"><g><path d="M 5.75 -7.421875 L 5.640625 -5.6875 L 5.609375 -5.671875 C 5.316406 -6.109375 4.816406 -6.390625 4.109375 -6.515625 C 3.890625 -6.554688 3.675781 -6.578125 3.46875 -6.578125 C 3.269531 -6.578125 3.097656 -6.5625 2.953125 -6.53125 C 2.816406 -6.5 2.695312 -6.445312 2.59375 -6.375 C 2.375 -6.238281 2.265625 -6.054688 2.265625 -5.828125 C 2.265625 -5.523438 2.359375 -5.300781 2.546875 -5.15625 C 2.785156 -4.96875 3.175781 -4.835938 3.71875 -4.765625 C 4.269531 -4.691406 4.707031 -4.59375 5.03125 -4.46875 C 5.363281 -4.34375 5.640625 -4.179688 5.859375 -3.984375 C 6.253906 -3.628906 6.453125 -3.117188 6.453125 -2.453125 C 6.453125 -1.585938 6.128906 -0.921875 5.484375 -0.453125 C 4.921875 -0.0546875 4.210938 0.140625 3.359375 0.140625 C 2.679688 0.140625 2.003906 0.015625 1.328125 -0.234375 C 1.109375 -0.328125 0.914062 -0.429688 0.75 -0.546875 L 0.828125 -2.515625 L 0.84375 -2.53125 C 1.332031 -1.6875 2.132812 -1.265625 3.25 -1.265625 C 4.039062 -1.265625 4.5625 -1.457031 4.8125 -1.84375 C 4.90625 -1.96875 4.953125 -2.109375 4.953125 -2.265625 C 4.953125 -2.429688 4.925781 -2.566406 4.875 -2.671875 C 4.820312 -2.773438 4.738281 -2.863281 4.625 -2.9375 C 4.394531 -3.09375 4.007812 -3.191406 3.46875 -3.234375 C 2.925781 -3.285156 2.484375 -3.382812 2.140625 -3.53125 C 1.796875 -3.675781 1.523438 -3.851562 1.328125 -4.0625 C 0.953125 -4.4375 0.765625 -4.960938 0.765625 -5.640625 C 0.765625 -6.335938 1.007812 -6.90625 1.5 -7.34375 C 2 -7.78125 2.671875 -8 3.515625 -8 C 4.367188 -8 5.113281 -7.804688 5.75 -7.421875 Z M 5.75 -7.421875 "/></g></g></g><g fill="rgb(100%, 100%, 100%)" fill-opacity="1"><g transform="translate(61.582205, 28.08142)"><g><path d="M 1.0625 0 C 1.09375 -0.132812 1.109375 -0.28125 1.109375 -0.4375 L 1.109375 -7.859375 L 2.28125 -7.859375 L 5.421875 -2.921875 L 5.421875 -7.453125 C 5.421875 -7.671875 5.398438 -7.804688 5.359375 -7.859375 L 6.953125 -7.859375 C 6.929688 -7.703125 6.921875 -7.523438 6.921875 -7.328125 L 6.921875 0 L 5.6875 0 L 2.609375 -4.734375 L 2.609375 0 Z M 1.0625 0 "/></g></g></g><g fill="rgb(100%, 100%, 100%)" fill-opacity="1"><g transform="translate(70.11591, 28.08142)"><g><path d="M 1.59375 0.046875 C 1.25 0.015625 0.851562 0 0.40625 0 L -0.0625 0 L 2.5 -7.203125 C 2.613281 -7.523438 2.671875 -7.710938 2.671875 -7.765625 C 2.671875 -7.816406 2.671875 -7.847656 2.671875 -7.859375 L 2.671875 -7.875 C 2.929688 -7.863281 3.203125 -7.859375 3.484375 -7.859375 C 3.722656 -7.859375 4.007812 -7.859375 4.34375 -7.859375 C 4.332031 -7.835938 4.328125 -7.8125 4.328125 -7.78125 C 4.328125 -7.707031 4.390625 -7.507812 4.515625 -7.1875 L 7.140625 0.015625 C 7.054688 0.015625 6.960938 0.015625 6.859375 0.015625 C 6.859375 0.015625 6.753906 0.0078125 6.546875 0 C 6.453125 0 6.363281 0 6.28125 0 L 5.375 0 L 4.8125 -1.703125 L 2.140625 -1.703125 Z M 4.359375 -3.125 L 3.453125 -5.859375 L 2.59375 -3.125 Z M 4.359375 -3.125 "/></g></g></g><g fill="rgb(100%, 100%, 100%)" fill-opacity="1"><g transform="translate(77.692942, 28.08142)"><g><path d="M 3.84375 0.03125 C 3.65625 0.0078125 3.171875 0 2.390625 0 L 2.203125 0 L 2.203125 -6.53125 L 1.03125 -6.53125 C 0.6875 -6.53125 0.484375 -6.507812 0.421875 -6.46875 C 0.359375 -6.4375 0.304688 -6.410156 0.265625 -6.390625 L 0.25 -6.390625 L 0.25 -7.90625 L 0.265625 -7.921875 C 0.398438 -7.878906 0.753906 -7.859375 1.328125 -7.859375 L 5.03125 -7.859375 C 5.375 -7.859375 5.578125 -7.875 5.640625 -7.90625 C 5.703125 -7.9375 5.75 -7.96875 5.78125 -8 L 5.8125 -8 L 5.8125 -6.484375 L 5.78125 -6.46875 C 5.65625 -6.507812 5.304688 -6.53125 4.734375 -6.53125 L 3.84375 -6.53125 Z M 3.84375 0.03125 "/></g></g></g><g fill="rgb(100%, 100%, 100%)" fill-opacity="1"><g transform="translate(84.260149, 28.08142)"><g><path d="M 1.203125 -7.875 C 1.597656 -7.863281 1.832031 -7.859375 1.90625 -7.859375 L 2.34375 -7.859375 C 2.550781 -7.859375 2.71875 -7.875 2.84375 -7.90625 L 2.828125 0 L 1.203125 0 Z M 1.203125 -7.875 "/></g></g></g><g fill="rgb(100%, 100%, 100%)" fill-opacity="1"><g transform="translate(88.807712, 28.08142)"><g><path d="M 1.65625 -0.9375 C 1.300781 -1.28125 1.019531 -1.691406 0.8125 -2.171875 C 0.601562 -2.648438 0.5 -3.175781 0.5 -3.75 C 0.5 -4.320312 0.59375 -4.863281 0.78125 -5.375 C 0.976562 -5.882812 1.253906 -6.332031 1.609375 -6.71875 C 1.972656 -7.113281 2.40625 -7.425781 2.90625 -7.65625 C 3.414062 -7.882812 3.988281 -8 4.625 -8 C 5.707031 -8 6.625 -7.65625 7.375 -6.96875 C 8.164062 -6.238281 8.5625 -5.253906 8.5625 -4.015625 C 8.5625 -2.804688 8.148438 -1.800781 7.328125 -1 C 6.828125 -0.507812 6.226562 -0.171875 5.53125 0.015625 C 5.1875 0.0976562 4.785156 0.140625 4.328125 0.140625 C 3.867188 0.140625 3.398438 0.046875 2.921875 -0.140625 C 2.441406 -0.328125 2.019531 -0.59375 1.65625 -0.9375 Z M 2.140625 -3.828125 C 2.140625 -3.460938 2.203125 -3.125 2.328125 -2.8125 C 2.453125 -2.507812 2.617188 -2.25 2.828125 -2.03125 C 3.296875 -1.5625 3.890625 -1.328125 4.609375 -1.328125 C 5.296875 -1.328125 5.847656 -1.550781 6.265625 -2 C 6.691406 -2.457031 6.90625 -3.082031 6.90625 -3.875 C 6.90625 -4.625 6.703125 -5.25 6.296875 -5.75 C 5.859375 -6.289062 5.257812 -6.5625 4.5 -6.5625 C 3.769531 -6.5625 3.1875 -6.285156 2.75 -5.734375 C 2.34375 -5.234375 2.140625 -4.597656 2.140625 -3.828125 Z M 2.140625 -3.828125 "/></g></g></g><g fill="rgb(100%, 100%, 100%)" fill-opacity="1"><g transform="translate(98.380764, 28.08142)"><g><path d="M 1.0625 0 C 1.09375 -0.132812 1.109375 -0.28125 1.109375 -0.4375 L 1.109375 -7.859375 L 2.28125 -7.859375 L 5.421875 -2.921875 L 5.421875 -7.453125 C 5.421875 -7.671875 5.398438 -7.804688 5.359375 -7.859375 L 6.953125 -7.859375 C 6.929688 -7.703125 6.921875 -7.523438 6.921875 -7.328125 L 6.921875 0 L 5.6875 0 L 2.609375 -4.734375 L 2.609375 0 Z M 1.0625 0 "/></g></g></g></svg>