<svg class="d-block" width="56" height="56" viewBox="0 0 56 56"
                        fill="none" xmlns="http://www.w3.org/2000/svg">
                        <rect width="56" height="56" rx="12" fill="#ffb535" fill-opacity="0.2">
                        </rect>
                        <g filter="url(#filter0_d_729_147350)">
                            <path fill-rule="evenodd" clip-rule="evenodd"
                                d="M38.3224 29.6924C38.7573 29.2364 39 28.6304 39 28.0002C39 27.3699 38.7573 26.7639 38.3224 26.3079L37.8392 25.8004C37.7373 25.6935 37.6638 25.5628 37.6256 25.4201C37.5875 25.2775 37.5858 25.1275 37.6208 24.9841L37.785 24.3053C37.9343 23.6926 37.8417 23.0459 37.5263 22.4998C37.211 21.9537 36.6973 21.5502 36.092 21.3733L35.4219 21.1761C35.2798 21.1349 35.1505 21.0585 35.0458 20.954C34.9411 20.8494 34.8646 20.7202 34.8232 20.5782L34.6268 19.908C34.4503 19.3019 34.0466 18.7874 33.4998 18.472C32.953 18.1565 32.3055 18.0644 31.6925 18.215L31.0137 18.3792C30.8701 18.4145 30.7198 18.4129 30.577 18.3745C30.4342 18.3362 30.3033 18.2624 30.1966 18.16L29.6899 17.6776C29.2338 17.2427 28.6278 17 27.9976 17C27.3674 17 26.7614 17.2427 26.3054 17.6776L25.7979 18.1608C25.6908 18.2623 25.56 18.3354 25.4174 18.3735C25.2749 18.4117 25.1251 18.4136 24.9816 18.3792L24.3075 18.215C23.6946 18.0656 23.0476 18.1582 22.5011 18.4735C21.9546 18.7888 21.5507 19.3026 21.3732 19.908L21.176 20.5782C21.1348 20.7202 21.0584 20.8496 20.9539 20.9543C20.8494 21.0589 20.7201 21.1355 20.5781 21.1768L19.908 21.3733C19.3022 21.5502 18.7881 21.9541 18.4727 22.5007C18.1573 23.0474 18.065 23.6946 18.215 24.3076L18.3792 24.9864C18.4141 25.1301 18.4124 25.2802 18.3741 25.423C18.3358 25.5658 18.2621 25.6966 18.16 25.8035L17.6776 26.3102C17.2426 26.7663 17 27.3723 17 28.0025C17 28.6327 17.2426 29.2387 17.6776 29.6948L18.1608 30.2023C18.2627 30.3091 18.3362 30.4399 18.3744 30.5825C18.4125 30.7252 18.4142 30.8751 18.3792 31.0186L18.215 31.6974C18.0664 32.3097 18.1594 32.9558 18.4746 33.5014C18.7899 34.0469 19.3033 34.4501 19.908 34.627L20.5781 34.8242C20.7202 34.8654 20.8495 34.9418 20.9542 35.0463C21.0588 35.1509 21.1354 35.2801 21.1768 35.4221L21.374 36.0931C21.5504 36.6989 21.9541 37.2133 22.5008 37.5286C23.0474 37.8439 23.6947 37.9359 24.3075 37.7853L24.9863 37.6211C25.13 37.5862 25.2801 37.588 25.4229 37.6263C25.5656 37.6646 25.6965 37.7382 25.8034 37.8403L26.3101 38.3227C26.7662 38.7575 27.3722 39 28.0024 39C28.6325 39 29.2385 38.7575 29.6946 38.3227L30.2021 37.8395C30.3088 37.7374 30.4396 37.6639 30.5823 37.6257C30.7249 37.5875 30.8749 37.586 31.0184 37.6211L31.6972 37.7853C32.3095 37.9337 32.9555 37.8406 33.501 37.5254C34.0465 37.2101 34.4497 36.6969 34.6268 36.0923L34.824 35.4221C34.8652 35.2801 34.9416 35.1507 35.0461 35.0461C35.1506 34.9414 35.2799 34.8648 35.4219 34.8235L36.0928 34.6263C36.6982 34.4491 37.212 34.0453 37.5273 33.4989C37.8425 32.9524 37.9348 32.3055 37.785 31.6927L37.6208 31.0139C37.5859 30.8702 37.5876 30.7201 37.6259 30.5773C37.6642 30.4345 37.7379 30.3037 37.84 30.1968L38.3224 29.6924ZM32.3735 25.9571C32.764 25.5666 32.764 24.9334 32.3735 24.5429C31.9829 24.1524 31.3498 24.1524 30.9593 24.5429L26.1664 29.3358L25.0401 28.2096C24.6496 27.819 24.0164 27.819 23.6259 28.2096C23.2354 28.6001 23.2354 29.2332 23.6259 29.6238L24.7521 30.75C25.5332 31.531 26.7995 31.531 27.5806 30.75L32.3735 25.9571Z"
                                fill="#ffb535" ></path>
                        </g>
                        <defs >
                            <filter id="filter0_d_729_147350" x="13" y="17" width="30" height="30"
                                filterUnits="userSpaceOnUse" color-interpolation-filters="sRGB" >
                                <feFlood flood-opacity="0" result="BackgroundImageFix" ></feFlood>
                                <feColorMatrix in="SourceAlpha" type="matrix"
                                    values="0 0 0 0 0 0 0 0 0 0 0 0 0 0 0 0 0 0 127 0" result="hardAlpha"
                                    ></feColorMatrix>
                                <feOffset dy="4" ></feOffset>
                                <feGaussianBlur stdDeviation="2" ></feGaussianBlur>
                                <feComposite in2="hardAlpha" operator="out" ></feComposite>
                                <feColorMatrix type="matrix" values="0 0 0 0 0 0 0 0 0 0 0 0 0 0 0 0 0 0 0.25 0"
                                    >
                                </feColorMatrix>
                                <feBlend mode="normal" in2="BackgroundImageFix" result="effect1_dropShadow_729_147350"
                                    ></feBlend>
                                <feBlend mode="normal" in="SourceGraphic" in2="effect1_dropShadow_729_147350"
                                    result="shape" ></feBlend>
                            </filter>
                        </defs>
                    </svg>