<svg width="18" height="16" viewBox="0 0 18 16" fill="none" xmlns="http://www.w3.org/2000/svg">
                                    <path d="M13.1248 5.13612C10.7036 5.13612 8.24954 4.27304 8.24954 2.63056C8.24954 0.988085 10.7036 0.125 13.1248 0.125C15.546 0.125 18 0.988085 18 2.63056C18 4.27304 15.546 5.13612 13.1248 5.13612ZM13.1248 1.55824C10.9337 1.55824 9.75046 2.32194 9.75046 2.63056C9.75046 2.94441 10.9337 3.70288 13.1248 3.70288C15.3159 3.70288 16.4991 2.93918 16.4991 2.63056C16.4991 2.31671 15.3159 1.55824 13.1248 1.55824Z" fill="#01d676"></path>
                                    <path d="M13.1248 8.0026C10.7036 8.0026 8.24954 7.13952 8.24954 5.49704V2.63055H9.75046V5.49704C9.75046 5.81089 10.9337 6.56936 13.1248 6.56936C15.3159 6.56936 16.4991 5.80566 16.4991 5.49704V2.63055H18V5.49704C18 7.13952 15.546 8.0026 13.1248 8.0026Z" fill="#01d676"></path>
                                    <path d="M13.1248 10.8639C10.7036 10.8639 8.24954 10.0008 8.24954 8.35831V5.49182H9.75046V8.35831C9.75046 8.67216 10.9337 9.43063 13.1248 9.43063C15.3159 9.43063 16.4991 8.66693 16.4991 8.35831V5.49182H18V8.35831C18 10.006 15.546 10.8639 13.1248 10.8639Z" fill="#01d676"></path>
                                    <path d="M13.1248 13.7303C10.7036 13.7303 8.24954 12.8673 8.24954 11.2248V8.35831H9.75046V11.2248C9.75046 11.5386 10.9337 12.2971 13.1248 12.2971C15.3159 12.2971 16.4991 11.5334 16.4991 11.2248V8.35831H18V11.2248C18 12.8673 15.546 13.7303 13.1248 13.7303Z" fill="#01d676"></path>
                                    <path d="M4.87523 10.1472C2.45405 10.1472 0 9.28416 0 7.64168C0 5.99921 2.45405 5.13612 4.87523 5.13612C7.29641 5.13612 9.75046 5.99921 9.75046 7.64168C9.75046 9.28416 7.29641 10.1472 4.87523 10.1472ZM4.87523 6.56937C2.68412 6.56937 1.50091 7.33307 1.50091 7.64168C1.50091 7.95553 2.68412 8.714 4.87523 8.714C7.06634 8.714 8.24955 7.9503 8.24955 7.64168C8.24955 7.33307 7.06634 6.56937 4.87523 6.56937Z" fill="#01d676"></path>
                                    <path d="M4.87523 13.0137C2.45405 13.0137 0 12.1506 0 10.5082V7.64168H1.50091V10.5082C1.50091 10.822 2.68412 11.5805 4.87523 11.5805C7.06634 11.5805 8.24955 10.8168 8.24955 10.5082V7.64168H9.75046V10.5082C9.75046 12.1506 7.29641 13.0137 4.87523 13.0137Z" fill="#01d676"></path>
                                    <path d="M4.87523 15.875C2.45405 15.875 0 15.0119 0 13.3694V10.5029H1.50091V13.3694C1.50091 13.6833 2.68412 14.4418 4.87523 14.4418C7.06634 14.4418 8.24955 13.6781 8.24955 13.3694V10.5029H9.75046V13.3694C9.75046 15.0171 7.29641 15.875 4.87523 15.875Z" fill="#01d676"></path>
                                    </svg>