<?xml version="1.0" encoding="UTF-8"?>
<svg id="_图层_1" data-name="图层 1" xmlns="http://www.w3.org/2000/svg" viewBox="0 0 200 200">
  <defs>
    <style>
      .cls-1 {
        fill: #91877F;
      }
    </style>
  </defs>
  <path class="cls-1" d="m33.29,171.77c0,9.19-7.45,16.64-16.64,16.64S0,180.96,0,171.77V28.23C0,19.04,7.45,11.59,16.64,11.59s16.64,7.45,16.64,16.64c0,0,0,143.54,0,143.54Z"/>
  <path class="cls-1" d="m88.86,171.77c0,9.19-7.45,16.64-16.64,16.64s-16.64-7.45-16.64-16.64v-76.75c0-9.19,7.45-16.64,16.64-16.64s16.64,7.45,16.64,16.64v76.75h0Z"/>
  <path class="cls-1" d="m144.43,171.77c0,9.19-7.45,16.64-16.64,16.64s-16.64-7.45-16.64-16.64V54.05c0-9.19,7.45-16.64,16.64-16.64s16.64,7.45,16.64,16.64v117.72h0Z"/>
  <path class="cls-1" d="m200,171.77c0,9.19-7.45,16.64-16.64,16.64s-16.64-7.45-16.64-16.64v-90.78c0-9.19,7.45-16.64,16.64-16.64s16.64,7.45,16.64,16.64v90.78h0Z"/>
</svg>