<?xml version="1.0" encoding="UTF-8"?>
<svg id="_图层_1" data-name="图层 1" xmlns="http://www.w3.org/2000/svg" viewBox="0 0 200 200">
  <defs>
    <style>
      .cls-1 {
        fill: #91877F;
      }
    </style>
  </defs>
  <path class="cls-1" d="m115.08,90.76h-30.95c-16.82,1.05-29.77,15.25-29.28,32.09v62.47c-.05,1.11.36,2.18,1.14,2.97.8.78,1.88,1.19,2.99,1.14h81.32c1.11.05,2.18-.36,2.97-1.14.8-.78,1.21-1.86,1.14-2.97v-62.47c.46-16.85-12.51-31.04-29.34-32.09Zm-77.57,24.93h-12.57c-13.43.11-24.3,10.94-24.47,24.37v45.1c-.04,1.1.37,2.17,1.14,2.95.75.76,1.78,1.18,2.85,1.18h32.69v.14c2.13.08,3.92-1.57,4-3.7,0-.14,0-.29,0-.43v-65.06c.38-1.17.08-2.45-.8-3.31-.68-.86-1.74-1.32-2.83-1.24h0Zm136.85-.36h-12.57c-.88,0-2.47.36-2.89,1.24-.48,1.03-.74,2.15-.76,3.29v65.06c-.09,1.11.3,2.2,1.08,2.99.79.78,1.87,1.19,2.97,1.14l32.53.36c1.11.05,2.18-.36,2.97-1.14.79-.79,1.21-1.88,1.14-2.99v-45.22c.09-13.57-10.84-24.64-24.41-24.73-.02,0-.04,0-.06,0h0Zm23.33-23.61c6.26-14.69-.57-31.68-15.27-37.94-14.69-6.26-31.68.57-37.94,15.27-1.52,3.57-2.31,7.42-2.31,11.3-.2,15.77,12.43,28.72,28.2,28.92.1,0,.2,0,.3,0,11.73.18,22.41-6.75,27.02-17.54h0ZM43.65,55.67c-13.76-8.12-31.51-3.55-39.63,10.21-8.12,13.76-3.55,31.51,10.21,39.63,13.76,8.12,31.51,3.55,39.63-10.21,2.67-4.53,4.06-9.7,4.01-14.96,0-10.17-5.42-19.58-14.23-24.67Zm55.96,28.42c20.3.11,36.85-16.26,36.96-36.56.11-20.3-16.26-36.85-36.56-36.96-20.3-.11-36.85,16.26-36.96,36.56-.05,9.75,3.77,19.11,10.62,26.04,6.85,6.94,16.19,10.87,25.94,10.92Z"/>
</svg>