<?xml version="1.0" encoding="UTF-8"?>
<svg id="_图层_2" data-name=" 图层 2" xmlns="http://www.w3.org/2000/svg" xmlns:xlink="http://www.w3.org/1999/xlink" viewBox="0 0 1034 478.3">
  <defs>
    <style>
      .cls-1 {
        fill: #423d34;
      }

      .cls-2 {
        fill: #018a84;
      }

      .cls-3 {
        fill: #f5d17c;
      }

      .cls-4 {
        clip-path: url(#clippath-2);
      }

      .cls-5 {
        fill: #6bbcbb;
      }

      .cls-6 {
        fill: #ecacc5;
      }

      .cls-7 {
        clip-path: url(#clippath-1);
      }

      .cls-8 {
        fill: #25a460;
      }

      .cls-9 {
        fill: #d62944;
      }

      .cls-10 {
        fill: #0b6b64;
        isolation: isolate;
        opacity: .55;
      }

      .cls-11 {
        fill: #ffc550;
      }

      .cls-12 {
        clip-path: url(#clippath);
      }

      .cls-13 {
        stroke: #fff;
        stroke-linecap: round;
        stroke-miterlimit: 10;
        stroke-width: 6.92px;
      }

      .cls-13, .cls-14 {
        fill: none;
      }

      .cls-15 {
        fill: #eedc23;
      }

      .cls-16 {
        fill: #e69911;
      }

      .cls-17 {
        clip-path: url(#clippath-3);
      }

      .cls-18 {
        fill: #ed9718;
      }

      .cls-19 {
        fill: #f1c052;
      }

      .cls-20 {
        fill: #fdb303;
      }

      .cls-21 {
        fill: #e5a61f;
      }
    </style>
    <clipPath id="clippath">
      <polygon class="cls-14" points="483.9 93 456.7 132.6 481.2 137 497.8 153.3 518.5 100.7 483.9 93"/>
    </clipPath>
    <clipPath id="clippath-1">
      <polygon class="cls-14" points="511.5 101.7 537.9 164 553.2 146.9 577.3 141.9 540.9 92 511.5 101.7"/>
    </clipPath>
    <clipPath id="clippath-2">
      <path class="cls-14" d="m717.51,324.82c-17.83,0-31.95-7.02-42.35-21.06s-15.6-32.51-15.6-55.4,5.33-41.99,15.98-55.56c10.65-13.57,24.89-20.36,42.73-20.36s33.04,7.24,43,21.72c9.96,14.48,14.95,32.98,14.95,55.51s-5.36,41.23-16.09,54.8c-10.72,13.58-24.93,20.36-42.62,20.36h0Zm.43-31.41c6.21,0,10.36-3.96,12.46-11.86,2.1-7.9,3.14-18.72,3.14-32.44,0-18.85-1.39-31.16-4.17-36.94-2.78-5.77-6.55-8.66-11.32-8.66-5.78,0-9.76,3.81-11.97,11.43s-3.3,18.11-3.3,31.46c0,18.12,1.1,30.49,3.3,37.1,2.2,6.6,6.16,9.91,11.86,9.91h0Z"/>
    </clipPath>
    <clipPath id="clippath-3">
      <path class="cls-14" d="m455.37,329.5c-36.46,0-59.08-16.96-67.25-50.4l-.38-1.55,43-5.31.25,1.31c2.51,13.39,9.41,19.9,21.12,19.9,5.26,0,9.58-1.37,12.83-4.06,3.22-2.67,4.78-6.18,4.78-10.73,0-3.01-.84-5.58-2.58-7.87-1.76-2.32-3.65-3.95-5.61-4.86-1.98-.92-5.57-1.39-10.66-1.39h-20.11v-34.93h17.18c7.91,0,13-1.34,15.11-3.97,2.18-2.73,3.29-5.58,3.29-8.46,0-3.66-1.32-6.63-4.03-9.08-2.72-2.45-6.38-3.69-10.87-3.69-9.82,0-15.67,5.37-17.86,16.42l-.27,1.34-40.02-6.31.35-1.49c3.44-14.69,10.85-26.18,22.01-34.16,11.12-7.95,24.45-11.98,39.62-11.98,17.06,0,30.99,4.08,41.4,12.12,10.53,8.13,15.87,19.11,15.87,32.65,0,8.15-2.27,15.37-6.75,21.45-3.64,4.93-8.13,8.59-13.41,10.92,16.52,6.28,24.89,18.44,24.89,36.2,0,15.12-5.86,27.05-17.42,35.44-11.42,8.29-26.38,12.49-44.47,12.49Z"/>
    </clipPath>
  </defs>
  <path class="cls-8" d="m955.7,364.2c3.7,7.3,10,13.3,17.5,16.5,10.6,4.6,22.7,3.8,34.3,2.9.6-.1,1.3-.1,1.8-.5.6-.5.7-1.3.8-2.1.9-11.3-7.7-22-18.5-25.4-10.8-3.3-23,0-31.8,7.1,14.6-12.4,21.9-32.9,18.4-51.8-.2-1-.5-2.1-1.4-2.5-.7-.3-1.5-.1-2.2.1-6.8,2.2-13.2,5.8-18.7,10.4-3.1,2.6-5.9,5.5-7.6,9.1-2.7,5.5-2.5,12.1-.7,18s4.9,11.3,8,16.6"/>
  <path class="cls-8" d="m892.1,391.8c2.4,11.9,10.9,22,21.2,28.4s22.4,9.5,34.5,11.1c2.1-12.8-4.5-26.2-15.2-33.5s-24.7-8.9-37.2-5.5c18.2-6.2,32.6-22.3,36.7-41,.4-1.7.5-4-1-4.9-.8-.5-1.8-.4-2.7-.3-11.6,1.3-22.6,7.2-30.1,16.2s-11.3,20.9-10.5,32.5"/>
  <path class="cls-8" d="m807.4,401.3c-3.3,6.1-2.4,13.7.7,19.9,3.1,6.1,8.3,11,13.6,15.4,10.7,8.9,22.5,16.3,35.1,22.2,2.5,1.2,5.7,2.2,7.9.5,1.3-1,1.8-2.7,2.2-4.3,3-14.3-3.6-29.7-14.9-39-11.3-9.3-26.6-13-41.2-12,27.7-1.8,51.6-22.6,63.4-47.7-15.9-2.7-32.7.6-46.3,9.1s-24,22.2-28.5,37.7"/>
  <path class="cls-8" d="m716,405.8c-4.4,6.3-4.5,14.8-1.9,22s7.7,13.2,13.1,18.6c14.2,14.2,31.7,25.2,50.7,31.9,9.6-15.5,6.2-36.9-5.7-50.7-11.9-13.8-30.8-20.3-49-19.9,32-.6,62.8-21.1,75.6-50.3-23.9-1.9-48.5,4.9-68,18.9-5.4,3.9-10.5,8.4-13.7,14.2-3.1,5.9-4,13.2-.8,19.1"/>
  <path class="cls-8" d="m995.6,319.5c16.8-7.3,30.6-21.4,37.5-38.4,1-2.4,1.6-5.7-.6-7.1-1.1-.7-2.5-.7-3.8-.5-11.1,1-22.5,4.3-30.4,12.1-7.9,7.8-11,21.2-4.7,30.4"/>
  <path class="cls-8" d="m78.2,364.2c-3.7,7.3-10,13.3-17.5,16.5-10.6,4.6-22.7,3.8-34.3,2.9-.6-.1-1.3-.1-1.8-.5-.6-.5-.7-1.3-.8-2.1-.9-11.3,7.7-22,18.5-25.4s23,0,31.8,7.1c-14.6-12.4-21.9-32.9-18.4-51.8.2-1,.5-2.1,1.4-2.5.7-.3,1.5-.1,2.2.1,6.8,2.2,13.2,5.8,18.7,10.4,3.1,2.6,5.9,5.5,7.6,9.1,2.7,5.5,2.5,12.1.7,18-1.7,5.9-4.9,11.3-8,16.6"/>
  <path class="cls-8" d="m141.8,391.8c-2.4,11.9-10.9,22-21.2,28.4s-22.4,9.5-34.5,11.1c-2.1-12.8,4.5-26.2,15.2-33.5s24.7-8.9,37.2-5.5c-18.2-6.2-32.6-22.3-36.7-41-.4-1.7-.5-4,1-4.9.8-.5,1.8-.4,2.7-.3,11.6,1.3,22.6,7.2,30.1,16.2s11.3,20.9,10.5,32.5"/>
  <path class="cls-8" d="m226.6,401.3c3.3,6.1,2.4,13.7-.7,19.9-3.1,6.1-8.3,11-13.6,15.4-10.7,8.9-22.5,16.3-35.1,22.2-2.5,1.2-5.7,2.2-7.9.5-1.3-1-1.8-2.7-2.2-4.3-3-14.3,3.6-29.7,14.9-39s26.6-13,41.2-12c-27.7-1.8-51.6-22.6-63.4-47.7,15.9-2.7,32.7.6,46.3,9.1s24,22.2,28.5,37.7"/>
  <path class="cls-8" d="m317.9,405.8c4.4,6.3,4.5,14.8,1.9,22s-7.7,13.2-13.1,18.6c-14.2,14.2-31.7,25.2-50.7,31.9-9.6-15.5-6.2-36.9,5.7-50.7,11.9-13.8,30.8-20.3,49-19.9-32-.6-62.8-21.1-75.6-50.3,23.9-1.9,48.5,4.9,68,18.9,5.4,3.9,10.5,8.4,13.7,14.2,3.1,5.9,4,13.2.8,19.1"/>
  <path class="cls-8" d="m38.4,319.5c-16.9-7.2-30.7-21.4-37.5-38.4-1-2.4-1.6-5.7.6-7.1,1.1-.7,2.5-.7,3.8-.5,11.1,1,22.5,4.3,30.4,12.1,7.9,7.8,11,21.2,4.7,30.4"/>
  <g>
    <g>
      <rect class="cls-6" x="567.21" y="-1.19" width="4.7" height="15.3" transform="translate(257.34 482.86) rotate(-57.41)"/>
      <rect class="cls-9" x="435.41" y="43.67" width="4.7" height="15.3" transform="translate(109.46 345.41) rotate(-48.54)"/>
      <rect class="cls-9" x="623.15" y="116.85" width="4.7" height="15.3" transform="translate(135.18 532.34) rotate(-51.01)"/>
      <rect class="cls-5" x="601.5" y="52.41" width="4.7" height="15.3" transform="translate(391.63 628.57) rotate(-75.21)"/>
      <rect class="cls-15" x="569.58" y="106.59" width="15.3" height="4.7" transform="translate(22.86 303.21) rotate(-30)"/>
      <rect class="cls-15" x="400.31" y="26.43" width="15.3" height="4.7" transform="translate(116.28 315.46) rotate(-48.54)"/>
      <rect class="cls-5" x="400.72" y="122.25" width="15.3" height="4.7" transform="translate(192.46 492.94) rotate(-76.59)"/>
      <rect class="cls-6" x="435.21" y="116.61" width="15.3" height="4.7" transform="translate(-13.34 72.49) rotate(-9.22)"/>
    </g>
    <g>
      <polygon class="cls-5" points="483.9 93 456.7 132.6 481.2 137 497.8 153.3 518.5 100.7 483.9 93"/>
      <polygon class="cls-5" points="511.5 101.7 537.9 164 553.2 146.9 577.3 141.9 540.9 92 511.5 101.7"/>
      <g class="cls-12">
        <g>
          <polygon class="cls-2" points="507.5 101.3 500.9 151.4 512.9 150.9 519.2 98.1 507.5 101.3"/>
          <circle class="cls-10" cx="513.5" cy="53.9" r="53.9"/>
        </g>
      </g>
      <g class="cls-7">
        <g>
          <path class="cls-2" d="m537.2,163.2c.1-.2-7.8-38.8-8.3-43.9s-1.6-19,18.3-22.3l-3.8-4.4-35,6.1,24.5,63.3,4.3,1.2h0Z"/>
          <circle class="cls-10" cx="513.5" cy="53.9" r="53.9"/>
        </g>
      </g>
      <circle class="cls-19" cx="513.3" cy="53.9" r="52.2"/>
      <circle class="cls-21" cx="513.3" cy="53.82" r="47.6" transform="translate(112.29 378.72) rotate(-45)"/>
      <circle class="cls-3" cx="513.3" cy="53.9" r="38.8"/>
      <circle class="cls-3" cx="513.3" cy="53.9" r="38.8"/>
      <circle class="cls-19" cx="513.3" cy="53.82" r="36.1" transform="translate(235.63 488.87) rotate(-63.44)"/>
      <path class="cls-13" d="m545.7,34.9s9.4,14.3,2.6,32.6"/>
      <path class="cls-13" d="m545.8,72.3s-1.4,2.7-2.2,3.4"/>
      <g>
        <circle class="cls-16" cx="513.3" cy="45.46" r="11.12"/>
        <path class="cls-16" d="m527.5,77.34c.38-1.68.6-3.46.6-5.3,0-10.49-6.62-18.99-14.8-18.99s-14.8,8.5-14.8,18.99c0,1.84.21,3.62.6,5.3h28.4Z"/>
      </g>
    </g>
  </g>
  <g>
    <path class="cls-1" d="m419.18,395.2l-17.19,64.83h-16.72l-9.07-35.76-8.56,35.76h-17.43l-17.22-64.83h18.73l9.07,37.31,8.85-37.31h15.62l9.62,37.39,9.08-37.39h15.23Z"/>
    <path class="cls-1" d="m474.27,444.55v15.48h-48.78v-64.83h48.78v14.96h-29.26v9.4h23.65v14.39h-23.65v10.59h29.26Z"/>
    <path class="cls-1" d="m530.93,444.55v15.48h-48.78v-64.83h48.78v14.96h-29.26v9.4h23.65v14.39h-23.65v10.59h29.26Z"/>
    <path class="cls-1" d="m597.28,460.03h-21.77l-11.21-24.5-6.72,9.54v14.96h-18.76v-64.83h18.76v26.81l17.88-26.81h17.88l-16.37,23.73,20.31,41.1Z"/>
    <path class="cls-1" d="m648.05,444.12v15.91h-45.45v-64.83h19.9v48.92h25.55Z"/>
    <path class="cls-1" d="m701.02,395.2l-20.29,37.38v27.45h-19.33v-27.45l-21.81-37.38h21.78l11.36,21.37,10.89-21.37h17.4Z"/>
  </g>
  <g>
    <g>
      <path class="cls-20" d="m307.21,176.23v-18.97h21.31v18.53c23.89,2.66,39.5,14.02,46.82,34.06l-34.73,10.87c-3.55-9.4-10.8-14.09-21.75-14.09-9.18,0-13.76,2.96-13.76,8.88,0,2.14.77,3.98,2.33,5.49,1.56,1.52,5.84,3.06,12.86,4.63,16.04,3.51,27.54,6.65,34.5,9.42,6.95,2.77,12.75,7.46,17.37,14.08,4.62,6.61,6.94,14.43,6.94,23.44,0,12.64-4.5,23.22-13.48,31.76-8.98,8.54-21.35,13.69-37.11,15.47v19.2h-21.31v-19.2c-26.77-3.18-43.6-17.27-50.48-42.27l38.83-7.21c3.33,11.39,11.72,17.09,25.18,17.09,10.5,0,15.75-2.88,15.75-8.66,0-3.03-1.22-5.4-3.66-7.1-2.44-1.7-6.77-3.18-12.98-4.45-24.4-4.98-39.88-11.31-46.43-19-6.55-7.69-9.82-16.53-9.82-26.5,0-11.01,3.59-20.79,10.76-29.34,7.17-8.54,18.12-13.92,32.84-16.13h.01Z"/>
      <path class="cls-18" d="m329.93,340.41h-24.15v-19.36c-26.56-3.53-43.53-18.05-50.43-43.15l-.41-1.49,41.62-7.73.36,1.24c3.16,10.81,10.95,16.06,23.82,16.06,14.33,0,14.33-5.45,14.33-7.24,0-2.56-1-4.5-3.05-5.94-2.27-1.58-6.46-3-12.45-4.22-24.96-5.09-40.41-11.45-47.23-19.47-6.74-7.92-10.16-17.14-10.16-27.43,0-11.31,3.74-21.48,11.09-30.25,7.17-8.54,18.1-14.06,32.5-16.43v-19.18h24.15v18.68c23.66,2.98,39.37,14.69,46.74,34.83l.51,1.4-37.43,11.72-.48-1.26c-3.35-8.86-10.03-13.17-20.42-13.17-12.34,0-12.34,5.61-12.34,7.46s.62,3.22,1.9,4.47c.77.75,3.36,2.29,12.18,4.25,16.04,3.51,27.72,6.7,34.71,9.49,7.19,2.86,13.24,7.77,18.01,14.59,4.77,6.82,7.19,14.99,7.19,24.26,0,12.98-4.69,24.02-13.92,32.79-8.93,8.49-21.26,13.76-36.67,15.69v19.35h0Zm-21.31-2.84h18.46v-19.04l1.26-.14c15.37-1.73,27.58-6.8,36.29-15.08,8.65-8.22,13.04-18.56,13.04-30.73,0-8.68-2.25-16.29-6.68-22.63-4.44-6.35-10.07-10.92-16.73-13.57-6.85-2.73-18.39-5.88-34.27-9.35-9.8-2.19-12.43-3.9-13.55-5-1.83-1.78-2.76-3.98-2.76-6.51,0-4.69,2.63-10.3,15.18-10.3,11.06,0,18.64,4.63,22.57,13.76l32.04-10.03c-7.31-18.54-22.48-29.22-45.12-31.74l-1.26-.14v-18.39h-18.46v18.78l-1.21.18c-14.3,2.16-25.05,7.42-31.96,15.64-6.92,8.24-10.43,17.8-10.43,28.42,0,9.59,3.19,18.19,9.48,25.58,6.31,7.41,21.66,13.64,45.64,18.53,6.46,1.31,10.88,2.84,13.51,4.67,2.83,1.97,4.27,4.76,4.27,8.27,0,6.68-5.78,10.08-17.17,10.08-13.61,0-22.41-5.67-26.16-16.88l-36.06,6.7c6.94,23.35,23.37,36.72,48.85,39.75l1.25.15v19.03h0Z"/>
    </g>
    <g>
      <path class="cls-20" d="m307.21,176.23v-18.97h21.31v18.53c23.89,2.66,39.5,14.02,46.82,34.06l-34.73,10.87c-3.55-9.4-10.8-14.09-21.75-14.09-9.18,0-13.76,2.96-13.76,8.88,0,2.14.77,3.98,2.33,5.49,1.56,1.52,5.84,3.06,12.86,4.63,16.04,3.51,27.54,6.65,34.5,9.42,6.95,2.77,12.75,7.46,17.37,14.08,4.62,6.61,6.94,14.43,6.94,23.44,0,12.64-4.5,23.22-13.48,31.76-8.98,8.54-21.35,13.69-37.11,15.47v19.2h-21.31v-19.2c-26.77-3.18-43.6-17.27-50.48-42.27l38.83-7.21c3.33,11.39,11.72,17.09,25.18,17.09,10.5,0,15.75-2.88,15.75-8.66,0-3.03-1.22-5.4-3.66-7.1-2.44-1.7-6.77-3.18-12.98-4.45-24.4-4.98-39.88-11.31-46.43-19-6.55-7.69-9.82-16.53-9.82-26.5,0-11.01,3.59-20.79,10.76-29.34,7.17-8.54,18.12-13.92,32.84-16.13h.01Z"/>
      <path class="cls-18" d="m329.93,340.41h-24.15v-19.36c-26.56-3.53-43.53-18.05-50.43-43.15l-.41-1.49,41.62-7.73.36,1.24c3.16,10.81,10.95,16.06,23.82,16.06,14.33,0,14.33-5.45,14.33-7.24,0-2.56-1-4.5-3.05-5.94-2.27-1.58-6.46-3-12.45-4.22-24.96-5.09-40.41-11.45-47.23-19.47-6.74-7.92-10.16-17.14-10.16-27.43,0-11.31,3.74-21.48,11.09-30.25,7.17-8.54,18.1-14.06,32.5-16.43v-19.18h24.15v18.68c23.66,2.98,39.37,14.69,46.74,34.83l.51,1.4-37.43,11.72-.48-1.26c-3.35-8.86-10.03-13.17-20.42-13.17-12.34,0-12.34,5.61-12.34,7.46s.62,3.22,1.9,4.47c.77.75,3.36,2.29,12.18,4.25,16.04,3.51,27.72,6.7,34.71,9.49,7.19,2.86,13.24,7.77,18.01,14.59,4.77,6.82,7.19,14.99,7.19,24.26,0,12.98-4.69,24.02-13.92,32.79-8.93,8.49-21.26,13.76-36.67,15.69v19.35h0Zm-21.31-2.84h18.46v-19.04l1.26-.14c15.37-1.73,27.58-6.8,36.29-15.08,8.65-8.22,13.04-18.56,13.04-30.73,0-8.68-2.25-16.29-6.68-22.63-4.44-6.35-10.07-10.92-16.73-13.57-6.85-2.73-18.39-5.88-34.27-9.35-9.8-2.19-12.43-3.9-13.55-5-1.83-1.78-2.76-3.98-2.76-6.51,0-4.69,2.63-10.3,15.18-10.3,11.06,0,18.64,4.63,22.57,13.76l32.04-10.03c-7.31-18.54-22.48-29.22-45.12-31.74l-1.26-.14v-18.39h-18.46v18.78l-1.21.18c-14.3,2.16-25.05,7.42-31.96,15.64-6.92,8.24-10.43,17.8-10.43,28.42,0,9.59,3.19,18.19,9.48,25.58,6.31,7.41,21.66,13.64,45.64,18.53,6.46,1.31,10.88,2.84,13.51,4.67,2.83,1.97,4.27,4.76,4.27,8.27,0,6.68-5.78,10.08-17.17,10.08-13.61,0-22.41-5.67-26.16-16.88l-36.06,6.7c6.94,23.35,23.37,36.72,48.85,39.75l1.25.15v19.03h0Z"/>
    </g>
    <g>
      <path class="cls-20" d="m717.5,326.68c-18.27,0-32.73-7.19-43.38-21.58-10.65-14.39-15.98-33.3-15.98-56.75s5.45-43.01,16.36-56.91c10.91-13.91,25.5-20.86,43.77-20.86s33.84,7.41,44.04,22.24,15.31,33.78,15.31,56.86-5.49,42.23-16.48,56.14c-10.99,13.91-25.54,20.86-43.66,20.86h0Zm.44-32.18c6.36,0,10.62-4.05,12.76-12.15,2.14-8.1,3.22-19.17,3.22-33.23,0-19.3-1.43-31.91-4.27-37.83-2.85-5.92-6.71-8.88-11.6-8.88-5.92,0-10.01,3.9-12.26,11.7-2.26,7.8-3.39,18.55-3.39,32.23,0,18.56,1.13,31.23,3.39,38,2.26,6.77,6.31,10.15,12.15,10.15h0Z"/>
      <path class="cls-18" d="m717.5,328.1c-18.66,0-33.64-7.46-44.52-22.16-10.79-14.57-16.26-33.95-16.26-57.59s5.61-43.7,16.67-57.79c11.14-14.2,26.24-21.4,44.89-21.4,19.57,0,34.78,7.69,45.22,22.86,10.33,15.01,15.56,34.41,15.56,57.67s-5.65,42.92-16.78,57.02c-11.21,14.2-26.28,21.4-44.77,21.4h0Zm.77-156.1c-17.73,0-32.08,6.83-42.65,20.32-10.66,13.59-16.06,32.44-16.06,56.04s5.28,41.84,15.69,55.9c10.32,13.94,24.53,21.01,42.24,21.01s31.89-6.84,42.55-20.32c10.73-13.59,16.17-32.18,16.17-55.26s-5.06-41.54-15.06-56.05c-9.88-14.35-24.3-21.63-42.88-21.63h0Zm-.33,123.93c-6.49,0-11.04-3.74-13.49-11.12-2.33-6.97-3.46-19.55-3.46-38.45,0-13.76,1.16-24.74,3.44-32.63,2.44-8.45,7.02-12.73,13.62-12.73,5.45,0,9.78,3.26,12.88,9.68,2.97,6.17,4.41,18.75,4.41,38.45,0,14.11-1.1,25.41-3.27,33.59-2.32,8.76-7.08,13.21-14.13,13.21h0Zm.11-92.09c-5.26,0-8.82,3.49-10.89,10.68-2.21,7.63-3.33,18.34-3.33,31.84,0,18.33,1.11,30.96,3.31,37.55,2.06,6.18,5.59,9.18,10.8,9.18,5.68,0,9.41-3.63,11.38-11.09,2.1-7.95,3.17-19,3.17-32.87,0-19-1.39-31.52-4.13-37.22-2.61-5.43-5.99-8.07-10.31-8.07h0Z"/>
      <path class="cls-14" d="m717.5,326.68c-18.27,0-32.73-7.19-43.38-21.58-10.65-14.39-15.98-33.3-15.98-56.75s5.45-43.01,16.36-56.91c10.91-13.91,25.5-20.86,43.77-20.86s33.84,7.41,44.04,22.24,15.31,33.78,15.31,56.86-5.49,42.23-16.48,56.14c-10.99,13.91-25.54,20.86-43.66,20.86h0Zm.44-32.18c6.36,0,10.62-4.05,12.76-12.15,2.14-8.1,3.22-19.17,3.22-33.23,0-19.3-1.43-31.91-4.27-37.83-2.85-5.92-6.71-8.88-11.6-8.88-5.92,0-10.01,3.9-12.26,11.7-2.26,7.8-3.39,18.55-3.39,32.23,0,18.56,1.13,31.23,3.39,38,2.26,6.77,6.31,10.15,12.15,10.15h0Z"/>
      <g class="cls-4">
        <path class="cls-11" d="m608.25,320.93c.7-1.56,82.41-230.47,82.41-230.47l75.43,23.36-87.83,216.99-70.01-9.89h0Z"/>
      </g>
      <path class="cls-18" d="m730.93,210.67c-3.09-6.42-7.42-9.68-12.88-9.68-6.6,0-11.19,4.28-13.62,12.73-2.28,7.89-3.44,18.87-3.44,32.63,0,18.9,1.13,31.47,3.46,38.45,2.46,7.38,7,11.12,13.49,11.12,7.06,0,11.81-4.45,14.13-13.21,2.17-8.18,3.27-19.49,3.27-33.59,0-19.7-1.44-32.28-4.41-38.45h0Zm-1.6,71.31c-1.98,7.46-5.7,11.09-11.38,11.09-5.21,0-8.74-3-10.8-9.18-2.19-6.59-3.31-19.22-3.31-37.55,0-13.49,1.12-24.2,3.33-31.84,2.08-7.19,5.64-10.68,10.89-10.68,4.32,0,7.7,2.64,10.31,8.07,2.74,5.7,4.13,18.22,4.13,37.22,0,13.86-1.07,24.92-3.17,32.87h0Z"/>
    </g>
    <g>
      <g>
        <path class="cls-20" d="m586.62,326.52c-15.68,0-29.45-4.19-40.92-12.45-11.53-8.31-18.72-20.05-21.35-34.91l-.24-1.31,41.36-5.05.26,1.1c2.45,10.43,8.95,15.5,19.89,15.5,5.51,0,9.67-1.61,12.73-4.9,3.09-3.33,4.58-7.28,4.58-12.08,0-5.41-1.7-9.52-5.2-12.53-3.51-3.03-7.73-4.56-12.55-4.56-7.28,0-12.72,2.93-16.64,8.94l-.44.67-36.57-5.15,6.81-89.03h103.3l-4.25,39.78h-63.21l-1.46,17.6c7.8-4.84,16.44-7.3,25.73-7.3,13.38,0,25.24,4.65,35.23,13.82,10.03,9.21,15.12,21.64,15.12,36.97,0,16.15-5.91,29.49-17.57,39.65-11.61,10.11-26.62,15.23-44.61,15.23h0Z"/>
        <path class="cls-18" d="m640.25,172.02l-3.98,37.26h-63.25l-1.77,21.34c8.18-5.67,17.25-8.52,27.2-8.52,13.11,0,24.58,4.5,34.38,13.48,9.8,9,14.7,21.01,14.7,36.04,0,15.85-5.72,28.74-17.13,38.7-11.43,9.95-26.02,14.92-43.78,14.92-15.48,0-28.88-4.07-40.19-12.22s-18.26-19.51-20.84-34.11l38.92-4.76c2.58,10.99,9.62,16.48,21.12,16.48,5.82,0,10.37-1.77,13.65-5.3,3.28-3.54,4.92-7.85,4.92-12.94,0-5.75-1.88-10.25-5.64-13.48-3.76-3.25-8.22-4.87-13.38-4.87-7.67,0-13.56,3.17-17.69,9.51l-34.6-4.87,6.63-86.68h100.72m2.81-2.52h-105.87l-.18,2.33-6.63,86.68-.18,2.36,2.35.33,34.6,4.87,1.59.23.87-1.35c3.67-5.62,8.76-8.36,15.58-8.36,4.57,0,8.42,1.39,11.73,4.25,3.2,2.77,4.77,6.56,4.77,11.58,0,4.46-1.39,8.14-4.25,11.22-2.81,3.03-6.67,4.5-11.8,4.5-10.26,0-16.37-4.75-18.66-14.53l-.51-2.2-2.24.28-38.92,4.76-2.64.32.46,2.62c2.68,15.2,10.04,27.21,21.85,35.71,11.69,8.42,25.72,12.69,41.66,12.69,18.31,0,33.59-5.23,45.44-15.54,11.95-10.41,18-24.06,18-40.6s-5.22-28.45-15.52-37.9c-10.24-9.39-22.38-14.15-36.09-14.15-8.69,0-16.83,2.09-24.27,6.24l1.16-14.02h63.19l.24-2.25,3.98-37.26.29-2.79h0v-.02Z"/>
      </g>
      <g>
        <path class="cls-11" d="m590.96,172.02l-17.81,37.26h60.61c1.21-3.1,2.4-6.15,3.56-9.11l3.01-28.15h-49.37Z"/>
        <path class="cls-11" d="m598.54,222.11c-9.95,0-19.02,2.84-27.2,8.52l1.76-21.23-24.62,51.49,19.1,2.68c4.13-6.34,10.02-9.51,17.69-9.51,5.16,0,9.62,1.62,13.38,4.87,3.76,3.25,5.64,7.74,5.64,13.48,0,5.09-1.64,9.4-4.92,12.94-3.28,3.54-7.84,5.3-13.65,5.3-11.5,0-18.54-5.49-21.12-16.48l-23.87,2.92-9.16,19.15c3.6,6.62,8.58,12.22,14.95,16.8,11.32,8.15,24.71,12.22,40.19,12.22.37,0,.73-.02,1.1-.02,10.64-26.19,24.94-62.39,37.85-95.28-8.08-5.23-17.12-7.85-27.12-7.85h0Z"/>
      </g>
    </g>
    <g>
      <g>
        <path class="cls-20" d="m455.37,329.5c-36.46,0-59.08-16.96-67.25-50.4l-.38-1.55,43-5.31.25,1.31c2.51,13.39,9.41,19.9,21.12,19.9,5.26,0,9.58-1.37,12.83-4.06,3.22-2.67,4.78-6.18,4.78-10.73,0-3.01-.84-5.58-2.58-7.87-1.76-2.32-3.65-3.95-5.61-4.86-1.98-.92-5.57-1.39-10.66-1.39h-20.11v-34.93h17.18c7.91,0,13-1.34,15.11-3.97,2.18-2.73,3.29-5.58,3.29-8.46,0-3.66-1.32-6.63-4.03-9.08-2.72-2.45-6.38-3.69-10.87-3.69-9.82,0-15.67,5.37-17.86,16.42l-.27,1.34-40.02-6.31.35-1.49c3.44-14.69,10.85-26.18,22.01-34.16,11.12-7.95,24.45-11.98,39.62-11.98,17.06,0,30.99,4.08,41.4,12.12,10.53,8.13,15.87,19.11,15.87,32.65,0,8.15-2.27,15.37-6.75,21.45-3.64,4.93-8.13,8.59-13.41,10.92,16.52,6.28,24.89,18.44,24.89,36.2,0,15.12-5.86,27.05-17.42,35.44-11.42,8.29-26.38,12.49-44.47,12.49Z"/>
        <path class="cls-18" d="m455.26,169.65c16.81,0,30.33,3.94,40.54,11.82,10.21,7.88,15.31,18.39,15.31,31.53,0,7.88-2.16,14.75-6.47,20.61-4.32,5.86-9.82,9.8-16.5,11.82,18.47,5.63,27.7,17.68,27.7,36.15,0,14.71-5.61,26.14-16.83,34.29-11.22,8.15-25.77,12.22-43.63,12.22-35.88,0-57.84-16.44-65.87-49.32l40.09-4.95c2.63,14.04,10.13,21.06,22.52,21.06,5.63,0,10.21-1.46,13.74-4.39,3.53-2.93,5.29-6.87,5.29-11.82,0-3.3-.96-6.21-2.87-8.73-1.91-2.51-3.96-4.28-6.14-5.29-2.18-1.01-5.93-1.52-11.26-1.52h-18.69v-32.09h15.76c8.41,0,13.81-1.5,16.21-4.5,2.4-3,3.6-6.12,3.6-9.35,0-4.05-1.5-7.43-4.5-10.13-3-2.7-6.94-4.05-11.82-4.05-10.51,0-16.93,5.86-19.25,17.57l-37.16-5.86c3.38-14.41,10.53-25.52,21.45-33.33,10.92-7.81,23.85-11.71,38.79-11.71m0-2.84c-15.47,0-29.08,4.12-40.44,12.24-11.45,8.18-19.04,19.96-22.56,34.99l-.7,2.98,3.02.48,37.16,5.86,2.7.42.53-2.68c2.07-10.42,7.3-15.28,16.47-15.28,4.19,0,7.44,1.09,9.92,3.32,2.4,2.16,3.56,4.78,3.56,8.02,0,2.59-.97,5.06-2.98,7.57-1.03,1.28-4.21,3.44-14,3.44h-18.6v37.77h21.53c6.09,0,8.83.68,10.06,1.26,1.74.81,3.45,2.3,5.07,4.44,1.54,2.03,2.29,4.32,2.29,7.01,0,4.1-1.4,7.25-4.27,9.64-3.03,2.51-6.93,3.74-11.92,3.74-11.07,0-17.34-5.95-19.73-18.74l-.49-2.62-2.65.33-40.09,4.95-3.17.39.76,3.1c8.35,34.16,31.44,51.49,68.63,51.49,18.4,0,33.64-4.29,45.3-12.76,11.95-8.67,18.01-20.98,18.01-36.59,0-17.35-7.69-29.54-22.88-36.33,4.29-2.4,8.01-5.73,11.12-9.96,4.66-6.33,7.03-13.83,7.03-22.29,0-14-5.52-25.36-16.42-33.78-10.67-8.24-24.89-12.42-42.27-12.42h0Z"/>
      </g>
      <g class="cls-17">
        <path class="cls-11" d="m373.7,320.79c.7-1.56,92.45-216.42,92.45-216.42l53.99,2.83-87.83,216.99-48.56,10.65-10.04-14.06Z"/>
      </g>
      <path class="cls-18" d="m455.26,169.65c16.81,0,30.33,3.94,40.54,11.82,10.21,7.88,15.31,18.39,15.31,31.53,0,7.88-2.16,14.75-6.47,20.61-4.32,5.86-9.82,9.8-16.5,11.82,18.47,5.63,27.7,17.68,27.7,36.15,0,14.71-5.61,26.14-16.83,34.29-11.22,8.15-25.77,12.22-43.63,12.22-35.88,0-57.84-16.44-65.87-49.32l40.09-4.95c2.63,14.04,10.13,21.06,22.52,21.06,5.63,0,10.21-1.46,13.74-4.39,3.53-2.93,5.29-6.87,5.29-11.82,0-3.3-.96-6.21-2.87-8.73-1.91-2.51-3.96-4.28-6.14-5.29-2.18-1.01-5.93-1.52-11.26-1.52h-18.69v-32.09h15.76c8.41,0,13.81-1.5,16.21-4.5,2.4-3,3.6-6.12,3.6-9.35,0-4.05-1.5-7.43-4.5-10.13-3-2.7-6.94-4.05-11.82-4.05-10.51,0-16.93,5.86-19.25,17.57l-37.16-5.86c3.38-14.41,10.53-25.52,21.45-33.33,10.92-7.81,23.85-11.71,38.79-11.71m0-2.84c-15.47,0-29.08,4.12-40.44,12.24-11.45,8.18-19.04,19.96-22.56,34.99l-.7,2.98,3.02.48,37.16,5.86,2.7.42.53-2.68c2.07-10.42,7.3-15.28,16.47-15.28,4.19,0,7.44,1.09,9.92,3.32,2.4,2.16,3.56,4.78,3.56,8.02,0,2.59-.97,5.06-2.98,7.57-1.03,1.28-4.21,3.44-14,3.44h-18.6v37.77h21.53c6.09,0,8.83.68,10.06,1.26,1.74.81,3.45,2.3,5.07,4.44,1.54,2.03,2.29,4.32,2.29,7.01,0,4.1-1.4,7.25-4.27,9.64-3.03,2.51-6.93,3.74-11.92,3.74-11.07,0-17.34-5.95-19.73-18.74l-.49-2.62-2.65.33-40.09,4.95-3.17.39.76,3.1c8.35,34.16,31.44,51.49,68.63,51.49,18.4,0,33.64-4.29,45.3-12.76,11.95-8.67,18.01-20.98,18.01-36.59,0-17.35-7.69-29.54-22.88-36.33,4.29-2.4,8.01-5.73,11.12-9.96,4.66-6.33,7.03-13.83,7.03-22.29,0-14-5.52-25.36-16.42-33.78-10.67-8.24-24.89-12.42-42.27-12.42h0Z"/>
    </g>
  </g>
</svg>