<?xml version="1.0" encoding="utf-8"?>
<!-- Generator: Adobe Illustrator 27.5.0, SVG Export Plug-In . SVG Version: 6.00 Build 0)  -->
<svg version="1.1" id="_图层_2" xmlns="http://www.w3.org/2000/svg" xmlns:xlink="http://www.w3.org/1999/xlink" x="0px" y="0px"
	 viewBox="0 0 1300 520" style="enable-background:new 0 0 1300 520;" xml:space="preserve">
<style type="text/css">
	.st0{fill:#EFBB3F;}
	.st1{fill:#018A84;}
	.st2{fill:#005148;}
	.st3{fill:#F1C052;}
	.st4{fill:#F5D17C;}
	.st5{fill:#25A460;}
	.st6{fill:#002222;}
	.st7{fill:#E5A61F;}
	.st8{fill:#D62944;}
	.st9{fill:#6BBCBB;}
	.st10{fill:#EEDC23;}
	.st11{fill:#ECACC5;}
	.st12{fill:#F4C968;}
	.st13{fill:#FFFFFF;}
	.st14{fill:#E69911;}
	.st15{fill:#423D34;}
	.st16{fill:#FDB303;}
	.st17{fill:#ED9718;}
	.st18{fill:#FFC550;}
	.st19{clip-path:url(#SVGID_00000067220715465045453260000010563106762849439631_);fill:#FFC550;}
</style>
<g>
	<path class="st0" d="M687.1,55.6c5.1,0.1,12,0.9,15.9,4.2c3.4,3,3.5,6.1,0.8,9.8c-3.2,4.5-8.1,8.2-12.7,11.1
		c-2.9,1.8-5.9,3.5-9.1,4.9c-3.4,1.5-7.3,2-9.8,5.1c-3.8,4.8-2.8,11.9,3.7,13.8c5.5,1.7,11.5-1.6,16.4-3.9c4.3-2,8.3-4.5,12.1-7.3
		c7.7-5.7,16.3-13,18.6-22.8s-2.3-20.6-11.1-26.2s-20.8-3.8-28,3.8C681.6,50.9,683.3,55.5,687.1,55.6L687.1,55.6L687.1,55.6z"/>
	<path class="st1" d="M694.3,144.1h20.5l-7.3,11.7l10.2,10.2c0,0-19,5.9-30.7-1.5v-21.9"/>
	<polygon class="st2" points="700.1,155.8 687,155.8 687,164.6 	"/>
	<path class="st3" d="M697.2,41.8c0,0,7.3,62.9-38,89.2h-8.8V36"/>
	<path class="st4" d="M674,38.8l23.7,3c0,0,7.3,62.9-38,89.2h-0.5C680.7,99.3,677.7,59.8,674,38.8C674,38.8,674,38.8,674,38.8z"/>
	<path class="st5" d="M733.5,76.3c1.4,0.5,2.9,0.6,4.3,0.1c2-0.7,3.5-2.2,5-3.7c0.1-0.1,0.2-0.2,0.2-0.3s-0.1-0.3-0.1-0.4
		c-1.2-1.6-3.7-2-5.5-1.2c-1.9,0.8-3.1,2.8-3.5,4.8c0.5-3.4-1-7.1-3.7-9.2c-0.1-0.1-0.3-0.2-0.5-0.2c-0.1,0-0.2,0.2-0.3,0.3
		c-0.7,1.1-1.1,2.3-1.3,3.6c-0.1,0.7-0.1,1.5,0.1,2.1c0.3,1.1,1.1,1.9,2,2.5s2,0.9,3.1,1.3"/>
	<path class="st5" d="M726.8,88.8c1.8,1.3,4.1,1.7,6.3,1.3c2.2-0.4,4.2-1.4,6-2.6c-1.2-2-3.7-3-6-2.7s-4.4,1.8-5.7,3.7
		c1.7-3,1.7-6.9,0.1-9.9c-0.2-0.3-0.4-0.6-0.7-0.5c-0.2,0-0.3,0.2-0.4,0.3c-1.4,1.6-2.2,3.7-2.1,5.8s1,4.2,2.5,5.6"/>
	<path class="st5" d="M715.2,101.4c0.3,1.2,1.3,2.1,2.5,2.6s2.4,0.5,3.7,0.5c2.5-0.1,5-0.5,7.4-1.2c0.5-0.1,1-0.4,1.1-0.9
		c0.1-0.3-0.1-0.6-0.2-0.8c-1.3-2.3-4-3.6-6.7-3.5c-2.6,0.1-5.1,1.4-7,3.3c3.5-3.5,4.3-9.2,2.9-14c-2.5,1.5-4.3,4-5.2,6.8
		c-0.8,2.8-0.6,5.9,0.7,8.5"/>
	<path class="st5" d="M700.7,115.3c0.2,1.4,1.2,2.5,2.4,3.2s2.6,0.9,4,0.9c3.6,0.2,7.3-0.4,10.7-1.8c-0.5-3.2-3.6-5.7-6.8-6.2
		c-3.2-0.4-6.6,0.9-9,3.2c4.2-3.9,6-10.3,4.2-15.8c-3.5,2.6-6,6.4-6.9,10.7c-0.3,1.2-0.4,2.4-0.1,3.6s1,2.3,2.2,2.7"/>
	<path class="st5" d="M734.9,64.3c1.4-3,1.6-6.5,0.5-9.6c-0.2-0.4-0.5-1-0.9-0.9c-0.2,0-0.4,0.2-0.6,0.4c-1.4,1.5-2.5,3.3-2.7,5.3
		s1,4.2,3,4.7"/>
	<path class="st0" d="M618.2,48.3c-7.2-7.7-18.9-9.5-28-3.8s-13.5,16-11.1,26.2c2.3,9.8,10.9,17.1,18.6,22.8
		c3.8,2.8,7.9,5.3,12.1,7.3c4.9,2.3,10.9,5.6,16.4,3.9c6.4-2,7.5-9,3.7-13.8c-2.4-3.1-6.3-3.6-9.8-5.1c-3.2-1.4-6.2-3.1-9.1-4.9
		c-4.6-2.9-9.5-6.6-12.7-11.1c-2.6-3.7-2.6-6.9,0.8-9.8c3.9-3.4,10.8-4.2,15.9-4.2C619,55.5,620.8,50.9,618.2,48.3L618.2,48.3
		L618.2,48.3z"/>
	<path class="st1" d="M608,144.1h-20.5l7.3,11.7L584.6,166c0,0,19,5.9,30.7-1.5v-21.9"/>
	<polygon class="st2" points="602.2,155.8 615.3,155.8 615.3,164.6 	"/>
	<path class="st6" d="M662.1,152.9h-8.8v1.5h-4.4v-1.5h-8.8c0,17.5-19,19-19,19v10.2h60v-10.2C681.1,171.9,662.1,170.4,662.1,152.9
		L662.1,152.9z"/>
	<path class="st3" d="M605.1,41.8c0,0-7.3,62.9,38,89.2h8.8V36"/>
	<path class="st7" d="M628.3,38.8l-23.7,3c0,0-7.3,62.9,38,89.2h0.5C621.6,99.3,624.6,59.8,628.3,38.8
		C628.3,38.8,628.3,38.8,628.3,38.8z"/>
	<path class="st5" d="M568.8,76.3c-1.4,0.5-2.9,0.6-4.3,0.1c-2-0.7-3.5-2.2-5-3.7c-0.1-0.1-0.2-0.2-0.2-0.3s0.1-0.3,0.1-0.4
		c1.2-1.6,3.7-2,5.5-1.2c1.9,0.8,3.1,2.8,3.5,4.8c-0.5-3.4,1-7.1,3.7-9.2c0.1-0.1,0.3-0.2,0.5-0.2c0.1,0,0.2,0.2,0.3,0.3
		c0.7,1.1,1.1,2.3,1.3,3.6c0.1,0.7,0.1,1.5-0.1,2.1c-0.3,1.1-1.1,1.9-2,2.5s-2,0.9-3.1,1.3"/>
	<path class="st5" d="M575.5,88.8c-1.8,1.3-4.1,1.7-6.3,1.3c-2.2-0.4-4.2-1.4-6-2.6c1.2-2,3.7-3,6-2.7s4.4,1.8,5.7,3.7
		c-1.7-3-1.7-6.9-0.1-9.9c0.2-0.3,0.4-0.6,0.7-0.5c0.2,0,0.3,0.2,0.4,0.3c1.4,1.6,2.2,3.7,2.1,5.8c-0.1,2.1-1,4.2-2.5,5.6"/>
	<path class="st5" d="M587.1,101.4c-0.3,1.2-1.3,2.1-2.5,2.6s-2.4,0.5-3.7,0.5c-2.5-0.1-5-0.5-7.4-1.2c-0.5-0.1-1-0.4-1.1-0.9
		c-0.1-0.3,0.1-0.6,0.2-0.8c1.3-2.3,4-3.6,6.7-3.5c2.6,0.1,5.1,1.4,7,3.3c-3.5-3.5-4.3-9.2-2.9-14c2.5,1.5,4.3,4,5.2,6.8
		c0.8,2.8,0.6,5.9-0.7,8.5"/>
	<path class="st5" d="M601.6,115.3c-0.2,1.4-1.2,2.5-2.4,3.2s-2.6,0.9-4,0.9c-3.6,0.2-7.3-0.4-10.7-1.8c0.5-3.2,3.6-5.7,6.8-6.2
		c3.2-0.4,6.6,0.9,9,3.2c-4.2-3.9-6-10.3-4.2-15.8c3.5,2.6,6,6.4,6.9,10.7c0.3,1.2,0.4,2.4,0.1,3.6s-1,2.3-2.2,2.7"/>
	<path class="st5" d="M567.4,64.3c-1.4-3-1.6-6.5-0.5-9.6c0.2-0.4,0.5-1,0.9-0.9c0.2,0,0.4,0.2,0.6,0.4c1.4,1.5,2.5,3.3,2.7,5.3
		s-1,4.2-3,4.7"/>
	
		<rect x="583.1" y="18.5" transform="matrix(0.7723 -0.6353 0.6353 0.7723 121.2792 379.6005)" class="st8" width="14" height="4.3"/>
	
		<rect x="740.1" y="162.6" transform="matrix(0.6292 -0.7773 0.7773 0.6292 143.3727 639.8029)" class="st8" width="4.3" height="14"/>
	
		<rect x="702.7" y="17.7" transform="matrix(0.2553 -0.9669 0.9669 0.2553 501.0527 699.9117)" class="st9" width="4.3" height="14"/>
	<rect x="710.7" y="191.1" transform="matrix(0.866 -0.5 0.5 0.866 -0.4683 384.7193)" class="st10" width="14" height="4.3"/>
	<rect x="562.8" y="125.7" transform="matrix(0.866 -0.5 0.5 0.866 12.4102 302.0283)" class="st10" width="14" height="4.3"/>
	
		<rect x="564.7" y="146.4" transform="matrix(0.2319 -0.9727 0.9727 0.2319 294.5648 670.2205)" class="st9" width="14" height="4.3"/>
	
		<rect x="551.4" y="172.3" transform="matrix(0.9871 -0.1602 0.1602 0.9871 -20.7364 91.7236)" class="st11" width="14" height="4.3"/>
	<polyline class="st9" points="650.4,125.1 600.7,125.1 605.1,141.2 602.2,155.8 653.3,155.8 	"/>
	<polyline class="st9" points="647.7,125.1 701.6,125.1 696.8,141.2 700,155.8 644.6,155.8 	"/>
	<path class="st12" d="M608.3,31.5h87.2c2.6,0,4.7,2.1,4.7,4.6v5.4c0,2.6-2.1,4.6-4.7,4.6h-87.2c-2.6,0-4.7-2.1-4.7-4.6v-5.3
		C603.6,33.6,605.7,31.5,608.3,31.5z"/>
	<path class="st7" d="M606.5,40.3h90.8c1.6,0,2.8,1.3,2.8,2.8v0.2c0,1.6-1.3,2.8-2.8,2.8h-90.8c-1.6,0-2.8-1.3-2.8-2.8v-0.2
		C603.6,41.6,604.9,40.3,606.5,40.3z"/>
	<path class="st13" d="M683.4,57.6c0.8,8.6,0.2,16.9-2.2,25.2c-2.1,7.2,9.1,10.3,11.2,3.1c2.6-9.2,3.6-18.7,2.6-28.2
		c-0.3-3.2-2.5-5.8-5.8-5.8C686.3,51.7,683.1,54.5,683.4,57.6L683.4,57.6z"/>
	<path class="st13" d="M678.7,90.9l-1.1,2.7c-0.5,1.3-0.1,3.3,0.6,4.5s2.1,2.4,3.5,2.7c1.5,0.3,3.2,0.3,4.5-0.6l1.2-0.9
		c0.7-0.7,1.2-1.6,1.5-2.6c0.3-0.9,0.7-1.8,1.1-2.7c0.5-1.3,0.1-3.3-0.6-4.5s-2.1-2.4-3.5-2.7c-1.5-0.3-3.2-0.3-4.5,0.6l-1.2,0.9
		C679.5,89.1,679,89.9,678.7,90.9L678.7,90.9z"/>
	<polygon class="st14" points="652,57.5 656.8,67.3 667.6,68.8 659.8,76.4 661.6,87.2 652,82.1 642.3,87.2 644.2,76.4 636.4,68.8 
		647.1,67.3 	"/>
</g>
<g>
	<path class="st15" d="M511.3,423.3v63.1h-18v-45.1l-11.7,45.1h-12.3l-12.1-45.1v45.1h-14.5v-63.1H468l9.1,33.5l8.7-33.5H511.3z"/>
	<path class="st15" d="M549.5,487.3c-8.9,0-16.1-2.9-21.7-8.8s-8.4-13.8-8.4-23.6s2.7-17.2,8-23.4s12.8-9.2,22.3-9.2
		c8.8,0,15.9,2.9,21.5,8.7c5.5,5.8,8.3,13.5,8.3,23.2s-2.8,18-8.4,24.1C565.5,484.3,558.3,487.3,549.5,487.3L549.5,487.3
		L549.5,487.3z M549.4,473c3.3,0,5.6-1.4,7-4.3s2.2-8.1,2.2-15.6c0-11-2.9-16.5-8.8-16.5c-6.4,0-9.5,6.2-9.5,18.8
		C540.3,467.1,543.3,473,549.4,473L549.4,473z"/>
	<path class="st15" d="M641.6,486.4h-15.8l-17.2-27.9c-2.2-3.6-4.5-7.9-6.7-13c1,4.1,1.5,7.5,1.5,10.4v30.5h-15.7v-63.1H606
		l14.7,23.1c2.9,4.6,5.2,8.6,6.7,12.1c-1-5.4-1.5-10.9-1.5-16.5v-18.7h15.8L641.6,486.4L641.6,486.4z"/>
	<path class="st15" d="M678.6,438.4v48h-18.3v-48h-13.2v-15.1h44.5v15.1H678.6z"/>
	<path class="st15" d="M750.7,423.3v63.1h-19.4v-24.5h-14.8v24.5h-19.4v-63.1h19.4v23.2h14.8v-23.2H750.7z"/>
	<path class="st15" d="M805.9,470.9v15.5h-44.2v-63.1h19.4v47.6H805.9z"/>
	<path class="st15" d="M857.4,423.3l-19.8,36.4v26.7h-18.8v-26.7l-21.2-36.4h21.2l11.1,20.8l10.6-20.8H857.4z"/>
</g>
<path class="st5" d="M1123.8,391.3c3.7,7.3,10,13.3,17.5,16.5c10.6,4.6,22.7,3.8,34.3,2.9c0.6,0,1.3-0.1,1.8-0.5
	c0.6-0.5,0.8-1.3,0.8-2.1c0.8-11.3-7.7-22-18.5-25.4c-10.8-3.3-23,0-31.8,7.1c14.6-12.4,21.9-32.9,18.4-51.8c-0.2-1-0.5-2.1-1.4-2.5
	c-0.7-0.3-1.5-0.1-2.2,0.1c-6.8,2.2-13.2,5.8-18.7,10.4c-3.1,2.6-5.9,5.5-7.6,9.1c-2.7,5.5-2.5,12.1-0.7,18s4.9,11.3,8,16.6"/>
<path class="st5" d="M1060.2,419c2.4,11.9,10.9,22,21.2,28.5s22.4,9.5,34.5,11.1c2.1-12.8-4.5-26.2-15.2-33.5s-24.7-8.9-37.2-5.5
	c18.2-6.2,32.6-22.3,36.7-41c0.4-1.8,0.5-4-1-4.9c-0.8-0.5-1.8-0.4-2.7-0.3c-11.6,1.3-22.6,7.2-30.1,16.2s-11.3,20.9-10.5,32.5"/>
<path class="st5" d="M975.4,428.5c-3.2,6.1-2.4,13.7,0.7,19.9c3.1,6.1,8.3,11,13.6,15.4c10.7,8.9,22.5,16.3,35.1,22.2
	c2.5,1.2,5.7,2.2,7.9,0.5c1.3-1,1.8-2.7,2.2-4.3c3-14.3-3.6-29.7-14.9-39c-11.3-9.3-26.6-13-41.2-12c27.7-1.8,51.6-22.6,63.4-47.6
	c-15.9-2.7-32.7,0.6-46.3,9.1s-24,22.2-28.5,37.7"/>
<path class="st5" d="M884.1,433c-4.4,6.3-4.5,14.8-1.9,22s7.7,13.2,13.1,18.6c14.2,14.2,31.7,25.2,50.7,31.9
	c9.6-15.5,6.2-36.9-5.7-50.7s-30.8-20.3-49-19.9c32-0.6,62.8-21.1,75.6-50.3c-24-1.9-48.5,5-68,18.9c-5.4,3.9-10.5,8.4-13.7,14.2
	c-3.1,5.9-4,13.2-0.8,19.1"/>
<path class="st5" d="M1163.7,346.7c16.8-7.3,30.6-21.4,37.4-38.4c1-2.4,1.6-5.7-0.6-7.1c-1.1-0.7-2.5-0.7-3.8-0.5
	c-11.1,1-22.5,4.2-30.4,12.1c-7.9,7.8-11,21.2-4.7,30.4"/>
<path class="st5" d="M176.3,391.3c-3.7,7.3-10,13.3-17.5,16.5c-10.6,4.6-22.7,3.8-34.3,2.9c-0.6,0-1.3-0.1-1.8-0.5
	c-0.6-0.5-0.8-1.3-0.8-2.1c-0.9-11.3,7.7-22,18.5-25.4c10.8-3.3,23,0,31.8,7.1c-14.6-12.4-21.9-32.9-18.4-51.8
	c0.2-1,0.5-2.1,1.4-2.5c0.7-0.3,1.5-0.1,2.2,0.1c6.8,2.2,13.2,5.8,18.7,10.4c3.1,2.6,5.9,5.5,7.6,9.1c2.7,5.5,2.5,12.1,0.7,18
	c-1.7,5.9-4.9,11.3-8,16.6"/>
<path class="st5" d="M239.9,419c-2.4,11.9-10.9,22-21.2,28.5s-22.4,9.5-34.5,11.1c-2.1-12.8,4.5-26.2,15.2-33.5s24.7-8.9,37.2-5.5
	c-18.1-6.2-32.6-22.3-36.7-41c-0.4-1.8-0.5-4,1-4.9c0.8-0.5,1.8-0.4,2.7-0.3c11.6,1.3,22.6,7.2,30.1,16.2s11.3,20.9,10.5,32.5"/>
<path class="st5" d="M324.6,428.5c3.2,6.1,2.4,13.7-0.7,19.9c-3.1,6.1-8.3,11-13.6,15.4c-10.7,8.9-22.5,16.3-35.1,22.2
	c-2.5,1.2-5.7,2.2-7.9,0.5c-1.3-1-1.8-2.7-2.1-4.3c-3-14.3,3.6-29.7,14.9-39s26.6-13,41.2-12c-27.7-1.8-51.6-22.6-63.4-47.6
	c15.9-2.7,32.7,0.6,46.3,9.1c13.6,8.5,24,22.2,28.5,37.7"/>
<path class="st5" d="M416,433c4.4,6.3,4.5,14.8,1.9,22s-7.7,13.2-13.1,18.6c-14.2,14.2-31.7,25.2-50.7,31.9
	c-9.6-15.5-6.2-36.9,5.7-50.7s30.8-20.3,49-19.9c-32-0.6-62.8-21.1-75.6-50.3c24-1.9,48.5,5,68,18.9c5.4,3.9,10.5,8.4,13.6,14.2
	s4,13.2,0.8,19.1"/>
<path class="st5" d="M136.4,346.7c-16.8-7.3-30.6-21.4-37.5-38.4c-1-2.4-1.6-5.7,0.6-7.1c1.1-0.7,2.5-0.7,3.8-0.5
	c11.1,1,22.5,4.2,30.4,12.1c7.9,7.8,11,21.2,4.7,30.4"/>
<g>
	<g>
		<path class="st16" d="M343.6,366.4v-19.1c-26.3-3.5-43.1-17.8-49.9-42.6l-0.4-1.3l40.9-7.6l0.3,1.1c3.1,10.8,10.9,16,23.7,16
			c14.3,0,14.3-5.5,14.3-7.3c0-2.6-1-4.5-3.1-6c-2.3-1.6-6.4-3-12.4-4.2c-24.7-5-39.9-11.3-46.7-19.2c-6.6-7.8-10-16.9-10-27.1
			c0-11.2,3.7-21.2,10.9-29.9c7.1-8.4,17.9-13.9,32.2-16.2v-19H367v18.5c23.4,2.9,39,14.5,46.3,34.4l0.5,1.2l-36.6,11.4l-0.4-1.1
			c-3.3-8.9-10-13.1-20.4-13.1c-12.4,0-12.4,5.7-12.4,7.5s0.6,3.3,1.9,4.5c0.9,0.9,3.8,2.4,12.1,4.2c15.9,3.5,27.4,6.6,34.3,9.4
			c7.1,2.8,13.1,7.7,17.8,14.4c4.7,6.7,7.1,14.8,7.1,23.9c0,12.8-4.6,23.7-13.7,32.4c-8.9,8.4-21.1,13.6-36.4,15.5v19.1L343.6,366.4
			L343.6,366.4L343.6,366.4z"/>
		<path class="st17" d="M365.9,185.2v18.3c23.6,2.6,39.1,13.9,46.4,33.7L377.9,248c-3.5-9.3-10.7-13.9-21.5-13.9
			c-9.1,0-13.6,2.9-13.6,8.8c0,2.1,0.8,3.9,2.3,5.4s5.8,3,12.7,4.6c15.9,3.5,27.3,6.6,34.1,9.3s12.6,7.4,17.2,13.9
			s6.9,14.3,6.9,23.2c0,12.5-4.5,23-13.4,31.5s-21.1,13.6-36.7,15.3v19h-21.1v-19c-26.5-3.1-43.2-17.1-50-41.9l38.4-7.1
			c3.3,11.3,11.6,16.9,24.9,16.9c10.4,0,15.6-2.9,15.6-8.6c0-3-1.2-5.4-3.6-7c-2.4-1.7-6.7-3.1-12.9-4.4
			c-24.2-4.9-39.5-11.2-46-18.8c-6.5-7.6-9.7-16.4-9.7-26.2c0-10.9,3.5-20.6,10.7-29c7.1-8.4,17.9-13.8,32.5-16v-18.8H365.9
			 M368.4,182.7h-26.1v19.2c-14.1,2.5-24.8,8-31.9,16.5c-7.5,8.9-11.2,19.2-11.2,30.6c0,10.4,3.5,19.8,10.3,27.9
			c6.9,8.1,22.4,14.5,47.4,19.6c7.2,1.5,10.5,3,11.9,4c1.7,1.2,2.5,2.8,2.5,5c0,1.5,0,6.1-13.1,6.1c-12.2,0-19.6-4.9-22.5-15.1
			l-0.6-2.2l-2.2,0.4l-38.4,7.1l-2.7,0.5l0.7,2.6c6.9,25,23.7,39.6,49.9,43.4v19.3h26.1v-19.3c15-2,27.1-7.3,36-15.7
			c9.4-8.9,14.1-20.1,14.1-33.3c0-9.4-2.5-17.7-7.3-24.6s-11-11.9-18.3-14.8c-7-2.8-18.6-6-34.5-9.4c-8.8-1.9-11-3.4-11.5-3.9
			c-1.1-1-1.5-2.2-1.5-3.6c0-1.7,0-6.3,11.1-6.3c9.8,0,16,4,19.2,12.3l0.8,2.2l2.3-0.7l34.4-10.8l2.5-0.8l-0.9-2.5
			c-7.3-20.1-22.9-31.9-46.2-35.1L368.4,182.7L368.4,182.7L368.4,182.7z"/>
	</g>
	<g>
		<polygon class="st16" points="563.6,390.4 580.8,351.9 563.8,351.9 563.8,309.5 608.1,309.5 608.1,347.9 583.5,390.4 		"/>
		<path class="st17" d="M606.8,310.7v36.8l-24,41.6h-17.2l17.2-38.5h-17.7v-39.9H606.8 M609.3,308.2h-46.8v44.9h16.3l-15.7,35
			l-1.6,3.5h22.6l0.7-1.2l24-41.6l0.3-0.6L609.3,308.2L609.3,308.2L609.3,308.2z"/>
	</g>
	<g>
		<path class="st16" d="M682.5,354.1c-18.4,0-33.2-7.4-44-21.9c-10.7-14.4-16.1-33.5-16.1-56.9s5.5-43.2,16.5-57.1
			c11-14,25.9-21.1,44.3-21.1c19.3,0,34.3,7.6,44.6,22.6c10.2,14.8,15.4,34,15.4,57s-5.6,42.4-16.6,56.4S700.8,354.2,682.5,354.1
			L682.5,354.1L682.5,354.1z M683,231.1c-5.3,0-8.8,3.5-10.9,10.7c-2.2,7.6-3.3,18.2-3.3,31.6c0,18.2,1.1,30.7,3.3,37.2
			c2.1,6.2,5.6,9.2,10.8,9.2c5.7,0,9.5-3.6,11.4-11.1c2.1-7.9,3.1-18.8,3.1-32.6c0-18.8-1.4-31.2-4.1-36.9
			C690.8,233.8,687.4,231.1,683,231.1L683,231.1z"/>
		<path class="st17" d="M683.3,198.4c19,0,33.5,7.3,43.6,22s15.2,33.4,15.2,56.3s-5.4,41.8-16.3,55.6
			c-10.9,13.8-25.3,20.6-43.2,20.6s-32.4-7.1-43-21.4c-10.5-14.2-15.8-33-15.8-56.2s5.4-42.6,16.2-56.4
			C650.7,205.2,665.2,198.3,683.3,198.4 M682.9,321c6.3,0,10.5-4,12.6-12s3.2-19,3.2-32.9c0-19.1-1.4-31.6-4.2-37.5
			s-6.7-8.8-11.5-8.8c-5.9,0-9.9,3.9-12.1,11.6c-2.2,7.7-3.3,18.4-3.3,31.9c0,18.4,1.1,30.9,3.3,37.6
			C673.1,317.7,677.1,321,682.9,321 M683.2,195.8c-18.8,0-34,7.3-45.3,21.6c-11.1,14.2-16.7,33.6-16.7,57.9s5.5,43.1,16.3,57.7
			c11,14.9,26.1,22.4,45,22.4s33.9-7.3,45.2-21.6c11.2-14.2,16.8-33.4,16.8-57.1s-5.2-42.7-15.6-57.7
			C718.4,203.6,703,195.8,683.2,195.8L683.2,195.8L683.2,195.8z M682.9,318.5c-3,0-7.2-0.9-9.7-8.3c-2.1-6.4-3.2-18.8-3.2-36.8
			c0-13.2,1.1-23.8,3.2-31.2c2.5-8.8,6.8-9.8,9.7-9.8c3.8,0,6.8,2.4,9.2,7.4c2.6,5.5,4,17.7,4,36.4c0,13.6-1,24.5-3.1,32.3
			C690.7,317.5,686.1,318.5,682.9,318.5L682.9,318.5L682.9,318.5z"/>
	</g>
	<g>
		<path class="st16" d="M814.4,354.1c-18.4,0-33.2-7.4-44-21.9c-10.7-14.4-16.1-33.5-16.1-56.9s5.5-43.2,16.5-57.1
			c11-14,25.9-21.1,44.3-21.1c19.3,0,34.3,7.6,44.6,22.6c10.2,14.8,15.4,34,15.4,57s-5.6,42.4-16.6,56.4S832.7,354.2,814.4,354.1
			L814.4,354.1L814.4,354.1z M815,231.1c-5.3,0-8.8,3.5-10.9,10.7c-2.2,7.6-3.3,18.2-3.3,31.6c0,18.2,1.1,30.7,3.3,37.2
			c2.1,6.2,5.6,9.2,10.8,9.2c5.7,0,9.5-3.6,11.4-11.1c2.1-7.9,3.1-18.8,3.1-32.6c0-18.8-1.4-31.2-4.1-36.9
			C822.7,233.8,819.3,231.1,815,231.1L815,231.1z"/>
		<path class="st17" d="M815.2,198.4c19,0,33.5,7.3,43.6,22s15.2,33.4,15.2,56.3s-5.4,41.8-16.3,55.6
			c-10.9,13.8-25.3,20.6-43.2,20.6s-32.4-7.1-43-21.4c-10.5-14.2-15.8-33-15.8-56.2s5.4-42.6,16.2-56.4
			C782.6,205.2,797.1,198.3,815.2,198.4 M814.8,321c6.3,0,10.5-4,12.6-12s3.2-19,3.2-32.9c0-19.1-1.4-31.6-4.2-37.5
			s-6.7-8.8-11.5-8.8c-5.9,0-9.9,3.9-12.1,11.6c-2.2,7.7-3.3,18.4-3.3,31.9c0,18.4,1.1,30.9,3.3,37.6C805,317.7,809,321,814.8,321
			 M815.2,195.8c-18.8,0-34,7.3-45.3,21.6c-11.1,14.2-16.7,33.6-16.7,57.9s5.5,43.1,16.3,57.7c11,14.9,26.1,22.4,45,22.4
			s33.9-7.3,45.2-21.6c11.2-14.2,16.8-33.4,16.8-57.1s-5.2-42.7-15.6-57.7C850.3,203.6,834.9,195.8,815.2,195.8L815.2,195.8
			L815.2,195.8z M814.8,318.5c-3,0-7.2-0.9-9.7-8.3c-2.1-6.4-3.2-18.8-3.2-36.8c0-13.2,1.1-23.8,3.2-31.2c2.5-8.8,6.8-9.8,9.7-9.8
			c3.8,0,6.8,2.4,9.2,7.4c2.6,5.5,4,17.7,4,36.4c0,13.6-1,24.5-3.1,32.3C822.6,317.5,818.1,318.5,814.8,318.5L814.8,318.5
			L814.8,318.5z"/>
	</g>
	<g>
		<path class="st16" d="M946.3,354.1c-18.4,0-33.2-7.4-44-21.9c-10.7-14.4-16.1-33.5-16.1-56.9s5.5-43.2,16.5-57.1
			c11-14,25.9-21.1,44.3-21.1c19.3,0,34.3,7.6,44.6,22.6c10.2,14.8,15.4,34,15.4,57s-5.6,42.4-16.6,56.4
			C979.5,347.1,964.6,354.2,946.3,354.1L946.3,354.1L946.3,354.1z M946.9,231.1c-5.3,0-8.8,3.5-10.9,10.7
			c-2.2,7.6-3.3,18.2-3.3,31.6c0,18.2,1.1,30.7,3.3,37.2c2.1,6.2,5.6,9.2,10.8,9.2c5.7,0,9.5-3.6,11.4-11.1
			c2.1-7.9,3.1-18.8,3.1-32.6c0-18.8-1.4-31.2-4.1-36.9C954.6,233.8,951.2,231.1,946.9,231.1L946.9,231.1z"/>
		<path class="st17" d="M947.1,198.4c19,0,33.5,7.3,43.6,22s15.2,33.4,15.2,56.3s-5.4,41.8-16.3,55.6
			c-10.9,13.8-25.3,20.6-43.2,20.6s-32.4-7.1-43-21.4c-10.5-14.2-15.8-33-15.8-56.2s5.4-42.6,16.2-56.4
			C914.6,205.2,929,198.3,947.1,198.4 M946.8,321c6.3,0,10.5-4,12.6-12s3.2-19,3.2-32.9c0-19.1-1.4-31.6-4.2-37.5s-6.7-8.8-11.5-8.8
			c-5.9,0-9.9,3.9-12.1,11.6c-2.2,7.7-3.3,18.4-3.3,31.9c0,18.4,1.1,30.9,3.3,37.6C937,317.7,941,321,946.8,321 M947.1,195.8
			c-18.8,0-34,7.3-45.3,21.6c-11.1,14.2-16.7,33.6-16.7,57.9s5.5,43.1,16.3,57.7c11,14.9,26.1,22.4,45,22.4s33.9-7.3,45.2-21.6
			c11.2-14.2,16.8-33.4,16.8-57.1s-5.2-42.7-15.6-57.7C982.2,203.6,966.9,195.8,947.1,195.8L947.1,195.8L947.1,195.8z M946.8,318.5
			c-3,0-7.2-0.9-9.7-8.3c-2.1-6.4-3.2-18.8-3.2-36.8c0-13.2,1.1-23.8,3.2-31.2c2.5-8.8,6.8-9.8,9.7-9.8c3.8,0,6.8,2.4,9.2,7.4
			c2.6,5.5,4,17.7,4,36.4c0,13.6-1,24.5-3.1,32.3C954.6,317.5,950,318.5,946.8,318.5L946.8,318.5L946.8,318.5z"/>
	</g>
	<path class="st18" d="M802.8,241.5c2.2-7.7,6.3-11.6,12.1-11.6c0.4,0,0.8,0,1.2,0.1l13.5-29.9c-4.5-1.1-9.4-1.7-14.5-1.7
		c-18.1,0-32.5,6.9-43.3,20.6c-10.8,13.8-16.2,32.6-16.2,56.4s5,41.1,15.1,55.2l28.8-63.8C799.9,256.4,801,247.9,802.8,241.5
		L802.8,241.5L802.8,241.5z"/>
	<path class="st18" d="M698.8,276.1c0,13.9-1.1,24.9-3.2,32.9s-6.3,12-12.6,12c-5.3,0-9.2-2.9-11.5-8.6
		c-6.2,12.1-11.9,23.4-16.8,33.1c8,4.9,17.3,7.3,27.8,7.3c17.9,0,32.3-6.9,43.2-20.6c10.9-13.8,16.3-32.3,16.3-55.6
		s-5-41.6-15.2-56.3c-1.7-2.5-3.5-4.7-5.5-6.8c-7.2,14.2-15.1,29.9-23.1,45.8C698.6,264.3,698.7,269.8,698.8,276.1L698.8,276.1
		L698.8,276.1z"/>
	<path class="st18" d="M813.3,352.9l50-125c-1.4-2.6-2.9-5.1-4.5-7.5c-2.6-3.7-5.4-7-8.6-9.8l-20.1,47.7c0.3,5.1,0.5,11,0.5,17.8
		c0,13.9-1.1,24.9-3.2,32.9s-6.3,12-12.6,12c-3.9,0-6.9-1.5-9.2-4.5l-13.5,32C798.5,351.3,805.6,352.8,813.3,352.9L813.3,352.9
		L813.3,352.9z"/>
</g>
<g>
	<path class="st16" d="M429.6,351.8v-35.7h37.3v-69.4c-13.5,5.9-24.3,9.5-32.1,10.5l-1.1,0.2v-36l0.8-0.2
		c21.1-4.6,35.6-12.9,43.1-24.6l0.3-0.5h34.4v119.9H548v35.7H429.6z"/>
	<g>
		<defs>
			<path id="SVGID_1_" d="M429.6,351.8v-35.7h37.3v-69.4c-13.5,5.9-24.3,9.5-32.1,10.5l-1.1,0.2v-36l0.8-0.2
				c21.1-4.6,35.6-12.9,43.1-24.6l0.3-0.5h34.4v119.9H548v35.7H429.6z"/>
		</defs>
		<clipPath id="SVGID_00000037661212804245940810000010091703075462097340_">
			<use xlink:href="#SVGID_1_"  style="overflow:visible;"/>
		</clipPath>
		<polygon style="clip-path:url(#SVGID_00000037661212804245940810000010091703075462097340_);fill:#FFC550;" points="484.2,188.5 
			411.8,349.5 461.7,372.7 513.4,184.6 		"/>
	</g>
	<path class="st17" d="M511.3,197.2v119.9H547v33.7H430.6v-33.7h37.3v-71.9c-14.2,6.3-25.3,10-33.2,11.1v-34
		c21.5-4.7,36.1-13,43.8-25H511.3 M513.3,195.2h-2h-32.8h-1.1l-0.6,0.9c-7.4,11.5-21.7,19.7-42.5,24.2l-1.6,0.3v1.6v34v2.3l2.3-0.3
		c7.6-1.1,18-4.4,31-10v66.9h-35.3h-2v2v33.7v2h2H547h2v-2v-33.7v-2h-2h-33.7V197.2V195.2L513.3,195.2z"/>
</g>
</svg>
