<?xml version="1.0" encoding="UTF-8"?>
<svg id="_图层_2" data-name=" 图层 2" xmlns="http://www.w3.org/2000/svg" xmlns:xlink="http://www.w3.org/1999/xlink" viewBox="0 0 1146.26 662.86">
  <defs>
    <style>
      .cls-1 {
        fill: #423d34;
      }

      .cls-2 {
        fill: #018a84;
      }

      .cls-3 {
        fill: #f5d17c;
      }

      .cls-4 {
        clip-path: url(#clippath-2);
      }

      .cls-5 {
        fill: #6bbcbb;
      }

      .cls-6 {
        fill: #ecacc5;
      }

      .cls-7 {
        clip-path: url(#clippath-1);
      }

      .cls-8 {
        fill: #25a460;
      }

      .cls-9 {
        fill: #d62944;
      }

      .cls-10 {
        fill: #0b6b64;
        isolation: isolate;
        opacity: .55;
      }

      .cls-11 {
        fill: #ffc550;
      }

      .cls-12 {
        clip-path: url(#clippath);
      }

      .cls-13 {
        stroke: #fff;
        stroke-linecap: round;
        stroke-miterlimit: 10;
        stroke-width: 6.92px;
      }

      .cls-13, .cls-14 {
        fill: none;
      }

      .cls-15 {
        fill: #eedc23;
      }

      .cls-16 {
        fill: #e69911;
      }

      .cls-17 {
        clip-path: url(#clippath-3);
      }

      .cls-18 {
        fill: #ed9718;
      }

      .cls-19 {
        fill: #f1c052;
      }

      .cls-20 {
        fill: #fdb303;
      }

      .cls-21 {
        fill: #e5a61f;
      }
    </style>
    <clipPath id="clippath">
      <polygon class="cls-14" points="530.94 572.56 496.44 622.96 527.64 628.46 548.74 649.26 575.04 582.46 530.94 572.56"/>
    </clipPath>
    <clipPath id="clippath-1">
      <polygon class="cls-14" points="566.14 583.66 599.74 662.86 619.14 641.16 649.74 634.86 603.54 571.36 566.14 583.66"/>
    </clipPath>
    <clipPath id="clippath-2">
      <path class="cls-14" d="m855.17,330.01c-25.11,0-44.99-9.89-59.63-29.66s-21.96-45.78-21.96-78.01,7.5-59.12,22.5-78.24c15-19.11,35.05-28.67,60.17-28.67s46.52,10.19,60.55,30.58c14.03,20.39,21.05,46.44,21.05,78.16s-7.55,58.06-22.65,77.17c-15.1,19.12-35.1,28.67-60.02,28.67h0Zm.61-44.23c8.75,0,14.59-5.57,17.54-16.7,2.95-11.13,4.42-26.36,4.42-45.68,0-26.54-1.96-43.87-5.87-52.01-3.92-8.13-9.23-12.2-15.94-12.2-8.14,0-13.75,5.36-16.85,16.09s-4.65,25.5-4.65,44.3c0,25.52,1.55,42.93,4.65,52.24,3.1,9.3,8.67,13.95,16.7,13.95h0Z"/>
    </clipPath>
    <clipPath id="clippath-3">
      <path class="cls-14" d="m486.05,336.6c-51.33,0-83.19-23.88-94.7-70.97l-.53-2.18,60.54-7.48.35,1.85c3.53,18.85,13.26,28.02,29.75,28.02,7.41,0,13.49-1.93,18.07-5.72,4.53-3.76,6.73-8.7,6.73-15.11,0-4.24-1.19-7.86-3.64-11.08-2.48-3.26-5.14-5.57-7.89-6.85-2.79-1.3-7.84-1.95-15.01-1.95h-28.32v-49.19h24.2c11.15,0,18.3-1.88,21.27-5.59,3.08-3.84,4.64-7.85,4.64-11.91,0-5.16-1.86-9.34-5.68-12.78-3.83-3.45-8.98-5.19-15.31-5.19-13.83,0-22.06,7.56-25.15,23.12l-.37,1.89-56.35-8.88.49-2.1c4.85-20.68,15.27-36.87,30.99-48.1,15.66-11.19,34.42-16.86,55.79-16.86,24.02,0,43.63,5.74,58.3,17.07,14.83,11.45,22.34,26.92,22.34,45.98,0,11.48-3.2,21.64-9.51,30.2-5.12,6.94-11.45,12.1-18.88,15.38,23.26,8.84,35.05,25.97,35.05,50.98,0,21.3-8.25,38.09-24.53,49.9-16.08,11.67-37.14,17.58-62.62,17.58Z"/>
    </clipPath>
  </defs>
  <g>
    <g>
      <path class="cls-8" d="m1063.54,488.26c3.5,6.9,9.4,12.4,16.4,15.5,10,4.4,21.3,3.6,32.2,2.7.6,0,1.2-.1,1.7-.5.6-.5.7-1.3.8-2,.8-10.6-7.2-20.7-17.4-23.8s-21.6,0-29.8,6.7c13.7-11.6,20.6-30.9,17.3-48.6-.2-.9-.5-2-1.3-2.4-.7-.3-1.4-.1-2.1.1-6.4,2.1-12.4,5.4-17.5,9.8-2.9,2.4-5.5,5.2-7.2,8.5-2.5,5.2-2.3,11.4-.7,16.9,1.6,5.5,4.6,10.6,7.5,15.5"/>
      <path class="cls-8" d="m994.44,514.16c2.3,11.2,10.2,20.7,19.9,26.7,9.7,6,21,8.9,32.3,10.5,2-12-4.2-24.5-14.2-31.4s-23.2-8.3-34.9-5.2c17-5.8,30.6-20.9,34.5-38.5.4-1.6.5-3.7-1-4.6-.8-.5-1.7-.4-2.6-.3-10.9,1.2-21.2,6.8-28.2,15.2-7,8.4-10.6,19.6-9.9,30.5"/>
      <path class="cls-8" d="m905.64,523.06c-3,5.7-2.2,12.9.7,18.6,2.9,5.8,7.8,10.3,12.7,14.5,10,8.3,21.1,15.3,33,20.8,2.4,1.1,5.4,2.1,7.4.5,1.2-1,1.7-2.5,2-4,2.8-13.4-3.4-27.9-14-36.6s-24.9-12.2-38.6-11.2c26-1.7,48.4-21.2,59.5-44.7-14.9-2.5-30.7.6-43.5,8.6s-22.5,20.8-26.8,35.3"/>
      <path class="cls-8" d="m801.14,527.26c-4.1,5.9-4.2,13.9-1.8,20.6s7.2,12.4,12.3,17.5c13.4,13.4,29.8,23.6,47.6,29.9,9-14.5,5.8-34.6-5.3-47.6-11.2-12.9-28.9-19-45.9-18.7,30-.5,58.9-19.8,71-47.2-22.5-1.8-45.5,4.6-63.8,17.8-5.1,3.6-9.9,7.9-12.8,13.4-2.9,5.5-3.7,12.4-.7,17.9"/>
      <path class="cls-8" d="m1110.34,446.36c15.8-6.8,28.7-20.1,35.1-36,.9-2.2,1.5-5.3-.6-6.7-1-.7-2.4-.6-3.6-.5-10.4,1-21.1,4-28.5,11.3-7.4,7.4-10.3,19.9-4.4,28.5"/>
    </g>
    <g>
      <path class="cls-8" d="m82.64,488.26c-3.5,6.9-9.4,12.4-16.4,15.5-10,4.4-21.3,3.6-32.2,2.7-.6,0-1.2-.1-1.7-.5-.6-.5-.7-1.3-.8-2-.8-10.6,7.2-20.7,17.4-23.8s21.6,0,29.8,6.7c-13.7-11.6-20.6-30.9-17.3-48.6.2-.9.5-2,1.3-2.4.7-.3,1.4-.1,2.1.1,6.4,2.1,12.4,5.4,17.5,9.8,2.9,2.4,5.5,5.2,7.2,8.5,2.5,5.2,2.3,11.4.7,16.9-1.6,5.5-4.6,10.6-7.5,15.5"/>
      <path class="cls-8" d="m151.74,514.16c-2.3,11.2-10.2,20.7-19.9,26.7s-21,8.9-32.3,10.5c-2-12,4.2-24.5,14.2-31.4s23.2-8.3,34.9-5.2c-17-5.8-30.6-20.9-34.5-38.5-.4-1.6-.5-3.7,1-4.6.8-.5,1.7-.4,2.6-.3,10.9,1.2,21.2,6.8,28.2,15.2s10.6,19.6,9.9,30.5"/>
      <path class="cls-8" d="m240.64,523.06c3.1,5.7,2.2,12.9-.7,18.6-2.9,5.8-7.8,10.3-12.7,14.5-10,8.3-21.1,15.3-33,20.8-2.4,1.1-5.4,2.1-7.4.5-1.2-1-1.7-2.5-2-4-2.9-13.4,3.4-27.9,14-36.6s24.9-12.2,38.6-11.2c-26-1.7-48.4-21.2-59.5-44.7,14.9-2.5,30.7.6,43.5,8.6s22.5,20.8,26.8,35.3"/>
      <path class="cls-8" d="m345.14,527.26c4.1,5.9,4.2,13.9,1.8,20.6s-7.2,12.4-12.3,17.5c-13.4,13.4-29.8,23.6-47.6,29.9-9-14.5-5.8-34.6,5.3-47.6,11.2-12.9,28.9-19,45.9-18.7-30-.5-58.9-19.8-71-47.2,22.5-1.8,45.5,4.6,63.8,17.8,5.1,3.6,9.9,7.9,12.8,13.4s3.7,12.4.7,17.9"/>
      <path class="cls-8" d="m35.94,446.36c-15.8-6.8-28.7-20.1-35.1-36-.9-2.2-1.5-5.3.5-6.7,1-.7,2.4-.6,3.6-.5,10.4,1,21.1,4,28.5,11.3,7.4,7.4,10.3,19.9,4.4,28.5"/>
    </g>
  </g>
  <g>
    <rect class="cls-6" x="636.87" y="452.79" width="6" height="19.5" transform="translate(-94.49 752.52) rotate(-57.41)"/>
    <rect class="cls-9" x="469.24" y="509.89" width="6" height="19.5" transform="translate(-229.85 529.49) rotate(-48.54)"/>
    <rect class="cls-9" x="708.03" y="603.06" width="6" height="19.5" transform="translate(-212.65 779.89) rotate(-51.01)"/>
    <rect class="cls-5" x="680.53" y="521.04" width="6" height="19.5" transform="translate(-4.16 1056.17) rotate(-75.21)"/>
    <rect class="cls-15" x="640.01" y="589.85" width="19.5" height="6" transform="translate(-209.37 404.31) rotate(-30)"/>
    <rect class="cls-15" x="424.76" y="487.82" width="19.5" height="6" transform="translate(-221.01 491.48) rotate(-48.54)"/>
    <rect class="cls-5" x="425.28" y="609.77" width="19.5" height="6" transform="translate(-261.93 893.83) rotate(-76.59)"/>
    <rect class="cls-6" x="469.05" y="602.66" width="19.5" height="6" transform="translate(-90.86 84.54) rotate(-9.22)"/>
  </g>
  <g>
    <polygon class="cls-5" points="530.94 572.56 496.44 622.96 527.64 628.46 548.74 649.26 575.04 582.46 530.94 572.56"/>
    <polygon class="cls-5" points="566.14 583.66 599.74 662.86 619.14 641.16 649.74 634.86 603.54 571.36 566.14 583.66"/>
    <g class="cls-12">
      <g>
        <polygon class="cls-2" points="560.94 583.06 552.64 646.76 567.84 646.16 575.84 579.06 560.94 583.06"/>
        <circle class="cls-10" cx="568.65" cy="522.83" r="68.5"/>
      </g>
    </g>
    <g class="cls-7">
      <g>
        <path class="cls-2" d="m598.74,661.86c.1-.3-10-49.3-10.6-55.9s-2-24.1,23.3-28.4l-4.8-5.6-44.5,7.8,31.1,80.4,5.5,1.7h0Z"/>
        <circle class="cls-10" cx="568.65" cy="522.83" r="68.5"/>
      </g>
    </g>
    <circle class="cls-19" cx="568.36" cy="522.87" r="66.3"/>
    <circle class="cls-21" cx="568.34" cy="522.86" r="60.6" transform="translate(-203.26 555.02) rotate(-45)"/>
    <circle class="cls-3" cx="568.34" cy="522.86" r="49.3"/>
    <circle class="cls-3" cx="568.34" cy="522.86" r="49.3"/>
    <circle class="cls-19" cx="568.34" cy="522.86" r="45.9"/>
    <path class="cls-13" d="m609.54,498.66s11.9,18.2,3.3,41.5"/>
    <path class="cls-13" d="m609.74,546.26s-1.8,3.4-2.8,4.3"/>
    <g>
      <circle class="cls-16" cx="568.34" cy="513.23" r="11.12"/>
      <path class="cls-16" d="m582.54,545.11c.38-1.68.6-3.46.6-5.3,0-10.49-6.62-18.99-14.8-18.99s-14.8,8.5-14.8,18.99c0,1.84.21,3.62.6,5.3h28.4Z"/>
    </g>
  </g>
  <g>
    <path class="cls-20" d="m277.43,120.77v-26.71h30v26.09c33.64,3.75,55.62,19.74,65.93,47.96l-48.9,15.31c-5-13.23-15.21-19.84-30.62-19.84-12.92,0-19.37,4.17-19.37,12.5,0,3.02,1.09,5.6,3.28,7.73,2.19,2.14,8.22,4.31,18.11,6.52,22.59,4.94,38.78,9.37,48.58,13.27,9.79,3.9,17.95,10.51,24.46,19.83,6.51,9.31,9.77,20.32,9.77,33.01,0,17.8-6.33,32.7-18.98,44.72-12.65,12.02-30.07,19.28-52.26,21.78v27.03h-30v-27.03c-37.7-4.48-61.4-24.32-71.08-59.52l54.68-10.15c4.69,16.04,16.51,24.06,35.46,24.06,14.79,0,22.18-4.06,22.18-12.19,0-4.27-1.72-7.6-5.16-10-3.44-2.39-9.53-4.48-18.28-6.26-34.36-7.01-56.16-15.92-65.38-26.75s-13.83-23.27-13.83-37.32c0-15.51,5.05-29.28,15.15-41.31,10.1-12.02,25.52-19.6,46.24-22.72h.02Z"/>
    <path class="cls-18" d="m309.42,351.96h-34v-27.26c-37.4-4.97-61.29-25.41-71.01-60.76l-.58-2.1,58.6-10.88.51,1.74c4.45,15.22,15.42,22.62,33.54,22.62,20.18,0,20.18-7.67,20.18-10.19,0-3.61-1.41-6.34-4.3-8.36-3.2-2.23-9.1-4.23-17.53-5.94-35.14-7.17-56.9-16.13-66.5-27.41-9.49-11.15-14.31-24.14-14.31-38.62,0-15.92,5.26-30.25,15.62-42.59,10.09-12.02,25.49-19.8,45.77-23.14v-27.01h34v26.31c33.31,4.19,55.44,20.69,65.81,49.05l.72,1.97-52.7,16.5-.67-1.77c-4.72-12.48-14.12-18.55-28.75-18.55-17.37,0-17.37,7.9-17.37,10.5s.88,4.54,2.68,6.3c1.08,1.05,4.73,3.22,17.15,5.99,22.58,4.94,39.03,9.44,48.88,13.36,10.12,4.03,18.65,10.94,25.36,20.54,6.72,9.61,10.13,21.11,10.13,34.16,0,18.28-6.6,33.82-19.6,46.17-12.58,11.95-29.94,19.38-51.64,22.1v27.27Zm-30-4h26v-26.81l1.78-.2c21.64-2.44,38.83-9.58,51.1-21.24,12.18-11.57,18.36-26.13,18.36-43.27,0-12.22-3.17-22.94-9.41-31.87-6.25-8.94-14.18-15.38-23.56-19.11-9.65-3.84-25.89-8.28-48.26-13.17-13.8-3.08-17.5-5.49-19.08-7.04-2.58-2.51-3.88-5.6-3.88-9.16,0-6.61,3.71-14.5,21.37-14.5,15.57,0,26.25,6.52,31.78,19.38l45.11-14.12c-10.29-26.11-31.65-41.15-63.53-44.7l-1.78-.2v-25.89h-26v26.44l-1.7.26c-20.14,3.04-35.28,10.45-45.01,22.03-9.74,11.6-14.69,25.06-14.69,40.02,0,13.5,4.49,25.62,13.35,36.02,8.88,10.43,30.5,19.2,64.26,26.09,9.1,1.85,15.32,4,19.02,6.58,3.99,2.78,6.01,6.7,6.01,11.64,0,9.41-8.14,14.19-24.18,14.19-19.17,0-31.56-7.99-36.84-23.77l-50.77,9.43c9.77,32.88,32.91,51.71,68.79,55.97l1.76.21v26.8h0Z"/>
  </g>
  <g>
    <path class="cls-20" d="m277.43,120.77v-26.71h30v26.09c33.64,3.75,55.62,19.74,65.93,47.96l-48.9,15.31c-5-13.23-15.21-19.84-30.62-19.84-12.92,0-19.37,4.17-19.37,12.5,0,3.02,1.09,5.6,3.28,7.73,2.19,2.14,8.22,4.31,18.11,6.52,22.59,4.94,38.78,9.37,48.58,13.27,9.79,3.9,17.95,10.51,24.46,19.83,6.51,9.31,9.77,20.32,9.77,33.01,0,17.8-6.33,32.7-18.98,44.72-12.65,12.02-30.07,19.28-52.26,21.78v27.03h-30v-27.03c-37.7-4.48-61.4-24.32-71.08-59.52l54.68-10.15c4.69,16.04,16.51,24.06,35.46,24.06,14.79,0,22.18-4.06,22.18-12.19,0-4.27-1.72-7.6-5.16-10-3.44-2.39-9.53-4.48-18.28-6.26-34.36-7.01-56.16-15.92-65.38-26.75s-13.83-23.27-13.83-37.32c0-15.51,5.05-29.28,15.15-41.31,10.1-12.02,25.52-19.6,46.24-22.72h.02Z"/>
    <path class="cls-18" d="m309.42,351.96h-34v-27.26c-37.4-4.97-61.29-25.41-71.01-60.76l-.58-2.1,58.6-10.88.51,1.74c4.45,15.22,15.42,22.62,33.54,22.62,20.18,0,20.18-7.67,20.18-10.19,0-3.61-1.41-6.34-4.3-8.36-3.2-2.23-9.1-4.23-17.53-5.94-35.14-7.17-56.9-16.13-66.5-27.41-9.49-11.15-14.31-24.14-14.31-38.62,0-15.92,5.26-30.25,15.62-42.59,10.09-12.02,25.49-19.8,45.77-23.14v-27.01h34v26.31c33.31,4.19,55.44,20.69,65.81,49.05l.72,1.97-52.7,16.5-.67-1.77c-4.72-12.48-14.12-18.55-28.75-18.55-17.37,0-17.37,7.9-17.37,10.5s.88,4.54,2.68,6.3c1.08,1.05,4.73,3.22,17.15,5.99,22.58,4.94,39.03,9.44,48.88,13.36,10.12,4.03,18.65,10.94,25.36,20.54,6.72,9.61,10.13,21.11,10.13,34.16,0,18.28-6.6,33.82-19.6,46.17-12.58,11.95-29.94,19.38-51.64,22.1v27.27Zm-30-4h26v-26.81l1.78-.2c21.64-2.44,38.83-9.58,51.1-21.24,12.18-11.57,18.36-26.13,18.36-43.27,0-12.22-3.17-22.94-9.41-31.87-6.25-8.94-14.18-15.38-23.56-19.11-9.65-3.84-25.89-8.28-48.26-13.17-13.8-3.08-17.5-5.49-19.08-7.04-2.58-2.51-3.88-5.6-3.88-9.16,0-6.61,3.71-14.5,21.37-14.5,15.57,0,26.25,6.52,31.78,19.38l45.11-14.12c-10.29-26.11-31.65-41.15-63.53-44.7l-1.78-.2v-25.89h-26v26.44l-1.7.26c-20.14,3.04-35.28,10.45-45.01,22.03-9.74,11.6-14.69,25.06-14.69,40.02,0,13.5,4.49,25.62,13.35,36.02,8.88,10.43,30.5,19.2,64.26,26.09,9.1,1.85,15.32,4,19.02,6.58,3.99,2.78,6.01,6.7,6.01,11.64,0,9.41-8.14,14.19-24.18,14.19-19.17,0-31.56-7.99-36.84-23.77l-50.77,9.43c9.77,32.88,32.91,51.71,68.79,55.97l1.76.21v26.8h0Z"/>
  </g>
  <g>
    <path class="cls-20" d="m855.16,332.62c-25.73,0-46.09-10.13-61.08-30.39-15-20.26-22.5-46.89-22.5-79.91s7.68-60.56,23.04-80.14c15.36-19.58,35.91-29.37,61.63-29.37s47.65,10.44,62.02,31.32,21.56,47.57,21.56,80.07-7.73,59.47-23.2,79.05c-15.47,19.58-35.96,29.37-61.48,29.37h.01Zm.62-45.31c8.96,0,14.95-5.7,17.97-17.11,3.02-11.4,4.53-27,4.53-46.79,0-27.18-2.01-44.94-6.01-53.27-4.01-8.33-9.45-12.5-16.33-12.5-8.33,0-14.09,5.49-17.26,16.48-3.18,10.99-4.77,26.12-4.77,45.38,0,26.14,1.59,43.98,4.77,53.51s8.88,14.29,17.11,14.29h0Z"/>
    <path class="cls-18" d="m855.16,334.62c-26.27,0-47.37-10.5-62.69-31.2-15.19-20.51-22.89-47.8-22.89-81.1s7.9-61.53,23.47-81.38c15.69-20,36.95-30.14,63.21-30.14,27.55,0,48.97,10.83,63.67,32.19,14.54,21.13,21.91,48.45,21.91,81.2s-7.95,60.44-23.63,80.29c-15.79,19.99-37,30.13-63.04,30.13h0Zm1.09-219.81c-24.96,0-45.17,9.62-60.06,28.61-15.01,19.13-22.62,45.68-22.62,78.91s7.44,58.91,22.1,78.72c14.53,19.63,34.54,29.58,59.48,29.58s44.91-9.63,59.91-28.61c15.11-19.13,22.77-45.31,22.77-77.81s-7.13-58.49-21.21-78.93c-13.91-20.21-34.22-30.46-60.38-30.46h.01Zm-.47,174.51c-9.14,0-15.54-5.27-19-15.66-3.28-9.82-4.87-27.53-4.87-54.14,0-19.37,1.63-34.83,4.84-45.94,3.44-11.9,9.89-17.93,19.18-17.93,7.67,0,13.77,4.59,18.13,13.63,4.18,8.69,6.21,26.4,6.21,54.14,0,19.87-1.55,35.78-4.6,47.3-3.27,12.34-9.97,18.6-19.9,18.6h0Zm.16-129.67c-7.4,0-12.42,4.92-15.34,15.04-3.11,10.75-4.69,25.83-4.69,44.83,0,25.81,1.57,43.6,4.66,52.88,2.9,8.7,7.87,12.93,15.21,12.93,8,0,13.25-5.11,16.03-15.62,2.96-11.19,4.46-26.76,4.46-46.28,0-26.75-1.96-44.38-5.82-52.41-3.68-7.65-8.43-11.37-14.52-11.37h.01Z"/>
    <path class="cls-14" d="m855.16,332.62c-25.73,0-46.09-10.13-61.08-30.39-15-20.26-22.5-46.89-22.5-79.91s7.68-60.56,23.04-80.14c15.36-19.58,35.91-29.37,61.63-29.37s47.65,10.44,62.02,31.32,21.56,47.57,21.56,80.07-7.73,59.47-23.2,79.05c-15.47,19.58-35.96,29.37-61.48,29.37h.01Zm.62-45.31c8.96,0,14.95-5.7,17.97-17.11,3.02-11.4,4.53-27,4.53-46.79,0-27.18-2.01-44.94-6.01-53.27-4.01-8.33-9.45-12.5-16.33-12.5-8.33,0-14.09,5.49-17.26,16.48-3.18,10.99-4.77,26.12-4.77,45.38,0,26.14,1.59,43.98,4.77,53.51s8.88,14.29,17.11,14.29h0Z"/>
    <g class="cls-4">
      <path class="cls-11" d="m701.32,324.53c.98-2.2,116.04-324.53,116.04-324.53l106.22,32.9-123.68,305.55-98.58-13.92h0Z"/>
    </g>
    <path class="cls-18" d="m874.07,169.27c-4.35-9.04-10.45-13.63-18.13-13.63-9.29,0-15.75,6.03-19.18,17.93-3.21,11.11-4.84,26.57-4.84,45.94,0,26.61,1.59,44.32,4.87,54.14,3.46,10.39,9.86,15.66,19,15.66,9.94,0,16.63-6.26,19.9-18.6,3.05-11.52,4.6-27.44,4.6-47.3,0-27.74-2.03-45.45-6.21-54.14h0Zm-2.25,100.42c-2.79,10.51-8.03,15.62-16.03,15.62-7.33,0-12.31-4.23-15.21-12.93-3.09-9.28-4.66-27.07-4.66-52.88,0-18.99,1.58-34.08,4.69-44.83,2.93-10.12,7.94-15.04,15.34-15.04,6.09,0,10.84,3.72,14.52,11.37,3.86,8.02,5.82,25.66,5.82,52.41,0,19.52-1.5,35.09-4.46,46.28h-.01Z"/>
  </g>
  <g>
    <g>
      <path class="cls-20" d="m670.87,332.4c-22.08,0-41.47-5.9-57.63-17.53-16.24-11.7-26.36-28.23-30.06-49.16l-.33-1.85,58.24-7.11.37,1.55c3.44,14.69,12.61,21.83,28.01,21.83,7.75,0,13.61-2.26,17.92-6.9,4.34-4.69,6.45-10.25,6.45-17.01,0-7.62-2.39-13.4-7.33-17.65-4.94-4.26-10.88-6.42-17.67-6.42-10.25,0-17.91,4.12-23.43,12.58l-.62.95-51.5-7.24,9.59-125.36h145.45l-5.99,56.02h-89.01l-2.06,24.79c10.99-6.82,23.16-10.28,36.22-10.28,18.85,0,35.54,6.55,49.61,19.46,14.12,12.96,21.28,30.47,21.28,52.06,0,22.74-8.32,41.53-24.74,55.83-16.35,14.24-37.48,21.45-62.81,21.45h.01Z"/>
      <path class="cls-18" d="m746.39,114.85l-5.6,52.47h-89.06l-2.49,30.04c11.52-7.99,24.29-11.99,38.3-11.99,18.47,0,34.61,6.33,48.42,18.99,13.8,12.67,20.7,29.58,20.7,50.75,0,22.31-8.05,40.47-24.13,54.49-16.09,14.02-36.64,21.01-61.65,21.01-21.79,0-40.66-5.73-56.6-17.2s-25.71-27.48-29.35-48.03l54.8-6.7c3.63,15.47,13.54,23.2,29.74,23.2,8.19,0,14.61-2.49,19.22-7.47,4.62-4.98,6.93-11.06,6.93-18.22,0-8.1-2.65-14.43-7.94-18.99-5.29-4.57-11.58-6.85-18.83-6.85-10.8,0-19.09,4.46-24.91,13.39l-48.73-6.85,9.34-122.06h141.83m3.95-3.55h-149.08l-.25,3.28-9.34,122.06-.25,3.33,3.3.46,48.73,6.85,2.24.32,1.23-1.89c5.16-7.92,12.34-11.78,21.94-11.78,6.44,0,11.85,1.95,16.51,5.99,4.51,3.89,6.71,9.23,6.71,16.3,0,6.29-1.95,11.46-5.98,15.8-3.95,4.26-9.39,6.33-16.62,6.33-14.45,0-23.05-6.69-26.28-20.46l-.72-3.1-3.16.39-54.8,6.7-3.72.45.65,3.69c3.78,21.4,14.13,38.32,30.77,50.29,16.47,11.86,36.21,17.88,58.67,17.88,25.78,0,47.3-7.36,63.98-21.89,16.82-14.66,25.35-33.88,25.35-57.17s-7.35-40.06-21.85-53.37c-14.42-13.22-31.51-19.92-50.82-19.92-12.24,0-23.7,2.95-34.18,8.78l1.63-19.75h88.97l.34-3.17,5.6-52.47.41-3.93h0v-.02Z"/>
    </g>
    <g>
      <path class="cls-11" d="m676.98,114.85l-25.08,52.47h85.35c1.7-4.37,3.39-8.65,5.02-12.83l4.24-39.63h-69.52Z"/>
      <path class="cls-11" d="m687.65,185.38c-14.02,0-26.78,4-38.3,11.99l2.47-29.89-34.66,72.51,26.9,3.78c5.81-8.93,14.11-13.39,24.91-13.39,7.27,0,13.54,2.28,18.83,6.85,5.29,4.57,7.94,10.9,7.94,18.99,0,7.16-2.31,13.23-6.93,18.22-4.62,4.98-11.03,7.47-19.22,7.47-16.19,0-26.1-7.73-29.74-23.2l-33.61,4.11-12.89,26.97c5.07,9.32,12.09,17.2,21.05,23.65,15.93,11.47,34.79,17.2,56.6,17.2.52,0,1.03-.02,1.55-.02,14.99-36.88,35.12-87.85,53.29-134.16-11.38-7.36-24.1-11.06-38.19-11.06h-.01Z"/>
    </g>
  </g>
  <g>
    <g>
      <path class="cls-20" d="m486.05,336.6c-51.33,0-83.19-23.88-94.7-70.97l-.53-2.18,60.54-7.48.35,1.85c3.53,18.85,13.26,28.02,29.75,28.02,7.41,0,13.49-1.93,18.07-5.72,4.53-3.76,6.73-8.7,6.73-15.11,0-4.24-1.19-7.86-3.64-11.08-2.48-3.26-5.14-5.57-7.89-6.85-2.79-1.3-7.84-1.95-15.01-1.95h-28.32v-49.19h24.2c11.15,0,18.3-1.88,21.27-5.59,3.08-3.84,4.64-7.85,4.64-11.91,0-5.16-1.86-9.34-5.68-12.78-3.83-3.45-8.98-5.19-15.31-5.19-13.83,0-22.06,7.56-25.15,23.12l-.37,1.89-56.35-8.88.49-2.1c4.85-20.68,15.27-36.87,30.99-48.1,15.66-11.19,34.42-16.86,55.79-16.86,24.02,0,43.63,5.74,58.3,17.07,14.83,11.45,22.34,26.92,22.34,45.98,0,11.48-3.2,21.64-9.51,30.2-5.12,6.94-11.45,12.1-18.88,15.38,23.26,8.84,35.05,25.97,35.05,50.98,0,21.3-8.25,38.09-24.53,49.9-16.08,11.67-37.14,17.58-62.62,17.58Z"/>
      <path class="cls-18" d="m485.89,111.51c23.68,0,42.7,5.55,57.08,16.65,14.37,11.1,21.56,25.9,21.56,44.4,0,11.1-3.04,20.77-9.12,29.02-6.08,8.25-13.82,13.79-23.23,16.65,26,7.93,39.01,24.89,39.01,50.9,0,20.72-7.9,36.81-23.7,48.28-15.8,11.47-36.28,17.2-61.44,17.2-50.53,0-81.45-23.15-92.76-69.45l56.45-6.98c3.7,19.77,14.27,29.65,31.71,29.65,7.93,0,14.37-2.06,19.34-6.18,4.97-4.12,7.45-9.67,7.45-16.65,0-4.65-1.35-8.75-4.04-12.29-2.7-3.54-5.58-6.03-8.64-7.45-3.07-1.43-8.35-2.14-15.86-2.14h-26.32v-45.19h22.2c11.84,0,19.45-2.11,22.83-6.34,3.38-4.23,5.07-8.61,5.07-13.16,0-5.71-2.12-10.46-6.34-14.27-4.23-3.81-9.78-5.71-16.65-5.71-14.8,0-23.84,8.24-27.11,24.73l-52.32-8.25c4.76-20.3,14.82-35.94,30.21-46.93,15.38-10.99,33.59-16.49,54.62-16.49m0-4c-21.79,0-40.95,5.8-56.95,17.24-16.12,11.52-26.81,28.1-31.77,49.27l-.98,4.19,4.25.67,52.32,8.25,3.8.6.75-3.77c2.91-14.68,10.28-21.51,23.19-21.51,5.9,0,10.47,1.53,13.97,4.68,3.38,3.04,5.02,6.74,5.02,11.3,0,3.64-1.37,7.13-4.2,10.66-1.45,1.81-5.93,4.84-19.71,4.84h-26.2v53.19h30.32c8.57,0,12.44.96,14.17,1.77,2.46,1.14,4.86,3.25,7.15,6.25,2.17,2.85,3.23,6.08,3.23,9.87,0,5.78-1.96,10.22-6.01,13.57-4.27,3.54-9.76,5.26-16.79,5.26-15.58,0-24.41-8.38-27.78-26.39l-.69-3.7-3.73.46-56.45,6.98-4.46.55,1.07,4.37c11.75,48.11,44.27,72.5,96.64,72.5,25.9,0,47.37-6.04,63.79-17.97,16.82-12.21,25.36-29.54,25.36-51.52,0-24.42-10.83-41.59-32.22-51.15,6.04-3.38,11.28-8.07,15.67-14.02,6.57-8.91,9.9-19.47,9.9-31.39,0-19.71-7.78-35.72-23.12-47.56-15.03-11.6-35.05-17.48-59.52-17.48h0Z"/>
    </g>
    <g class="cls-17">
      <path class="cls-11" d="m371.05,324.33c.98-2.2,130.18-304.74,130.18-304.74l76.02,3.98-123.68,305.55-68.38,15-14.14-19.79Z"/>
    </g>
    <path class="cls-18" d="m485.89,111.51c23.68,0,42.7,5.55,57.08,16.65,14.37,11.1,21.56,25.9,21.56,44.4,0,11.1-3.04,20.77-9.12,29.02-6.08,8.25-13.82,13.79-23.23,16.65,26,7.93,39.01,24.89,39.01,50.9,0,20.72-7.9,36.81-23.7,48.28-15.8,11.47-36.28,17.2-61.44,17.2-50.53,0-81.45-23.15-92.76-69.45l56.45-6.98c3.7,19.77,14.27,29.65,31.71,29.65,7.93,0,14.37-2.06,19.34-6.18,4.97-4.12,7.45-9.67,7.45-16.65,0-4.65-1.35-8.75-4.04-12.29-2.7-3.54-5.58-6.03-8.64-7.45-3.07-1.43-8.35-2.14-15.86-2.14h-26.32v-45.19h22.2c11.84,0,19.45-2.11,22.83-6.34,3.38-4.23,5.07-8.61,5.07-13.16,0-5.71-2.12-10.46-6.34-14.27-4.23-3.81-9.78-5.71-16.65-5.71-14.8,0-23.84,8.24-27.11,24.73l-52.32-8.25c4.76-20.3,14.82-35.94,30.21-46.93,15.38-10.99,33.59-16.49,54.62-16.49m0-4c-21.79,0-40.95,5.8-56.95,17.24-16.12,11.52-26.81,28.1-31.77,49.27l-.98,4.19,4.25.67,52.32,8.25,3.8.6.75-3.77c2.91-14.68,10.28-21.51,23.19-21.51,5.9,0,10.47,1.53,13.97,4.68,3.38,3.04,5.02,6.74,5.02,11.3,0,3.64-1.37,7.13-4.2,10.66-1.45,1.81-5.93,4.84-19.71,4.84h-26.2v53.19h30.32c8.57,0,12.44.96,14.17,1.77,2.46,1.14,4.86,3.25,7.15,6.25,2.17,2.85,3.23,6.08,3.23,9.87,0,5.78-1.96,10.22-6.01,13.57-4.27,3.54-9.76,5.26-16.79,5.26-15.58,0-24.41-8.38-27.78-26.39l-.69-3.7-3.73.46-56.45,6.98-4.46.55,1.07,4.37c11.75,48.11,44.27,72.5,96.64,72.5,25.9,0,47.37-6.04,63.79-17.97,16.82-12.21,25.36-29.54,25.36-51.52,0-24.42-10.83-41.59-32.22-51.15,6.04-3.38,11.28-8.07,15.67-14.02,6.57-8.91,9.9-19.47,9.9-31.39,0-19.71-7.78-35.72-23.12-47.56-15.03-11.6-35.05-17.48-59.52-17.48h0Z"/>
  </g>
  <g>
    <g>
      <path class="cls-1" d="m494.71,414.16v13.1h-37.6v-53.6h16.4v40.4l21.2.1h0Z"/>
      <path class="cls-1" d="m540.81,414.46v12.8h-40.3v-53.6h40.3v12.4h-24.2v7.8h19.5v11.9h-19.5v8.8l24.2-.1h0Z"/>
      <path class="cls-1" d="m576.81,427.26l-3-10.6h-14.3l-3.2,10.6h-13.4l16.5-53.6h17.4l16.8,53.6h-16.8Zm-14.6-22.2h8.7l-4.3-15.5-4.4,15.5h0Z"/>
      <path class="cls-1" d="m598.51,427.26v-53.6h20.7c9,0,15.7,2.7,20.2,8s6.7,11.5,6.7,18.5c0,8-2.4,14.5-7.2,19.5s-11,7.5-18.7,7.5l-21.7.1h0Zm16.5-12.3h4.3c2.7,0,5-1.3,6.9-4,1.9-2.6,2.8-6.2,2.8-10.8,0-3.9-.8-7.3-2.5-10.1s-4.1-4.2-7.2-4.2h-4.3v29.1h0Z"/>
      <path class="cls-1" d="m693.41,414.46v12.8h-40.3v-53.6h40.3v12.4h-24.2v7.8h19.5v11.9h-19.5v8.8l24.2-.1h0Z"/>
      <path class="cls-1" d="m747.61,427.26h-18.2l-7.8-20.5h-5.2v20.5h-16.5v-53.6h28c6.2,0,11,1.5,14.4,4.3,3.4,2.9,5.1,6.7,5.1,11.4,0,3.1-.6,5.8-1.9,8.2-1.3,2.4-3.8,4.5-7.6,6.3l9.7,23.4h0Zm-31.2-31.9h7c2.1,0,3.7-.4,5-1.3s1.9-2.1,1.9-3.8c0-3.4-2.1-5.1-6.3-5.1h-7.6v10.2h0Z"/>
      <path class="cls-1" d="m755.41,427.26v-53.6h27.2c5.7,0,9.8,1.4,12.4,4.3,2.6,2.9,3.9,6.1,3.9,9.8,0,2.7-.8,5.1-2.3,7.2-1.5,2.2-3.8,3.6-6.7,4.5,6.9,1.7,10.4,5.8,10.4,12.5,0,4-1.2,7.5-3.7,10.7s-7.7,4.7-15.7,4.7h-25.5v-.1h0Zm15.2-33h7.6c1.9,0,3.3-.5,4-1.5.8-1,1.2-2,1.2-3.1,0-3-1.8-4.5-5.5-4.5h-7.3v9.1h0Zm0,21.1h8c2,0,3.5-.5,4.4-1.5s1.4-2.1,1.4-3.3-.5-2.4-1.3-3.4c-.9-1-2.6-1.5-5-1.5h-7.5v9.7h0Z"/>
      <path class="cls-1" d="m830.21,428.06c-7.5,0-13.7-2.5-18.4-7.5s-7.1-11.7-7.1-20,2.3-14.6,6.8-19.8,10.8-7.8,18.9-7.8c7.5,0,13.5,2.5,18.2,7.4s7,11.5,7,19.7-2.4,15.3-7.1,20.5c-4.7,5-10.8,7.5-18.3,7.5h0Zm-.1-12.1c2.8,0,4.8-1.2,6-3.6s1.8-6.9,1.8-13.3c0-9.3-2.5-14-7.5-14-5.4,0-8.1,5.3-8.1,15.9,0,10,2.6,15,7.8,15Z"/>
      <path class="cls-1" d="m890.51,427.26l-3-10.6h-14.3l-3.2,10.6h-13.3l16.5-53.6h17.4l16.8,53.6h-16.9Zm-14.6-22.2h8.7l-4.3-15.5-4.4,15.5h0Z"/>
      <path class="cls-1" d="m959.91,427.26h-18.2l-7.8-20.5h-5.2v20.5h-16.4v-53.6h28c6.2,0,11,1.5,14.4,4.3,3.4,2.9,5.1,6.7,5.1,11.4,0,3.1-.6,5.8-1.9,8.2-1.3,2.4-3.8,4.5-7.6,6.3l9.6,23.4h0Zm-31.2-31.9h7c2.1,0,3.7-.4,5-1.3s1.9-2.1,1.9-3.8c0-3.4-2.1-5.1-6.3-5.1h-7.6v10.2h0Z"/>
      <path class="cls-1" d="m967.71,427.26v-53.6h20.7c9,0,15.7,2.7,20.2,8s6.7,11.5,6.7,18.5c0,8-2.4,14.5-7.2,19.5s-11,7.5-18.7,7.5l-21.7.1h0Zm16.4-12.3h4.3c2.7,0,5-1.3,6.9-4,1.9-2.6,2.8-6.2,2.8-10.8,0-3.9-.8-7.3-2.5-10.1s-4.1-4.2-7.2-4.2h-4.3v29.1h0Z"/>
    </g>
    <g>
      <path class="cls-1" d="m201.92,373.64l-14.17,53.44h-13.78l-7.48-29.48-7.06,29.48h-14.37l-14.2-53.44h15.43l7.48,30.76,7.29-30.76h12.88l7.93,30.82,7.49-30.82h12.55Z"/>
      <path class="cls-1" d="m247.33,414.32v12.76h-40.2v-53.44h40.2v12.33h-24.11v7.75h19.5v11.86h-19.5v8.73h24.11Z"/>
      <path class="cls-1" d="m294.03,414.32v12.76h-40.2v-53.44h40.2v12.33h-24.11v7.75h19.5v11.86h-19.5v8.73h24.11Z"/>
      <path class="cls-1" d="m348.72,427.08h-17.95l-9.24-20.19-5.54,7.86v12.33h-15.46v-53.44h15.46v22.1l14.74-22.1h14.74l-13.49,19.56,16.74,33.88Z"/>
      <path class="cls-1" d="m390.57,413.97v13.11h-37.46v-53.44h16.4v40.32h21.06Z"/>
      <path class="cls-1" d="m434.23,373.64l-16.73,30.81v22.63h-15.93v-22.63l-17.98-30.81h17.95l9.37,17.62,8.98-17.62h14.34Z"/>
    </g>
  </g>
</svg>