<?xml version="1.0" encoding="utf-8"?>
<!-- Generator: Adobe Illustrator 27.5.0, SVG Export Plug-In . SVG Version: 6.00 Build 0)  -->
<svg version="1.1" id="_图层_2" xmlns="http://www.w3.org/2000/svg" xmlns:xlink="http://www.w3.org/1999/xlink" x="0px" y="0px"
	 viewBox="0 0 1206.3 553.9" style="enable-background:new 0 0 1206.3 553.9;" xml:space="preserve">
<style type="text/css">
	.st0{fill:#EFBB3F;}
	.st1{fill:#018A84;}
	.st2{fill:#005148;}
	.st3{fill:#F1C052;}
	.st4{fill:#F5D17C;}
	.st5{fill:#25A460;}
	.st6{fill:#002222;}
	.st7{fill:#E5A61F;}
	.st8{fill:#ECACC5;}
	.st9{fill:#D62944;}
	.st10{fill:#6BBCBB;}
	.st11{fill:#EEDC23;}
	.st12{fill:#F4C968;}
	.st13{fill:#E69911;}
	.st14{fill:#FFFFFF;}
	.st15{fill:#FDB303;}
	.st16{fill:#ED9718;}
	.st17{fill:#423D34;}
	.st18{fill:#FFC550;}
	.st19{clip-path:url(#SVGID_00000144301250018771815900000009890388690833671045_);fill:#FFC550;}
</style>
<g id="_图层_1-2">
	<g>
		<path class="st0" d="M650.3,372.1c6.5,0.1,15.3,1.1,20.2,5.4c4.3,3.8,4.4,7.8,1,12.5c-4,5.7-10.3,10.4-16.1,14.1
			c-3.7,2.3-7.5,4.5-11.5,6.2c-4.3,1.9-9.3,2.6-12.4,6.5c-4.9,6.1-3.5,15.1,4.7,17.6c7,2.1,14.5-2,20.8-5c5.4-2.6,10.6-5.7,15.4-9.2
			c9.8-7.3,20.7-16.6,23.7-29c3.1-13-2.9-26.2-14.1-33.3s-26.4-4.9-35.5,4.9C643.2,366.2,645.5,372,650.3,372.1L650.3,372.1
			L650.3,372.1z"/>
		<path class="st1" d="M659.4,484.6h26l-9.3,14.9l13,13c0,0-24.2,7.4-39-1.9v-27.9"/>
		<polygon class="st2" points="666.8,499.4 650.1,499.4 650.1,510.6 		"/>
		<path class="st3" d="M663.1,354.5c0,0,9.3,79.9-48.3,113.3h-11.2V347.1"/>
		<path class="st4" d="M633.6,350.8l30.2,3.8c0,0,9.3,79.9-48.3,113.3h-0.6C642.1,427.6,638.4,377.4,633.6,350.8L633.6,350.8z"/>
		<path class="st5" d="M709.2,398.4c1.7,0.7,3.7,0.8,5.5,0.2c2.5-0.8,4.5-2.8,6.3-4.7c0.1-0.1,0.2-0.2,0.2-0.4
			c0-0.2-0.1-0.3-0.2-0.5c-1.6-2.1-4.7-2.6-7-1.5c-2.4,1.1-3.9,3.5-4.4,6c0.6-4.4-1.2-9-4.7-11.7c-0.2-0.1-0.4-0.3-0.6-0.2
			c-0.2,0-0.3,0.2-0.4,0.4c-0.8,1.4-1.4,3-1.6,4.6c-0.1,0.9-0.2,1.8,0.1,2.7c0.4,1.4,1.4,2.5,2.6,3.2c1.2,0.8,2.5,1.2,3.9,1.6"/>
		<path class="st5" d="M700.8,414.3c2.2,1.7,5.2,2.1,8,1.7c2.8-0.5,5.3-1.8,7.6-3.3c-1.6-2.5-4.7-3.8-7.7-3.5s-5.6,2.2-7.2,4.7
			c2.2-3.8,2.2-8.8,0.1-12.6c-0.2-0.4-0.5-0.8-0.9-0.7c-0.2,0-0.4,0.2-0.5,0.4c-1.8,2-2.8,4.7-2.7,7.3s1.2,5.3,3.1,7.2"/>
		<path class="st5" d="M686,430.3c0.4,1.5,1.7,2.7,3.1,3.3c1.5,0.6,3.1,0.6,4.7,0.6c3.2-0.1,6.3-0.6,9.4-1.5
			c0.6-0.2,1.3-0.5,1.4-1.1c0.1-0.4-0.1-0.7-0.3-1.1c-1.7-2.9-5.1-4.6-8.5-4.4s-6.5,1.8-8.9,4.2c4.5-4.5,5.4-11.7,3.7-17.8
			c-3.1,1.9-5.5,5.1-6.6,8.6c-1,3.5-0.8,7.5,0.8,10.8"/>
		<path class="st5" d="M667.5,448c0.2,1.7,1.5,3.2,3,4.1c1.5,0.8,3.3,1.1,5.1,1.2c4.6,0.3,9.3-0.5,13.5-2.2
			c-0.7-4.1-4.5-7.3-8.7-7.8s-8.4,1.2-11.4,4c5.4-5,7.6-13.1,5.3-20.1c-4.4,3.3-7.6,8.2-8.8,13.6c-0.3,1.5-0.5,3-0.2,4.5
			s1.3,2.9,2.8,3.4"/>
		<path class="st5" d="M711,383.2c1.8-3.8,2-8.3,0.6-12.3c-0.2-0.6-0.6-1.2-1.2-1.1c-0.3,0-0.5,0.3-0.7,0.5
			c-1.7,1.9-3.2,4.1-3.4,6.7s1.3,5.3,3.8,5.9"/>
		<path class="st0" d="M562.8,362.8c-9.2-9.8-24-12-35.5-4.9s-17.2,20.3-14.1,33.3s13.8,21.7,23.7,29c4.8,3.6,10,6.7,15.4,9.2
			c6.3,3,13.8,7.1,20.8,5c8.2-2.5,9.5-11.5,4.7-17.6c-3.1-3.9-8-4.6-12.4-6.5c-4-1.7-7.8-3.9-11.5-6.2c-5.9-3.7-12.1-8.4-16.1-14.1
			c-3.4-4.7-3.3-8.7,1-12.5c5-4.3,13.8-5.3,20.2-5.4C563.7,372,566,366.2,562.8,362.8L562.8,362.8L562.8,362.8z"/>
		<path class="st1" d="M549.8,484.6h-26l9.3,14.9l-13,13c0,0,24.2,7.4,39-1.9v-27.9"/>
		<polygon class="st2" points="542.3,499.4 559.1,499.4 559.1,510.6 		"/>
		<path class="st6" d="M618.5,495.7h-11.2v1.9h-5.6v-1.9h-11.2c0,22.3-24.2,24.1-24.2,24.1v13h76.2v-13
			C642.7,519.9,618.5,518,618.5,495.7L618.5,495.7z"/>
		<path class="st3" d="M546.1,354.5c0,0-9.3,79.9,48.3,113.3h11.2V347.1"/>
		<path class="st7" d="M575.6,350.8l-30.2,3.8c0,0-9.3,79.9,48.3,113.3h0.6C567,427.6,570.8,377.4,575.6,350.8L575.6,350.8z"/>
		<path class="st5" d="M499.9,398.4c-1.7,0.7-3.7,0.8-5.5,0.2c-2.5-0.8-4.5-2.8-6.3-4.7c-0.1-0.1-0.2-0.2-0.2-0.4
			c0-0.2,0.1-0.3,0.2-0.5c1.6-2.1,4.7-2.6,7-1.5s3.9,3.5,4.4,6c-0.6-4.4,1.2-9,4.7-11.7c0.2-0.1,0.4-0.3,0.6-0.2
			c0.2,0,0.3,0.2,0.4,0.4c0.8,1.4,1.4,3,1.6,4.6c0.1,0.9,0.2,1.8-0.1,2.7c-0.4,1.4-1.4,2.5-2.6,3.2s-2.5,1.2-3.9,1.6"/>
		<path class="st5" d="M508.4,414.3c-2.2,1.7-5.2,2.1-8,1.7s-5.3-1.8-7.6-3.3c1.6-2.5,4.7-3.8,7.7-3.5s5.6,2.2,7.2,4.7
			c-2.2-3.8-2.2-8.8-0.1-12.6c0.2-0.4,0.5-0.8,0.9-0.7c0.2,0,0.4,0.2,0.5,0.4c1.8,2,2.8,4.7,2.7,7.3c-0.1,2.7-1.2,5.3-3.1,7.2"/>
		<path class="st5" d="M523.2,430.3c-0.4,1.5-1.7,2.7-3.1,3.3s-3.1,0.6-4.7,0.6c-3.2-0.1-6.3-0.6-9.4-1.5c-0.6-0.2-1.3-0.5-1.4-1.1
			c-0.1-0.4,0.1-0.7,0.3-1.1c1.6-2.9,5.1-4.6,8.5-4.4c3.4,0.1,6.5,1.8,8.9,4.2c-4.5-4.5-5.4-11.7-3.7-17.8c3.1,1.9,5.5,5.1,6.6,8.6
			c1,3.5,0.8,7.5-0.8,10.8"/>
		<path class="st5" d="M541.6,448c-0.2,1.7-1.5,3.2-3,4.1c-1.5,0.8-3.3,1.1-5.1,1.2c-4.6,0.3-9.3-0.5-13.5-2.2
			c0.7-4.1,4.5-7.3,8.7-7.8c4.1-0.6,8.4,1.2,11.4,4c-5.4-5-7.6-13.1-5.3-20.1c4.4,3.3,7.6,8.2,8.8,13.6c0.3,1.5,0.5,3,0.2,4.5
			s-1.3,2.9-2.8,3.4"/>
		<path class="st5" d="M498.2,383.2c-1.8-3.8-2-8.3-0.6-12.3c0.2-0.6,0.6-1.2,1.2-1.1c0.3,0,0.5,0.3,0.7,0.5
			c1.7,1.9,3.2,4.1,3.4,6.7s-1.3,5.3-3.8,5.9"/>
		
			<rect x="593.9" y="298.5" transform="matrix(0.5386 -0.8425 0.8425 0.5386 16.3146 644.5135)" class="st8" width="5.5" height="17.8"/>
		
			<rect x="518.1" y="324.9" transform="matrix(0.7723 -0.6353 0.6353 0.7723 -88.124 409.3979)" class="st9" width="17.8" height="5.5"/>
		
			<rect x="717.5" y="508.2" transform="matrix(0.6292 -0.7773 0.7773 0.6292 -134.806 751.5193)" class="st9" width="5.5" height="17.8"/>
		
			<rect x="670.1" y="324" transform="matrix(0.2553 -0.9669 0.9669 0.2553 179.2753 898.444)" class="st10" width="5.5" height="17.8"/>
		<rect x="680.2" y="544.3" transform="matrix(0.866 -0.5 0.5 0.866 -181.2137 417.8446)" class="st11" width="17.8" height="5.5"/>
		<rect x="492.4" y="461.2" transform="matrix(0.866 -0.5 0.5 0.866 -164.8053 312.7713)" class="st11" width="17.8" height="5.5"/>
		
			<rect x="494.7" y="487.6" transform="matrix(0.2319 -0.9727 0.9727 0.2319 -90.1978 866.4144)" class="st10" width="17.8" height="5.5"/>
		
			<rect x="477.8" y="520.4" transform="matrix(0.9871 -0.1602 0.1602 0.9871 -77.5341 84.7422)" class="st8" width="17.8" height="5.5"/>
		<polyline class="st10" points="603.7,460.4 540.5,460.4 546.1,480.9 542.3,499.4 607.4,499.4 		"/>
		<polyline class="st10" points="600.2,460.4 668.7,460.4 662.6,480.9 666.7,499.4 596.2,499.4 		"/>
		<path class="st12" d="M550.1,341.5h110.8c3.3,0,5.9,2.6,5.9,5.9v6.8c0,3.3-2.6,5.9-5.9,5.9H550.1c-3.3,0-5.9-2.6-5.9-5.9v-6.8
			C544.2,344.2,546.8,341.5,550.1,341.5z"/>
		<path class="st7" d="M547.8,352.7h115.4c2,0,3.6,1.6,3.6,3.6v0.2c0,2-1.6,3.6-3.6,3.6H547.8c-2,0-3.6-1.6-3.6-3.6v-0.2
			C544.2,354.3,545.8,352.7,547.8,352.7z"/>
		<polygon class="st13" points="606.3,373.5 612.6,386.2 626.7,388.2 616.5,398.1 618.9,412.1 606.3,405.5 593.8,412.1 596.2,398.1 
			586,388.2 600.1,386.2 		"/>
		<path class="st14" d="M645.6,374.6c1.1,10.9,0.2,21.5-2.8,32c-2.6,9.2,11.6,13.1,14.2,3.9c3.4-11.7,4.5-23.8,3.3-35.9
			c-0.4-4-3.1-7.4-7.4-7.4C649.3,367.2,645.2,370.6,645.6,374.6L645.6,374.6L645.6,374.6z"/>
		<path class="st14" d="M639.5,417l-1.3,3.4c-0.7,1.7-0.1,4.2,0.8,5.7s2.7,3,4.4,3.4c1.9,0.4,4,0.3,5.7-0.8l1.5-1.2
			c0.9-0.9,1.5-2,1.9-3.3l1.3-3.4c0.7-1.7,0.1-4.2-0.8-5.7s-2.7-3-4.4-3.4c-1.9-0.4-4-0.3-5.7,0.8l-1.5,1.2
			C640.5,414.7,639.9,415.8,639.5,417L639.5,417z"/>
	</g>
	<g>
		<path class="st15" d="M234,219.9V197c-31.5-4.1-51.6-21.3-59.8-51l-0.4-1.6l49-9.1l0.4,1.3c3.8,12.9,13.1,19.2,28.4,19.2
			c17.2,0,17.2-6.6,17.2-8.8c0-3.1-1.2-5.4-3.7-7.2c-2.7-1.9-7.7-3.6-14.8-5c-29.5-6-47.8-13.6-55.9-23c-8-9.3-12-20.2-12-32.4
			c0-13.4,4.4-25.4,13.1-35.7c8.5-10.1,21.5-16.6,38.6-19.4V1.5h28.3v22.1c28.1,3.5,46.7,17.3,55.4,41.2l0.5,1.5l-44,13.8l-0.5-1.3
			c-4-10.6-12-15.7-24.4-15.7c-14.8,0-14.8,6.8-14.8,9s0.8,3.9,2.3,5.4c1.1,1.1,4.6,2.9,14.5,5.1c19,4.2,32.8,7.9,41.1,11.2
			c8.5,3.4,15.6,9.2,21.3,17.2c5.6,8.1,8.5,17.7,8.5,28.7c0,15.3-5.5,28.4-16.5,38.7c-10.6,10.1-25.2,16.3-43.5,18.6v22.9L234,219.9
			L234,219.9z"/>
		<path class="st16" d="M260.7,3v22c28.3,3.2,46.8,16.6,55.5,40.4l-41.2,12.9c-4.2-11.1-12.8-16.7-25.8-16.7
			C238.4,61.5,233,65,233,72c0,2.5,0.9,4.7,2.8,6.5s6.9,3.6,15.2,5.5c19,4.2,32.7,7.9,40.9,11.2s15.1,8.8,20.6,16.7
			s8.2,17.1,8.2,27.8c0,15-5.3,27.5-16,37.7c-10.6,10.1-25.3,16.2-44,18.3v22.8h-25.2v-22.8c-31.7-3.8-51.7-20.5-59.8-50.1l46-8.6
			c3.9,13.5,13.9,20.2,29.9,20.2c12.5,0,18.7-3.4,18.7-10.3c0-3.6-1.5-6.4-4.3-8.4c-2.9-2-8-3.8-15.4-5.3
			c-28.9-5.9-47.3-13.4-55-22.5c-7.8-9.1-11.6-19.6-11.6-31.4c0-13.1,4.2-24.7,12.8-34.8c8.5-10.1,21.5-16.5,38.9-19.1V3H260.7
			 M263.7,0h-31.2v22.9c-16.9,3-29.7,9.6-38.2,19.8c-8.9,10.6-13.5,23-13.5,36.7c0,12.5,4.2,23.7,12.4,33.4
			c8.3,9.7,26.8,17.4,56.7,23.5c8.6,1.8,12.5,3.6,14.3,4.8c2.1,1.4,3,3.4,3,6c0,1.8,0,7.3-15.7,7.3c-14.6,0-23.4-5.9-27-18.1
			l-0.8-2.6l-2.7,0.5l-46,8.6l-3.2,0.6l0.9,3.1c8.2,30,28.3,47.4,59.7,51.9v23.1h31.2v-23.1c18-2.4,32.5-8.8,43.1-18.8
			c11.2-10.7,16.9-24.1,16.9-39.8c0-11.3-3-21.2-8.8-29.5c-5.8-8.3-13.2-14.3-21.9-17.8c-8.4-3.3-22.3-7.1-41.4-11.3
			c-10.5-2.3-13.1-4.1-13.8-4.7c-1.3-1.2-1.9-2.6-1.9-4.4c0-2.1,0-7.5,13.3-7.5c11.7,0,19.2,4.8,23,14.8l1,2.7l2.7-0.8l41.2-12.9
			l3-0.9l-1.1-2.9c-8.8-24-27.4-38.2-55.3-42L263.7,0L263.7,0L263.7,0z"/>
	</g>
	<g>
		<polygon class="st15" points="497.4,248.7 518,202.6 497.6,202.6 497.6,151.8 550.6,151.8 550.6,197.8 521.2,248.7 		"/>
		<path class="st16" d="M549.1,153.3v44.1l-28.8,49.8h-20.6l20.6-46.2h-21.2v-47.7L549.1,153.3 M552.1,150.3h-56v53.7h19.6L497,246
			l-1.9,4.2h27l0.9-1.5l28.8-49.8l0.4-0.7V150.3L552.1,150.3L552.1,150.3z"/>
	</g>
	<g>
		<path class="st15" d="M639.7,205.3c-22.1,0-39.8-8.8-52.6-26.2c-12.8-17.2-19.2-40.2-19.2-68.2s6.6-51.7,19.7-68.4
			c13.2-16.8,31-25.3,53.1-25.3c23.1,0,41.1,9.1,53.5,27c12.2,17.8,18.4,40.7,18.4,68.2s-6.7,50.8-19.8,67.5
			C679.4,196.8,661.6,205.3,639.7,205.3z M640.4,58c-6.3,0-10.6,4.2-13.1,12.8c-2.6,9.1-4,21.8-4,37.8c0,21.8,1.3,36.7,3.9,44.6
			c2.5,7.4,6.7,11,13,11c6.8,0,11.3-4.4,13.7-13.3c2.5-9.4,3.8-22.6,3.8-39c0-22.5-1.7-37.4-4.9-44.2C649.6,61.2,645.6,58,640.4,58
			L640.4,58z"/>
		<path class="st16" d="M640.7,18.8c22.7,0,40.1,8.8,52.2,26.4c12.1,17.6,18.2,40,18.2,67.4s-6.5,50.1-19.5,66.6
			c-13,16.5-30.3,24.7-51.8,24.7s-38.8-8.5-51.4-25.6c-12.6-17.1-18.9-39.5-18.9-67.3s6.5-51,19.4-67.5
			C601.7,27,619,18.8,640.7,18.8 M640.3,165.7c7.5,0,12.6-4.8,15.1-14.4c2.5-9.6,3.8-22.7,3.8-39.4c0-22.9-1.7-37.8-5.1-44.8
			c-3.4-7-8-10.5-13.7-10.5c-7,0-11.9,4.6-14.5,13.9c-2.7,9.2-4,22-4,38.2c0,22,1.3,37,4,45C628.5,161.7,633.3,165.7,640.3,165.7
			 M640.7,15.8c-22.5,0-40.8,8.7-54.2,25.9c-13.3,17-20,40.3-20,69.3s6.6,51.6,19.5,69.1c13.2,17.8,31.3,26.8,53.8,26.8
			s40.5-8.7,54.1-25.9c13.4-16.9,20.2-40,20.2-68.4s-6.3-51.1-18.7-69.1C682.7,25.1,664.3,15.8,640.7,15.8L640.7,15.8L640.7,15.8z
			 M640.3,162.7c-3.5,0-8.6-1-11.5-10c-2.6-7.7-3.9-22.5-3.9-44.1c0-15.9,1.3-28.4,3.9-37.4c3-10.5,8.1-11.7,11.7-11.7
			c4.6,0,8.2,2.9,11,8.8c3.2,6.6,4.8,21.2,4.8,43.6c0,16.3-1.2,29.3-3.7,38.6C649.6,161.4,644.1,162.7,640.3,162.7L640.3,162.7
			L640.3,162.7z"/>
	</g>
	<g>
		<path class="st15" d="M797.7,205.3c-22.1,0-39.8-8.8-52.6-26.2c-12.8-17.2-19.2-40.2-19.2-68.2s6.6-51.7,19.7-68.4
			c13.2-16.8,31-25.3,53.1-25.3c23.1,0,41.1,9.1,53.5,27c12.2,17.8,18.4,40.7,18.4,68.2s-6.7,50.8-19.8,67.5
			C837.3,196.8,819.5,205.3,797.7,205.3z M798.3,58c-6.3,0-10.6,4.2-13.1,12.8c-2.6,9.1-4,21.8-4,37.8c0,21.8,1.3,36.7,3.9,44.6
			c2.5,7.4,6.7,11,13,11c6.8,0,11.3-4.4,13.7-13.3c2.5-9.4,3.8-22.6,3.8-39c0-22.5-1.7-37.4-4.9-44.2C807.6,61.2,803.5,58,798.3,58
			L798.3,58z"/>
		<path class="st16" d="M798.6,18.8c22.7,0,40.1,8.8,52.2,26.4c12.1,17.6,18.2,40,18.2,67.4s-6.5,50.1-19.5,66.6
			c-13,16.5-30.3,24.7-51.8,24.7s-38.8-8.5-51.4-25.6c-12.6-17.1-18.9-39.5-18.9-67.3s6.5-51,19.4-67.5
			C759.7,27,777,18.8,798.6,18.8 M798.2,165.7c7.5,0,12.6-4.8,15.1-14.4c2.5-9.6,3.8-22.7,3.8-39.4c0-22.9-1.7-37.8-5.1-44.8
			c-3.4-7-8-10.5-13.7-10.5c-7,0-11.9,4.6-14.5,13.9c-2.7,9.2-4,22-4,38.2c0,22,1.3,37,4,45C786.5,161.7,791.3,165.7,798.2,165.7
			 M798.6,15.8c-22.5,0-40.8,8.7-54.2,25.9c-13.3,17-20,40.3-20,69.3s6.6,51.6,19.5,69.1c13.2,17.8,31.3,26.8,53.8,26.8
			s40.5-8.7,54.1-25.9c13.4-16.9,20.2-40,20.2-68.4s-6.3-51.1-18.7-69.1C840.7,25.1,822.3,15.8,798.6,15.8L798.6,15.8L798.6,15.8z
			 M798.2,162.7c-3.5,0-8.6-1-11.5-10c-2.6-7.7-3.9-22.5-3.9-44.1c0-15.9,1.3-28.4,3.9-37.4c3-10.5,8.1-11.7,11.7-11.7
			c4.6,0,8.2,2.9,11,8.8c3.2,6.6,4.8,21.2,4.8,43.6c0,16.3-1.2,29.3-3.7,38.6C807.6,161.4,802.1,162.7,798.2,162.7L798.2,162.7
			L798.2,162.7z"/>
	</g>
	<g>
		<path class="st15" d="M955.6,205.3c-22.1,0-39.8-8.8-52.6-26.2c-12.8-17.2-19.2-40.2-19.2-68.2s6.6-51.7,19.7-68.4
			c13.2-16.8,31-25.3,53.1-25.3c23.1,0,41.1,9.1,53.5,27c12.2,17.8,18.4,40.7,18.4,68.2s-6.7,50.8-19.8,67.5
			C995.3,196.8,977.5,205.3,955.6,205.3L955.6,205.3z M956.3,58c-6.3,0-10.6,4.2-13.1,12.8c-2.6,9.1-4,21.8-4,37.8
			c0,21.8,1.3,36.7,3.9,44.6c2.5,7.4,6.7,11,13,11c6.8,0,11.3-4.4,13.7-13.3c2.5-9.4,3.8-22.6,3.8-39c0-22.5-1.7-37.4-4.9-44.2
			C965.5,61.2,961.5,58,956.3,58L956.3,58z"/>
		<path class="st16" d="M956.5,18.8c22.7,0,40.1,8.8,52.2,26.4c12.1,17.6,18.2,40,18.2,67.4s-6.5,50.1-19.5,66.6
			c-13,16.5-30.3,24.7-51.8,24.7s-38.8-8.5-51.4-25.6c-12.6-17.1-18.9-39.5-18.9-67.3s6.5-51,19.4-67.5
			C917.6,27,934.9,18.8,956.5,18.8 M956.2,165.7c7.5,0,12.6-4.8,15.1-14.4c2.5-9.6,3.8-22.7,3.8-39.4c0-22.9-1.7-37.8-5.1-44.8
			c-3.4-7-8-10.5-13.7-10.5c-7,0-11.9,4.6-14.5,13.9c-2.7,9.2-4,22-4,38.2c0,22,1.3,37,4,45C944.4,161.7,949.2,165.7,956.2,165.7
			 M956.6,15.8c-22.5,0-40.8,8.7-54.2,25.9c-13.3,17-20,40.3-20,69.3s6.6,51.6,19.5,69.1c13.2,17.8,31.3,26.8,53.8,26.8
			s40.5-8.7,54.1-25.9c13.4-16.9,20.2-40,20.2-68.4s-6.3-51.1-18.7-69.1C998.6,25.1,980.2,15.8,956.6,15.8L956.6,15.8L956.6,15.8z
			 M956.2,162.7c-3.5,0-8.6-1-11.5-10c-2.6-7.7-3.9-22.5-3.9-44.1c0-15.9,1.3-28.4,3.9-37.4c3-10.5,8.1-11.7,11.7-11.7
			c4.6,0,8.2,2.9,11,8.8c3.2,6.6,4.8,21.2,4.8,43.6c0,16.3-1.2,29.3-3.7,38.6C965.5,161.4,960,162.7,956.2,162.7L956.2,162.7
			L956.2,162.7z"/>
	</g>
	<g>
		<path class="st17" d="M195.9,259.8v53.6h-15.3v-38.3l-9.9,38.3h-10.4L150,275.1v38.3h-12.3v-53.6h21.5l7.8,28.5l7.4-28.5H195.9
			L195.9,259.8z"/>
		<path class="st17" d="M228.4,314.2c-7.5,0-13.7-2.5-18.4-7.5s-7.1-11.7-7.1-20s2.3-14.6,6.8-19.8s10.8-7.8,18.9-7.8
			c7.5,0,13.5,2.5,18.2,7.4s7,11.5,7,19.7s-2.4,15.3-7.1,20.5C242,311.7,235.9,314.2,228.4,314.2L228.4,314.2z M228.3,302
			c2.8,0,4.8-1.2,6-3.6c1.2-2.4,1.8-6.9,1.8-13.3c0-9.3-2.5-14-7.5-14c-5.4,0-8.1,5.3-8.1,15.9C220.5,297.1,223.1,302,228.3,302z"/>
		<path class="st17" d="M306.6,313.4h-13.4l-14.7-23.7c-1.9-3-3.8-6.7-5.7-11.1c0.9,3.5,1.3,6.4,1.3,8.8v25.9h-13.3v-53.6h15.5
			l12.5,19.6c2.5,3.9,4.4,7.3,5.6,10.3c-0.8-4.6-1.3-9.3-1.3-14v-15.9h13.4L306.6,313.4L306.6,313.4z"/>
		<path class="st17" d="M337.9,272.7v40.7h-15.6v-40.7h-11.1v-12.8H349v12.8H337.9L337.9,272.7z"/>
		<path class="st17" d="M399.2,259.8v53.6h-16.4v-20.8h-12.6v20.8h-16.4v-53.6h16.4v19.7h12.6v-19.7H399.2z"/>
		<path class="st17" d="M446,300.2v13.1h-37.6v-53.6h16.4v40.4H446L446,300.2z"/>
		<path class="st17" d="M489.8,259.8L473,290.7v22.7h-16v-22.7l-18-30.9h18l9.4,17.7l9-17.7L489.8,259.8L489.8,259.8z"/>
		<path class="st17" d="M550.5,300.2v13.1h-37.6v-53.6h16.4v40.4H550.5L550.5,300.2z"/>
		<path class="st17" d="M596.5,300.6v12.8h-40.3v-53.6h40.3v12.4h-24.2v7.8h19.5v11.9h-19.5v8.8L596.5,300.6L596.5,300.6z"/>
		<path class="st17" d="M632.6,313.4l-3-10.6h-14.3l-3.2,10.6h-13.3l16.5-53.6h17.4l16.8,53.6H632.6z M618,291.1h8.7l-4.3-15.5
			L618,291.1L618,291.1z"/>
		<path class="st17" d="M654.3,313.4v-53.6H675c9,0,15.7,2.7,20.2,8c4.5,5.3,6.7,11.5,6.7,18.5c0,8-2.4,14.5-7.2,19.5
			c-4.8,5-11,7.5-18.7,7.5L654.3,313.4L654.3,313.4z M670.7,301.1h4.3c2.7,0,5-1.3,6.9-4c1.9-2.6,2.8-6.2,2.8-10.8
			c0-3.9-0.8-7.3-2.5-10.1s-4.1-4.2-7.2-4.2h-4.3L670.7,301.1L670.7,301.1z"/>
		<path class="st17" d="M749.2,300.6v12.8h-40.3v-53.6h40.3v12.4H725v7.8h19.5v11.9H725v8.8L749.2,300.6L749.2,300.6z"/>
		<path class="st17" d="M803.4,313.4h-18.2l-7.8-20.5h-5.2v20.5h-16.4v-53.6h28c6.2,0,11,1.5,14.4,4.3c3.4,2.9,5.1,6.7,5.1,11.4
			c0,3.1-0.6,5.8-1.9,8.2c-1.3,2.4-3.8,4.5-7.6,6.3L803.4,313.4z M772.2,281.4h7c2.1,0,3.7-0.4,5-1.3c1.3-0.9,1.9-2.1,1.9-3.8
			c0-3.4-2.1-5.1-6.3-5.1h-7.6L772.2,281.4L772.2,281.4z"/>
		<path class="st17" d="M811.2,313.4v-53.6h27.2c5.7,0,9.8,1.4,12.4,4.3c2.6,2.9,3.9,6.1,3.9,9.8c0,2.7-0.8,5.1-2.3,7.2
			c-1.5,2.2-3.8,3.6-6.7,4.5c6.9,1.7,10.4,5.8,10.4,12.5c0,4-1.2,7.5-3.7,10.7s-7.7,4.7-15.7,4.7H811.2L811.2,313.4z M826.3,280.4
			h7.6c1.9,0,3.3-0.5,4-1.5c0.8-1,1.2-2,1.2-3.1c0-3-1.8-4.5-5.5-4.5h-7.3L826.3,280.4L826.3,280.4z M826.3,301.5h8
			c2,0,3.5-0.5,4.4-1.5s1.4-2.1,1.4-3.3s-0.5-2.4-1.3-3.4c-0.9-1-2.6-1.5-5-1.5h-7.5L826.3,301.5L826.3,301.5z"/>
		<path class="st17" d="M886,314.2c-7.5,0-13.7-2.5-18.4-7.5s-7.1-11.7-7.1-20s2.3-14.6,6.8-19.8s10.8-7.8,18.9-7.8
			c7.5,0,13.5,2.5,18.2,7.4c4.7,4.9,7,11.5,7,19.7s-2.4,15.3-7.1,20.5C899.6,311.7,893.4,314.2,886,314.2L886,314.2z M885.9,302
			c2.8,0,4.8-1.2,6-3.6c1.2-2.4,1.8-6.9,1.8-13.3c0-9.3-2.5-14-7.5-14c-5.4,0-8.1,5.3-8.1,15.9C878.1,297.1,880.7,302,885.9,302z"/>
		<path class="st17" d="M946.3,313.4l-3-10.6h-14.3l-3.2,10.6h-13.3l16.5-53.6h17.4l16.8,53.6H946.3z M931.7,291.1h8.7l-4.3-15.5
			L931.7,291.1L931.7,291.1z"/>
		<path class="st17" d="M1015.7,313.4h-18.2l-7.8-20.5h-5.2v20.5H968v-53.6h28c6.2,0,11,1.5,14.4,4.3c3.4,2.9,5.1,6.7,5.1,11.4
			c0,3.1-0.6,5.8-1.9,8.2c-1.3,2.4-3.8,4.5-7.6,6.3L1015.7,313.4z M984.4,281.4h7c2.1,0,3.7-0.4,5-1.3c1.3-0.9,1.9-2.1,1.9-3.8
			c0-3.4-2.1-5.1-6.3-5.1h-7.6L984.4,281.4L984.4,281.4z"/>
		<path class="st17" d="M1023.4,313.4v-53.6h20.7c9,0,15.7,2.7,20.2,8s6.7,11.5,6.7,18.5c0,8-2.4,14.5-7.2,19.5
			c-4.8,5-11,7.5-18.7,7.5L1023.4,313.4L1023.4,313.4z M1039.9,301.1h4.3c2.7,0,5-1.3,6.9-4c1.9-2.6,2.8-6.2,2.8-10.8
			c0-3.9-0.8-7.3-2.5-10.1s-4.1-4.2-7.2-4.2h-4.3L1039.9,301.1L1039.9,301.1z"/>
	</g>
	<g>
		<path class="st5" d="M1123.6,376.9c3.5,6.9,9.4,12.4,16.4,15.5c10,4.4,21.3,3.6,32.2,2.7c0.6,0,1.2-0.1,1.7-0.5
			c0.6-0.5,0.7-1.3,0.8-2c0.8-10.6-7.2-20.7-17.4-23.8s-21.6,0-29.8,6.7c13.7-11.6,20.6-30.9,17.3-48.6c-0.2-0.9-0.5-2-1.3-2.4
			c-0.7-0.3-1.4-0.1-2.1,0.1c-6.4,2.1-12.4,5.4-17.5,9.8c-2.9,2.4-5.5,5.2-7.2,8.5c-2.5,5.2-2.3,11.4-0.7,16.9s4.6,10.6,7.5,15.5"/>
		<path class="st5" d="M1054.5,402.9c2.3,11.2,10.2,20.7,19.9,26.7c9.7,6,21,8.9,32.3,10.5c2-12-4.2-24.5-14.2-31.4
			c-10-6.9-23.2-8.3-34.9-5.2c17-5.8,30.6-20.9,34.5-38.5c0.4-1.6,0.5-3.7-1-4.6c-0.8-0.5-1.7-0.4-2.6-0.3
			c-10.9,1.2-21.2,6.8-28.2,15.2s-10.6,19.6-9.9,30.5"/>
		<path class="st5" d="M965.7,411.8c-3,5.7-2.2,12.9,0.7,18.6c2.9,5.8,7.8,10.3,12.7,14.5c10,8.3,21.1,15.3,33,20.8
			c2.4,1.1,5.4,2.1,7.4,0.5c1.2-1,1.7-2.5,2-4c2.9-13.4-3.4-27.9-14-36.6s-24.9-12.2-38.6-11.2c26-1.7,48.4-21.2,59.5-44.7
			c-14.9-2.5-30.7,0.6-43.5,8.6c-12.8,8-22.5,20.8-26.8,35.3"/>
		<path class="st5" d="M861.2,416c-4.1,5.9-4.2,13.9-1.8,20.6s7.2,12.4,12.3,17.5c13.4,13.4,29.8,23.6,47.6,29.9
			c9-14.5,5.8-34.6-5.3-47.6c-11.2-12.9-28.9-19-45.9-18.7c30-0.5,58.9-19.8,71-47.2c-22.5-1.8-45.5,4.6-63.8,17.8
			c-5.1,3.6-9.9,7.9-12.8,13.4c-2.9,5.5-3.7,12.4-0.7,17.9"/>
		<path class="st5" d="M1170.4,335c15.8-6.8,28.7-20.1,35.1-36c0.9-2.2,1.5-5.3-0.6-6.7c-1-0.7-2.4-0.6-3.6-0.5
			c-10.4,1-21.1,4-28.5,11.3c-7.4,7.4-10.3,19.9-4.4,28.5"/>
	</g>
	<g>
		<path class="st5" d="M82.7,376.9c-3.5,6.9-9.4,12.4-16.4,15.5c-10,4.4-21.3,3.6-32.2,2.7c-0.6,0-1.2-0.1-1.7-0.5
			c-0.6-0.5-0.7-1.3-0.8-2c-0.8-10.6,7.2-20.7,17.4-23.8s21.6,0,29.8,6.7c-13.7-11.6-20.6-30.9-17.3-48.6c0.2-0.9,0.5-2,1.3-2.4
			c0.7-0.3,1.4-0.1,2.1,0.1c6.4,2.1,12.4,5.4,17.5,9.8c2.9,2.4,5.5,5.2,7.2,8.5c2.5,5.2,2.3,11.4,0.7,16.9
			c-1.6,5.5-4.6,10.6-7.5,15.5"/>
		<path class="st5" d="M151.8,402.9c-2.3,11.2-10.2,20.7-19.9,26.7s-21,8.9-32.3,10.5c-2-12,4.2-24.5,14.2-31.4
			c10-6.9,23.2-8.3,34.9-5.2c-17-5.8-30.6-20.9-34.5-38.5c-0.4-1.6-0.5-3.7,1-4.6c0.8-0.5,1.7-0.4,2.6-0.3
			c10.9,1.2,21.2,6.8,28.2,15.2s10.6,19.6,9.9,30.5"/>
		<path class="st5" d="M240.7,411.8c3.1,5.7,2.2,12.9-0.7,18.6c-2.9,5.8-7.8,10.3-12.7,14.5c-10,8.3-21.1,15.3-33,20.8
			c-2.4,1.1-5.4,2.1-7.4,0.5c-1.2-1-1.7-2.5-2-4c-2.9-13.4,3.4-27.9,14-36.6c10.6-8.7,24.9-12.2,38.6-11.2
			c-26-1.7-48.4-21.2-59.5-44.7c14.9-2.5,30.7,0.6,43.5,8.6c12.8,8,22.5,20.8,26.8,35.3"/>
		<path class="st5" d="M345.2,416c4.1,5.9,4.2,13.9,1.8,20.6c-2.5,6.7-7.2,12.4-12.3,17.5c-13.4,13.4-29.8,23.6-47.6,29.9
			c-9-14.5-5.8-34.6,5.3-47.6c11.2-12.9,28.9-19,45.9-18.7c-30-0.5-58.9-19.8-71-47.2c22.5-1.8,45.5,4.6,63.8,17.8
			c5.1,3.6,9.9,7.9,12.8,13.4s3.7,12.4,0.7,17.9"/>
		<path class="st5" d="M36,335C20.2,328.2,7.2,315,0.8,299c-0.9-2.2-1.5-5.3,0.5-6.7c1-0.7,2.4-0.6,3.6-0.5c10.4,1,21.1,4,28.5,11.3
			c7.4,7.4,10.3,19.9,4.4,28.5"/>
	</g>
	<path class="st18" d="M783.8,70.4c2.7-9.2,7.5-13.9,14.5-13.9c0.5,0,1,0,1.5,0.1L816,20.8c-5.4-1.3-11.2-2-17.4-2
		c-21.7,0-39,8.2-51.9,24.7s-19.4,39-19.4,67.5s6,49.2,18.1,66.1l34.5-76.3C780.3,88.2,781.6,78.1,783.8,70.4L783.8,70.4z"/>
	<path class="st18" d="M659.2,111.9c0,16.7-1.3,29.8-3.8,39.4s-7.6,14.4-15.1,14.4c-6.4,0-11-3.4-13.8-10.3
		c-7.4,14.5-14.2,28.1-20.1,39.7c9.6,5.8,20.7,8.8,33.3,8.8c21.5,0,38.7-8.2,51.8-24.7s19.5-38.7,19.5-66.6s-6-49.8-18.2-67.4
		c-2-3-4.2-5.7-6.6-8.1c-8.6,17-18,35.8-27.6,54.8C659,97.7,659.2,104.4,659.2,111.9L659.2,111.9z"/>
	<path class="st18" d="M796.4,203.8l59.8-149.7c-1.6-3.1-3.4-6.1-5.4-9c-3.1-4.5-6.5-8.4-10.3-11.7l-24,57.1
		c0.4,6.1,0.6,13.2,0.6,21.3c0,16.7-1.3,29.8-3.8,39.4s-7.6,14.4-15.1,14.4c-4.6,0-8.3-1.8-11-5.4l-16.1,38.3
		C778.7,201.9,787.1,203.7,796.4,203.8L796.4,203.8z"/>
</g>
<g>
	<path class="st15" d="M334.9,202.8v-42.5h44.5V77.6c-16.1,7-29,11.3-38.2,12.6l-1.4,0.2V47.5l0.9-0.2c25.2-5.4,42.4-15.3,51.4-29.3
		l0.4-0.6h40.9v142.8h42.5v42.5H334.9z"/>
	<g>
		<defs>
			<path id="SVGID_1_" d="M334.9,202.8v-42.5h44.5V77.6c-16.1,7-29,11.3-38.2,12.6l-1.4,0.2V47.5l0.9-0.2
				c25.2-5.4,42.4-15.3,51.4-29.3l0.4-0.6h40.9v142.8h42.5v42.5H334.9z"/>
		</defs>
		<clipPath id="SVGID_00000168802492787280920900000014136227435413486527_">
			<use xlink:href="#SVGID_1_"  style="overflow:visible;"/>
		</clipPath>
		<polygon style="clip-path:url(#SVGID_00000168802492787280920900000014136227435413486527_);fill:#FFC550;" points="399.9,8.3 
			313.7,200 373.1,227.7 434.7,3.6 		"/>
	</g>
	<path class="st16" d="M432.1,18.7v142.8h42.5v40.1H336.1v-40.1h44.5V75.8c-16.9,7.5-30.1,11.9-39.6,13.2V48.5
		c25.6-5.5,43-15.5,52.1-29.8H432.1 M434.5,16.3h-2.4h-39.1h-1.3l-0.7,1.1c-8.8,13.7-25.8,23.4-50.6,28.8l-1.9,0.4v1.9V89v2.7
		l2.7-0.4c9-1.3,21.4-5.3,36.9-11.9v79.6h-42.1h-2.4v2.4v40.1v2.4h2.4h138.6h2.4v-2.4v-40.1v-2.4h-2.4h-40.1V18.7V16.3L434.5,16.3z"
		/>
</g>
</svg>
