<?xml version="1.0" encoding="UTF-8"?>
<svg id="_图层_1" data-name="图层 1" xmlns="http://www.w3.org/2000/svg" xmlns:xlink="http://www.w3.org/1999/xlink" viewBox="0 0 200 200">
  <defs>
    <style>
      .cls-1 {
        fill: #ce6117;
      }

      .cls-2 {
        fill: #e2c2b0;
      }

      .cls-3 {
        fill: #ff8d32;
      }

      .cls-4 {
        fill: #ffebde;
      }

      .cls-5 {
        clip-path: url(#clippath);
      }

      .cls-6 {
        fill: none;
      }
    </style>
    <clipPath id="clippath">
      <rect class="cls-6" x="43.07" y="79.76" width="113.85" height="78.47"/>
    </clipPath>
  </defs>
  <circle class="cls-3" cx="100" cy="100" r="100"/>
  <circle class="cls-4" cx="100" cy="100" r="81.79"/>
  <path class="cls-2" d="m29.72,110.04c0-45.17,36.62-81.79,81.79-81.79,17.82,0,34.3,5.72,47.74,15.4-14.9-15.66-35.92-25.43-59.24-25.43-45.17,0-81.79,36.62-81.79,81.79,0,27.35,13.43,51.54,34.05,66.39-13.96-14.67-22.54-34.5-22.54-56.35Z"/>
  <g>
    <polygon class="cls-3" points="100 117.75 43.07 79.76 100 41.77 156.93 79.76 100 117.75"/>
    <g class="cls-5">
      <path class="cls-3" d="m42.25,91.55c-1.31-.87-3.07-.52-3.95.79-.87,1.31-.52,3.08.79,3.95l60.91,40.64v-6.84l-57.75-38.53Z"/>
      <path class="cls-1" d="m161.69,92.34c-.87-1.31-2.64-1.66-3.95-.79l-57.75,38.53h0s0,6.84,0,6.84h0s60.91-40.64,60.91-40.64c1.31-.87,1.66-2.64.79-3.95Z"/>
      <path class="cls-1" d="m161.69,110.98c-.87-1.31-2.64-1.66-3.95-.79l-57.75,38.53h0s0,6.84,0,6.84h0s60.91-40.64,60.91-40.64c1.31-.87,1.66-2.64.79-3.95Z"/>
      <path class="cls-3" d="m42.25,110.19c-1.31-.87-3.07-.52-3.95.79-.87,1.31-.52,3.07.79,3.95l60.91,40.64v-6.84l-57.75-38.53Z"/>
    </g>
  </g>
</svg>