<?xml version="1.0" encoding="UTF-8"?>
<svg id="new-coinpayu" xmlns="http://www.w3.org/2000/svg" viewBox="0 0 200 200">
  <defs>
    <style>
      .cls-1 {
        fill: #fff;
      }

      .cls-2 {
        fill: #ff8d32;
      }
    </style>
  </defs>
  <circle class="cls-2" cx="100" cy="100" r="100"/>
  <path class="cls-1" d="m91.37,136.12l26.1-26.1-27.11-27.11-26.1,26.1,27.11,27.11h0Zm-45.3-3.98l21.7,21.7c3.56,3.56,5.34.55,5.34.55l11.55-11.55-27.11-27.11-11.93,11.93s-2.07,1.95.46,4.48h0Zm103.05-86.14c-6.55.08-62.43,8.43-62.43,8.43,0,0-7.36.04-1.87,5.53l14.25,14.25-.04.04,27.11,27.11h0s15.18,15.17,15.18,15.17c4.5,4.5,4.16-2.98,4.16-2.98l7.97-62.68s.44-4.94-4.33-4.87h0Z"/>
</svg>