<svg id="图层_1" data-name="图层 1" xmlns="http://www.w3.org/2000/svg" viewBox="0 0 28 28"><defs><style>.cls-1{fill:#f5f1ed;}.cls-2{fill:#c1afa0;}</style></defs><circle class="cls-1" cx="14" cy="14" r="14"/><path class="cls-2" d="M13.84,12.45Zm3.6,3.86h-.11A.07.07,0,0,0,17.44,16.31ZM14,4.82A9.19,9.19,0,1,0,23.18,14,9.17,9.17,0,0,0,14,4.82Zm5.85,3.6a1.36,1.36,0,0,0-.8.16c-.11.05-.16.16-.32.21s-.27,0-.38.06c-.43.16-.38,1-.91.91-.27,0-.43-.38-.59-.59s-.33-.32-.16-.54h-.22c.11-.21.38-.16.43-.27s-.32-.26-.48-.32c.16-.16.21.06.37,0s-.05-.21-.16-.27-.54.16-.27-.1c-.37-.22-.75-.49-1.12-.7-.06.27.48.43.69.48,0,.11-.21.27-.32.22s0-.27-.27-.22c-.1.32.27.22.32.43S15.5,8,15.45,8s-.16-.16-.16-.06.21.11.27.22a1.33,1.33,0,0,1-.65-.22,1,1,0,0,0-.7-.16c.11,0,.22,0,.33-.1s.21-.22.21-.27,0-.16-.16-.27-.21-.27-.43-.27c-.59-.11-.21.54-.64.64-.11,0-.33,0-.38.06s-.05.21-.11.27-.27.1-.37.21a1.44,1.44,0,0,0-.43.38c-.27.48.53.64.86.75.16.05.53.16.59.27s-.11.27.11.37a.17.17,0,0,0,.26-.05c.11-.11-.05-.11-.05-.27s.05-.16.16-.21.16-.22.11-.49c-.06-.1-.22-.48-.06-.59s.54.06.7.11.27.21.33.32a.42.42,0,0,0,.26.16c.16,0,.11-.16.16-.21.27-.16.33.05.43.27a1.41,1.41,0,0,0,.33.43c0,.05.43.27.37.43s-.37.21-.48.26c-.38.11-1.07-.21-1.13.38.16,0,.54-.38.65-.21s-.06.16,0,.26.21.17.43.11H16.2c.22-.11.22-.11.32-.27s.11-.21.17-.27.21-.05.32.06.27.43.21.37a1.21,1.21,0,0,0-.86.11,1.7,1.7,0,0,1-.43.27s-.37.05-.32,0a3.34,3.34,0,0,0,.32-.21c-.21-.11-.37.1-.53.21s-.22.22-.33.38-.16.05-.21.16,0,.16-.11.27-.16,0-.16.1.05.16,0,.27-.27.22-.38.32l.06,0c-.11.11-.22.16-.27.27s.16.54.11.59c-.27.21-.43-.22-.54-.32-.27-.38-.75-.11-1.13-.11a.76.76,0,0,0-.59,1.07.53.53,0,0,0,.59.27c.22-.05.27-.37.49-.37.37,0,0,.37,0,.53s.05.16.16.16.27-.05.32,0,.05.22.11.17c-.16.1-.11.43.05.53s.38,0,.54.06c.32.1.16,0,.48-.22s.22,0,.38,0,.16-.11.32-.11a1.85,1.85,0,0,0,.32.17h.16a1.69,1.69,0,0,1,.7.37,1.43,1.43,0,0,0,.54.16c.16.06.43.27.43.49,0,.05-.16.21-.16.26s.32-.05.37-.05-.21.16-.21.11.1.11.16.11c.11-.33.27-.11.43-.06s.37.06.53.11a1.83,1.83,0,0,1,.6.27.49.49,0,0,1-.06.53c-.11.22-.32.27-.43.49s0,.37-.05.53-.11.17-.27.33,0,.1-.22.21-.37.06-.53.27V19a.87.87,0,0,0-.11.32c0,.16-.16.21-.27.32a6.76,6.76,0,0,1-.43.54c-.05-.06-.32.05-.32,0s0,.05.05.11c-.05.42-.26.48-.69.48.05.21-.17.16-.27.27s-.06.27-.11.32-.21.27-.21.32,0,.11.1.16a4.71,4.71,0,0,1-.91.11c.05-.05.05-.16-.11-.16a1.47,1.47,0,0,1,.22-.32v-.16c.05-.22.05-.11,0-.27-.11-.38.05-.49.16-.86a7.91,7.91,0,0,0,.16-1.24,1.2,1.2,0,0,0,0-.75c0-.21-.38-.37-.54-.48a3.13,3.13,0,0,1-.48-.65,2.78,2.78,0,0,1-.22-.37c-.1-.27,0-.11,0-.27a1.32,1.32,0,0,1,.06-.48,2.06,2.06,0,0,1,.32-.49.35.35,0,0,0-.16-.43c-.11,0-.22.06-.27,0a.67.67,0,0,1-.38-.21c-.16-.11-.21-.27-.37-.38s-.22,0-.38,0-.21-.22-.32-.27-.27.05-.43,0-.38-.22-.54-.27a.84.84,0,0,1-.59-.59,2.13,2.13,0,0,0-.43-.59c-.16-.21-.21-.38-.48-.48-.05,0,0,.21,0,.27a4.86,4.86,0,0,1,.38.53c.16.27.11.27-.05.06a6.91,6.91,0,0,1-.59-.81c.1.11.1,0,0-.11s-.27-.16-.33-.27a1.59,1.59,0,0,1-.43-1.28c0-.17.06-.27.06-.43s-.11-.22-.22-.33a.69.69,0,0,1-.1-.16,2.55,2.55,0,0,0-.27-.37c-.06-.06-.27-.22-.49-.38a8.37,8.37,0,0,1,3.28-2.47c0,.05.05.11.05.22a.79.79,0,0,0,.43.21c0,.22-.32.27-.48.22s-.48-.11-.65.1c.11.06.43.32.38.06h.64c.11,0,.38.1.43,0s.06-.16.11-.21-.11-.06-.16,0c.16-.17.27-.06.48,0-.21.11-.05.43.11.16s0-.32-.21-.43c.21-.27.32-.27.53,0,.06-.16.16-.11.33-.11v0c-.06,0-.17,0-.22,0,.16-.27,0-.33.27-.38s.64,0,.75-.16a8.09,8.09,0,0,0-1.07.21c-.16.06-.27.27-.43.16s.11-.37.21-.43h0a9.56,9.56,0,0,1,1.72-.16c.37,0,.75.06,1.13.06-.11,0-.06.1-.11.16s-.49.21-.7.32c.27,0,.91.27,1-.11a.52.52,0,0,1-.27-.05A1.52,1.52,0,0,1,15.72,6a8.32,8.32,0,0,1,4.13,2.42Zm1.51,3.22a0,0,0,0,1,.05-.05c.05-.06,0-.11.05-.17s.11-.05.17-.1l.05-.06A4.27,4.27,0,0,1,22,12.45l-.16.05a.25.25,0,0,1-.21-.11l-.22-.21c-.05-.11,0-.16,0-.27s-.11-.22-.05-.27Zm.1,4.19a3.21,3.21,0,0,1-.43-.49,1.18,1.18,0,0,1-.05-.59c0-.16-.11-.43,0-.59l.16-.16c.06-.11.06-.21.16-.32s.22-.16.33-.27a.74.74,0,0,0,.16-.32.71.71,0,0,1,.27-.32,10.2,10.2,0,0,1,.1,1.23,8.57,8.57,0,0,1-.27,2.1,1.26,1.26,0,0,1-.43-.27Z"/></svg>