<svg xmlns="http://www.w3.org/2000/svg" xmlns:xlink="http://www.w3.org/1999/xlink" viewBox="0 0 563.57 527.67"><defs><style>.cls-1{fill:#eb9358;}.cls-2{fill:#e38f57;}.cls-3{fill:#e18145;}.cls-4{fill:none;}.cls-5{clip-path:url(#clip-path);}.cls-6{fill:#eb6132;}.cls-7{fill:#df7f44;}.cls-8{fill:#fff;}.cls-9{fill:#f6cf3b;}.cls-10{fill:#e59051;}</style><clipPath id="clip-path"><path class="cls-1" d="M110.17,447.53s111.7-83.12,340.29-7.79L531,206.07l-169.74,73L273.39,100.73l-82.7,175.36L32.24,218.32Z"/></clipPath></defs><g id="图层_2" data-name="图层 2"><g id="图层_1-2" data-name="图层 1"><circle class="cls-2" cx="73.07" cy="42.23" r="24.51"/><circle class="cls-2" cx="116.42" cy="90.79" r="9.14"/><circle class="cls-2" cx="206.55" cy="9.14" r="9.14"/><polygon class="cls-3" points="127.52 286.44 125.82 153.8 249.32 247.52 202.47 309.47 127.52 286.44"/><polygon class="cls-3" points="299.09 254.31 405.63 151.69 442.08 280.17 354.23 308.53 299.09 254.31"/><polygon class="cls-4" points="127.52 286.44 125.82 153.8 249.32 247.52 202.47 309.47 127.52 286.44"/><polygon class="cls-4" points="299.09 254.31 405.63 151.69 442.08 280.17 354.23 308.53 299.09 254.31"/><path class="cls-1" d="M110.17,447.53s111.7-83.12,340.29-7.79L531,206.07l-169.74,73L273.39,100.73l-82.7,175.36L32.24,218.32Z"/><g class="cls-5"><path class="cls-6" d="M22.05,459.83a3.55,3.55,0,0,1-1-.27A3.51,3.51,0,0,1,19.15,455C39.64,406.63,59,383.48,78.2,384.23c7.4.29,13.48,4.11,18.86,7.49,6.17,3.88,11.5,7.23,17.83,5.43,6-1.71,8.92-7,12-12.51,3.33-6,7.12-12.84,15.35-14.73,9.7-2.22,17.63,4.11,24.62,9.7,6.12,4.89,11.41,9.11,16.65,7.59,4.56-1.32,6.46-6.45,8.67-12.39,2.67-7.2,5.7-15.35,14.42-19.1s16.31,0,23.57,3.75c6.7,3.42,13.63,7,22.48,5.4,9.82-1.71,15.22-8.52,20.45-15.11C278.48,343,284,336,293.88,335.82c10.83-.17,17.23,8.06,23.42,16,5.91,7.61,12,15.48,22.25,17,9.75,1.42,17.39-3.74,24.79-8.73,7.58-5.11,15.43-10.39,24.6-7,10.49,3.85,13.59,15.79,16.33,26.33,2.41,9.3,4.69,18.08,11,20.34s13.3-3.27,21.35-9.69c8.9-7.11,19-15.16,31.27-14.18,18.56,1.44,34.7,22.79,49.43,65.17a3.5,3.5,0,1,1-6.61,2.3c-13.45-38.7-27.95-59-43.1-60.47l-.27,0c-9.52-.75-18.08,6.08-26.36,12.68-8.86,7.08-18,14.39-28.06,10.82-9.84-3.51-12.7-14.53-15.47-25.18-2.52-9.74-4.91-18.93-12-21.52-5.54-2-10.55,1.05-18.28,6.26-8.1,5.46-17.3,11.66-29.71,9.85-13-1.89-20.32-11.3-26.77-19.61-5.6-7.21-10.46-13.45-17.77-13.32-6.23.1-9.91,4.35-15.41,11.29-5.76,7.25-12.29,15.48-24.73,17.65-11.16,1.95-19.51-2.31-26.87-6.07s-12.13-5.92-17.63-3.55c-6,2.56-8.23,8.66-10.62,15.11-2.5,6.73-5.34,14.37-13.28,16.67-8.72,2.53-16-3.25-23-8.84-6.31-5.05-12.28-9.81-18.68-8.34-5.19,1.19-7.79,5.87-10.8,11.29-3.47,6.26-7.4,13.34-16.21,15.85-9.33,2.65-16.84-2.07-23.47-6.23-5.08-3.2-9.89-6.21-15.4-6.43-15.55-.6-33.65,22.39-52.33,66.49A3.51,3.51,0,0,1,22.05,459.83Z"/><path class="cls-6" d="M99.15,471.47c-10.87-14.38-21.83-51.1-21.79-65.36,0-5.81,1.86-9.18,3.07-10.9a19.81,19.81,0,0,1,18-7.83c4.83.68,5.44,3.07,10.55,3.41a20.25,20.25,0,0,0,11.58-3.07c8.61-5.18,6.56-12.42,15-18.72,2.23-1.67,7.55-5.65,13.61-4.77,7.82,1.14,8.56,9.15,20.09,14.64,4.31,2.06,8.3,4,12.59,2.73,5.76-1.66,6.28-7.31,14.3-18.05,6.27-8.38,9.4-12.57,14.3-13.95,6.74-1.9,9.57,2.89,24.85,6.8,10.26,2.63,15.4,3.94,20.77,2.39,7.66-2.22,8.07-7.18,23.15-19.41,9.93-8.06,12.88-8.43,14.29-8.51,6.65-.34,11.93,4.4,20.43,12.26,11.11,10.26,10.44,13.79,17.36,17,9.3,4.34,19.3,2.05,22.81,1,9-2.63,9.47-6.9,20.43-10.55,6.65-2.22,12.25-4.09,17.36-1.7,5.72,2.67,7.9,9.32,11.91,22.12,4.16,13.28,3.34,17.82,7.83,20.77,5.45,3.57,13,1.09,16.34,0,9-3,9.61-7.78,20.09-14.3,5.89-3.67,13.78-8.58,22.47-7.49,10.31,1.29,16.86,10.42,19.4,14,15.94,22.22,7.65,63.59-.34,81.36C445.29,563.92,143.2,529.69,99.15,471.47Z"/></g><path class="cls-7" d="M521.69,210.07,446.56,429.35C218,354,106.27,437.14,106.27,437.14L32.46,218.36l-.22,0,77.93,229.21s111.7-83.12,340.29-7.79L531,206.07Z"/><path class="cls-8" d="M269,146.08c-3.08,10.07-6.51,20-10.07,29.88-1.74,5-3.61,9.86-5.42,14.79l-5.63,14.71q-5.7,14.68-11.83,29.2c-4.08,9.68-8.28,19.31-12.83,28.8,3.07-10.07,6.5-20,10.05-29.89s7.23-19.71,11.06-29.49l5.82-14.64c2-4.85,4-9.73,6-14.55C260.23,165.21,264.43,155.58,269,146.08Z"/><path class="cls-8" d="M493.51,231.32c-8.32,5.24-16.82,10.15-25.37,15-4.26,2.42-8.59,4.73-12.88,7.1l-13,6.91q-13,6.83-26.25,13.27c-8.82,4.29-17.7,8.47-26.75,12.31,8.32-5.24,16.81-10.16,25.37-14.95s17.17-9.47,25.86-14l13.08-6.72c4.39-2.19,8.75-4.42,13.17-6.54C475.58,239.34,484.46,235.16,493.51,231.32Z"/><path class="cls-8" d="M60.52,244.47C65,256,69.05,267.65,73,279.33c2,5.84,3.89,11.71,5.84,17.56l5.64,17.63Q90.05,332.16,95.18,350c3.43,11.86,6.73,23.75,9.66,35.76-4.45-11.53-8.54-23.18-12.5-34.87s-7.79-23.41-11.48-35.18L75.42,298c-1.75-5.91-3.55-11.81-5.23-17.75C66.76,268.37,63.46,256.47,60.52,244.47Z"/><circle class="cls-9" cx="272.63" cy="74.09" r="29.95"/><circle class="cls-2" cx="272.63" cy="74.09" r="29.95"/><path class="cls-3" d="M292.18,51.57A29.95,29.95,0,0,1,248.75,92.5a29.95,29.95,0,1,0,43.43-40.93Z"/><path class="cls-8" d="M272.23,52.58c-2.31,1.41-4.47,2.82-6.53,4.34a41.86,41.86,0,0,0-5.65,4.93,27.54,27.54,0,0,0-2.36,2.82,25.29,25.29,0,0,0-2,3.12,34.25,34.25,0,0,0-2.8,7.19,15.56,15.56,0,0,1,.5-8.16A17.43,17.43,0,0,1,255.18,63c.36-.61.78-1.17,1.19-1.74s.89-1.09,1.37-1.59a23.39,23.39,0,0,1,6.68-4.88A20.83,20.83,0,0,1,272.23,52.58Z"/><circle class="cls-9" cx="22.81" cy="199.89" r="22.81"/><circle class="cls-2" cx="22.81" cy="199.89" r="22.81"/><path class="cls-3" d="M37.7,182.74A22.81,22.81,0,0,1,4.62,213.91,22.81,22.81,0,1,0,37.7,182.74Z"/><path class="cls-8" d="M22.5,183.51c-1.75,1.07-3.4,2.15-5,3.31a31.17,31.17,0,0,0-4.31,3.75,19.52,19.52,0,0,0-1.8,2.15,20.7,20.7,0,0,0-1.51,2.37,26.47,26.47,0,0,0-2.13,5.48,11.89,11.89,0,0,1,.38-6.22,13.25,13.25,0,0,1,1.35-2.91c.27-.46.6-.89.91-1.32s.67-.83,1-1.22a17.85,17.85,0,0,1,5.08-3.71A15.85,15.85,0,0,1,22.5,183.51Z"/><circle class="cls-9" cx="119.28" cy="139.33" r="17.22"/><circle class="cls-2" cx="119.28" cy="139.33" r="17.22"/><path class="cls-3" d="M130.52,126.38a17.22,17.22,0,0,1-25,23.54,17.22,17.22,0,1,0,25-23.54Z"/><path class="cls-8" d="M119,127c-1.32.82-2.57,1.63-3.75,2.5a25.27,25.27,0,0,0-3.25,2.83,17.53,17.53,0,0,0-1.36,1.63,15,15,0,0,0-1.13,1.79,20.39,20.39,0,0,0-1.62,4.14,9.08,9.08,0,0,1,.29-4.7,9.92,9.92,0,0,1,1-2.19c.21-.35.45-.68.69-1s.51-.62.79-.91a13.26,13.26,0,0,1,3.83-2.8A12.11,12.11,0,0,1,119,127Z"/><circle class="cls-10" cx="410.52" cy="137.18" r="17.22"/><circle class="cls-2" cx="410.52" cy="137.18" r="17.22"/><path class="cls-3" d="M421.77,124.23a17.22,17.22,0,0,1-25,23.54,17.22,17.22,0,1,0,25-23.54Z"/><path class="cls-8" d="M410.29,124.81c-1.33.81-2.57,1.63-3.75,2.5a24,24,0,0,0-3.25,2.83,15.06,15.06,0,0,0-1.36,1.63,14.31,14.31,0,0,0-1.14,1.79,19.94,19.94,0,0,0-1.61,4.13,8.94,8.94,0,0,1,.29-4.69,10,10,0,0,1,1-2.2c.2-.35.45-.67.68-1s.51-.62.79-.91a13.47,13.47,0,0,1,3.84-2.81A12.18,12.18,0,0,1,410.29,124.81Z"/><circle class="cls-9" cx="540.76" cy="187.65" r="22.81"/><circle class="cls-2" cx="540.76" cy="187.65" r="22.81"/><path class="cls-3" d="M555.65,170.5a22.8,22.8,0,0,1-33.07,31.17,22.8,22.8,0,1,0,33.07-31.17Z"/><path class="cls-8" d="M540.46,171.27c-1.76,1.08-3.41,2.15-5,3.31a31.08,31.08,0,0,0-4.3,3.75,20.4,20.4,0,0,0-1.81,2.15,18.73,18.73,0,0,0-1.5,2.38,26.39,26.39,0,0,0-2.14,5.47,11.91,11.91,0,0,1,.39-6.22,12.54,12.54,0,0,1,1.35-2.9c.27-.47.59-.89.9-1.33s.68-.83,1-1.21a17.71,17.71,0,0,1,5.08-3.71A15.94,15.94,0,0,1,540.46,171.27Z"/><path class="cls-2" d="M476.11,466c0-9.12-86.85-46.69-195.67-46.69S82.05,456.91,82.05,466V428.24c0-18.53,86.85-53.79,195.66-53.79s198.4,35.26,198.4,53.79V466Z"/></g></g></svg>