<?xml version="1.0" encoding="utf-8"?>
<!-- Generator: Adobe Illustrator 27.5.0, SVG Export Plug-In . SVG Version: 6.00 Build 0)  -->
<svg version="1.1" id="_图层_2" xmlns="http://www.w3.org/2000/svg" xmlns:xlink="http://www.w3.org/1999/xlink" x="0px" y="0px"
	 viewBox="0 0 1146.3 570.8" style="enable-background:new 0 0 1146.3 570.8;" xml:space="preserve">
<style type="text/css">
	.st0{fill:#25A460;}
	.st1{fill:#ECACC5;}
	.st2{fill:#D62944;}
	.st3{fill:#6BBCBB;}
	.st4{fill:#EEDC23;}
	.st5{clip-path:url(#SVGID_00000031887454070399048520000003057791903141434776_);}
	.st6{fill:#018A84;}
	.st7{opacity:0.55;fill:#0B6B64;enable-background:new    ;}
	.st8{clip-path:url(#SVGID_00000115479959473834502600000008442551273046431123_);}
	.st9{fill:#F1C052;}
	.st10{fill:#E5A61F;}
	.st11{fill:#F5D17C;}
	.st12{fill:#E88C31;}
	.st13{fill:none;stroke:#FFFFFF;stroke-width:6.92;stroke-linecap:round;stroke-miterlimit:10;}
	.st14{fill:#423D34;}
	.st15{fill:#FDB303;}
	.st16{fill:#ED9718;}
	.st17{fill:#FFC550;}
</style>
<g>
	<g>
		<path class="st0" d="M1063.6,396.2c3.5,6.9,9.4,12.4,16.4,15.5c10,4.4,21.3,3.6,32.2,2.7c0.6,0,1.2-0.1,1.7-0.5
			c0.6-0.5,0.7-1.3,0.8-2c0.8-10.6-7.2-20.7-17.4-23.8s-21.6,0-29.8,6.7c13.7-11.6,20.6-30.9,17.3-48.6c-0.2-0.9-0.5-2-1.3-2.4
			c-0.7-0.3-1.4-0.1-2.1,0.1c-6.4,2.1-12.4,5.4-17.5,9.8c-2.9,2.4-5.5,5.2-7.2,8.5c-2.5,5.2-2.3,11.4-0.7,16.9
			c1.6,5.5,4.6,10.6,7.5,15.5"/>
		<path class="st0" d="M994.5,422.1c2.3,11.2,10.2,20.7,19.9,26.7s21,8.9,32.3,10.5c2-12-4.2-24.5-14.2-31.4
			c-10-6.9-23.2-8.3-34.9-5.2c17-5.8,30.6-20.9,34.5-38.5c0.4-1.6,0.5-3.7-1-4.6c-0.8-0.5-1.7-0.4-2.6-0.3
			c-10.9,1.2-21.2,6.8-28.2,15.2c-7,8.4-10.6,19.6-9.9,30.5"/>
		<path class="st0" d="M905.7,431c-3,5.7-2.2,12.9,0.7,18.6c2.9,5.8,7.8,10.3,12.7,14.5c10,8.3,21.1,15.3,33,20.8
			c2.4,1.1,5.4,2.1,7.4,0.5c1.2-1,1.7-2.5,2-4c2.8-13.4-3.4-27.9-14-36.6s-24.9-12.2-38.6-11.2c26-1.7,48.4-21.2,59.5-44.7
			c-14.9-2.5-30.7,0.6-43.5,8.6c-12.8,8-22.5,20.8-26.8,35.3"/>
		<path class="st0" d="M801.2,435.2c-4.1,5.9-4.2,13.9-1.8,20.6s7.2,12.4,12.3,17.5c13.4,13.4,29.8,23.6,47.6,29.9
			c9-14.5,5.8-34.6-5.3-47.6c-11.2-12.9-28.9-19-45.9-18.7c30-0.5,58.9-19.8,71-47.2c-22.5-1.8-45.5,4.6-63.8,17.8
			c-5.1,3.6-9.9,7.9-12.8,13.4c-2.9,5.5-3.7,12.4-0.7,17.9"/>
		<path class="st0" d="M1110.4,354.3c15.8-6.8,28.7-20.1,35.1-36c0.9-2.2,1.5-5.3-0.6-6.7c-1-0.7-2.4-0.6-3.6-0.5
			c-10.4,1-21.1,4-28.5,11.3c-7.4,7.4-10.3,19.9-4.4,28.5"/>
	</g>
	<g>
		<path class="st0" d="M82.7,396.2c-3.5,6.9-9.4,12.4-16.4,15.5c-10,4.4-21.3,3.6-32.2,2.7c-0.6,0-1.2-0.1-1.7-0.5
			c-0.6-0.5-0.7-1.3-0.8-2c-0.8-10.6,7.2-20.7,17.4-23.8s21.6,0,29.8,6.7c-13.7-11.6-20.6-30.9-17.3-48.6c0.2-0.9,0.5-2,1.3-2.4
			c0.7-0.3,1.4-0.1,2.1,0.1c6.4,2.1,12.4,5.4,17.5,9.8c2.9,2.4,5.5,5.2,7.2,8.5c2.5,5.2,2.3,11.4,0.7,16.9
			c-1.6,5.5-4.6,10.6-7.5,15.5"/>
		<path class="st0" d="M151.8,422.1c-2.3,11.2-10.2,20.7-19.9,26.7s-21,8.9-32.3,10.5c-2-12,4.2-24.5,14.2-31.4
			c10-6.9,23.2-8.3,34.9-5.2c-17-5.8-30.6-20.9-34.5-38.5c-0.4-1.6-0.5-3.7,1-4.6c0.8-0.5,1.7-0.4,2.6-0.3
			c10.9,1.2,21.2,6.8,28.2,15.2s10.6,19.6,9.9,30.5"/>
		<path class="st0" d="M240.7,431c3.1,5.7,2.2,12.9-0.7,18.6c-2.9,5.8-7.8,10.3-12.7,14.5c-10,8.3-21.1,15.3-33,20.8
			c-2.4,1.1-5.4,2.1-7.4,0.5c-1.2-1-1.7-2.5-2-4c-2.9-13.4,3.4-27.9,14-36.6s24.9-12.2,38.6-11.2c-26-1.7-48.4-21.2-59.5-44.7
			c14.9-2.5,30.7,0.6,43.5,8.6c12.8,8,22.5,20.8,26.8,35.3"/>
		<path class="st0" d="M345.2,435.2c4.1,5.9,4.2,13.9,1.8,20.6s-7.2,12.4-12.3,17.5c-13.4,13.4-29.8,23.6-47.6,29.9
			c-9-14.5-5.8-34.6,5.3-47.6c11.2-12.9,28.9-19,45.9-18.7c-30-0.5-58.9-19.8-71-47.2c22.5-1.8,45.5,4.6,63.8,17.8
			c5.1,3.6,9.9,7.9,12.8,13.4s3.7,12.4,0.7,17.9"/>
		<path class="st0" d="M36,354.3c-15.8-6.8-28.7-20.1-35.1-36c-0.9-2.2-1.5-5.3,0.5-6.7c1-0.7,2.4-0.6,3.6-0.5
			c10.4,1,21.1,4,28.5,11.3c7.4,7.4,10.3,19.9,4.4,28.5"/>
	</g>
</g>
<g>
	
		<rect x="636.9" y="360.7" transform="matrix(0.5386 -0.8425 0.8425 0.5386 -16.8232 710.0725)" class="st1" width="6" height="19.5"/>
	
		<rect x="469.3" y="417.8" transform="matrix(0.6621 -0.7494 0.7494 0.6621 -160.8208 498.45)" class="st2" width="6" height="19.5"/>
	<rect x="708" y="511" transform="matrix(0.6292 -0.7773 0.7773 0.6292 -141.0487 745.7438)" class="st2" width="6" height="19.5"/>
	<rect x="680.6" y="429" transform="matrix(0.2553 -0.9669 0.9669 0.2553 84.8511 987.6985)" class="st3" width="6" height="19.5"/>
	<rect x="640.1" y="497.8" transform="matrix(0.866 -0.5 0.5 0.866 -163.3465 392.0097)" class="st4" width="19.5" height="6"/>
	
		<rect x="424.8" y="395.8" transform="matrix(0.6621 -0.7494 0.7494 0.6621 -152.0033 460.3741)" class="st4" width="19.5" height="6"/>
	
		<rect x="425.3" y="517.7" transform="matrix(0.2319 -0.9727 0.9727 0.2319 -172.2824 823.1366)" class="st3" width="19.5" height="6"/>
	<rect x="469.1" y="510.6" transform="matrix(0.9871 -0.1602 0.1602 0.9871 -76.1003 83.36)" class="st1" width="19.5" height="6"/>
</g>
<g>
	<polygon class="st3" points="531,480.5 496.5,530.9 527.7,536.4 548.8,557.2 575.1,490.4 	"/>
	<polygon class="st3" points="566.2,491.6 599.8,570.8 619.2,549.1 649.8,542.8 603.6,479.3 	"/>
	<g>
		<defs>
			<polygon id="SVGID_1_" points="531,480.5 496.5,530.9 527.7,536.4 548.8,557.2 575.1,490.4 			"/>
		</defs>
		<clipPath id="SVGID_00000082358405174159933420000013782709359006404763_">
			<use xlink:href="#SVGID_1_"  style="overflow:visible;"/>
		</clipPath>
		<g style="clip-path:url(#SVGID_00000082358405174159933420000013782709359006404763_);">
			<polygon class="st6" points="561,491 552.7,554.7 567.9,554.1 575.9,487 			"/>
			
				<ellipse transform="matrix(0.7071 -0.7071 0.7071 0.7071 -138.0408 528.28)" class="st7" cx="568.7" cy="430.8" rx="68.5" ry="68.5"/>
		</g>
	</g>
	<g>
		<defs>
			<polygon id="SVGID_00000163048976537321565790000018408776024925840794_" points="566.2,491.6 599.8,570.8 619.2,549.1 
				649.8,542.8 603.6,479.3 			"/>
		</defs>
		<clipPath id="SVGID_00000129915555581256932870000005368831699760426677_">
			<use xlink:href="#SVGID_00000163048976537321565790000018408776024925840794_"  style="overflow:visible;"/>
		</clipPath>
		<g style="clip-path:url(#SVGID_00000129915555581256932870000005368831699760426677_);">
			<path class="st6" d="M598.8,569.8c0.1-0.3-10-49.3-10.6-55.9s-2-24.1,23.3-28.4l-4.8-5.6l-44.5,7.8l31.1,80.4L598.8,569.8
				L598.8,569.8z"/>
			
				<ellipse transform="matrix(0.7071 -0.7071 0.7071 0.7071 -138.0408 528.28)" class="st7" cx="568.7" cy="430.8" rx="68.5" ry="68.5"/>
		</g>
	</g>
	
		<ellipse transform="matrix(0.7071 -0.7071 0.7071 0.7071 -138.114 528.1032)" class="st9" cx="568.4" cy="430.8" rx="66.3" ry="66.3"/>
	<circle class="st10" cx="568.4" cy="430.8" r="60.6"/>
	<circle class="st11" cx="568.4" cy="430.8" r="49.3"/>
	<circle class="st11" cx="568.4" cy="430.8" r="49.3"/>
	<circle class="st9" cx="568.4" cy="430.8" r="45.9"/>
	<path class="st12" d="M569.5,402.2l7.7,15.7c0.2,0.3,0.5,0.6,0.9,0.6l17.3,2.5c1,0.1,1.3,1.3,0.6,2l-12.5,12.2
		c-0.3,0.3-0.4,0.6-0.3,1l3,17.2c0.2,0.9-0.8,1.7-1.7,1.2l-15.5-8.1c-0.3-0.2-0.7-0.2-1.1,0l-15.5,8.1c-0.8,0.5-1.8-0.3-1.7-1.2
		l3-17.2c0.1-0.4-0.1-0.8-0.3-1L540.9,423c-0.7-0.7-0.3-1.8,0.6-2l17.3-2.5c0.4,0,0.7-0.3,0.9-0.6l7.7-15.7
		C567.8,401.4,569.1,401.4,569.5,402.2L569.5,402.2z"/>
	<path class="st13" d="M609.6,406.6c0,0,11.9,18.2,3.3,41.5"/>
	<path class="st13" d="M609.8,454.2c0,0-1.8,3.4-2.8,4.3"/>
</g>
<g>
	<path class="st14" d="M176.9,335.3v-53.6h20.7c9,0,15.7,2.7,20.2,8c4.5,5.3,6.7,11.5,6.7,18.5c0,8-2.4,14.5-7.2,19.5
		c-4.8,5-11,7.5-18.7,7.5L176.9,335.3L176.9,335.3z M193.4,323h4.3c2.7,0,5-1.3,6.9-4c1.9-2.6,2.8-6.2,2.8-10.8
		c0-3.9-0.8-7.3-2.5-10.1s-4.1-4.2-7.2-4.2h-4.3L193.4,323L193.4,323z"/>
	<path class="st14" d="M259.3,335.3l-3-10.6h-14.4l-3.2,10.6h-13.4l16.5-53.6h17.4l16.8,53.6H259.3L259.3,335.3z M244.7,313.1h8.7
		l-4.3-15.5L244.7,313.1L244.7,313.1z"/>
	<path class="st14" d="M297.5,281.8v53.6H281v-53.6H297.5z"/>
	<path class="st14" d="M344.4,322.2v13.1h-37.6v-53.6h16.4v40.4L344.4,322.2L344.4,322.2z"/>
	<path class="st14" d="M388.1,281.8l-16.8,30.9v22.7h-16v-22.7l-18-30.9h18l9.4,17.7l9-17.7H388.1L388.1,281.8z"/>
	<path class="st14" d="M448.8,322.2v13.1h-37.6v-53.6h16.4v40.4L448.8,322.2L448.8,322.2z"/>
	<path class="st14" d="M494.9,322.5v12.8h-40.3v-53.6h40.3v12.4h-24.2v7.8h19.5v11.9h-19.5v8.8L494.9,322.5L494.9,322.5z"/>
	<path class="st14" d="M530.9,335.3l-3-10.6h-14.3l-3.2,10.6H497l16.5-53.6h17.4l16.8,53.6H530.9L530.9,335.3z M516.3,313.1h8.7
		l-4.3-15.5L516.3,313.1L516.3,313.1z"/>
	<path class="st14" d="M552.6,335.3v-53.6h20.7c9,0,15.7,2.7,20.2,8c4.5,5.3,6.7,11.5,6.7,18.5c0,8-2.4,14.5-7.2,19.5
		c-4.8,5-11,7.5-18.7,7.5L552.6,335.3L552.6,335.3z M569.1,323h4.3c2.7,0,5-1.3,6.9-4c1.9-2.6,2.8-6.2,2.8-10.8
		c0-3.9-0.8-7.3-2.5-10.1s-4.1-4.2-7.2-4.2h-4.3L569.1,323L569.1,323z"/>
	<path class="st14" d="M647.5,322.5v12.8h-40.3v-53.6h40.3v12.4h-24.2v7.8h19.5v11.9h-19.5v8.8L647.5,322.5L647.5,322.5z"/>
	<path class="st14" d="M701.7,335.3h-18.2l-7.8-20.5h-5.2v20.5H654v-53.6h28c6.2,0,11,1.5,14.4,4.3c3.4,2.9,5.1,6.7,5.1,11.4
		c0,3.1-0.6,5.8-1.9,8.2c-1.3,2.4-3.8,4.5-7.6,6.3L701.7,335.3z M670.5,303.4h7c2.1,0,3.7-0.4,5-1.3c1.3-0.9,1.9-2.1,1.9-3.8
		c0-3.4-2.1-5.1-6.3-5.1h-7.6L670.5,303.4L670.5,303.4z"/>
	<path class="st14" d="M709.5,335.3v-53.6h27.2c5.7,0,9.8,1.4,12.4,4.3c2.6,2.9,3.9,6.1,3.9,9.8c0,2.7-0.8,5.1-2.3,7.2
		c-1.5,2.2-3.8,3.6-6.7,4.5c6.9,1.7,10.4,5.8,10.4,12.5c0,4-1.2,7.5-3.7,10.7s-7.7,4.7-15.7,4.7H709.5L709.5,335.3z M724.7,302.3
		h7.6c1.9,0,3.3-0.5,4-1.5c0.8-1,1.2-2,1.2-3.1c0-3-1.8-4.5-5.5-4.5h-7.3L724.7,302.3L724.7,302.3z M724.7,323.4h8
		c2,0,3.5-0.5,4.4-1.5s1.4-2.1,1.4-3.3s-0.5-2.4-1.3-3.4c-0.9-1-2.6-1.5-5-1.5h-7.5L724.7,323.4L724.7,323.4z"/>
	<path class="st14" d="M784.3,336.1c-7.5,0-13.7-2.5-18.4-7.5s-7.1-11.7-7.1-20s2.3-14.6,6.8-19.8s10.8-7.8,18.9-7.8
		c7.5,0,13.5,2.5,18.2,7.4c4.7,4.9,7,11.5,7,19.7s-2.4,15.3-7.1,20.5C797.9,333.6,791.8,336.1,784.3,336.1L784.3,336.1z M784.2,324
		c2.8,0,4.8-1.2,6-3.6c1.2-2.4,1.8-6.9,1.8-13.3c0-9.3-2.5-14-7.5-14c-5.4,0-8.1,5.3-8.1,15.9C776.4,319,779,324,784.2,324z"/>
	<path class="st14" d="M844.6,335.3l-3-10.6h-14.3l-3.2,10.6h-13.3l16.5-53.6h17.4l16.8,53.6H844.6z M830,313.1h8.7l-4.3-15.5
		L830,313.1L830,313.1z"/>
	<path class="st14" d="M914,335.3h-18.2l-7.8-20.5h-5.2v20.5h-16.4v-53.6h28c6.2,0,11,1.5,14.4,4.3c3.4,2.9,5.1,6.7,5.1,11.4
		c0,3.1-0.6,5.8-1.9,8.2c-1.3,2.4-3.8,4.5-7.6,6.3L914,335.3z M882.8,303.4h7c2.1,0,3.7-0.4,5-1.3c1.3-0.9,1.9-2.1,1.9-3.8
		c0-3.4-2.1-5.1-6.3-5.1h-7.6L882.8,303.4L882.8,303.4z"/>
	<path class="st14" d="M921.8,335.3v-53.6h20.7c9,0,15.7,2.7,20.2,8c4.5,5.3,6.7,11.5,6.7,18.5c0,8-2.4,14.5-7.2,19.5
		c-4.8,5-11,7.5-18.7,7.5L921.8,335.3L921.8,335.3z M938.2,323h4.3c2.7,0,5-1.3,6.9-4c1.9-2.6,2.8-6.2,2.8-10.8
		c0-3.9-0.8-7.3-2.5-10.1s-4.1-4.2-7.2-4.2h-4.3L938.2,323L938.2,323z"/>
</g>
<g>
	<g>
		<g>
			<path class="st15" d="M863.6,243.6c-25.4,0-45.9-10.2-60.8-30.3c-14.8-19.9-22.3-46.5-22.3-79s7.6-59.9,22.8-79.1
				c15.2-19.4,35.8-29.2,61.4-29.2s47.6,10.5,61.8,31.3c14.1,20.6,21.3,47.2,21.3,79s-7.7,58.8-23,78.1
				C909.3,233.8,888.7,243.6,863.6,243.6L863.6,243.6L863.6,243.6z M864.2,72.8c-7.5,0-12.4,5-15.5,15.1c-3,10.5-4.6,25.3-4.6,43.8
				c0,25.3,1.5,42.7,4.6,51.7c2.9,8.7,7.9,13,15.4,13c8,0,13.3-5.1,16-15.6c2.9-10.9,4.4-26.3,4.4-45.4c0-26.1-1.9-43.4-5.7-51.4
				C875.2,76.5,870.5,72.8,864.2,72.8L864.2,72.8L864.2,72.8z"/>
			<path class="st16" d="M864.5,27.6c26.3,0,46.5,10.2,60.6,30.6c14.1,20.3,21,46.5,21,78.1s-7.6,58.1-22.7,77.2s-35.1,28.6-60,28.6
				c-24.9,0-44.9-9.8-59.6-29.7c-14.7-19.9-22-45.8-22-78s7.5-59.2,22.5-78.3C819.4,37.1,839.5,27.6,864.5,27.6 M864.1,198
				c8.7,0,14.5-5.5,17.6-16.7c2.9-11.1,4.4-26.4,4.4-45.6c0-26.6-1.9-43.8-5.8-52s-9.3-12.2-15.9-12.2c-8.2,0-13.8,5.4-16.9,16
				s-4.7,25.4-4.7,44.3c0,25.6,1.5,42.9,4.7,52.3C850.7,193.4,856.1,198,864.1,198 M864.5,24.5c-26,0-47,10-62.5,29.9
				c-15.4,19.5-23.1,46.5-23.1,80.1s7.6,59.6,22.5,79.8c15.2,20.5,36.1,30.8,62.1,30.8c26,0,46.7-10,62.4-29.9
				c15.5-19.5,23.2-46.2,23.2-79s-7.2-59.1-21.6-79.9C913.1,35.3,891.8,24.5,864.5,24.5L864.5,24.5L864.5,24.5z M864.1,194.9
				c-6.8,0-11.2-3.7-13.8-11.9c-3-9-4.6-26.3-4.6-51.3c0-18.4,1.5-33.1,4.6-43.4c2.8-9.4,7.3-14,14-14c5.5,0,9.8,3.5,13.3,10.5
				c3.7,7.7,5.5,24.8,5.5,50.8c0,18.9-1.4,34-4.3,44.9C876.1,190.2,871.4,194.9,864.1,194.9L864.1,194.9z"/>
		</g>
		<path class="st17" d="M842.8,131.7c0-18.8,1.5-33.6,4.7-44.3c3-10.8,8.7-16,16.9-16c4.7,0,8.7,1.9,12,5.9l21.7-42.9
			c-9.7-4.6-20.9-6.9-33.3-6.9c-25.2,0-45.2,9.5-60.2,28.6c-14.9,19.1-22.5,45.2-22.5,78.3s7.3,58.2,22,78c0.8,1.1,1.7,2.1,2.5,3.2
			l36.5-72.3C842.8,139.6,842.8,135.7,842.8,131.7L842.8,131.7L842.8,131.7z"/>
	</g>
	<g>
		<g>
			<path class="st15" d="M392.7,235v-50.2l36.1-25.3c5.1-3.5,14.9-11.2,29-23c14.1-11.6,23.2-20.6,27.5-26.8
				c4.1-6.1,6.2-12.4,6.2-18.9c0-6.5-1.8-11.2-5.3-14.9c-3.5-3.7-8-5.5-13.8-5.5c-14.5,0-22.4,11.3-24.2,34.6l-0.1,1.7l-55.7-10.8
				l0.3-1.4c3.9-24.8,13.8-43.4,29.3-55.6c15.5-12.2,34-18.3,55.2-18.3c22.8,0,41.8,6.2,56.3,18.5c14.5,12.3,22,29,22,49.5
				c0,13.7-4,26.8-11.9,39.1C536,139.6,514.9,157,479,181h77.7l-2.5,54.1L392.7,235L392.7,235z"/>
			<path class="st16" d="M477.2,22.2c22.5,0,41.1,6.1,55.3,18.1c14.2,12,21.4,28.2,21.4,48.4c0,13.4-3.9,26.1-11.6,38.3
				c-7.7,12.2-30.6,30.6-68.3,55.5h81.2l-2.4,51.2H394.3v-47.8l35.4-24.9c5.3-3.6,14.9-11.2,29-23c14.2-11.8,23.5-20.7,27.8-27.1
				S493,98,493,91.1c0-6.9-1.9-11.9-5.7-15.9c-3.7-4-8.7-6.1-14.8-6.1c-15.4,0-23.9,12-25.7,36l-52.6-10.2
				c3.9-24.5,13.4-42.7,28.8-54.6C438.2,28.1,456.4,22.2,477.2,22.2 M477.2,19.2c-21.4,0-40.2,6.2-56,18.5
				c-15.9,12.3-25.9,31.4-29.9,56.6l-0.4,2.9l2.8,0.6l52.6,10.2l3.3,0.7l0.3-3.3c1.7-22.4,9.1-33.2,22.7-33.2
				c5.3,0,9.4,1.7,12.7,5.1s4.8,8,4.8,14s-2.1,12.3-5.9,18.1c-4.1,6.1-13.3,14.9-27.2,26.4c-14.1,11.6-23.8,19.4-28.9,22.8
				l-35.5,24.9l-1.2,0.8v52.4h164.4l0.1-2.9l2.4-51.2l0.1-3h-74.4c33.5-22.5,53.4-39.3,60.8-50.9c8-12.6,12.2-26,12.2-40
				c0-20.9-7.6-38-22.5-50.6C519.7,25.5,500.3,19.2,477.2,19.2L477.2,19.2L477.2,19.2z"/>
		</g>
		<path class="st17" d="M552.2,233.6l2.4-51.2h-81.2c37.8-24.9,60.4-43.4,68.3-55.5c7.7-12.2,11.6-24.9,11.6-38.3
			c0-16.3-4.7-30-14.1-40.9c-35.8,54.3-81.9,123.5-123.4,185.9H552.2z"/>
	</g>
	<g>
		<path class="st15" d="M268.8,254v-26.6c-36.4-4.8-59.6-24.6-69-58.9l-0.6-1.8l56.6-10.5l0.4,1.5c4.3,14.9,15.1,22.1,32.8,22.1
			c19.8,0,19.8-7.6,19.8-10.1c0-3.6-1.4-6.4-4.3-8.3c-3.2-2.2-8.9-4.1-17.1-5.8c-34.2-6.9-55.2-15.6-64.6-26.6
			c-9.1-10.8-13.8-23.4-13.8-37.5c0-15.5,5.1-29.3,15.1-41.3c9.8-11.6,24.8-19.2,44.5-22.4V1.7h32.6v25.7c32.4,4,53.9,20.1,64,47.6
			l0.7,1.7L315,92.5l-0.6-1.5c-4.6-12.2-13.8-18.1-28.2-18.1c-17.1,0-17.1,7.9-17.1,10.4s0.8,4.6,2.6,6.2c1.2,1.2,5.3,3.3,16.7,5.9
			c22,4.8,37.9,9.1,47.4,13c9.8,3.9,18.1,10.6,24.6,19.9c6.5,9.3,9.8,20.5,9.8,33.1c0,17.7-6.4,32.8-18.9,44.8
			c-12.2,11.6-29.2,18.8-50.2,21.4V254L268.8,254L268.8,254z"/>
		<path class="st16" d="M299.7,3.5v25.3c32.8,3.6,54.1,19.2,64.2,46.6l-47.6,15.1c-4.8-12.9-14.8-19.2-29.7-19.2
			c-12.6,0-18.8,4-18.8,12.2c0,2.9,1.1,5.4,3.2,7.5s8,4.1,17.6,6.4c22,4.8,37.8,9.1,47.3,12.9c9.5,3.7,17.4,10.2,23.8,19.2
			c6.4,9,9.5,19.8,9.5,32.1c0,17.3-6.2,31.8-18.4,43.4c-12.3,11.8-29.2,18.8-50.8,21.2v26.3h-29.3V226
			c-36.6-4.3-59.7-23.6-69.1-57.9l53.1-9.8c4.6,15.6,16,23.4,34.4,23.4c14.4,0,21.6-4,21.6-11.9c0-4.1-1.7-7.3-5-9.7
			s-9.3-4.3-17.8-6.1c-33.5-6.8-54.6-15.5-63.6-26c-9-10.5-13.4-22.7-13.4-36.2c0-15.1,4.8-28.5,14.8-40.1
			c9.8-11.8,24.8-19.1,44.9-22.1v-26L299.7,3.5 M303.1,0H267v26.6c-19.5,3.5-34.3,11.1-44.1,22.8c-10.4,12.3-15.5,26.6-15.5,42.5
			c0,14.4,4.8,27.4,14.2,38.6c9.5,11.2,31,20.1,65.6,27.1c10,2.1,14.5,4.1,16.5,5.5c2.4,1.7,3.5,3.9,3.5,6.9c0,2.1,0,8.4-18.1,8.4
			c-16.9,0-27.1-6.8-31.1-20.9l-0.8-3l-3,0.6l-53.1,9.8l-3.7,0.7l1,3.6c9.5,34.6,32.8,54.8,69,60v26.7h36.1v-26.7
			c20.7-2.8,37.5-10.1,49.8-21.7c13-12.3,19.5-27.8,19.5-46.1c0-13-3.5-24.5-10.1-34c-6.6-9.5-15.2-16.5-25.3-20.5
			c-9.7-3.9-25.7-8.3-47.7-13c-12.2-2.8-15.2-4.7-15.9-5.4c-1.5-1.4-2.2-3-2.2-5c0-2.4,0-8.7,15.4-8.7c13.6,0,22.3,5.5,26.6,17
			l1.1,3l3.2-1L365.1,79l3.5-1.1l-1.2-3.5c-10.1-27.8-31.7-44.1-63.9-48.5L303.1,0L303.1,0L303.1,0z"/>
	</g>
	<g>
		<g>
			<path class="st15" d="M670.3,241.9c-21.6,0-40.5-5.8-56.3-17.1c-15.9-11.5-25.7-27.5-29.3-48l-0.3-1.8l56.8-6.9l0.4,1.5
				c3.3,14.4,12.3,21.3,27.4,21.3c7.6,0,13.3-2.2,17.4-6.8c4.3-4.6,6.4-10,6.4-16.6c0-7.5-2.4-13.1-7.2-17.3S675,144,668.4,144
				c-10,0-17.4,4-22.8,12.3l-0.6,1l-50.2-7.1l9.4-122.4h141.7l-5.8,54.6h-86.8l-2.1,24.2c10.8-6.6,22.5-10,35.4-10
				c18.4,0,34.7,6.4,48.4,18.9c13.8,12.6,20.7,29.7,20.7,50.8c0,22.1-8.2,40.5-24.2,54.5C715.7,234.8,695,241.9,670.3,241.9
				L670.3,241.9L670.3,241.9z"/>
			<path class="st16" d="M744,29.6l-5.5,51.2h-86.8l-2.5,29.3c11.2-7.7,23.6-11.8,37.3-11.8c18,0,33.7,6.2,47.3,18.5
				c13.4,12.3,20.2,28.9,20.2,49.5c0,21.7-7.9,39.6-23.5,53.1c-15.8,13.7-35.8,20.5-60.2,20.5c-21.3,0-39.7-5.5-55.2-16.7
				c-15.5-11.2-25-26.8-28.6-46.9l53.5-6.5c3.6,15.1,13.3,22.7,29,22.7c8,0,14.2-2.5,18.8-7.3c4.6-4.8,6.8-10.8,6.8-17.8
				c0-7.9-2.6-14.1-7.7-18.5c-5.1-4.4-11.3-6.6-18.4-6.6c-10.5,0-18.7,4.3-24.3,13l-47.6-6.6l9.1-119.1L744,29.6 M747.9,26.1H602.4
				l-0.3,3.2L593,148.4l-0.3,3.2l3.2,0.4l47.6,6.6l2.2,0.3l1.2-1.8c5-7.7,12-11.5,21.4-11.5c6.2,0,11.6,1.9,16.2,5.8
				c4.4,3.7,6.5,9,6.5,15.9c0,6.1-1.9,11.2-5.8,15.5c-3.9,4.1-9.1,6.2-16.2,6.2c-14.1,0-22.5-6.5-25.6-19.9l-0.7-3l-3,0.4l-53.5,6.5
				l-3.6,0.4l0.7,3.6c3.7,20.9,13.8,37.3,30,49.1c16,11.6,35.3,17.4,57.3,17.4c25.2,0,46.2-7.2,62.4-21.3
				c16.5-14.2,24.8-33.1,24.8-55.7s-7.2-39.1-21.3-52.1c-14.1-12.9-30.7-19.5-49.6-19.5c-11.9,0-23.1,2.9-33.3,8.6l1.7-19.2h86.8
				l0.3-3l5.5-51.2L747.9,26.1L747.9,26.1L747.9,26.1z"/>
		</g>
		<g>
			<path class="st17" d="M676.2,29.6l-24.5,51.2H735c1.7-4.3,3.3-8.4,4.8-12.6l4.1-38.7h-67.8L676.2,29.6L676.2,29.6z"/>
			<path class="st17" d="M686.6,98.5c-13.7,0-26.1,3.9-37.3,11.8l2.4-29.2l-33.9,70.8l26.3,3.7c5.7-8.7,13.8-13,24.3-13
				c7.1,0,13.3,2.2,18.4,6.6c5.1,4.4,7.7,10.6,7.7,18.5c0,7.1-2.2,12.9-6.8,17.8c-4.6,4.8-10.8,7.3-18.8,7.3
				c-15.8,0-25.4-7.6-29-22.7l-32.8,4l-12.6,26.3c5,9.1,11.8,16.7,20.6,23.1c15.5,11.2,33.9,16.7,55.2,16.7h1.5
				c14.7-36,34.3-85.7,52-131C712.7,102.1,700.4,98.5,686.6,98.5L686.6,98.5z"/>
		</g>
	</g>
</g>
</svg>
