<?xml version="1.0" encoding="utf-8"?>
<!-- Generator: Adobe Illustrator 27.5.0, SVG Export Plug-In . SVG Version: 6.00 Build 0)  -->
<svg version="1.1" id="_图层_2" xmlns="http://www.w3.org/2000/svg" xmlns:xlink="http://www.w3.org/1999/xlink" x="0px" y="0px"
	 viewBox="0 0 1300 520" style="enable-background:new 0 0 1300 520;" xml:space="preserve">
<style type="text/css">
	.st0{fill:#25A460;}
	.st1{fill:#ECACC5;}
	.st2{fill:#D62944;}
	.st3{fill:#6BBCBB;}
	.st4{fill:#EEDC23;}
	.st5{clip-path:url(#SVGID_00000131354728587653263370000007408218243797711789_);}
	.st6{fill:#018A84;}
	.st7{opacity:0.55;fill:#0B6B64;enable-background:new    ;}
	.st8{clip-path:url(#SVGID_00000137121470696731641650000000815005813284147372_);}
	.st9{fill:#F1C052;}
	.st10{fill:#E5A61F;}
	.st11{fill:#F5D17C;}
	.st12{fill:#E88C31;}
	.st13{fill:none;stroke:#FFFFFF;stroke-width:6.92;stroke-linecap:round;stroke-miterlimit:10;}
	.st14{fill:#423D34;}
	.st15{fill:#FDB303;}
	.st16{fill:#ED9718;}
	.st17{fill:#FFC550;}
</style>
<path class="st0" d="M1088.7,384.9c3.7,7.3,10,13.3,17.5,16.5c10.6,4.6,22.7,3.8,34.3,2.9c0.6-0.1,1.3-0.1,1.8-0.5
	c0.6-0.5,0.7-1.3,0.8-2.1c0.9-11.3-7.7-22-18.5-25.4c-10.8-3.3-23,0-31.8,7.1c14.6-12.4,21.9-32.9,18.4-51.8c-0.2-1-0.5-2.1-1.4-2.5
	c-0.7-0.3-1.5-0.1-2.2,0.1c-6.8,2.2-13.2,5.8-18.7,10.4c-3.1,2.6-5.9,5.5-7.6,9.1c-2.7,5.5-2.5,12.1-0.7,18s4.9,11.3,8,16.6"/>
<path class="st0" d="M1025.1,412.5c2.4,11.9,10.9,22,21.2,28.4s22.4,9.5,34.5,11.1c2.1-12.8-4.5-26.2-15.2-33.5s-24.7-8.9-37.2-5.5
	c18.2-6.2,32.6-22.3,36.7-41c0.4-1.7,0.5-4-1-4.9c-0.8-0.5-1.8-0.4-2.7-0.3c-11.6,1.3-22.6,7.2-30.1,16.2s-11.3,20.9-10.5,32.5"/>
<path class="st0" d="M940.4,422c-3.3,6.1-2.4,13.7,0.7,19.9c3.1,6.1,8.3,11,13.6,15.4c10.7,8.9,22.5,16.3,35.1,22.2
	c2.5,1.2,5.7,2.2,7.9,0.5c1.3-1,1.8-2.7,2.2-4.3c3-14.3-3.6-29.7-14.9-39c-11.3-9.3-26.6-13-41.2-12c27.7-1.8,51.6-22.6,63.4-47.7
	c-15.9-2.7-32.7,0.6-46.3,9.1s-24,22.2-28.5,37.7"/>
<path class="st0" d="M849,426.5c-4.4,6.3-4.5,14.8-1.9,22s7.7,13.2,13.1,18.6c14.2,14.2,31.7,25.2,50.7,31.9
	c9.6-15.5,6.2-36.9-5.7-50.7c-11.9-13.8-30.8-20.3-49-19.9c32-0.6,62.8-21.1,75.6-50.3c-23.9-1.9-48.5,4.9-68,18.9
	c-5.4,3.9-10.5,8.4-13.7,14.2c-3.1,5.9-4,13.2-0.8,19.1"/>
<path class="st0" d="M1128.6,340.2c16.8-7.3,30.6-21.4,37.5-38.4c1-2.4,1.6-5.7-0.6-7.1c-1.1-0.7-2.5-0.7-3.8-0.5
	c-11.1,1-22.5,4.3-30.4,12.1c-7.9,7.8-11,21.2-4.7,30.4"/>
<path class="st0" d="M211.2,384.9c-3.7,7.3-10,13.3-17.5,16.5c-10.6,4.6-22.7,3.8-34.3,2.9c-0.6-0.1-1.3-0.1-1.8-0.5
	c-0.6-0.5-0.7-1.3-0.8-2.1c-0.9-11.3,7.7-22,18.5-25.4s23,0,31.8,7.1c-14.6-12.4-21.9-32.9-18.4-51.8c0.2-1,0.5-2.1,1.4-2.5
	c0.7-0.3,1.5-0.1,2.2,0.1c6.8,2.2,13.2,5.8,18.7,10.4c3.1,2.6,5.9,5.5,7.6,9.1c2.7,5.5,2.5,12.1,0.7,18c-1.7,5.9-4.9,11.3-8,16.6"/>
<path class="st0" d="M274.8,412.5c-2.4,11.9-10.9,22-21.2,28.4s-22.4,9.5-34.5,11.1c-2.1-12.8,4.5-26.2,15.2-33.5s24.7-8.9,37.2-5.5
	c-18.2-6.2-32.6-22.3-36.7-41c-0.4-1.7-0.5-4,1-4.9c0.8-0.5,1.8-0.4,2.7-0.3c11.6,1.3,22.6,7.2,30.1,16.2s11.3,20.9,10.5,32.5"/>
<path class="st0" d="M359.6,422c3.3,6.1,2.4,13.7-0.7,19.9c-3.1,6.1-8.3,11-13.6,15.4c-10.7,8.9-22.5,16.3-35.1,22.2
	c-2.5,1.2-5.7,2.2-7.9,0.5c-1.3-1-1.8-2.7-2.2-4.3c-3-14.3,3.6-29.7,14.9-39s26.6-13,41.2-12c-27.7-1.8-51.6-22.6-63.4-47.7
	c15.9-2.7,32.7,0.6,46.3,9.1c13.6,8.5,24,22.2,28.5,37.7"/>
<path class="st0" d="M450.9,426.5c4.4,6.3,4.5,14.8,1.9,22s-7.7,13.2-13.1,18.6C425.5,481.3,408,492.3,389,499
	c-9.6-15.5-6.2-36.9,5.7-50.7c11.9-13.8,30.8-20.3,49-19.9c-32-0.6-62.8-21.1-75.6-50.3c23.9-1.9,48.5,4.9,68,18.9
	c5.4,3.9,10.5,8.4,13.7,14.2c3.1,5.9,4,13.2,0.8,19.1"/>
<path class="st0" d="M171.4,340.2c-16.9-7.2-30.7-21.4-37.5-38.4c-1-2.4-1.6-5.7,0.6-7.1c1.1-0.7,2.5-0.7,3.8-0.5
	c11.1,1,22.5,4.3,30.4,12.1c7.9,7.8,11,21.2,4.7,30.4"/>
<g>
	<g>
		
			<rect x="700.2" y="19.5" transform="matrix(0.5386 -0.8425 0.8425 0.5386 301.2527 604.4717)" class="st1" width="4.7" height="15.3"/>
		
			<rect x="568.4" y="64.4" transform="matrix(0.6621 -0.7494 0.7494 0.6621 138.882 452.0714)" class="st2" width="4.7" height="15.3"/>
		
			<rect x="756.1" y="137.5" transform="matrix(0.6292 -0.7773 0.7773 0.6292 168.4219 643.3853)" class="st2" width="4.7" height="15.3"/>
		
			<rect x="734.5" y="73.1" transform="matrix(0.2553 -0.9669 0.9669 0.2553 470.6509 772.6053)" class="st3" width="4.7" height="15.3"/>
		<rect x="702.6" y="127.3" transform="matrix(0.866 -0.5 0.5 0.866 30.3349 372.4881)" class="st4" width="15.3" height="4.7"/>
		
			<rect x="533.3" y="47.1" transform="matrix(0.6621 -0.7494 0.7494 0.6621 145.7113 422.1262)" class="st4" width="15.3" height="4.7"/>
		
			<rect x="533.7" y="143" transform="matrix(0.2319 -0.9727 0.9727 0.2319 274.4762 638.2275)" class="st3" width="15.3" height="4.7"/>
		
			<rect x="568.2" y="137.3" transform="matrix(0.9871 -0.1602 0.1602 0.9871 -14.9373 94.0553)" class="st1" width="15.3" height="4.7"/>
	</g>
	<g>
		<polygon class="st3" points="616.9,113.7 589.7,153.3 614.2,157.7 630.8,174 651.5,121.4 		"/>
		<polygon class="st3" points="644.5,122.4 670.9,184.7 686.2,167.6 710.3,162.6 673.9,112.7 		"/>
		<g>
			<g>
				<defs>
					<polygon id="SVGID_1_" points="616.9,113.7 589.7,153.3 614.2,157.7 630.8,174 651.5,121.4 					"/>
				</defs>
				<clipPath id="SVGID_00000027569758212977820530000017552968207414442379_">
					<use xlink:href="#SVGID_1_"  style="overflow:visible;"/>
				</clipPath>
				<g style="clip-path:url(#SVGID_00000027569758212977820530000017552968207414442379_);">
					<g>
						<polygon class="st6" points="640.5,122 633.9,172.1 645.9,171.6 652.2,118.8 						"/>
						<circle class="st7" cx="646.5" cy="74.6" r="53.9"/>
					</g>
				</g>
			</g>
		</g>
		<g>
			<g>
				<defs>
					<polygon id="SVGID_00000084518538183281742770000009251689160117910193_" points="644.5,122.4 670.9,184.7 686.2,167.6 
						710.3,162.6 673.9,112.7 					"/>
				</defs>
				<clipPath id="SVGID_00000160889526965707794590000012825324936973964699_">
					<use xlink:href="#SVGID_00000084518538183281742770000009251689160117910193_"  style="overflow:visible;"/>
				</clipPath>
				<g style="clip-path:url(#SVGID_00000160889526965707794590000012825324936973964699_);">
					<g>
						<path class="st6" d="M670.2,183.9c0.1-0.2-7.8-38.8-8.3-43.9s-1.6-19,18.3-22.3l-3.8-4.4l-35,6.1l24.5,63.3L670.2,183.9
							L670.2,183.9L670.2,183.9z"/>
						<circle class="st7" cx="646.5" cy="74.6" r="53.9"/>
					</g>
				</g>
			</g>
		</g>
		<circle class="st9" cx="646.3" cy="74.6" r="52.2"/>
		<circle class="st10" cx="646.3" cy="74.6" r="47.6"/>
		<circle class="st11" cx="646.3" cy="74.6" r="38.8"/>
		<circle class="st11" cx="646.3" cy="74.6" r="38.8"/>
		<circle class="st9" cx="646.3" cy="74.6" r="36.1"/>
		<path class="st12" d="M647.1,52.1l6.1,12.3c0.1,0.3,0.4,0.5,0.7,0.5l13.6,2c0.8,0.1,1,1,0.5,1.5l-9.8,9.6
			c-0.2,0.2-0.3,0.5-0.3,0.8l2.3,13.5c0.1,0.7-0.7,1.3-1.3,1L646.7,87c-0.3-0.1-0.6-0.1-0.8,0l-12.2,6.4c-0.7,0.3-1.5-0.2-1.3-1
			l2.3-13.5c0-0.3,0-0.6-0.3-0.8l-9.8-9.6c-0.5-0.5-0.2-1.4,0.5-1.5l13.6-2c0.3,0,0.5-0.2,0.7-0.5l6.1-12.3
			C645.8,51.5,646.8,51.5,647.1,52.1L647.1,52.1L647.1,52.1z"/>
		<path class="st13" d="M678.7,55.6c0,0,9.4,14.3,2.6,32.6"/>
		<path class="st13" d="M678.8,93c0,0-1.4,2.7-2.2,3.4"/>
	</g>
</g>
<g>
	<path class="st14" d="M521.9,480.8v-65H547c10.9,0,19.1,3.2,24.5,9.7s8.1,14,8.1,22.5c0,9.7-2.9,17.6-8.7,23.7s-13.4,9.1-22.7,9.1
		L521.9,480.8L521.9,480.8z M541.8,465.9h5.2c3.3,0,6.1-1.6,8.4-4.8c2.3-3.2,3.4-7.6,3.4-13.1c0-4.7-1-8.8-3-12.2s-4.9-5.1-8.7-5.1
		h-5.2L541.8,465.9L541.8,465.9L541.8,465.9z"/>
	<path class="st14" d="M621.8,480.8l-3.7-12.8h-17.4l-3.9,12.8h-16.2l20.1-65h21.1l20.4,65H621.8L621.8,480.8z M604.1,453.8h10.5
		l-5.2-18.9L604.1,453.8L604.1,453.8z"/>
	<path class="st14" d="M668.1,415.8v65h-20v-65H668.1z"/>
	<path class="st14" d="M725,464.9v16h-45.6v-65h20v49H725z"/>
	<path class="st14" d="M778.1,415.8l-20.3,37.5v27.5h-19.4v-27.5l-21.9-37.5h21.8l11.4,21.4l10.9-21.4H778.1z"/>
</g>
<g>
	<g>
		<g>
			<path class="st15" d="M860,352.3c-18.4,0-33.2-7.4-44-21.9c-10.7-14.4-16.1-33.6-16.1-57.1s5.5-43.3,16.5-57.2
				c11-14,25.9-21.1,44.4-21.1s34.4,7.6,44.7,22.6c10.2,14.9,15.4,34.1,15.4,57.1s-5.6,42.5-16.6,56.5
				C893.1,345.2,878.2,352.3,860,352.3L860,352.3L860,352.3z M860.5,228.8c-5.4,0-9,3.6-11.2,10.9c-2.2,7.6-3.3,18.3-3.3,31.7
				c0,18.3,1.1,30.9,3.3,37.4c2.1,6.3,5.7,9.4,11.1,9.4c5.8,0,9.6-3.7,11.6-11.3c2.1-7.9,3.2-19,3.2-32.8c0-18.9-1.4-31.4-4.1-37.2
				C868.4,231.5,865,228.8,860.5,228.8L860.5,228.8L860.5,228.8z"/>
			<path class="st16" d="M860.7,196.1c19,0,33.6,7.4,43.8,22.1c10.2,14.7,15.2,33.6,15.2,56.5s-5.5,42-16.4,55.8
				s-25.4,20.7-43.4,20.7s-32.5-7.1-43.1-21.5s-15.9-33.1-15.9-56.4s5.4-42.8,16.3-56.6C828.1,203,842.6,196.1,860.7,196.1
				 M860.4,319.3c6.3,0,10.5-4,12.7-12.1c2.1-8,3.2-19.1,3.2-33c0-19.2-1.4-31.7-4.2-37.6s-6.7-8.8-11.5-8.8
				c-5.9,0-10,3.9-12.2,11.6s-3.4,18.4-3.4,32c0,18.5,1.1,31,3.4,37.8S854.6,319.3,860.4,319.3 M860.7,193.9
				c-18.8,0-34,7.2-45.2,21.6c-11.1,14.1-16.7,33.6-16.7,57.9s5.5,43.1,16.3,57.7c11,14.8,26.1,22.3,44.9,22.3s33.8-7.2,45.1-21.6
				c11.2-14.1,16.8-33.4,16.8-57.1s-5.2-42.7-15.6-57.8C895.8,201.7,880.4,193.9,860.7,193.9L860.7,193.9L860.7,193.9z M860.4,317.1
				c-4.9,0-8.1-2.7-10-8.6c-2.2-6.5-3.3-19-3.3-37.1c0-13.3,1.1-23.9,3.3-31.4c2-6.8,5.3-10.1,10.1-10.1c4,0,7.1,2.5,9.6,7.6
				c2.7,5.6,4,17.9,4,36.7c0,13.7-1,24.6-3.1,32.5C869.1,313.7,865.7,317.1,860.4,317.1L860.4,317.1z"/>
		</g>
		<path class="st17" d="M845,271.4c0-13.6,1.1-24.3,3.4-32c2.2-7.8,6.3-11.6,12.2-11.6c3.4,0,6.3,1.4,8.7,4.3l15.7-31
			c-7-3.3-15.1-5-24.1-5c-18.2,0-32.7,6.9-43.5,20.7s-16.3,32.7-16.3,56.6s5.3,42.1,15.9,56.4c0.6,0.8,1.2,1.5,1.8,2.3l26.4-52.3
			C845,277.1,845,274.3,845,271.4L845,271.4L845,271.4z"/>
	</g>
	<g>
		<g>
			<path class="st15" d="M519.5,346.1v-36.3l26.1-18.3c3.7-2.5,10.8-8.1,21-16.6c10.2-8.4,16.8-14.9,19.9-19.4c3-4.4,4.5-9,4.5-13.7
				s-1.3-8.1-3.8-10.8s-5.8-4-10-4c-10.5,0-16.2,8.2-17.5,25l-0.1,1.2l-40.3-7.8l0.2-1c2.8-17.9,10-31.4,21.2-40.2
				s24.6-13.2,39.9-13.2c16.5,0,30.2,4.5,40.7,13.4s15.9,21,15.9,35.8c0,9.9-2.9,19.4-8.6,28.3c-5.5,8.6-20.8,21.2-46.7,38.5h56.2
				l-1.8,39.1L519.5,346.1L519.5,346.1z"/>
			<path class="st16" d="M580.6,192.2c16.3,0,29.7,4.4,40,13.1s15.5,20.4,15.5,35c0,9.7-2.8,18.9-8.4,27.7
				c-5.6,8.8-22.1,22.1-49.4,40.1H637l-1.7,37H520.6v-34.6l25.6-18c3.8-2.6,10.8-8.1,21-16.6c10.3-8.5,17-15,20.1-19.6
				S592,247,592,242s-1.4-8.6-4.1-11.5c-2.7-2.9-6.3-4.4-10.7-4.4c-11.1,0-17.3,8.7-18.6,26l-38-7.4c2.8-17.7,9.7-30.9,20.8-39.5
				C552.4,196.5,565.5,192.2,580.6,192.2 M580.6,190c-15.5,0-29.1,4.5-40.5,13.4c-11.5,8.9-18.7,22.7-21.6,40.9l-0.3,2.1l2,0.4
				l38,7.4l2.4,0.5l0.2-2.4c1.2-16.2,6.6-24,16.4-24c3.8,0,6.8,1.2,9.2,3.7s3.5,5.8,3.5,10.1s-1.5,8.9-4.3,13.1
				c-3,4.4-9.6,10.8-19.7,19.1c-10.2,8.4-17.2,14-20.9,16.5l-25.7,18l-0.9,0.6v37.9h118.9l0.1-2.1l1.7-37l0.1-2.2h-53.8
				c24.2-16.3,38.6-28.4,44-36.8c5.8-9.1,8.8-18.8,8.8-28.9c0-15.1-5.5-27.5-16.3-36.6C611.3,194.6,597.3,190,580.6,190L580.6,190
				L580.6,190z"/>
		</g>
		<path class="st17" d="M634.8,345.1l1.7-37h-58.7c27.3-18,43.7-31.4,49.4-40.1c5.6-8.8,8.4-18,8.4-27.7c0-11.8-3.4-21.7-10.2-29.6
			c-25.9,39.3-59.2,89.3-89.2,134.4L634.8,345.1L634.8,345.1z"/>
	</g>
	<g>
		<path class="st15" d="M429.9,359.8v-19.2c-26.3-3.5-43.1-17.8-49.9-42.6l-0.4-1.3l40.9-7.6l0.3,1.1c3.1,10.8,10.9,16,23.7,16
			c14.3,0,14.3-5.5,14.3-7.3c0-2.6-1-4.6-3.1-6c-2.3-1.6-6.4-3-12.4-4.2c-24.7-5-39.9-11.3-46.7-19.2c-6.6-7.8-10-16.9-10-27.1
			c0-11.2,3.7-21.2,10.9-29.9c7.1-8.4,17.9-13.9,32.2-16.2v-19h23.6v18.6c23.4,2.9,39,14.5,46.3,34.4l0.5,1.2L463.3,243l-0.4-1.1
			c-3.3-8.8-10-13.1-20.4-13.1c-12.4,0-12.4,5.7-12.4,7.5s0.6,3.3,1.9,4.5c0.9,0.9,3.8,2.4,12.1,4.3c15.9,3.5,27.4,6.6,34.3,9.4
			c7.1,2.8,13.1,7.7,17.8,14.4c4.7,6.7,7.1,14.8,7.1,23.9c0,12.8-4.6,23.7-13.7,32.4c-8.8,8.4-21.1,13.6-36.3,15.5v19.1H429.9
			L429.9,359.8z"/>
		<path class="st16" d="M452.2,178.6v18.3c23.7,2.6,39.1,13.9,46.4,33.7l-34.4,10.9c-3.5-9.3-10.7-13.9-21.5-13.9
			c-9.1,0-13.6,2.9-13.6,8.8c0,2.1,0.8,3.9,2.3,5.4s5.8,3,12.7,4.6c15.9,3.5,27.3,6.6,34.2,9.3c6.9,2.7,12.6,7.4,17.2,13.9
			c4.6,6.5,6.9,14.3,6.9,23.2c0,12.5-4.5,23-13.3,31.4c-8.9,8.5-21.1,13.6-36.7,15.3v19h-21.2v-19c-26.5-3.1-43.2-17.1-50-41.9
			l38.4-7.1c3.3,11.3,11.6,16.9,24.9,16.9c10.4,0,15.6-2.9,15.6-8.6c0-3-1.2-5.3-3.6-7c-2.4-1.7-6.7-3.1-12.9-4.4
			c-24.2-4.9-39.5-11.2-46-18.8c-6.5-7.6-9.7-16.4-9.7-26.2c0-10.9,3.5-20.6,10.7-29c7.1-8.5,17.9-13.8,32.5-16v-18.8H452.2
			 M454.7,176.1h-26.1v19.2c-14.1,2.5-24.8,8-31.9,16.5c-7.5,8.9-11.2,19.2-11.2,30.7c0,10.4,3.5,19.8,10.3,27.9
			c6.9,8.1,22.4,14.5,47.4,19.6c7.2,1.5,10.5,3,11.9,4c1.7,1.2,2.5,2.8,2.5,5c0,1.5,0,6.1-13.1,6.1c-12.2,0-19.6-4.9-22.5-15.1
			l-0.6-2.2l-2.2,0.4l-38.4,7.1l-2.7,0.5l0.7,2.6c6.9,25,23.7,39.6,49.9,43.4v19.3h26.1v-19.3c15-2,27.1-7.3,36-15.7
			c9.4-8.9,14.1-20.1,14.1-33.3c0-9.4-2.5-17.7-7.3-24.6s-11-11.9-18.3-14.8c-7-2.8-18.6-6-34.5-9.4c-8.8-2-11-3.4-11.5-3.9
			c-1.1-1-1.6-2.2-1.6-3.6c0-1.7,0-6.3,11.1-6.3c9.8,0,16.1,4,19.2,12.3l0.8,2.2l2.3-0.7l34.4-10.8l2.5-0.8l-0.9-2.5
			c-7.3-20.1-22.9-31.9-46.2-35.1L454.7,176.1L454.7,176.1L454.7,176.1z"/>
	</g>
	<g>
		<g>
			<path class="st15" d="M720.2,351c-15.6,0-29.3-4.2-40.7-12.4c-11.5-8.3-18.6-19.9-21.2-34.7l-0.2-1.3l41.1-5l0.3,1.1
				c2.4,10.4,8.9,15.4,19.8,15.4c5.5,0,9.6-1.6,12.6-4.9c3.1-3.3,4.6-7.2,4.6-12c0-5.4-1.7-9.5-5.2-12.5s-7.7-4.5-12.5-4.5
				c-7.2,0-12.6,2.9-16.5,8.9l-0.4,0.7l-36.3-5.1l6.8-88.5h102.5l-4.2,39.5h-62.8l-1.5,17.5c7.8-4.8,16.3-7.2,25.6-7.2
				c13.3,0,25.1,4.6,35,13.7c10,9.1,15,21.5,15,36.7c0,16-5.9,29.3-17.5,39.4C753,345.9,738.1,351,720.2,351L720.2,351L720.2,351z"
				/>
			<path class="st16" d="M773.5,197.5l-4,37h-62.8l-1.8,21.2c8.1-5.6,17.1-8.5,27-8.5c13,0,24.4,4.5,34.2,13.4
				c9.7,8.9,14.6,20.9,14.6,35.8c0,15.7-5.7,28.6-17,38.4c-11.4,9.9-25.9,14.8-43.5,14.8c-15.4,0-28.7-4-39.9-12.1
				s-18.1-19.4-20.7-33.9l38.7-4.7c2.6,10.9,9.6,16.4,21,16.4c5.8,0,10.3-1.8,13.6-5.3s4.9-7.8,4.9-12.9c0-5.7-1.9-10.2-5.6-13.4
				c-3.7-3.2-8.2-4.8-13.3-4.8c-7.6,0-13.5,3.1-17.6,9.4l-34.4-4.8l6.6-86.1L773.5,197.5 M776.3,195H671.1l-0.2,2.3l-6.6,86.1
				l-0.2,2.3l2.3,0.3l34.4,4.8l1.6,0.2l0.9-1.3c3.6-5.6,8.7-8.3,15.5-8.3c4.5,0,8.4,1.4,11.7,4.2c3.2,2.7,4.7,6.5,4.7,11.5
				c0,4.4-1.4,8.1-4.2,11.2c-2.8,3-6.6,4.5-11.7,4.5c-10.2,0-16.3-4.7-18.5-14.4l-0.5-2.2l-2.2,0.3l-38.7,4.7l-2.6,0.3l0.5,2.6
				c2.7,15.1,10,27,21.7,35.5c11.6,8.4,25.5,12.6,41.4,12.6c18.2,0,33.4-5.2,45.1-15.4c11.9-10.3,17.9-23.9,17.9-40.3
				s-5.2-28.3-15.4-37.7c-10.2-9.3-22.2-14.1-35.9-14.1c-8.6,0-16.7,2.1-24.1,6.2l1.2-13.9H772l0.2-2.2l4-37L776.3,195L776.3,195
				L776.3,195z"/>
		</g>
		<g>
			<path class="st17" d="M724.5,197.5l-17.7,37H767c1.2-3.1,2.4-6.1,3.5-9.1l3-28h-49V197.5L724.5,197.5z"/>
			<path class="st17" d="M732,247.3c-9.9,0-18.9,2.8-27,8.5l1.7-21.1l-24.5,51.2l19,2.7c4.1-6.3,10-9.4,17.6-9.4
				c5.1,0,9.6,1.6,13.3,4.8c3.7,3.2,5.6,7.7,5.6,13.4c0,5.1-1.6,9.3-4.9,12.9c-3.3,3.5-7.8,5.3-13.6,5.3c-11.4,0-18.4-5.5-21-16.4
				l-23.7,2.9l-9.1,19c3.6,6.6,8.5,12.1,14.9,16.7c11.2,8.1,24.5,12.1,39.9,12.1h1.1c10.6-26,24.8-62,37.6-94.7
				C750.9,249.9,742,247.3,732,247.3L732,247.3z"/>
		</g>
	</g>
</g>
</svg>
