<?xml version="1.0" encoding="utf-8"?>
<!-- Generator: Adobe Illustrator 27.5.0, SVG Export Plug-In . SVG Version: 6.00 Build 0)  -->
<svg version="1.1" id="_图层_1" xmlns="http://www.w3.org/2000/svg" xmlns:xlink="http://www.w3.org/1999/xlink" x="0px" y="0px"
	 viewBox="0 0 86 86" style="enable-background:new 0 0 86 86;" xml:space="preserve">
<style type="text/css">
	.st0{clip-path:url(#SVGID_00000031926107811200013900000013472160094640382863_);}
	.st1{fill:none;}
	.st2{fill:#FFD961;}
	.st3{fill:url(#SVGID_00000036218640461360339960000001472550453471429551_);}
	.st4{fill:url(#SVGID_00000180337165410056496960000000473341256047751086_);}
	.st5{fill:#FFF9F3;}
	.st6{fill:url(#SVGID_00000103222554637715328010000003771459630523427744_);}
	.st7{fill:url(#SVGID_00000084519611523901094210000013753575838734786480_);}
	.st8{fill:#F97923;}
	.st9{fill:#E2620C;}
	.st10{fill:#FFFFFF;}
	.st11{fill:#E5C5AE;}
	.st12{fill:#FF9797;}
	.st13{display:none;}
	.st14{display:inline;fill:#33407F;}
	.st15{display:inline;}
	.st16{clip-path:url(#SVGID_00000002385711876310336410000005981560628867313586_);}
	.st17{fill:url(#SVGID_00000083768134023709133540000016137957844010694789_);}
	.st18{fill:#515FA5;}
	.st19{display:inline;fill:#B6C1FF;}
	.st20{fill:url(#SVGID_00000158735186459052164530000014261299797475473335_);}
	.st21{fill:#93A1DB;}
	.st22{fill:#D7D5E0;}
	.st23{fill:#FAF5F1;}
	.st24{fill:#E2484A;}
	.st25{opacity:0.3;fill:#D03E3E;enable-background:new    ;}
	.st26{fill:#D33D45;}
	.st27{fill:#E5DFE3;}
	.st28{opacity:0.2;fill:#FFE4D1;enable-background:new    ;}
	.st29{fill:#61B4FF;}
</style>
<g>
	<defs>
		<rect id="SVGID_1_" width="86" height="86"/>
	</defs>
	<clipPath id="SVGID_00000134224405583878076580000005664250880608246974_">
		<use xlink:href="#SVGID_1_"  style="overflow:visible;"/>
	</clipPath>
	<g style="clip-path:url(#SVGID_00000134224405583878076580000005664250880608246974_);">
		<rect class="st1" width="86" height="86"/>
		<path class="st2" d="M7.6,22.4c4,2,8.9,0.4,10.9-3.6c-1.3,0.3-2.7,0.1-4-0.5c-3.1-1.5-4.3-5.3-2.7-8.3c0.5-1,1.3-1.9,2.2-2.4
			c-3.8-1.4-8.1,0.3-10,4C2,15.5,3.6,20.4,7.6,22.4L7.6,22.4z"/>
		<g>
			
				<linearGradient id="SVGID_00000182517718373085212790000015040227706161869952_" gradientUnits="userSpaceOnUse" x1="-5645.0156" y1="1184.7059" x2="-5636.8457" y2="1179.3658" gradientTransform="matrix(-0.8225 -0.6526 0.6589 -0.8304 -5382.5039 -2612.6406)">
				<stop  offset="0" style="stop-color:#F47016"/>
				<stop  offset="1" style="stop-color:#FF8D32"/>
			</linearGradient>
			<path style="fill:url(#SVGID_00000182517718373085212790000015040227706161869952_);" d="M24.2,78.4c0.5,0.5,0.8,1.3,0.5,2.1
				c-1.2,4.2-5.6,16.9-10.9,12.2s5.1-12.2,8.5-14.4C22.9,77.9,23.6,77.9,24.2,78.4L24.2,78.4L24.2,78.4z"/>
			
				<radialGradient id="SVGID_00000000942339055056640170000013548513505319023254_" cx="38.41" cy="-6.84" r="15.9246" gradientTransform="matrix(1 0 0 -1 0 86)" gradientUnits="userSpaceOnUse">
				<stop  offset="0" style="stop-color:#FFC197"/>
				<stop  offset="0.13" style="stop-color:#FFB580"/>
				<stop  offset="0.38" style="stop-color:#FFA45E"/>
				<stop  offset="0.61" style="stop-color:#FF9746"/>
				<stop  offset="0.83" style="stop-color:#FF8F37"/>
				<stop  offset="1" style="stop-color:#FF8D32"/>
			</radialGradient>
			<path style="fill:url(#SVGID_00000000942339055056640170000013548513505319023254_);" d="M55.7,88.5c-0.3-3.8-1.8-7.3-4.2-10
				c-0.3,0.2-0.7,0.4-1.1,0.6c-3.7,1.8-7.8,2.8-12,2.8s-8.3-0.9-12-2.8c-0.4-0.2-0.7-0.4-1.1-0.6c-2.4,2.7-3.9,6.2-4.2,10
				c0,0.4,0,0.8,0,1.2c0,0.1,0,0.1,0,0.2c0,2.9,0.7,5.6,1.9,7.9c0.2,0.4,0.5,0.8,0.7,1.2c0.5,0.9,1.2,1.7,1.9,2.5
				c0.5,0.5,1,1,1.5,1.5c2.9,2.5,6.5,4.1,10.6,4.3c0.1,0,0.3,0,0.4,0c0.1,0,0.2,0,0.4,0s0.2,0,0.4,0c0.2,0,0.3,0,0.4,0
				c4-0.2,7.7-1.8,10.6-4.3c0.5-0.5,1-0.9,1.5-1.5l0,0c2.8-3.1,4.5-7.2,4.5-11.6c0-0.1,0-0.1,0-0.2C55.8,89.3,55.8,88.9,55.7,88.5
				L55.7,88.5z"/>
			<path class="st5" d="M45.2,92.8c0,3.9-3.1,7-7,7s-7-3.1-7-7s3.1-7,7-7S45.2,89,45.2,92.8z"/>
			<g>
				
					<linearGradient id="SVGID_00000071522734394977373450000001211333164138736056_" gradientUnits="userSpaceOnUse" x1="8.7974" y1="31.56" x2="67.9733" y2="31.56" gradientTransform="matrix(1 0 0 -1 0 86)">
					<stop  offset="0" style="stop-color:#FF8D32"/>
					<stop  offset="0.5" style="stop-color:#F47016"/>
					<stop  offset="1" style="stop-color:#FF8D32"/>
				</linearGradient>
				<path style="fill:url(#SVGID_00000071522734394977373450000001211333164138736056_);" d="M67.9,58.1
					c0.7,17.3-12.3,22.2-29.1,22.2s-30.6-4.9-30-22.2c0.6-16.6,13.9-29.6,29.6-29.6S67.3,41.5,67.9,58.1L67.9,58.1z"/>
				
					<linearGradient id="SVGID_00000067211000290668517620000004269806654162193063_" gradientUnits="userSpaceOnUse" x1="38.41" y1="48.83" x2="38.41" y2="-2.8" gradientTransform="matrix(1 0 0 -1 0 86)">
					<stop  offset="0.2" style="stop-color:#FFEEE1"/>
					<stop  offset="0.45" style="stop-color:#FEEBDE"/>
					<stop  offset="0.63" style="stop-color:#FBE5D5"/>
					<stop  offset="0.77" style="stop-color:#F6DAC6"/>
					<stop  offset="0.91" style="stop-color:#F0CAB0"/>
					<stop  offset="1" style="stop-color:#EABC9D"/>
				</linearGradient>
				<path style="fill:url(#SVGID_00000067211000290668517620000004269806654162193063_);" d="M70.5,65.8C70.3,60.1,67.3,54,58.9,55
					c-0.1-0.5-0.3-1-0.4-1.5c-2.1-5.8-7.8-9.2-12.9-7.5c-4.6,1.6-6.2,7.4-4.9,12.8c-0.5,0-1.7,0-2.2,0s-1.8,0-2.2,0
					c1.3-5.4-0.3-11.2-4.9-12.8c-5-1.7-10.8,1.7-12.9,7.5c-0.2,0.5-0.3,1-0.4,1.5C9.5,54,6.5,60.1,6.3,65.8c-0.2,7.1,5,12.2,12,13.4
					c1.8,0.3,5.7-0.4,5.7-0.4c3.7,2.2,8.8,3.6,14.5,3.7c5.7-0.1,10.8-1.4,14.5-3.7c0,0,3.9,0.7,5.7,0.4C65.6,78,70.8,72.9,70.5,65.8
					L70.5,65.8z"/>
				<path d="M41.2,59.7c0,0.1,0,0.2,0,0.3c-0.2,1-1.3,2.2-2.7,2.2s-2.5-1.1-2.7-2.2c0-0.1,0-0.2,0-0.3c0-0.3,0.1-0.6,0.2-0.8
					c0.4-0.7,1.4-1.2,2.5-1.2s2,0.5,2.5,1.1C41,59.1,41.2,59.4,41.2,59.7L41.2,59.7z"/>
				<g>
					<path class="st8" d="M49.2,30.7c0.2,0.1,0.4,0.2,0.6,0.2c2.3,1.1,4.5,2.5,6.5,4.2c0.2,0.1,0.3,0.3,0.5,0.4s0.3,0.3,0.5,0.4
						c0.3-0.9,0.4-1.9,0.4-3C57.4,29.8,55.1,23,52.8,23c-1.4,0-2.5,1.8-3,2.9c-0.6,1.4-1.1,3-1.2,4.6C48.8,30.6,49,30.6,49.2,30.7
						L49.2,30.7z"/>
					<path class="st8" d="M20.1,35.6c0.2-0.2,0.3-0.3,0.5-0.4c2-1.7,4.1-3.1,6.5-4.2c0.2-0.1,0.4-0.2,0.6-0.2
						c0.2-0.1,0.4-0.2,0.6-0.2c-0.1-1.6-0.5-3.2-1.2-4.6c-0.5-1.1-1.5-2.9-3-2.9c-2.4,0-4.6,6.8-4.8,10.1c0,1,0.1,2,0.4,3
						C19.8,35.9,19.9,35.8,20.1,35.6L20.1,35.6z"/>
					<path class="st9" d="M55.5,34.6c0.1-0.4,0.1-0.8,0.1-1.2c-0.1-2-1.4-6-2.8-6c-0.8,0-1.5,1.1-1.8,1.7c-0.3,0.6-0.5,1.4-0.6,2.2
						C52.2,32.2,53.9,33.3,55.5,34.6z"/>
					<path class="st9" d="M26.4,31.3c-0.1-0.8-0.3-1.5-0.6-2.2c-0.3-0.6-0.9-1.7-1.8-1.7c-1.4,0-2.8,4.1-2.8,6c0,0.4,0,0.8,0.1,1.2
						C22.9,33.3,24.6,32.2,26.4,31.3z"/>
				</g>
				<path class="st10" d="M33.3,51.2c-1.1-1.2-2.7-1.9-4.7-1.9c-2.7,0-6,2.2-7.1,7.2c0,0.1,0,0.2,0,0.2c-0.1,0.4-0.1,0.7-0.1,1.1
					c-0.1,1.8,0.5,3.5,1.5,4.8c1,1.2,2.2,1.9,3.5,1.9c0,0,0.1,0,0.1,0c0.3,0,0.7,0,1-0.1c1.6-0.2,3.1-0.9,4.4-2
					c0.7-0.6,1.2-1.2,1.7-2l0,0c0.1-0.2,0.2-0.3,0.3-0.5c0.2-0.3,0.3-0.7,0.5-1c0.2-0.6,0.4-1.2,0.5-1.8
					C35,54.7,34.5,52.7,33.3,51.2z"/>
				<path class="st11" d="M21.4,57.5c0-0.1,0-0.2,0-0.2c1.1-4.9,4.4-7.2,7.1-7.2c2,0,3.6,0.7,4.7,1.9c0.9,1,1.4,2.4,1.5,4.1
					c0.1-2-0.4-3.7-1.5-4.9c-1.1-1.2-2.7-1.9-4.7-1.9c-2.7,0-6,2.2-7.1,7.2c0,0.1,0,0.2,0,0.2c-0.1,0.4-0.1,0.7-0.1,1.1
					c0,0.2,0,0.5,0,0.7C21.3,58.2,21.3,57.9,21.4,57.5z"/>
				<path class="st10" d="M43.5,51.2c1.1-1.2,2.7-1.9,4.7-1.9c2.7,0,6,2.2,7.1,7.2c0,0.1,0,0.2,0,0.2c0.1,0.4,0.1,0.7,0.1,1.1
					c0.1,1.8-0.5,3.5-1.5,4.8c-1,1.2-2.2,1.9-3.5,1.9c0,0-0.1,0-0.1,0c-0.3,0-0.7,0-1-0.1c-1.6-0.2-3.1-0.9-4.4-2
					c-0.7-0.6-1.2-1.2-1.7-2l0,0c-0.1-0.2-0.2-0.3-0.3-0.5c-0.2-0.3-0.3-0.7-0.5-1c-0.2-0.6-0.4-1.2-0.5-1.8
					C41.8,54.7,42.3,52.7,43.5,51.2z"/>
				<path class="st11" d="M55.4,57.5c0-0.1,0-0.2,0-0.2c-1.1-4.9-4.4-7.2-7.1-7.2c-2,0-3.6,0.7-4.7,1.9c-0.9,1-1.4,2.4-1.5,4.1
					c-0.1-2,0.4-3.7,1.5-4.9c1.1-1.2,2.7-1.9,4.7-1.9c2.7,0,6,2.2,7.1,7.2c0,0.1,0,0.2,0,0.2c0.1,0.4,0.1,0.7,0.1,1.1
					c0,0.2,0,0.5,0,0.7C55.5,58.2,55.4,57.9,55.4,57.5z"/>
				<g>
					<path class="st12" d="M13.3,63.3c-0.1,0-0.2,0-0.3-0.1c-0.1-0.2-0.1-0.4,0-0.6l2.1-2c0.2-0.2,0.4-0.2,0.6,0
						c0.1,0.2,0.1,0.4,0,0.6l-2.1,2C13.5,63.2,13.4,63.2,13.3,63.3L13.3,63.3z"/>
					<path class="st12" d="M15.4,63.3c-0.1,0-0.2,0-0.3-0.1c-0.1-0.2-0.1-0.4,0-0.6l2.1-2c0.2-0.2,0.4-0.2,0.6,0
						c0.1,0.2,0.1,0.4,0,0.6l-2.1,2C15.6,63.2,15.5,63.2,15.4,63.3L15.4,63.3z"/>
					<path class="st12" d="M17.5,63.4c-0.1,0-0.2,0-0.3-0.1c-0.1-0.2-0.1-0.4,0-0.6l2.1-2c0.2-0.2,0.4-0.2,0.6,0
						c0.1,0.2,0.1,0.4,0,0.6l-2.1,2C17.7,63.3,17.6,63.4,17.5,63.4L17.5,63.4z"/>
					<path class="st12" d="M63.5,63.3c-0.1,0-0.2,0-0.3-0.1l-2.1-2c-0.2-0.2-0.2-0.4,0-0.6c0.2-0.2,0.4-0.2,0.6,0l2.1,2
						c0.2,0.2,0.2,0.4,0,0.6C63.7,63.2,63.6,63.3,63.5,63.3L63.5,63.3z"/>
					<path class="st12" d="M61.4,63.3c-0.1,0-0.2,0-0.3-0.1l-2.1-2c-0.2-0.2-0.2-0.4,0-0.6c0.2-0.2,0.4-0.2,0.6,0l2.1,2
						c0.2,0.2,0.2,0.4,0,0.6C61.6,63.2,61.5,63.3,61.4,63.3L61.4,63.3z"/>
					<path class="st12" d="M59.3,63.4c-0.1,0-0.2,0-0.3-0.1l-2.1-2c-0.2-0.2-0.2-0.4,0-0.6c0.2-0.2,0.4-0.2,0.6,0l2.1,2
						c0.2,0.2,0.2,0.4,0,0.6C59.5,63.3,59.4,63.4,59.3,63.4L59.3,63.4z"/>
				</g>
			</g>
			<g class="st13">
				<path class="st14" d="M51.7,22.8c3.9,2,5-1.8,3.3-4c-1.7-2.3-3.4,0.8-3.4,0.8C51.3,20.4,50.5,22.2,51.7,22.8L51.7,22.8z"/>
				<g class="st15">
					<defs>
						<path id="SVGID_00000134238226104182539420000005105896750395070080_" d="M30.8,29.1c0,0,1.2-13.9,10.6-14.3
							c5.7-0.2,6.8,4.2,11.5,4.8c1.2,0.1,1.5,2.6-0.5,2.8c-4,0.3-4.4-0.6-3.8,6.8c0,0.5,0,1.1,0,1.6c0,0.3-0.1,0.5-0.2,0.8
							c-0.3,0.8,0,0,0,0S34.7,31.5,30.8,29.1L30.8,29.1L30.8,29.1z"/>
					</defs>
					<clipPath id="SVGID_00000172424442182086979020000003240457934206934937_">
						<use xlink:href="#SVGID_00000134238226104182539420000005105896750395070080_"  style="overflow:visible;"/>
					</clipPath>
					<g style="clip-path:url(#SVGID_00000172424442182086979020000003240457934206934937_);">
						
							<linearGradient id="SVGID_00000033362389200014891680000005432279385858883481_" gradientUnits="userSpaceOnUse" x1="-21.6924" y1="135.4275" x2="2.1572" y2="135.4275" gradientTransform="matrix(0.9933 -0.1153 -0.1153 -0.9933 67.4777 157.0113)">
							<stop  offset="0" style="stop-color:#949BDD"/>
							<stop  offset="1" style="stop-color:#6974B7"/>
						</linearGradient>
						<path style="fill:url(#SVGID_00000033362389200014891680000005432279385858883481_);" d="M30.8,29.1c0,0,1.2-13.9,10.6-14.3
							c5.7-0.2,6.8,4.2,11.5,4.8c1.2,0.1,1.5,2.6-0.5,2.8c-4,0.3-4.4-0.6-3.8,6.8c0,0.5,0,1.1,0,1.6c0,0.3-0.1,0.5-0.2,0.8
							c-0.3,0.8,0,0,0,0S34.7,31.5,30.8,29.1L30.8,29.1L30.8,29.1z"/>
						<path class="st10" d="M30,25.6c3.5,2.2,10.5,3,14.3,3.2c1.5,0,3,0.1,4.4-0.1l0.2,0.6c-0.2,0-0.4,0.1-0.6,0.1
							c-4.4,0.8-11.8-0.1-16.3-2.3c-0.8-0.4-1.6-0.8-2.2-1.4L30,25.6L30,25.6L30,25.6z"/>
						<path class="st10" d="M30.8,22.5c4.9,2.4,10.3,3.2,15.1,3.4c0.7,0,2,0,2.7,0l0,0.3c-0.6,0.2-1.8,0.4-2.5,0.4
							c-4.3,0.2-9.4-0.4-13.5-2.6c-0.7-0.4-1.4-0.8-2-1.3L30.8,22.5L30.8,22.5L30.8,22.5z"/>
						<path class="st10" d="M33,19.4c3.4,1.9,7.1,3.1,10.7,3.6c1.2,0.2,3,0.4,4.2,0.5l0.2,0.3c-1.2,0.1-3.2,0-4.4-0.1
							c-2.8-0.2-5.8-1-8.3-2.5c-0.9-0.5-1.7-1-2.4-1.7L33,19.4L33,19.4L33,19.4z"/>
						<path class="st10" d="M36,16.8c2.3,2,5.3,3.3,8.1,4c0.9,0.2,1.9,0.4,2.8,0.6l0.1,0.3c-0.5,0.1-1,0.1-1.5,0
							c-3-0.4-6.2-1.3-8.7-3.4c-0.4-0.4-1-0.8-1.2-1.2l0.2-0.1L36,16.8z"/>
						<path class="st10" d="M38.8,15c1.5,1.8,3.6,2.9,5.8,3.8c0.3,0.1,0.6,0.2,0.9,0.4l0.2,0.2c-2.1-0.1-4.5-1.2-6-2.7
							c-0.5-0.5-0.9-1.1-1-1.7L38.8,15L38.8,15L38.8,15z"/>
						<path class="st10" d="M44.5,14.9c1.2,1.1,1.6,3,1.5,4.2c0,0.2-0.1,0.4-0.1,0.5l-0.3-0.3c-0.1-0.3-0.1-0.5-0.2-0.9
							c-0.3-1.1-0.5-2.2-0.9-3.4L44.5,14.9C44.5,14.9,44.5,14.9,44.5,14.9z"/>
						<path class="st10" d="M47.2,16.4c0.8,1.5,0.7,3.5-0.2,4.6l-0.2-0.1c0-0.4,0-0.8,0-1.1c0-1.1,0-2.2,0.2-3.3L47.2,16.4
							L47.2,16.4L47.2,16.4z"/>
						<path class="st10" d="M49.9,18.3c0.4,1.1,0,2.2-0.5,3.2c-0.2,0.5-0.7,1.1-1,1.2l-0.4-0.3c0.5-1.2,1-2.8,1.6-4.1L49.9,18.3
							L49.9,18.3L49.9,18.3z"/>
						<path class="st10" d="M52.8,19.2c-0.1,0.7-0.5,1.2-0.7,1.8c-0.3,0.6-0.5,1.2-0.8,1.8l-0.2,0c-0.1-0.7,0-1.4,0.2-2
							c0.2-0.5,0.4-1,0.8-1.3c0.2-0.1,0.3-0.2,0.5-0.3L52.8,19.2L52.8,19.2L52.8,19.2z"/>
						<path class="st18" d="M50.1,27.3c-1.1-6.1-4.8-8.1-4.8-8.1s3,2.7,3.3,9.3L50.1,27.3L50.1,27.3z"/>
					</g>
				</g>
				<path class="st19" d="M48.6,28.7c0,0,2.6,2.2-0.4,4.1c-2.4,1.5-6.5,2.3-10.5,2c-5-0.4-9.4-2.8-9.1-4.8s2.4-2.5,2.4-2.5
					s4.1,2.3,8.9,2.6C44.4,30.5,48.6,28.7,48.6,28.7L48.6,28.7z"/>
			</g>
			<path d="M29.2,60c-2.2,0-3-1.8-3.2-2.8c-0.1-0.5,0.2-0.9,0.7-1s0.9,0.2,1,0.7c0,0.2,0.3,1.3,1.5,1.3c1.3,0,1.6-1.3,1.7-1.4
				c0.1-0.5,0.6-0.7,1-0.6c0.5,0.1,0.7,0.6,0.6,1C32.3,58.2,31.3,60,29.2,60L29.2,60z"/>
			<path d="M47,60c-2.1,0-3.1-1.8-3.4-2.7c-0.1-0.5,0.2-0.9,0.6-1s0.9,0.2,1,0.6c0,0.2,0.4,1.4,1.7,1.4c1.2,0,1.4-1.1,1.5-1.3
				c0.1-0.5,0.5-0.8,1-0.7c0.5,0.1,0.8,0.5,0.7,1C50,58.2,49.1,60,47,60L47,60z"/>
			
				<linearGradient id="SVGID_00000142885896059641925230000002455051671743212942_" gradientUnits="userSpaceOnUse" x1="38.634" y1="20.9585" x2="37.834" y2="18.7485" gradientTransform="matrix(1 0 0 -1 0 86)">
				<stop  offset="0" style="stop-color:#BC5555"/>
				<stop  offset="0.12" style="stop-color:#C76060"/>
				<stop  offset="0.47" style="stop-color:#E27A7A"/>
				<stop  offset="0.77" style="stop-color:#F38B8B"/>
				<stop  offset="1" style="stop-color:#F99191"/>
			</linearGradient>
			
				<ellipse style="fill:url(#SVGID_00000142885896059641925230000002455051671743212942_);" cx="38.2" cy="66.1" rx="1.5" ry="1.6"/>
			<path class="st21" d="M7.8,77.8c2.3-5.8,12.5-4.8,17.7-3.9c7.8,1.3,21.7,1.5,29.5-0.9c7.8-2.4,14.9,3.7,14.5,11.1
				c-0.5,9.6,7.5,27.3-11.8,31s-54,5.2-52.7-12.3S4.5,86.1,7.8,77.8z"/>
			<g>
				<path class="st22" d="M72,39.4c0.2,1.7-0.2,3.5-1.2,4.9c-1.8,2.5-5.6,2.8-8.2,1.4c-2.9-1.5-2.3-5.8-0.8-8.1
					C64.5,33.5,71.4,34,72,39.4L72,39.4z"/>
				<path class="st23" d="M63.4,40c1,1.1,2.5,1.8,4,1.6c1.7-0.3,3.1-1.7,3.8-3.2c0.2-0.3,0.3-0.6,0.3-0.9c-1.7-3.3-6.7-3.4-9.2-0.4
					C62.2,38.1,62.6,39.2,63.4,40L63.4,40z"/>
				<path class="st24" d="M44,27.2c2.9,1,5.3,2.7,7.8,4.3c1.3,0.8,2.5,1.6,3.9,2.4c0.6,0.4,1,0.7,1.6,0.4s0.8-0.9,1.7-0.7
					c0.5,0.1,0.8,0.4,1.2,0.7c0.7,0.8,1.5,1.4,2.3,2.1c0.4,0.4,1,0.8,1.5,0.5c0.6-0.2,0.5-1,0.5-1.5c-0.5-4.6-1.6-9-3.1-13.3
					c-1.4-3.8-3.4-7.8-7.1-9.9c-2.4-1.3-5.2-1.6-7.8-1.4c-3.8,0.2-7.3,2.6-10.1,4.9s-5.4,5.2-7.3,8.6c-0.3,0.4-0.5,0.9-0.3,1.4
					c0.1,0.2,0.2,0.3,0.4,0.5c0.9,0.5,2.1,0.4,3.2,0.3c1.5-0.2,3-0.3,4.5-0.3C39.3,26.1,41.7,26.4,44,27.2L44,27.2z"/>
				<path class="st25" d="M64,37c0.6-0.2,0.5-1,0.5-1.5c-0.5-4.6-1.6-9-3.1-13.3c-0.5-1.4-1.1-2.8-1.9-4.1c-0.2-0.5-1.6-3.4-2.3-2.2
					c-0.2,0.2-0.1,0.6-0.1,0.8c0,0.6-0.2,1.1-0.6,1.5c-0.4,0.4-0.9,0.6-1.4,0.8c-1.3,0.6-2.5,1.1-1.9,2.8c0.2,0.6,0.6,1.1,0.9,1.5
					c1.5,2.4,2.4,5.1,3.8,7.6c1.2,2.3,3,4.1,4.9,5.8C63.1,37,63.6,37.1,64,37L64,37z"/>
				<path class="st26" d="M53.2,20.8c0,0.3,0,0.6,0.2,0.9c0.2,0.6,0.6,1.1,0.9,1.5c1.5,2.4,2.4,5.1,3.8,7.6c1.2,2.3,3,4.1,4.9,5.8
					c0.4,0.3,0.8,0.5,1.2,0.3c0.2-0.1,0.3-0.2,0.4-0.3c-0.1-0.1-0.2-0.2-0.4-0.2c-2-1.6-3.8-3.5-5.2-5.7c-1.5-2.4-2.5-5.2-4.2-7.6
					c-0.3-0.5-0.8-1-0.9-1.5c-0.1-0.3-0.1-0.5-0.1-0.8c0-0.1,0-0.3,0-0.4c0-0.1,0.1-0.3,0.1-0.4c-0.1,0-0.2,0.2-0.3,0.3
					C53.1,20.5,53.1,20.6,53.2,20.8L53.2,20.8z"/>
				<path class="st27" d="M36.5,23.2c-2.5,0.1-5,0-7.3,1c-4.3,1.7-8.6,5.8-8.5,10.4c0,0.8,0.7,0.9,1.4,1c0.7,0.2,2.2,0.3,3.6-1
					c2.8-2.5,5.9-2.3,9.6-2.1s12.1,3.1,15.6,4.2c1.1,0.4,2.9,1.5,3.9,2.1c1,0.6,1.9,1.5,2.8,2.2c1.8,1.8,3.6,3.6,5.3,5.4
					c0.4,0.5,1,0.9,1.6,1.1c0.9,0.2,1.8-0.4,2.4-1.1c0.9-1.1,1.5-2.5,1.7-3.9c0.3-3.5-2.2-6.5-4.7-8.9c-7.5-7.5-15.7-8.9-21.6-10.1
					C40.4,23.2,38.5,23.2,36.5,23.2L36.5,23.2z"/>
				<path class="st23" d="M24.1,33.3c1-0.2,2-0.8,2.8-1.4c3.6-2,8-1.9,12-1.4c1.7,0.2,3.5,0.4,5.2,0.9c1.9,0.6,3.9,1.4,5.7,2
					c1.1,0.4,2.2,0.9,3.3,1.3c0.9,0.3,2.2,0.9,3.1,0.3c0.5-0.3,0.7-1,0.7-1.6c-0.1-1.4-1.1-2.8-1.8-3.9c-0.3-0.5-0.8-1-1.1-1.4
					c-3.5-2.2-7.4-3.6-11.6-4.5c-1.9-0.4-3.8-0.5-5.8-0.4c-2.5,0.1-5,0-7.3,1c-3.6,1.4-6.2,5-6.8,8.9C22.9,33.3,23.5,33.4,24.1,33.3
					z"/>
				<path class="st28" d="M61,22.9c0.6,1.6,1.1,3.1,1.5,4.6c0.8,2.9,1.6,5.7,1.7,8.6c-0.4-0.3-0.5-0.7-0.7-1.2
					c-1-3.4-1.9-6.9-3-10.3c-0.6-1.8-1.2-3.4-2-5c-0.5-0.9-0.9-1.6-1.4-2.5c-0.4-0.8-1-1.5-1.4-2.2c0-0.1-0.1-0.2,0-0.4
					c0.2,0,0.4,0.1,0.5,0.2c0.5,0.5,1,1.1,1.4,1.7c0.5,0.7,1,1.3,1.3,2C59.8,19.8,60.4,21.3,61,22.9L61,22.9z"/>
			</g>
			<path d="M62.4,51.5c-0.4,0-0.8-0.2-1-0.6c-0.2-0.4-0.1-1,0.3-1.3l5.8-4.8l-5.3-1c-0.6-0.1-1-0.7-0.8-1.3c0.1-0.6,0.7-1,1.3-0.8
				l7.6,1.5c0.4,0.1,0.7,0.4,0.8,0.8c0.1,0.4,0,0.8-0.4,1.1l-4.4,3.6l4.3-0.8c0.6-0.1,1.1,0.3,1.2,0.9c0.1,0.6-0.3,1.1-0.9,1.2
				l-8.3,1.5C62.6,51.5,62.5,51.5,62.4,51.5L62.4,51.5z"/>
			<path d="M62.9,39.1c-0.4,0-0.8-0.2-1-0.6c-0.2-0.4-0.1-1,0.3-1.3l5-4.1l-4.5-0.9c-0.6-0.1-1-0.7-0.8-1.3s0.7-1,1.3-0.9l6.8,1.3
				c0.4,0.1,0.7,0.4,0.8,0.8c0.1,0.4,0,0.8-0.4,1.1l-3.6,2.9l3.4-0.6c0.6-0.1,1.1,0.3,1.2,0.9c0.1,0.6-0.3,1.1-0.9,1.2l-7.4,1.3
				C63,39.1,62.9,39.1,62.9,39.1L62.9,39.1z"/>
			<path d="M75.5,33.3c-0.4,0-0.8-0.2-1-0.6c-0.2-0.4-0.1-1,0.3-1.3l3.5-2.9l-3-0.6c-0.6-0.1-1-0.7-0.8-1.3s0.7-1,1.3-0.9l5.3,1
				c0.4,0.1,0.7,0.4,0.8,0.8c0.1,0.4,0,0.8-0.4,1.1l-2.1,1.7l1.7-0.3c0.6-0.1,1.1,0.3,1.2,0.9c0.1,0.6-0.3,1.1-0.9,1.2l-5.8,1
				C75.6,33.3,75.5,33.3,75.5,33.3L75.5,33.3z"/>
			<path class="st29" d="M38.8,60.5c0,0,2-1.3,3.3-3.8s5-0.7,2.8,1.7S39.6,60.7,38.8,60.5z"/>
		</g>
	</g>
</g>
</svg>
