<svg width="39" height="40" viewBox="0 0 39 40" fill="none" xmlns="http://www.w3.org/2000/svg">
<rect opacity="0.15" width="39" height="40" rx="5" fill="#01D676"/>
<path d="M11.2636 17.3684C11.5463 17.3684 11.8174 17.4793 12.0173 17.6767C12.2172 17.8741 12.3295 18.1419 12.3295 18.4211C14.0042 18.4186 15.6306 18.975 16.9449 20H19.2579C20.6788 20 21.9547 20.6105 22.833 21.5789H26.1864C27.1939 21.5787 28.1809 21.8605 29.0329 22.3916C29.8849 22.9228 30.567 23.6816 31 24.58C28.4791 27.8653 24.3978 30 19.7909 30C16.817 30 14.3015 29.3653 12.2656 28.2547C12.191 28.458 12.0548 28.6335 11.8755 28.7575C11.6962 28.8814 11.4825 28.9477 11.2636 28.9474H8.06591C7.78321 28.9474 7.51209 28.8365 7.3122 28.6391C7.1123 28.4417 7 28.1739 7 27.8947V18.4211C7 18.1419 7.1123 17.8741 7.3122 17.6767C7.51209 17.4793 7.78321 17.3684 8.06591 17.3684H11.2636ZM12.3306 20.5263L12.3295 25.8126L12.3775 25.8463C14.2908 27.1726 16.7829 27.8947 19.7909 27.8947C22.9929 27.8947 25.9721 26.6779 28.1423 24.6L28.2841 24.46L28.1562 24.3547C27.6528 23.9654 27.0427 23.7344 26.4049 23.6916L26.1864 23.6842H23.9362C24.013 24.0232 24.0545 24.3747 24.0545 24.7368V25.7895H14.4614V23.6842L21.6989 23.6832L21.6626 23.6011C21.4584 23.1795 21.1441 22.8193 20.7523 22.5573C20.3604 22.2954 19.905 22.1412 19.4328 22.1105L19.2579 22.1053H16.1348C15.6395 21.605 15.0479 21.2076 14.3948 20.9364C13.7416 20.6652 13.0402 20.5258 12.3317 20.5263H12.3306ZM10.1977 19.4737H9.13182V26.8421H10.1977V19.4737ZM25.1204 13.1579C25.9685 13.1579 26.7819 13.4906 27.3816 14.0828C27.9813 14.675 28.3182 15.4783 28.3182 16.3158C28.3182 17.1533 27.9813 17.9565 27.3816 18.5488C26.7819 19.141 25.9685 19.4737 25.1204 19.4737C24.2724 19.4737 23.459 19.141 22.8593 18.5488C22.2596 17.9565 21.9227 17.1533 21.9227 16.3158C21.9227 15.4783 22.2596 14.675 22.8593 14.0828C23.459 13.4906 24.2724 13.1579 25.1204 13.1579ZM25.1204 15.2632C24.8378 15.2632 24.5666 15.3741 24.3667 15.5715C24.1668 15.7689 24.0545 16.0366 24.0545 16.3158C24.0545 16.595 24.1668 16.8627 24.3667 17.0601C24.5666 17.2575 24.8378 17.3684 25.1204 17.3684C25.4031 17.3684 25.6743 17.2575 25.8742 17.0601C26.0741 16.8627 26.1864 16.595 26.1864 16.3158C26.1864 16.0366 26.0741 15.7689 25.8742 15.5715C25.6743 15.3741 25.4031 15.2632 25.1204 15.2632ZM17.6591 10C18.5072 10 19.3205 10.3327 19.9202 10.9249C20.5199 11.5171 20.8568 12.3204 20.8568 13.1579C20.8568 13.9954 20.5199 14.7986 19.9202 15.3909C19.3205 15.9831 18.5072 16.3158 17.6591 16.3158C16.811 16.3158 15.9976 15.9831 15.398 15.3909C14.7983 14.7986 14.4614 13.9954 14.4614 13.1579C14.4614 12.3204 14.7983 11.5171 15.398 10.9249C15.9976 10.3327 16.811 10 17.6591 10ZM17.6591 12.1053C17.3764 12.1053 17.1053 12.2162 16.9054 12.4136C16.7055 12.611 16.5932 12.8787 16.5932 13.1579C16.5932 13.4371 16.7055 13.7048 16.9054 13.9022C17.1053 14.0996 17.3764 14.2105 17.6591 14.2105C17.9418 14.2105 18.2129 14.0996 18.4128 13.9022C18.6127 13.7048 18.725 13.4371 18.725 13.1579C18.725 12.8787 18.6127 12.611 18.4128 12.4136C18.2129 12.2162 17.9418 12.1053 17.6591 12.1053Z" fill="#01D676"/>
</svg>
