<?xml version="1.0" encoding="UTF-8"?>
<svg id="_图层_1" data-name="图层 1" xmlns="http://www.w3.org/2000/svg" viewBox="0 0 200 200">
  <defs>
    <style>
      .cls-1 {
        fill: #91877F;
      }
    </style>
  </defs>
  <path class="cls-1" d="m137.5,87.5c31.07,0,56.25,25.18,56.25,56.25s-25.18,56.25-56.25,56.25-56.25-25.18-56.25-56.25,25.18-56.25,56.25-56.25h0ZM131.25,0C145.06,0,156.25,11.19,156.25,25v48.18c-5.98-1.59-12.27-2.43-18.75-2.43-40.32,0-73,32.68-73,73,0,16.41,5.42,31.56,14.56,43.75H31.25c-13.81,0-25-11.19-25-25V25C6.25,11.19,17.44,0,31.25,0h100Zm5,108.75c-4.78,0-8.67,3.84-8.75,8.61v.14s0,27.7,0,27.7l22.36,23.93.1.1c3.28,3.4,8.66,3.58,12.16.41l.11-.1.1-.1c3.4-3.28,3.58-8.66.41-12.16l-.1-.11-17.64-18.89v-20.8s0-.14,0-.14c-.08-4.77-3.96-8.61-8.75-8.61h0Zm-73.75-36.25h-26.39c-4.77.08-8.61,3.97-8.61,8.75s3.84,8.67,8.61,8.75h.14s26.25,0,26.25,0h.14c4.77-.08,8.61-3.97,8.61-8.75s-3.92-8.75-8.75-8.75Zm43.75-37.5H36.11c-4.77.08-8.61,3.97-8.61,8.75s3.84,8.67,8.61,8.75h.14s70,0,70,0h.14c4.77-.08,8.61-3.97,8.61-8.75s-3.92-8.75-8.75-8.75Z"/>
</svg>