<?xml version="1.0" encoding="UTF-8"?>
<svg id="_图层_1" data-name="图层 1" xmlns="http://www.w3.org/2000/svg" viewBox="0 0 200 200">
  <defs>
    <style>
      .cls-1 {
        fill: #91877F;
      }
    </style>
  </defs>
  <path class="cls-1" d="m51.6,7.08h96.79c8.74,0,15.83,7.09,15.83,15.83v60.31c0,34.53-27.99,62.52-62.52,62.52h-3.48c-34.53,0-62.52-27.99-62.52-62.52V22.91c0-8.74,7.09-15.83,15.83-15.83h.08Z"/>
  <path class="cls-1" d="m35.38,102.14C15.71,102.01-.13,85.95,0,66.28.13,46.61,16.18,30.78,35.85,30.91c4.37,0,7.91,3.54,7.91,7.92,0,4.37-3.54,7.91-7.91,7.91-10.93,0-19.79,8.86-19.79,19.79s8.86,19.79,19.79,19.79c4.37,0,7.91,3.54,7.91,7.92,0,4.37-3.54,7.91-7.91,7.91h-.47Zm129.01,0c-4.37,0-7.91-3.54-7.91-7.92,0-4.37,3.54-7.91,7.91-7.91,10.93,0,19.79-8.86,19.79-19.79s-8.86-19.79-19.79-19.79c-4.37,0-7.91-3.54-7.91-7.92,0-4.37,3.54-7.91,7.91-7.91,19.67,0,35.62,15.95,35.62,35.62s-15.95,35.62-35.62,35.62Zm-64.42,82.94c-4.37,0-7.91-3.54-7.91-7.91v-33.32c0-4.37,3.54-7.91,7.91-7.91s7.91,3.54,7.91,7.91h0v33.32c0,4.37-3.54,7.91-7.91,7.91Z"/>
  <path class="cls-1" d="m147.84,192.92H52.16c-4.37,0-7.91-3.54-7.91-7.92,0-4.37,3.54-7.91,7.91-7.91h95.69c4.37,0,7.91,3.54,7.91,7.92,0,4.37-3.54,7.91-7.91,7.91Z"/>
</svg>