<?xml version="1.0" encoding="UTF-8"?>
<svg id="_图层_1" data-name="图层 1" xmlns="http://www.w3.org/2000/svg" xmlns:xlink="http://www.w3.org/1999/xlink" viewBox="0 0 1024 279.95">
  <defs>
    <style>
      .cls-1 {
        fill: url(#_未命名的渐变_18);
      }

      .cls-2 {
        fill: #fff;
      }

      .cls-3 {
        fill: #f24d49;
      }

      .cls-4 {
        fill: #e2620c;
      }

      .cls-5 {
        fill: #e5c5ae;
      }

      .cls-6 {
        fill: #fff9f3;
      }

      .cls-7 {
        fill: #f97923;
      }

      .cls-8 {
        fill: #603d1e;
      }

      .cls-9 {
        fill: #ff8d32;
      }

      .cls-10 {
        fill: url(#_未命名的渐变_15-4);
      }

      .cls-11 {
        clip-path: url(#clippath-1);
      }

      .cls-12 {
        fill: url(#_未命名的渐变_68);
      }

      .cls-13 {
        fill: url(#_未命名的渐变_15);
      }

      .cls-14 {
        fill: url(#_未命名的渐变_15-2);
      }

      .cls-15 {
        fill: #da3f3b;
      }

      .cls-16 {
        fill: #ff9797;
      }

      .cls-17 {
        fill: none;
      }

      .cls-18 {
        fill: url(#_未命名的渐变_108);
      }

      .cls-19 {
        fill: #cf3b39;
      }

      .cls-20 {
        fill: url(#_未命名的渐变_15-3);
      }

      .cls-21 {
        fill: url(#_未命名的渐变_96);
      }

      .cls-22 {
        fill: url(#_未命名的渐变_20);
      }
    </style>
    <linearGradient id="_未命名的渐变_15" data-name="未命名的渐变 15" x1="163.13" y1="256.47" x2="163.13" y2="276.16" gradientUnits="userSpaceOnUse">
      <stop offset="0" stop-color="#f47016"/>
      <stop offset="1" stop-color="#ff8d32"/>
    </linearGradient>
    <linearGradient id="_未命名的渐变_15-2" data-name="未命名的渐变 15" x1="207.12" y1="256.47" x2="207.12" y2="276.16" xlink:href="#_未命名的渐变_15"/>
    <linearGradient id="_未命名的渐变_108" data-name="未命名的渐变 108" x1="19.04" y1="146.41" x2="139.54" y2="233.76" gradientUnits="userSpaceOnUse">
      <stop offset="0" stop-color="#ff8d32"/>
      <stop offset=".33" stop-color="#f88229"/>
      <stop offset=".9" stop-color="#e56710"/>
      <stop offset="1" stop-color="#e2620c"/>
    </linearGradient>
    <linearGradient id="_未命名的渐变_15-3" data-name="未命名的渐变 15" x1="-1226.44" y1="670.56" x2="-1197.8" y2="689.27" gradientTransform="translate(941.27 -1081.48) rotate(-32.1) scale(1.05)" xlink:href="#_未命名的渐变_15"/>
    <linearGradient id="_未命名的渐变_15-4" data-name="未命名的渐变 15" x1="-4246.98" y1="-1209.06" x2="-4218.34" y2="-1190.35" gradientTransform="translate(-4303.07 -1081.48) rotate(-147.9) scale(1.05 -1.06)" xlink:href="#_未命名的渐变_15"/>
    <linearGradient id="_未命名的渐变_20" data-name="未命名的渐变 20" x1="91.87" y1="99.05" x2="278.39" y2="99.05" gradientUnits="userSpaceOnUse">
      <stop offset="0" stop-color="#ff8d32"/>
      <stop offset=".5" stop-color="#f47016"/>
      <stop offset="1" stop-color="#ff8d32"/>
    </linearGradient>
    <radialGradient id="_未命名的渐变_68" data-name="未命名的渐变 68" cx="185.13" cy="220.08" fx="185.13" fy="220.08" r="50.25" gradientUnits="userSpaceOnUse">
      <stop offset="0" stop-color="#ffc197"/>
      <stop offset=".13" stop-color="#ffb580"/>
      <stop offset=".38" stop-color="#ffa45e"/>
      <stop offset=".61" stop-color="#ff9746"/>
      <stop offset=".83" stop-color="#ff8f37"/>
      <stop offset="1" stop-color="#ff8d32"/>
    </radialGradient>
    <linearGradient id="_未命名的渐变_96" data-name="未命名的渐变 96" x1="185.13" y1="44.61" x2="185.13" y2="207.34" gradientUnits="userSpaceOnUse">
      <stop offset=".2" stop-color="#ffeee1"/>
      <stop offset=".45" stop-color="#feebde"/>
      <stop offset=".63" stop-color="#fbe5d5"/>
      <stop offset=".77" stop-color="#f6dac6"/>
      <stop offset=".91" stop-color="#f0cab0"/>
      <stop offset="1" stop-color="#eabc9d"/>
    </linearGradient>
    <linearGradient id="_未命名的渐变_18" data-name="未命名的渐变 18" x1="187.39" y1="133.41" x2="179.79" y2="154.36" gradientUnits="userSpaceOnUse">
      <stop offset="0" stop-color="#bc5555"/>
      <stop offset=".12" stop-color="#c76060"/>
      <stop offset=".47" stop-color="#e27a7a"/>
      <stop offset=".77" stop-color="#f38b8b"/>
      <stop offset="1" stop-color="#f99191"/>
    </linearGradient>
    <clipPath id="clippath-1">
      <path class="cls-17" d="m196.33,133.72c-3.65,0-7.03-.95-9.8-2.55-.85-.49-1.97-.49-2.82,0-2.77,1.61-6.15,2.55-9.8,2.55-1.03,0-2.04-.08-3.01-.22-1.37-.2-2.66.63-2.76,1.76-.03.34-.05.69-.05,1.04,0,17.47,7.62,23.14,17.03,23.14s17.03-4.96,17.03-23.14c0-.35-.02-.7-.05-1.04-.1-1.14-1.39-1.97-2.76-1.76-.98.14-1.98.22-3.01.22Z"/>
    </clipPath>
  </defs>
  <g>
    <g>
      <path class="cls-13" d="m183.98,264.91l.1-20.91-41.88.11.11.53,4.63,22.81c.24,1.14.41,2.29.6,3.5.05.36.11.71.17,1.07.73,4.6,4.37,7.94,8.66,7.94h18.93c3.27,0,6.13-1.95,7.64-4.84.74-1.39,1.15-3.01,1.15-4.72v-5.48h-.1Z"/>
      <path class="cls-14" d="m186.28,264.91l-.1-20.91,41.88.11-.11.53-4.63,22.81c-.24,1.14-.41,2.29-.6,3.5-.05.36-.11.71-.17,1.07-.73,4.6-4.37,7.94-8.66,7.94h-18.93c-3.27,0-6.13-1.95-7.64-4.84-.74-1.39-1.15-3.01-1.15-4.72v-5.48h.1Z"/>
    </g>
    <path class="cls-18" d="m133.99,173.08c-2.53-.16-7.57-.12-9.54.13-23.72,3.01-38.24-30.02-51.14-39.2h0c-11.1-8.48-25.88-12.26-38.83-9.71-12.09,2.39-21.61,9.81-27.52,21.47-11.68,23.01-6.49,41.19-.07,52.39,6.89,12.04,16.39,18.57,16.79,18.84.67.46,1.54.39,2.15-.15.61-.55.83-1.45.54-2.25-.02-.06-2.22-6.37-.13-10.59.92-1.86,2.55-3.05,4.98-3.63,6.96-1.67,12.21.15,16.59,4.12,5.67,5.14,9.87,13.89,14.43,23.37,7.57,15.76,16.16,33.62,34.26,34.99,1.73.13,3.39.19,4.99.19,16.54,0,26.9-6.53,32.83-12.31,2.3-2.24,4.11-4.52,5.51-6.59,0,0,0,0,0,0,2.37-3.17,3.33-8.82,10.83-20.06,9.32-13.95,30.32-17.94,30.32-17.94-2.89-15.39-25.53-31.18-46.99-33.08Z"/>
    <g>
      <path class="cls-20" d="m227.53,172.47c-2.07,1.47-3.12,4.25-2.63,6.98,2.69,15.05,12.77,61.2,33.08,46.78,20.72-14.71-12.91-44.57-23.88-53.51-1.95-1.59-4.55-1.68-6.57-.25h0Z"/>
      <path class="cls-10" d="m142.73,172.47c2.07,1.47,3.12,4.25,2.63,6.98-2.69,15.05-12.77,61.2-33.08,46.78-20.72-14.71,12.91-44.57,23.88-53.51,1.95-1.59,4.55-1.68,6.57-.25h0Z"/>
    </g>
    <path class="cls-22" d="m278.32,110.61c2.05,54.65-38.92,70.05-91.85,70.05s-96.59-15.4-94.53-70.05c1.97-52.35,43.66-93.19,93.19-93.19s91.22,40.84,93.19,93.19Z"/>
    <path class="cls-12" d="m239.71,206.35c-.94-12.02-5.78-22.97-13.25-31.57-1.11.6-2.24,1.18-3.38,1.74-11.68,5.68-24.59,8.67-37.96,8.67s-26.28-3-37.96-8.67c-1.14-.55-2.26-1.13-3.38-1.74-7.47,8.6-12.31,19.55-13.25,31.57-.1,1.26-.15,2.54-.16,3.82,0,.16,0,.31,0,.47,0,9,2.18,17.51,6.05,25.01.68,1.32,1.41,2.6,2.19,3.85,1.73,2.77,3.69,5.39,5.87,7.8,1.47,1.63,3.04,3.17,4.69,4.61,9.03,7.87,20.66,12.83,33.41,13.42.46.02.92.04,1.38.04.38.01.77.01,1.15.01s.77,0,1.15-.01c.46,0,.92-.02,1.38-.04,12.75-.58,24.38-5.54,33.41-13.42,1.65-1.44,3.21-2.98,4.68-4.61h0c8.78-9.72,14.12-22.58,14.12-36.67,0-.16,0-.31,0-.47-.01-1.28-.07-2.56-.16-3.82Z"/>
    <path class="cls-6" d="m206.71,220.08c0,12.17-9.87,22.04-22.05,22.04s-22.05-9.87-22.05-22.04,9.87-22.05,22.05-22.05,22.05,9.87,22.05,22.05Z"/>
    <path class="cls-9" d="m186.38,206.55c3.54,0,8.29,2.09,10.6,4.67l-3.75,3.57c-1.45-1.75-4.52-3.17-6.85-3.17h-.03c-4.83.02-8.75,3.81-8.75,8.46s3.93,8.46,8.78,8.46c2.33,0,5.4-1.42,6.85-3.17l3.75,3.57c-2.32,2.58-7.07,4.67-10.6,4.67-7.74,0-14.03-6.06-14.03-13.53s6.28-13.53,14.02-13.53h0,0Z"/>
    <g>
      <path class="cls-19" d="m211.47,231.75c0,.43.07.92.43,1.14.62.37,1.31-.44,1.41-1.15.1-.68,0-1.38.09-2.06.09-.68.46-1.41,1.13-1.6.12-.03.25-.05.35.02.12.08.14.24.15.39.1,1.2.2,2.41.3,3.61.04.54.15,1.17.64,1.41.56.27,1.25-.24,1.4-.85s-.06-1.24-.26-1.83c-.2-.59-.38-1.25-.16-1.83.4-1.12,1.86-1.32,3.05-1.34.31,2.09.62,4.18.94,6.28.04.23.08.49.25.65.32.32.92.1,1.14-.29.22-.4.18-.88.13-1.33-.18-1.7-.37-3.39-.55-5.09-.03-.26-.05-.54.1-.76.12-.17.31-.26.5-.34.49-.21.98-.43,1.46-.64.2-.09.41-.17.62-.12.23.06.38.28.49.48,1.02,1.83.91,4.06,1.37,6.1.16.72.68,1.6,1.39,1.4.75-.21.68-1.29.44-2.03-.44-1.39-.88-2.77-1.31-4.16-.2-.63-.37-1.39.06-1.89.37-.43,1.07-.45,1.57-.18.5.27.85.75,1.13,1.24.74,1.24,1.25,2.62,1.5,4.05.12.71.4,1.62,1.11,1.61.43,0,.78-.42.86-.84.08-.43-.03-.86-.15-1.28-.42-1.55-.84-3.09-1.26-4.64-.09-.34-.19-.7-.09-1.04.1-.34.46-.63.79-.51.2.07.34.26.45.44.96,1.47,1.91,2.95,2.87,4.42.34.52.82,1.11,1.43,1.01.52-.08.84-.66.81-1.19-.02-.52-.3-1-.56-1.45-.48-.81-.96-1.63-1.43-2.44-.2-.35-.42-.73-.37-1.13.05-.4.5-.76.85-.57.15.08.24.24.33.4.57,1.02,1.2,2.01,1.89,2.95.49.67,1.37,1.39,2.05.91.62-.44.37-1.4.04-2.08-.54-1.1-1.13-2.17-1.77-3.2-.17-.27-.36-.55-.65-.68-.25-.11-.54-.09-.81-.06-4.61.46-9.18,1.3-13.66,2.5-3,.8-5.96,1.77-8.9,2.78-.85.29-2.41.5-3.02,1.22-.67.78-.58,2.63-.57,3.58Z"/>
      <path class="cls-19" d="m211.51,228.47c8.69-1.04,17.28-2.87,25.64-5.47.53-.16,1.09-.35,1.42-.79.51-.66.32-1.6.11-2.4-1.4-5.35-2.8-10.7-4.2-16.04-1.84-7.04-3.74-14.2-7.6-20.36-.5-.8-1.05-1.6-1.83-2.12-1.36-.92-3.13-.86-4.76-.69-6.02.63-11.93,2.36-17.34,5.07-.42.21-.87.45-1.09.87-.33.63-.04,1.4.26,2.05,5.5,12.12,10.18,26.33,9.4,39.89Z"/>
      <path class="cls-3" d="m127.3,228.82c-1.36.32-2.32-.69-3.56-.31-.55.17-1.03.51-1.5.84-1.06.76-1.22,2.78-1.56,3.94-.44,1.5-.77,3.12-1.34,4.57-.12.4-.21.89.09,1.17.27.25.73.17,1.01-.08.27-.25.41-.61.53-.96.54-1.54,1.07-3.08,1.61-4.62.18-.52.57-1.17,1.11-1.02.14,2.03-.56,4.03-.67,6.06-.03.61,0,1.25.3,1.77s.96.89,1.53.69c.86-.3.92-1.47.89-2.39-.07-1.76.1-3.53.5-5.24.05-.2.12-.43.3-.53.44-.23.76.45.79.94.13,2.12.25,4.24.38,6.37.04.74.09,1.57.92,1.84.55.18,1.14.05,1.7-.07-.7-2.71-.91-5.55-.62-8.33.71-.5,1.75,0,2.17.76.41.76.39,1.67.4,2.53.01,1.11.11,2.22.28,3.32.15.98.4,1.99,1.05,2.74.65.74,1.84,1.11,2.67.56.13-.19-.1-.41-.29-.54-1.74-1.19-1.96-3.62-2.01-5.72-.01-.54-.02-1.09.17-1.59.19-.5.63-.95,1.16-.98.52-.03,1,.34,1.26.8.25.46.32,1,.39,1.52.15,1.23.31,2.45.46,3.68.11.91.24,1.86.79,2.59.55.73,1.66,1.13,2.4.6.04-.03.08-.06.11-.1.09-.15-.02-.34-.12-.48-1.16-1.66-1.65-3.7-2-5.7-.08-.46-.15-.95-.02-1.4.13-.45.53-.87,1-.86.39,0,.73.3.96.61.7.94.85,2.16.94,3.33.1,1.17.19,2.39.81,3.38.62.99,1.98,1.63,3,1.06.19-.11.39-.3.35-.52-.02-.14-.13-.25-.22-.35-1.99-2.08-3.1-4.97-3.03-7.84.27-.35.86-.25,1.15.08.29.33.36.79.43,1.23.36,2.2,1.02,4.46,2.58,6.05.33.34.72.65,1.19.75.47.1,1.02-.09,1.21-.52-1.73-1.44-2.87-3.58-3.09-5.82-.02-.2-.03-.42.06-.61.21-.4.84-.39,1.18-.09.34.3.49.76.63,1.19.5,1.48,1.26,2.87,2.22,4.11.41.53,1.13,1.06,1.67.67.33-.24.38-.73.23-1.1-.15-.38-.45-.67-.73-.96-1.22-1.25-2.27-2.67-3.11-4.21-.32-.59-.63-1.22-1.12-1.68-.54-.51-1.27-.78-1.98-1.01-4.53-1.45-9.49-1.64-13.7-3.86-.45-.24-.89-.5-1.39-.6-.84-.17-1.69.15-2.52.35Z"/>
      <path class="cls-3" d="m146.47,212.68c-.75,6.01-.21,12.12.88,18.07.31,1.71.68,3.42,1.39,5,.08.18.17.37.14.56-.06.46-.65.61-1.12.64-8.12.49-16.17-1.54-24.04-3.62-.39-.1-.79-.21-1.09-.47-.29-.24-.47-.58-.6-.93-.53-1.35-.51-2.84-.46-4.29.09-2.67.29-5.35.58-8.01.3-2.7,1.04-5.45,1.2-8.16.3-5,2.38-9.38,4.58-13.87,2.21-4.52,4.55-9.21,8.54-12.27,1.05-.8,2.26-1.5,3.58-1.52,1.48-.02,2.82.8,4.07,1.6,2.09,1.33,4.18,2.67,6.27,4,1.63,1.04,3.44,2.37,3.57,4.3.11,1.64-.76,2.53-1.77,3.58-1.2,1.26-2.03,3.11-2.75,4.67-1.55,3.38-2.51,7.01-2.98,10.69Z"/>
      <path class="cls-15" d="m171.59,202.4c-6.77-.58-13.35-2.2-19.39-5.41-6-3.19-12.3-4.39-16.67-10.15-1.65-2.18-1.13-4.81-1.18-7.55-.04-1.83.42-3.64.92-5.4,1.09-3.85.68-1.98,2.17-5.69.21-.52.45-1.07.94-1.36.9-.53,2.01.17,2.81.84,2.68,2.22,5.55,5.5,8.64,7.09,3.4,1.75,7.45,2.14,11.14,2.88,4.61.92,9.18,1.82,13.89,2.19,20.99,1.64,43.81.72,59.62-14.86,1.51-1.49,4.21-4,6.16-2.14,1.63,1.55,1.7,4.44,2.24,6.59.75,2.99,2.75,2.61,2.7,5.75-.08,5.37-4.58,9.58-9.11,12.46-8.88,5.64-18.93,8.7-29.1,11.01-11.25,2.55-23.82,4.78-35.77,3.76Z"/>
    </g>
    <path class="cls-21" d="m286.46,134.91c-.64-18.07-10.34-37.27-36.85-34.03-.36-1.56-.81-3.11-1.37-4.67-6.57-18.33-24.72-28.88-40.54-23.55-14.56,4.9-19.59,23.4-15.58,40.31-1.49-.07-5.48-.12-6.99-.13-1.52.01-5.5.06-6.99.13,4.01-16.91-1.02-35.4-15.58-40.31-15.82-5.33-33.97,5.22-40.54,23.55-.56,1.55-1.01,3.11-1.37,4.67-26.51-3.25-36.21,15.96-36.85,34.03-.79,22.25,15.68,38.44,37.73,42.1,5.7.95,17.88-1.12,17.88-1.12,11.62,7.02,27.8,11.43,45.73,11.6,17.93-.16,34.1-4.57,45.73-11.6,0,0,12.18,2.07,17.88,1.12,22.05-3.66,38.52-19.85,37.73-42.1Z"/>
    <path d="m193.83,115.6c0,.3-.03.61-.09.92-.59,3.29-4.23,7-8.62,7s-7.89-3.58-8.58-6.82c-.08-.37-.12-.75-.12-1.1,0-.92.28-1.8.77-2.59,1.36-2.18,4.4-3.7,7.94-3.7s6.38,1.42,7.8,3.49c.58.84.9,1.79.9,2.79Z"/>
    <g>
      <path class="cls-7" d="m219.21,24.33c.59.26,1.18.52,1.77.79,7.32,3.39,14.16,7.84,20.35,13.27.51.45,1.02.9,1.52,1.37.5.45.99.92,1.48,1.39.88-2.91,1.3-6.09,1.18-9.34-.4-10.48-7.58-31.82-14.98-31.82-4.49,0-7.77,5.69-9.33,9.09-2,4.36-3.33,9.6-3.72,14.5.59.24,1.17.48,1.75.74Z"/>
      <path class="cls-7" d="m127.41,39.77c.5-.47,1.01-.92,1.52-1.37,6.18-5.43,13.03-9.88,20.35-13.27.58-.27,1.17-.54,1.77-.79.58-.26,1.16-.5,1.75-.74-.39-4.91-1.72-10.14-3.72-14.5-1.56-3.39-4.84-9.09-9.33-9.09-7.4,0-14.59,21.34-14.98,31.82-.12,3.25.3,6.43,1.18,9.34.49-.47.98-.94,1.48-1.39Z"/>
      <path class="cls-4" d="m239.09,36.5c.21-1.2.31-2.44.26-3.71-.24-6.26-4.53-19.01-8.95-19.01-2.68,0-4.64,3.4-5.58,5.43-.94,2.06-1.63,4.44-2,6.8,5.76,2.84,11.22,6.35,16.27,10.49Z"/>
      <path class="cls-4" d="m147.44,26.01c-.37-2.36-1.05-4.74-2-6.8-.93-2.03-2.89-5.43-5.58-5.43-4.42,0-8.72,12.75-8.95,19.01-.05,1.26.05,2.51.26,3.71,5.05-4.14,10.5-7.65,16.27-10.49Z"/>
    </g>
    <path class="cls-2" d="m169.01,88.94c-3.44-3.92-8.58-5.99-14.86-5.99-8.43,0-19.02,7.09-22.39,22.67-.05.25-.1.5-.15.75-.21,1.14-.33,2.28-.38,3.41-.22,5.51,1.45,10.89,4.74,14.98,3.01,3.72,6.99,5.9,10.99,6.01.11,0,.22,0,.33,0,1.03,0,2.08-.07,3.12-.22,4.94-.67,9.85-2.89,13.85-6.32,2.11-1.81,3.9-3.89,5.34-6.16h0c.3-.47.58-.94.84-1.42.58-1.06,1.09-2.15,1.52-3.27.72-1.88,1.22-3.84,1.48-5.84,1.01-7.73-.53-14.16-4.42-18.6Z"/>
    <path class="cls-5" d="m131.61,108.81c.05-.25.1-.5.15-.75,3.36-15.58,13.96-22.67,22.39-22.67,6.28,0,11.42,2.07,14.86,5.99,2.89,3.3,4.48,7.69,4.69,12.89.24-6.28-1.36-11.54-4.69-15.34-3.44-3.92-8.58-5.99-14.86-5.99-8.43,0-19.02,7.09-22.39,22.67-.05.25-.1.5-.15.75-.21,1.14-.33,2.28-.38,3.41-.03.73-.02,1.46.01,2.19.05-1.05.17-2.1.36-3.15Z"/>
    <path class="cls-2" d="m201.25,88.94c3.44-3.92,8.58-5.99,14.86-5.99,8.43,0,19.02,7.09,22.39,22.67.05.25.1.5.15.75.21,1.14.33,2.28.38,3.41.22,5.51-1.45,10.89-4.74,14.98-3.01,3.72-6.99,5.9-10.99,6.01-.11,0-.22,0-.33,0-1.03,0-2.08-.07-3.12-.22-4.94-.67-9.85-2.89-13.85-6.32-2.11-1.81-3.9-3.89-5.34-6.16h0c-.3-.47-.58-.94-.84-1.42-.58-1.06-1.09-2.15-1.52-3.27-.72-1.88-1.22-3.84-1.48-5.84-1.01-7.73.53-14.16,4.42-18.6Z"/>
    <path class="cls-5" d="m238.65,108.81c-.05-.25-.1-.5-.15-.75-3.36-15.58-13.96-22.67-22.39-22.67-6.28,0-11.42,2.07-14.86,5.99-2.89,3.3-4.48,7.69-4.69,12.89-.24-6.28,1.36-11.54,4.69-15.34,3.44-3.92,8.58-5.99,14.86-5.99,8.43,0,19.02,7.09,22.39,22.67.05.25.1.5.15.75.21,1.14.33,2.28.38,3.41.03.73.02,1.46-.01,2.19-.05-1.05-.17-2.1-.36-3.15Z"/>
    <path class="cls-1" d="m196.33,133.72c-3.65,0-7.03-.95-9.8-2.55-.85-.49-1.97-.49-2.82,0-2.77,1.61-6.15,2.55-9.8,2.55-1.03,0-2.04-.08-3.01-.22-1.37-.2-2.66.63-2.76,1.76-.03.34-.05.69-.05,1.04,0,17.47,7.62,23.14,17.03,23.14s17.03-4.96,17.03-23.14c0-.35-.02-.7-.05-1.04-.1-1.14-1.39-1.97-2.76-1.76-.98.14-1.98.22-3.01.22Z"/>
    <ellipse cx="158.62" cy="106.93" rx="10.47" ry="11.88"/>
    <circle class="cls-2" cx="159.86" cy="103.88" r="3.41"/>
    <g class="cls-11">
      <g>
        <path class="cls-2" d="m183.35,142.15h-2.86c-.85,0-1.63-.61-1.74-1.38l-1.53-9.99,8.13.04-.47,9.95c0,.77-.67,1.38-1.52,1.38Z"/>
        <path class="cls-2" d="m189.79,142.24h-2.86c-.85,0-1.53-.61-1.52-1.38l-.55-10.05,8.21.07-1.53,9.99c-.12.77-.9,1.38-1.74,1.38Z"/>
      </g>
    </g>
    <ellipse class="cls-2" cx="156.85" cy="112.77" rx="3.67" ry="4.38" transform="translate(-14.75 201.51) rotate(-63.06)"/>
    <ellipse cx="212.1" cy="106.93" rx="10.47" ry="11.88"/>
    <circle class="cls-2" cx="213.34" cy="103.88" r="3.41"/>
    <ellipse class="cls-2" cx="210.33" cy="112.77" rx="3.67" ry="4.55" transform="translate(14.5 249.18) rotate(-63.06)"/>
    <g>
      <path class="cls-16" d="m106.02,126.6c-.26,0-.52-.1-.72-.3-.38-.4-.37-1.03.02-1.41l6.62-6.42c.4-.38,1.03-.37,1.41.02.38.4.37,1.03-.02,1.41l-6.62,6.42c-.19.19-.45.28-.7.28Z"/>
      <path class="cls-16" d="m112.64,126.6c-.26,0-.52-.1-.72-.3-.38-.4-.37-1.03.02-1.41l6.62-6.42c.4-.38,1.03-.37,1.41.02s.37,1.03-.02,1.41l-6.62,6.42c-.19.19-.45.28-.7.28Z"/>
      <path class="cls-16" d="m119.26,126.9c-.26,0-.52-.1-.72-.3-.38-.4-.37-1.03.02-1.41l6.62-6.42c.4-.38,1.03-.37,1.41.02.38.4.37,1.03-.02,1.41l-6.62,6.42c-.19.19-.45.28-.7.28Z"/>
      <path class="cls-16" d="m264.24,126.6c-.25,0-.5-.09-.7-.28l-6.62-6.42c-.4-.38-.41-1.02-.02-1.41.38-.4,1.02-.41,1.41-.02l6.62,6.42c.4.38.41,1.02.02,1.41-.2.2-.46.3-.72.3Z"/>
      <path class="cls-16" d="m257.62,126.6c-.25,0-.5-.09-.7-.28l-6.62-6.42c-.4-.38-.41-1.02-.02-1.41.38-.4,1.02-.41,1.41-.02l6.62,6.42c.4.38.41,1.02.02,1.41-.2.2-.46.3-.72.3Z"/>
      <path class="cls-16" d="m251,126.9c-.25,0-.5-.09-.7-.28l-6.62-6.42c-.4-.38-.41-1.02-.02-1.41.38-.4,1.02-.41,1.41-.02l6.62,6.42c.4.38.41,1.02.02,1.41-.2.2-.46.3-.72.3Z"/>
    </g>
  </g>
  <g>
    <path class="cls-8" d="m645.94,121.96c-5.1-6.31-12.48-9.51-21.94-9.51s-17.8,3.52-23.92,10.48h0c0-3.41-3.78-6.62-8.45-6.62h-9.35v84.07h17.8v-48.71c0-6.85,1.85-12.34,5.64-16.77,3.71-4.33,8.26-6.43,13.93-6.43,6.86,0,15.99,2.4,15.99,23.2v48.71h17.8v-52.02c0-11.36-2.52-20.24-7.5-26.4Z"/>
    <path class="cls-8" d="m1006.2,117.32v49.18c0,6.86-1.82,12.44-5.4,16.6-3.55,4.12-7.95,6.12-13.46,6.12-7.2,0-16.77-2.39-16.77-23.04v-48.86h-17.72v50.92c0,30.59,16.85,37.01,30.99,37.01,9.3,0,16.79-3.22,22.37-9.59h0c0,4.25,3.39,7.69,7.57,7.69h10.23v-86.03h-17.8Z"/>
    <ellipse class="cls-8" cx="547.04" cy="84.13" rx="11.35" ry="11.85"/>
    <g>
      <path class="cls-8" d="m900.52,202.61h-1.13c-19.47,0-35.31-16.53-35.31-36.85v-49.45h17.65v49.45c0,10.16,7.92,18.43,17.65,18.43h1.13c9.73,0,17.65-8.27,17.65-18.43v-49.45h17.65v49.45c0,20.32-15.84,36.85-35.31,36.85Z"/>
      <path class="cls-8" d="m900.52,247.59h-1.13c-14.67,0-27.28-9.38-32.6-22.7-2.69-6.74,2.23-14.15,9.22-14.15h5.73c0,10.16,7.92,18.43,17.65,18.43h1.13c9.75,0,17.65-8.25,17.65-18.43v-49.45h17.65v49.45c0,20.35-15.81,36.85-35.31,36.85Z"/>
    </g>
    <g>
      <path class="cls-8" d="m690.07,235.16h-17.65v-118.85h9.13c4.71,0,8.52,3.86,8.52,8.62v110.24Z"/>
      <path class="cls-8" d="m712.72,202.09c-22.22,0-40.3-19.72-40.3-43.96s18.08-43.96,40.3-43.96,40.3,19.72,40.3,43.96-18.08,43.96-40.3,43.96Zm0-69.5c-12.48,0-22.64,11.46-22.64,25.54s10.16,25.54,22.64,25.54,22.64-11.46,22.64-25.54-10.16-25.54-22.64-25.54Z"/>
    </g>
    <g>
      <path class="cls-8" d="m844.42,202.61h-8.75c-4.92,0-8.9-7.87-8.9-17.59v-68.72h17.65v86.3Z"/>
      <path class="cls-8" d="m804.13,200.38c-22.22,0-40.3-19.72-40.3-43.96s18.08-43.97,40.3-43.97,40.3,19.72,40.3,43.97-18.08,43.96-40.3,43.96Zm0-69.5c-12.48,0-22.64,11.46-22.64,25.54s10.16,25.54,22.64,25.54,22.64-11.46,22.64-25.54-10.16-25.54-22.64-25.54Z"/>
    </g>
    <path class="cls-8" d="m477.45,200.38c-22.22,0-40.3-19.72-40.3-43.96s18.08-43.97,40.3-43.97,40.3,19.72,40.3,43.97-18.08,43.96-40.3,43.96Zm0-69.5c-12.48,0-22.64,11.46-22.64,25.54s10.16,25.54,22.64,25.54,22.64-11.46,22.64-25.54-10.16-25.54-22.64-25.54Z"/>
    <path class="cls-8" d="m392.98,200.38c-22.22,0-40.3-19.72-40.3-43.96s18.08-43.96,40.3-43.96c12.75,0,24.47,6.36,32.16,17.46l-7.5,5.66c-3.47,2.62-8.21,2.67-11.62-.04-3.77-3.01-8.29-4.65-13.04-4.65-12.48,0-22.64,11.46-22.64,25.54s10.16,25.54,22.64,25.54c6.15,0,11.9-2.79,16.09-7.56,2.94-3.35,7.65-4.28,11.56-2.29l8.29,4.2c-6.91,14.85-20.69,24.08-35.95,24.08Z"/>
    <path class="cls-8" d="m566.26,186.91c0,12.16-14.02,15.18-21.74,9.07-4.78-3.79-6.3-10.76-6.3-17.33v-62.34h17.74v62.34c0,4.4,4.82,8.26,10.31,8.26h0Z"/>
  </g>
</svg>