<?xml version="1.0" encoding="utf-8"?>
<!-- Generator: Adobe Illustrator 26.5.1, SVG Export Plug-In . SVG Version: 6.00 Build 0)  -->
<svg version="1.1" id="Laag_1" xmlns="http://www.w3.org/2000/svg" xmlns:xlink="http://www.w3.org/1999/xlink" x="0px" y="0px"
	 viewBox="0 0 718.2 136.7" style="enable-background:new 0 0 718.2 136.7;" xml:space="preserve">
<style type="text/css">
	.st0{display:none;fill:#178BCC;}
	.st1{fill:#FFFFFF;}
</style>
<rect x="-56.3" y="-50.6" class="st0" width="835.8" height="237.9"/>
<path class="st1" d="M193.7,118.1c11.7-18.7,14.8-38.7,10.4-60.4c-1.2,1-0.8,1.9-0.8,2.6c0,0.8,0,1.5,0,2.3
	c0.6,23.9-9.1,43.1-27.1,58.3c-9,7.6-19.7,11.2-31.3,12.8c-10.7,1.5-21.5,1.6-32.3,1.6c-9.1,0-19.7,1.4-28.4-1
	c-3.2-0.9-4.4-3.5-4.4-6.6c0-3.1,1.5-5.4,4.5-6.6c1.3-0.5,2.8-0.6,4.2-0.6c3.8,0,7.7,0,11.5,0c5.3-0.1,8.7-3.1,8.7-7.8
	c0-4.5-3.3-7.5-8.5-7.6c-9.1-0.1-18.2,0-27.3-0.1c-2.6,0-5.3-0.1-7.9-0.2c-4.2-0.2-6.4-2.6-6.5-6.7c-0.1-4.2,2.4-7.2,6.6-7.5
	c2.2-0.2,4.4,0,6.6-0.1c4.6-0.2,7.6-3.3,7.5-7.8c-0.1-4.3-3.2-7.6-7.7-7.7c-6.1-0.1-12.3,0-18.4-0.1c-5.1,0-7.6-2.3-7.6-6.9
	c0-4.8,2.6-7.3,7.6-7.3c12.9,0,25.9,0,38.8-0.1c6.6,0,10.2-6.3,6.9-12c-1.7-3-4.8-3.6-7.9-3.7c-4.7-0.1-9.4,0-14.2-0.1
	c-5-0.1-7.5-2.6-7.4-7.2c0.1-4.2,2.8-6.8,7.4-6.8c8.8-0.1,17.5,0,26.3-0.1c5.7,0,8.9-2.9,9-7.8c0.1-4.9-3.2-7.9-8.8-7.9
	c-3.2,0-5.7-0.7-7.4-3.8c-1.4-2.6-1.1-5.1,0.3-7.5c0.9-1.5,2.2-2.7,4.2-2.8c1.4-0.1,2.8-0.3,4.2-0.4c14.7,0,29.4,0,44.1-0.1
	c9.1,0,18,1.3,26.2,5c10.1,4.6,19.3,10.6,26.4,19.5c12.7,16,17.3,34.1,14.1,54.2c-2.4,15-9.8,27.2-20.3,37.9
	C194.9,117.8,194.4,117.8,193.7,118.1z M179.8,84.1c0-6.3-1.9-10.2-4.8-13.8c-4.2-5.2-9.9-8-16.2-9.6c-2-0.5-3.1-1.3-2.7-3.6
	c0.6-3.7,1.1-7.3,1.6-11c0.2-1.6,0.9-1.7,2.2-1.3c3,1,6,2,9,3c3.2,1.1,6.4-0.4,8-3.9c1.3-2.8,0.3-7.7-2.1-8.8
	c-3.2-1.5-6.6-3.1-10-3.8c-3.4-0.7-5.1-1.5-4.7-5.5c0.4-3.3-3.8-6.5-7.3-6.5c-3.1,0-4.2,1.5-4.5,6c-0.4,5.1-0.4,4.9-5.7,5.7
	c-8.1,1.3-19.2,5.9-20.8,15.8c-0.9,6-1.5,11.9,3.6,16.6c3.8,3.5,8.2,5.8,13,7.1c2.9,0.8,4.4,1.7,3.7,4.9c-0.7,3.5-1.1,7.1-1.6,10.7
	c-0.2,1.6-0.7,1.9-2.3,1.4c-3.7-1.1-7.5-1.5-11.1-2.7c-4.5-1.5-7.1-0.3-9,3.8c-1.6,3.5-0.2,7.4,3.3,9.5c3.9,2.3,8.1,3.5,12.5,4.1
	c2.7,0.3,4.9,0.6,4.4,4.6c-0.5,3.8,2.2,5.9,6.4,6.1c3.7,0.2,4.8-0.8,5.4-5.3c0.1-0.5,0.2-1.1,0.1-1.6c-0.2-2.1,0.8-2.5,2.7-2.5
	c5.2,0,10.3-1.1,14.9-3.5C174.6,96.3,179.2,90.7,179.8,84.1z"/>
<path class="st1" d="M47.5,135.5c-2.2,0-4.4,0.1-6.6,0c-4.2-0.1-7.2-2.8-7.5-6.7c-0.3-4.8,1.8-7.8,6.4-8.1c5.1-0.4,10.3-0.3,15.4,0
	c4.2,0.3,6.7,3.6,6.5,7.6c-0.2,4.1-3.2,7.1-7.5,7.2C52.1,135.6,49.8,135.5,47.5,135.5z"/>
<path class="st1" d="M15.2,60.7c2.3,0,4.6,0,6.9,0c4.2,0.1,7.3,3,7.4,7.1c0.1,4.2-2.7,7.3-7,7.4c-4.9,0.1-9.9,0.1-14.8,0
	c-4.3-0.1-6.9-3.2-6.7-7.6c0.1-4.2,2.8-6.9,7.1-6.9C10.4,60.7,12.8,60.7,15.2,60.7z"/>
<path class="st1" d="M63.1,15.2c-4.1,0.1-7.3-3.2-7.3-7.1c0-3.8,3.3-7,7.2-7c3.7-0.1,7.2,3.2,7.3,6.9C70.4,11.8,67.2,15.1,63.1,15.2
	z"/>
<path class="st1" d="M50.1,30.9c4.3,0,7.2,2.8,7.3,6.9c0.1,4.4-2.8,7.5-7.1,7.6c-4,0.1-7.5-3.5-7.5-7.4
	C42.9,33.9,45.9,30.9,50.1,30.9z"/>
<path class="st1" d="M154.3,89.8c0.6-3.9,1.1-7.3,1.5-10.6c0.1-1.1,0.7-1.6,1.8-1.2c2.6,1.1,5.1,2.3,6.7,4.8c2.1,3.4,1,6.5-2.8,7.5
	c-1.7,0.4-3.4,0.6-5.2,0.8C154.9,91.3,153.8,91.1,154.3,89.8z"/>
<path class="st1" d="M147.9,48.1c-0.3,2.2-0.9,4.6-1,7c-0.1,2.2-1.2,2.4-2.7,1.5c-2.4-1.4-4.8-3-4.3-6.3c0.4-2.3,3.2-4.1,6.3-4.1
	C147.4,46.2,148.5,46.2,147.9,48.1z"/>
<g>
	<path class="st1" d="M306.8,66.4c1.1,1.1,1.7,2.5,1.7,4.3v25.8c0,3.7-0.5,6.3-1.4,7.8c-1,1.5-2.9,2.8-5.9,3.7
		c-3.2,1.1-6.9,2-11.2,2.6s-8.3,1-12.2,1c-8.7,0-16.3-1.7-22.7-5.2c-6.4-3.4-11.3-8.4-14.7-14.9c-3.4-6.5-5.1-14.3-5.1-23.3
		c0-8.9,1.7-16.6,5.1-23.1c3.4-6.5,8.2-11.5,14.5-15c6.2-3.5,13.6-5.2,22.1-5.2c11.3,0,20.5,3,27.7,9.1c1,0.9,1.7,1.8,2.1,2.6
		s0.7,1.9,0.7,3.1c0,1.8-0.5,3.2-1.4,4.4c-1,1.2-2.1,1.8-3.5,1.8c-0.9,0-1.7-0.1-2.4-0.4s-1.6-0.7-2.5-1.4c-3.5-2.5-6.8-4.2-9.8-5.2
		s-6.5-1.5-10.3-1.5c-8.7,0-15.3,2.6-19.7,7.7S251,58,251,68.2c0,20.8,9.1,31.2,27.4,31.2c5.4,0,10.9-0.8,16.3-2.3V75.8h-13.6
		c-1.9,0-3.4-0.5-4.5-1.4s-1.6-2.3-1.6-4.1s0.5-3.1,1.6-4.1s2.6-1.4,4.5-1.4h21.2C304.2,64.8,305.7,65.3,306.8,66.4z"/>
	<path class="st1" d="M403.3,104.4c0,1.8-0.7,3.4-2.2,4.7s-3.2,1.9-5.1,1.9c-1.3,0-2.5-0.3-3.6-1s-2-1.7-2.6-3.2l-7.2-16.1h-42.2
		l-7.2,16.1c-0.6,1.4-1.5,2.5-2.6,3.2c-1.1,0.7-2.4,1-3.7,1c-1.8,0-3.5-0.6-5-1.9c-1.5-1.3-2.3-2.8-2.3-4.7c0-1,0.2-2.1,0.7-3.1
		l33.1-71.2c0.7-1.6,1.8-2.8,3.3-3.7c1.5-0.8,3.1-1.3,4.7-1.3s3.3,0.4,4.7,1.3c1.5,0.8,2.6,2.1,3.3,3.7l33.2,71.2
		C403.1,102.3,403.3,103.3,403.3,104.4z M345.6,78.7h31.7l-15.8-35.6L345.6,78.7z"/>
	<path class="st1" d="M417.1,109.1c-1.4-1.4-2.1-3.3-2.1-5.6V33c0-2.3,0.7-4.2,2.1-5.6s3.3-2.1,5.6-2.1c2.4,0,4.3,0.7,5.7,2.1
		c1.4,1.4,2.1,3.3,2.1,5.6v70.4c0,2.3-0.7,4.2-2.1,5.6s-3.3,2.2-5.7,2.2C420.3,111.2,418.5,110.5,417.1,109.1z"/>
	<path class="st1" d="M518.1,27.4c1.3,1.4,2,3.3,2,5.6v70.4c0,2.3-0.7,4.2-2,5.6s-3.1,2.2-5.3,2.2c-2.6,0-4.5-0.9-5.9-2.8l-43.8-57
		v52c0,2.3-0.6,4.2-1.9,5.6s-3,2.2-5.3,2.2s-4-0.7-5.3-2.2s-1.9-3.3-1.9-5.6V33c0-2.3,0.7-4.2,2-5.6c1.4-1.4,3.2-2.1,5.4-2.1
		c2.5,0,4.4,0.9,5.8,2.8l43.7,56.8V33c0-2.3,0.7-4.2,2-5.6s3.1-2.1,5.2-2.1C515,25.3,516.8,26,518.1,27.4z"/>
	<path class="st1" d="M538.2,109.2c-1.3-1.2-1.9-2.9-1.9-4.9s0.6-3.6,1.9-4.9c1.3-1.3,2.9-1.9,4.8-1.9c1.8,0,3.4,0.6,4.6,1.9
		s1.9,2.9,1.9,4.9s-0.6,3.6-1.9,4.9s-2.8,1.9-4.6,1.9C541.1,111.1,539.5,110.5,538.2,109.2z"/>
	<path class="st1" d="M629.2,67.6c0.8,0.7,1.1,1.7,1.1,3v29.9c0,1.9-0.3,3.4-0.9,4.3c-0.6,1-1.7,1.7-3.3,2.3
		c-3.2,1.4-7.1,2.4-11.6,3.2c-4.6,0.8-9.1,1.2-13.7,1.2c-8.4,0-15.6-1.7-21.7-5.2c-6.1-3.4-10.7-8.4-14-14.9
		c-3.2-6.5-4.9-14.2-4.9-23.3c0-8.9,1.6-16.6,4.8-23s7.8-11.5,13.8-14.9s13-5.2,21.1-5.2c5.6,0,10.8,0.9,15.6,2.6s8.8,4.2,12.1,7.4
		c1.4,1.4,2,2.8,2,4.2c0,1.1-0.3,2.1-1,2.9s-1.4,1.3-2.4,1.3s-2.1-0.5-3.4-1.4c-4.2-3.2-7.9-5.4-11.3-6.7c-3.4-1.2-7.2-1.9-11.6-1.9
		c-9.5,0-16.8,3-21.9,9s-7.6,14.6-7.6,25.8c0,11.4,2.6,20.1,7.7,26.1s12.7,8.9,22.7,8.9c7.4,0,14.2-1.1,20.3-3.4V74.2h-17.5
		c-1.4,0-2.4-0.4-3.2-1.1s-1.2-1.6-1.2-2.8c0-1.2,0.4-2.1,1.2-2.8s1.9-1,3.2-1h22.4C627.5,66.5,628.5,66.8,629.2,67.6z"/>
	<path class="st1" d="M716.1,67.6c0.8,0.7,1.1,1.7,1.1,3v29.9c0,1.9-0.3,3.4-0.9,4.3c-0.6,1-1.7,1.7-3.3,2.3
		c-3.2,1.4-7.1,2.4-11.6,3.2c-4.6,0.8-9.1,1.2-13.7,1.2c-8.4,0-15.6-1.7-21.7-5.2c-6.1-3.4-10.7-8.4-14-14.9
		c-3.2-6.5-4.9-14.2-4.9-23.3c0-8.9,1.6-16.6,4.8-23s7.8-11.5,13.8-14.9s13-5.2,21.1-5.2c5.6,0,10.8,0.9,15.6,2.6s8.8,4.2,12.1,7.4
		c1.4,1.4,2,2.8,2,4.2c0,1.1-0.3,2.1-1,2.9s-1.4,1.3-2.4,1.3s-2.1-0.5-3.4-1.4c-4.2-3.2-7.9-5.4-11.3-6.7c-3.4-1.2-7.2-1.9-11.6-1.9
		c-9.5,0-16.8,3-21.9,9s-7.6,14.6-7.6,25.8c0,11.4,2.6,20.1,7.7,26.1s12.7,8.9,22.7,8.9c7.4,0,14.2-1.1,20.3-3.4V74.2h-17.5
		c-1.4,0-2.4-0.4-3.2-1.1s-1.2-1.6-1.2-2.8c0-1.2,0.4-2.1,1.2-2.8s1.9-1,3.2-1h22.4C714.4,66.5,715.3,66.8,716.1,67.6z"/>
</g>
<g>
	<path class="st1" d="M218.7,12.1c0,4.7-3.7,8.3-8.4,8.3c-4.7,0-8.5-3.7-8.5-8.3c0-4.6,3.8-8.2,8.5-8.2
		C215,3.9,218.7,7.6,218.7,12.1z M203.9,12.1c0,3.7,2.7,6.6,6.4,6.6c3.6,0,6.2-2.9,6.2-6.5c0-3.7-2.6-6.6-6.3-6.6
		C206.6,5.6,203.9,8.5,203.9,12.1z M209,16.4h-1.9V8.2c0.8-0.2,1.8-0.2,3.2-0.2c1.6,0,2.2,0.2,2.9,0.6c0.5,0.3,0.8,1,0.8,1.8
		c0,0.9-0.7,1.6-1.7,1.9v0.1c0.8,0.3,1.2,0.9,1.5,2c0.2,1.2,0.4,1.8,0.6,2h-2.1c-0.2-0.3-0.4-1-0.6-2c-0.1-0.9-0.6-1.3-1.7-1.3H209
		V16.4z M209,11.8h0.9c1.1,0,1.9-0.4,1.9-1.2c0-0.8-0.6-1.2-1.8-1.2c-0.5,0-0.9,0-1.1,0.1V11.8z"/>
</g>
</svg>
