<?xml version="1.0" encoding="UTF-8"?>
<svg id="_图层_1" data-name="图层 1" xmlns="http://www.w3.org/2000/svg" viewBox="0 0 200 200">
  <defs>
    <style>
      .cls-1 {
        fill: #91877F;
      }
    </style>
  </defs>
  <path class="cls-1" d="m182.17,43.86l-15.78-18.55-13.49-14.94C147.21,3.78,138.94,0,130.24,0H39.76C23.19,0,9.76,13.43,9.76,30h0v140c0,16.57,13.43,30,30,30h120.48c16.57,0,30-13.43,30-30V63.73c-.11-7.4-2.99-14.49-8.07-19.88Zm-49.64,62.41l-32.41,40c-1.84,2.32-4.63,3.69-7.59,3.73-2.94.05-5.75-1.18-7.71-3.37l-17.59-20c-3.21-4.49-2.17-10.74,2.32-13.95,3.81-2.73,9.01-2.44,12.5.7l9.76,11.08,25.18-30.72c2.53-4.91,8.56-6.84,13.47-4.3,4.91,2.53,6.84,8.56,4.3,13.47-.56,1.09-1.32,2.07-2.23,2.88v.48Zm7.23-44.22c-6.65,0-12.05-5.39-12.05-12.05h0V13.86l45.18,48.19h-33.13Z"/>
</svg>