<?xml version="1.0" encoding="utf-8"?>
<!-- Generator: Adobe Illustrator 21.0.0, SVG Export Plug-In . SVG Version: 6.00 Build 0)  -->
<svg version="1.1" id="图层_1" xmlns="http://www.w3.org/2000/svg" xmlns:xlink="http://www.w3.org/1999/xlink" x="0px" y="0px"
	 viewBox="0 0 20 20" style="enable-background:new 0 0 20 20;" xml:space="preserve">
<style type="text/css">
	.st0{fill:#F2CA5B;}
	.st1{fill:#FFFFFF;}
</style>
<ellipse class="st0" cx="10" cy="9.9" rx="9.5" ry="8.6"/>
<polygon class="st0" points="2.1,14.2 0.7,17.8 5.7,16.6 "/>
<g>
	<path class="st1" d="M4.1,10.7v2.6H3.2v-7h2C6,6.3,6.6,6.5,7,6.9c0.4,0.4,0.6,0.9,0.6,1.6c0,0.7-0.2,1.2-0.7,1.7
		c-0.5,0.4-1.1,0.6-1.8,0.6H4.1z M4.1,7.1v2.8H5c0.5,0,1-0.1,1.2-0.4c0.3-0.2,0.4-0.6,0.4-1.1c0-0.9-0.5-1.3-1.6-1.3H4.1z"/>
	<path class="st1" d="M11.4,9.2C11.3,9.1,11.1,9,10.8,9c-0.3,0-0.6,0.2-0.8,0.5c-0.2,0.3-0.3,0.7-0.3,1.3v2.5H8.8v-5h0.9v1h0
		c0.3-0.7,0.7-1.1,1.3-1.1c0.2,0,0.4,0,0.5,0.1V9.2z"/>
	<path class="st1" d="M11.8,10.8c0-0.8,0.2-1.5,0.7-1.9c0.5-0.5,1.1-0.7,1.9-0.7c0.7,0,1.3,0.2,1.8,0.7c0.4,0.5,0.6,1.1,0.6,1.9
		c0,0.8-0.2,1.4-0.7,1.9s-1.1,0.7-1.8,0.7c-0.7,0-1.3-0.2-1.8-0.7C12,12.2,11.8,11.6,11.8,10.8z M12.7,10.8c0,0.6,0.1,1,0.4,1.4
		c0.3,0.3,0.7,0.5,1.2,0.5c0.5,0,0.9-0.2,1.2-0.5s0.4-0.8,0.4-1.4c0-0.6-0.1-1.1-0.4-1.4c-0.3-0.3-0.6-0.5-1.2-0.5
		c-0.5,0-0.9,0.2-1.2,0.5S12.7,10.2,12.7,10.8z"/>
</g>
</svg>
