<?xml version="1.0" encoding="UTF-8"?>
<svg id="_图层_1" data-name="图层 1" xmlns="http://www.w3.org/2000/svg" viewBox="0 0 200 200">
  <defs>
    <style>
      .cls-1 {
        fill: #91877F;
      }
    </style>
  </defs>
  <path class="cls-1" d="m29.24,52.16c0,26.89,21.79,48.7,48.69,48.71s48.7-21.79,48.71-48.69v-.02c0-26.89-21.8-48.7-48.7-48.7S29.24,25.26,29.24,52.16Z"/>
  <path class="cls-1" d="m96.75,112.98h-33.82C28.16,112.98,0,141.18,0,175.91c0,11.39,9.23,20.63,20.63,20.63h118.42c11.39,0,20.63-9.23,20.63-20.63-.02-34.72-28.22-62.92-62.94-62.92h0Zm94.34-75.9h-48.48c-4.9,0-8.9,3.98-8.9,8.9s3.98,8.9,8.9,8.9h48.5c4.9,0,8.9-3.98,8.9-8.9-.02-4.92-4-8.9-8.92-8.9Zm0,43.48h-48.48c-4.9,0-8.9,3.98-8.9,8.9s3.98,8.9,8.9,8.9h48.5c4.9,0,8.9-3.98,8.9-8.9-.02-4.92-4-8.9-8.92-8.9Zm0,43.46h-23.2c-4.9,0-8.9,3.98-8.9,8.9s3.98,8.9,8.9,8.9h23.2c4.9,0,8.9-3.98,8.9-8.9s-3.98-8.9-8.9-8.9Z"/>
</svg>