<?xml version="1.0" encoding="UTF-8"?>
<svg id="_图层_1" data-name="图层 1" xmlns="http://www.w3.org/2000/svg" xmlns:xlink="http://www.w3.org/1999/xlink" viewBox="0 0 1200 422.72">
  <defs>
    <style>
      .cls-1 {
        fill: url(#_未命名的渐变_5);
      }

      .cls-2 {
        fill: #71694f;
      }

      .cls-3 {
        fill: #eed88b;
      }

      .cls-4 {
        fill: #325a98;
      }

      .cls-5 {
        fill: #d2b159;
      }

      .cls-6 {
        fill: #cdbd83;
      }

      .cls-7, .cls-8 {
        fill: #fff;
      }

      .cls-9 {
        fill: #6e6342;
      }

      .cls-10 {
        fill: #c79c3b;
      }

      .cls-11 {
        fill: #e5c66b;
      }

      .cls-12 {
        fill: #d8c173;
      }

      .cls-13 {
        fill: #a78e32;
      }

      .cls-14 {
        fill: #d2a83e;
      }

      .cls-15 {
        fill: #0c0c0c;
      }

      .cls-8, .cls-16 {
        fill-rule: evenodd;
      }

      .cls-17 {
        fill: #41abe5;
      }

      .cls-18 {
        fill: #242110;
      }

      .cls-19 {
        fill: #927d49;
      }

      .cls-20 {
        fill: #f4a61c;
      }

      .cls-21 {
        fill: #ba9040;
      }

      .cls-22 {
        filter: url(#drop-shadow-4);
      }

      .cls-23 {
        fill: #b59544;
      }

      .cls-16 {
        fill: #f90;
      }

      .cls-24 {
        fill: #307dc4;
      }

      .cls-25 {
        fill: #927238;
      }

      .cls-26 {
        fill: #bfa64c;
      }

      .cls-27 {
        fill: #012c6b;
      }

      .cls-28 {
        fill: #d2ba6b;
      }

      .cls-29 {
        fill: url(#_未命名的渐变_4);
      }

      .cls-30 {
        fill: #d1871c;
      }

      .cls-31 {
        fill: #294c7f;
      }

      .cls-32 {
        filter: url(#drop-shadow-3);
      }

      .cls-33 {
        fill: #c2a44d;
      }

      .cls-34 {
        fill: #ebcc73;
      }

      .cls-35 {
        fill: #938357;
      }

      .cls-36 {
        fill: #dfcd88;
      }

      .cls-37 {
        filter: url(#drop-shadow-1);
      }

      .cls-38 {
        fill: #fffdf0;
      }

      .cls-39 {
        fill: #d7d7d5;
      }

      .cls-40 {
        fill: #d6a00b;
      }

      .cls-41 {
        fill: #fdbb30;
      }

      .cls-42 {
        fill: #f7941a;
      }

      .cls-43 {
        fill: #d17818;
      }

      .cls-44 {
        fill: #967c2a;
      }

      .cls-45 {
        fill: #8c6228;
      }

      .cls-46 {
        fill: #f3e19d;
      }

      .cls-47 {
        fill: #f3ebdb;
      }

      .cls-48 {
        fill: #e7e3db;
      }

      .cls-49 {
        fill: #d6d6d5;
      }

      .cls-50 {
        fill: #f0b90b;
      }

      .cls-51 {
        fill: #dfddd9;
      }

      .cls-52 {
        fill: #a17c34;
      }

      .cls-53 {
        fill: #f4efc8;
      }

      .cls-54 {
        filter: url(#drop-shadow-2);
      }

      .cls-55 {
        fill: #252211;
      }

      .cls-56 {
        fill: #dcba5a;
      }

      .cls-57 {
        fill: #e6bd62;
      }

      .cls-58 {
        fill: #ac8132;
      }

      .cls-59 {
        fill: #b58634;
      }

      .cls-60 {
        fill: #c1a956;
      }

      .cls-61 {
        fill: #ba9f33;
      }

      .cls-62 {
        fill: #5a89cc;
      }

      .cls-63 {
        fill: #f4ecb4;
      }

      .cls-64 {
        fill: #39331f;
      }

      .cls-65 {
        fill: #b89844;
      }

      .cls-66 {
        fill: #dfc068;
      }

      .cls-67 {
        fill: #ffda73;
      }

      .cls-68 {
        fill: #ddbe5b;
      }

      .cls-69 {
        fill: #a78f33;
      }

      .cls-70 {
        fill: #fdc72f;
      }

      .cls-71 {
        fill: #dfc57c;
      }

      .cls-72 {
        fill: #cba94c;
      }

      .cls-73 {
        fill: #fbe945;
      }

      .cls-74 {
        fill: #c0993a;
      }

      .cls-75 {
        fill: #fcfcf4;
      }

      .cls-76 {
        fill: #16a55a;
      }

      .cls-77 {
        fill: #988430;
      }

      .cls-78 {
        fill: #f5f2e6;
      }

      .cls-79 {
        fill: #ffb25f;
      }

      .cls-80 {
        fill: url(#_未命名的渐变_6);
      }

      .cls-81 {
        fill: #dfc677;
      }

      .cls-82 {
        fill: #696148;
      }

      .cls-83 {
        fill: #543e26;
      }

      .cls-84 {
        fill: #cca847;
      }

      .cls-85 {
        fill: #dcdad7;
      }

      .cls-86 {
        fill: #d2b257;
      }

      .cls-87 {
        fill: #c4a859;
      }

      .cls-88 {
        fill: #e0cd81;
      }

      .cls-89 {
        fill: #f5edb6;
      }

      .cls-90 {
        fill: #f8f3e4;
      }

      .cls-91 {
        fill: #e5cb7a;
      }

      .cls-92 {
        fill: #ceb052;
      }

      .cls-93 {
        fill: #d7c27c;
      }

      .cls-94 {
        fill: #e6ded7;
      }

      .cls-95 {
        fill: url(#_未命名的渐变_3);
      }

      .cls-96 {
        fill: url(#_未命名的渐变_7);
      }

      .cls-97 {
        fill: #ecd592;
      }
    </style>
    <filter id="drop-shadow-1" filterUnits="userSpaceOnUse">
      <feOffset dx="1" dy="0"/>
      <feGaussianBlur result="blur" stdDeviation="10"/>
      <feFlood flood-color="#606060" flood-opacity=".3"/>
      <feComposite in2="blur" operator="in"/>
      <feComposite in="SourceGraphic"/>
    </filter>
    <linearGradient id="_未命名的渐变_4" data-name="未命名的渐变 4" x1="203.56" y1="63.73" x2="334.75" y2="-11.63" gradientTransform="translate(246.08 -22.35) rotate(90) scale(1 -1)" gradientUnits="userSpaceOnUse">
      <stop offset="0" stop-color="#9fddff"/>
      <stop offset="1" stop-color="#6bc5ff"/>
    </linearGradient>
    <filter id="drop-shadow-2" filterUnits="userSpaceOnUse">
      <feOffset dx="1" dy="0"/>
      <feGaussianBlur result="blur-2" stdDeviation="10"/>
      <feFlood flood-color="#606060" flood-opacity=".3"/>
      <feComposite in2="blur-2" operator="in"/>
      <feComposite in="SourceGraphic"/>
    </filter>
    <linearGradient id="_未命名的渐变_5" data-name="未命名的渐变 5" x1="839.39" y1="34.55" x2="983.83" y2="-48.49" gradientTransform="translate(911.56 -674.35) rotate(90) scale(1 -1)" gradientUnits="userSpaceOnUse">
      <stop offset="0" stop-color="#78b9f4"/>
      <stop offset="1" stop-color="#418edf"/>
    </linearGradient>
    <filter id="drop-shadow-3" filterUnits="userSpaceOnUse">
      <feOffset dx="1" dy="0"/>
      <feGaussianBlur result="blur-3" stdDeviation="10"/>
      <feFlood flood-color="#606060" flood-opacity=".3"/>
      <feComposite in2="blur-3" operator="in"/>
      <feComposite in="SourceGraphic"/>
    </filter>
    <linearGradient id="_未命名的渐变_6" data-name="未命名的渐变 6" x1="333.01" y1="110.48" x2="467.73" y2="34.95" gradientTransform="translate(-3.68 273.91) scale(1 -1)" gradientUnits="userSpaceOnUse">
      <stop offset="0" stop-color="#424242"/>
      <stop offset="1" stop-color="#1c1c1c"/>
    </linearGradient>
    <filter id="drop-shadow-4" filterUnits="userSpaceOnUse">
      <feOffset dx="1" dy="0"/>
      <feGaussianBlur result="blur-4" stdDeviation="10"/>
      <feFlood flood-color="#606060" flood-opacity=".3"/>
      <feComposite in2="blur-4" operator="in"/>
      <feComposite in="SourceGraphic"/>
    </filter>
    <linearGradient id="_未命名的渐变_3" data-name="未命名的渐变 3" x1="628.36" y1="171.73" x2="772.14" y2="89.13" gradientTransform="translate(37.42 325.81) scale(1 -1)" gradientUnits="userSpaceOnUse">
      <stop offset="0" stop-color="#5be89e"/>
      <stop offset="1" stop-color="#1ecb75"/>
    </linearGradient>
    <linearGradient id="_未命名的渐变_7" data-name="未命名的渐变 7" x1="500.85" y1="185.88" x2="641.61" y2="263.92" gradientTransform="translate(1.67 -.86)" gradientUnits="userSpaceOnUse">
      <stop offset="0" stop-color="#1b5eaf"/>
      <stop offset="1" stop-color="#003087"/>
    </linearGradient>
  </defs>
  <g id="apple" class="cls-37">
  <g>
    <g>
      <rect class="cls-17" x="220.79" y="172.09" width="99.14" height="162.44" rx="14.24" ry="14.24" transform="translate(-17.99 485.94) rotate(-82.03)"/>
      <rect class="cls-29" x="221.42" y="167.57" width="99.14" height="162.44" rx="14.24" ry="14.24" transform="translate(-12.97 482.67) rotate(-82.03)"/>
      <g>
        <path class="cls-7" d="m284.7,253c.54-4.08,2.82-6.88,6.86-8.63-1.67-3.27-4.59-5.36-8.71-6.26-3.9-.86-8.56,1.14-10.14.92-1.66-.23-5.17-2.95-8.17-3.37-6.2-.77-13.45,3.15-14.83,12.99-.41,2.91-.29,5.98.33,9.23.85,4.27,4.57,14.97,9.95,15.55,2.8.33,5.05-1.31,8.69-.8,3.64.51,5.08,2.73,8.2,3.17,5.41.67,11.31-7.74,13.23-11.64-6.75-4.42-5.44-10.94-5.41-11.15Z"/>
        <path class="cls-7" d="m280.98,233.91c3.53-3.17,3.72-6.48,3.79-7.67-2.7-.22-6.02,1.02-8.07,2.81-2.25,1.92-3.77,4.48-3.95,7.58,2.86.62,5.71-.49,8.24-2.73h0Z"/>
      </g>
    </g>
            <animateTransform
      attributeName="transform"
      type="translate"
      values="0,0;0,-50;0,0;"
      begin="0s"
      dur="10s"
      repeatCount="indefinite"/>
      </g>
          <animateTransform
      attributeName="transform"
      type="rotate"
      values="0, 250, 250; -15, 250, 250; 15, 250, 250; 0,250,250"
      begin="0s"
      dur="5s"
      repeatCount="indefinite"/>
  </g>
  <g id="walmart" class="cls-54">
  <g>
    <g>
      <rect class="cls-24" x="847.26" y="155.09" width="108.66" height="178.04" rx="15.61" ry="15.61" transform="translate(356.87 1002.88) rotate(-69.48)"/>
      <rect class="cls-1" x="849.01" y="150.41" width="108.66" height="178.04" rx="15.61" ry="15.61" transform="translate(362.39 1001.48) rotate(-69.48)"/>
      <g>
        <path class="cls-7" d="m920.75,272.35c-.1.26-.22.52-.38.72-.65.87-1.97,1.31-3.23.84-1.05-.39-1.66-1.3-1.19-2.56.72-1.93,3.05-1.67,5.46-.74l-.66,1.75h0Zm5.05-1.94c1.19-3.18.88-6.48-3.71-8.2-2.36-.88-4.47-.92-5.72-.71l-.21,2.84c1.16-.24,2.82-.17,4.23.36,2.33.87,2.21,2.33,1.9,3.18l-.07.2c-5.08-1.9-8.94-1.35-10.28,2.23-.82,2.19.05,4.86,2.89,5.92,1.74.65,3.47.51,4.76-.29l.08.03s-.33,2.64,3.21,2.91c.21-1.07.56-2.17,1.04-3.46l1.87-4.99m-75.26-39.93s-1.78,14.84-2.07,17.24c-.35,2.81.41,4.17,3.86,4.74l5.23-7.65c1.31-1.9,2.22-3.26,3.36-5.26l.06.02c-.57,2.24-.79,3.84-1.13,6.1,0,0-.59,4.15-.91,6.31-.32,2.17.41,3.89,3.82,4.38l11.93-16.84-3.98-1.49-4.71,7.45c-1.33,2.18-2.43,3.86-3.55,5.9l-.06-.02c.51-2.24.8-4.14,1.2-6.61l1.33-8.89-4.15-1.55-4.88,7.32c-1.45,2.24-2.68,4.03-3.78,5.99l-.06-.02c.4-2.08.9-4.71,1.32-7.25,0,0,1.03-6.16,1.38-8.28l-4.2-1.57m26.55,25.53c-.1.26-.22.52-.38.72-.65.87-1.97,1.31-3.23.84-1.05-.39-1.66-1.3-1.19-2.56.72-1.93,3.05-1.67,5.46-.74l-.66,1.75h0Zm5.05-1.94c1.19-3.18.88-6.48-3.71-8.2-2.36-.88-4.48-.92-5.72-.71l-.21,2.84c1.16-.24,2.82-.17,4.23.36,2.33.87,2.22,2.34,1.91,3.18l-.07.2c-5.08-1.9-8.94-1.35-10.28,2.23-.82,2.19.04,4.85,2.89,5.92,1.75.66,3.47.51,4.76-.29l.08.03s-.33,2.64,3.21,2.91c.21-1.07.56-2.17,1.04-3.46l1.87-4.99m4.67,6.78l5.51-14.72-3.79-1.42-6.99,18.68,3.79,1.42,1.49-3.97m55.17,3.87l-5.16,13.79c-.71,1.9-.85,3.36-.39,4.47.41.96,1.33,1.83,2.65,2.33,1.12.42,2.31.62,2.89.62l1.06-2.99c-.42-.05-.9-.14-1.51-.37-1.29-.48-1.41-1.47-.77-3.18l1.97-5.27,3.31,1.24,1.34-3.58-3.31-1.24,1.65-4.42-3.75-1.4m-11.54.98l-5.26,14.04,3.91,1.47,2.69-7.19c.14-.38.3-.72.47-1.01.85-1.4,2.37-1.93,4.02-1.32.45.17.76.34,1.09.53l1.37-3.67c-.28-.17-.46-.27-.83-.41-1.46-.55-3.48-.23-4.93,1.54l-.1-.04.99-2.65-3.44-1.29m-37.2-13.93l-5.26,14.04,3.81,1.43,3.08-8.23c.14-.38.34-.78.61-1.09.63-.71,1.76-1.39,3-.93,1.54.57,1.77,2.15,1.07,4.02l-2.99,8,3.81,1.43,3.12-8.34c.14-.37.35-.8.59-1.08.66-.83,1.78-1.29,2.93-.86,1.56.59,1.83,2.15,1.01,4.36l-2.88,7.69,3.81,1.43,3.1-8.27c1.63-4.36.07-6.91-2.43-7.85-1.11-.41-2.08-.46-3.06-.28-.82.16-1.63.52-2.44,1.09l-.06-.02c-.03-1.74-1.08-3.27-2.93-3.96-2.38-.89-3.89-.08-4.92.69l-.06-.02.72-1.91-3.62-1.36"/>
        <g>
          <path class="cls-41" d="m909.25,220.4c.76.28,1.52.12,1.8-.35l3.9-8.15c.31-.83-.41-1.88-1.63-2.34s-2.46-.14-2.77.69l-2.42,8.71c-.11.54.37,1.16,1.12,1.44h0m-5.54.93c.62-.52.87-1.26.59-1.73l-5.1-7.45c-.56-.69-1.83-.59-2.85.25-1.01.83-1.35,2.06-.78,2.74l6.33,6.44c.41.36,1.2.26,1.81-.25h0m9.11,3.41c.13.8.66,1.38,1.2,1.38l9.01-.7c.88-.15,1.42-1.29,1.21-2.58-.22-1.29-1.11-2.2-1.98-2.06l-8.74,2.27c-.52.18-.82.9-.69,1.7h0m-7.52,6.19c.76.28,1.23.91,1.12,1.45l-2.4,8.7c-.31.83-1.54,1.15-2.77.69s-1.94-1.51-1.63-2.34l3.89-8.14c.27-.47,1.04-.64,1.79-.36h0m5.55-.92c.62-.52,1.4-.61,1.81-.25l6.33,6.44c.56.69.22,1.91-.78,2.75-1.01.83-2.28.93-2.84.24l-5.1-7.44c-.27-.48-.03-1.22.59-1.73h0m-9.11-3.41c.13.8-.17,1.52-.69,1.7l-8.74,2.26c-.88.14-1.77-.76-1.99-2.05s.34-2.44,1.21-2.59l9.01-.7c.54,0,1.07.58,1.2,1.38h0"/>
          <path class="cls-41" d="m919.69,240.18l.06.02c.07.03.13.02.15-.03.02-.06-.02-.1-.08-.13l-.07-.02-.06.16h0Zm-.14.37l-.21-.08.25-.66s.16.03.3.08c.15.06.21.1.24.15.03.04.05.1.02.17s-.11.1-.21.09h0c.06.06.08.13.07.23-.02.1-.01.15-.01.18l-.23-.09s0-.09,0-.16c.02-.07,0-.12-.07-.15l-.07-.02-.09.24h0Zm.41-.85c-.29-.11-.6.04-.72.35s.02.62.32.73.62-.05.73-.35-.02-.62-.32-.73h0Zm.08-.17c.4.15.61.59.46.99s-.6.6-1,.45-.62-.6-.47-1,.59-.59,1.01-.43h0"/>
        </g>
      </g>
    </g>
            <animateTransform
      attributeName="transform"
      type="translate"
      values="0,0;0,-50;0,0;"
      begin="0s"
      dur="10s"
      repeatCount="indefinite"/>
      </g>
                <animateTransform
      attributeName="transform"
      type="rotate"
      values="0, 900, 250; -10, 900, 250; 0,900, 250;"
      begin="0s"
      dur="5s"
      repeatCount="indefinite"/>
  </g>
  <g id="amazon" class="cls-32">
    <g>
    <g>
      <rect class="cls-15" x="322.41" y="159.48" width="178.04" height="108.66" rx="15.61" ry="15.61" transform="translate(-34.11 85.43) rotate(-11.39)"/>
      <rect class="cls-80" x="321.42" y="154.58" width="178.04" height="108.66" rx="15.61" ry="15.61" transform="translate(-33.16 85.14) rotate(-11.39)"/>
      <g>
        <path class="cls-16" d="m427.08,221.84c-5.52,6.1-14.45,10.56-22.59,12.2-11.4,2.3-22.47.15-31.67-5.28-.7-.43-.34-1.28.49-1,9.35,3.19,20.28,4.02,30.98,1.86,7.2-1.45,14.84-4.54,21.52-9.12,1.01-.65,2.16.34,1.25,1.34h0Z"/>
        <path class="cls-16" d="m429.17,218.19c-1.04-.89-5.61.6-7.64,1.29-.61.2-.84-.32-.33-.83,3.2-3.39,9.46-3.83,10.34-3.1s1.21,7.04-1.7,10.66c-.46.54-1.02.41-.9-.23.39-2.13,1.28-6.85.23-7.78h0Z"/>
        <path class="cls-8" d="m417.75,200.1l-.52-2.56c-.08-.39.15-.68.5-.75l11.4-2.3c.35-.07.72.14.79.49l.44,2.17c.07.35-.15.89-.54,1.78l-4.21,9.6c2.2-.48,4.57-.64,6.77.07.48.15.68.52.79.86l.55,2.72c.08.39-.23.9-.71.75-3.87-1.15-8.59-.4-12.02,2.46-.35.28-.86-.03-.94-.42l-.52-2.6c-.08-.39-.22-1.1.08-1.81l4.87-11.17-5.94,1.2c-.35.07-.72-.14-.79-.49h0Zm-38.37,24.22l-3.46.7c-.32.02-.64-.16-.75-.46l-3.58-17.77c-.07-.35.19-.69.54-.76l3.23-.65c.35-.07.64.16.75.46l.47,2.32.08-.02c.37-2.41,1.78-3.8,3.89-4.22s3.75.35,5.15,2.4c.37-2.41,2.09-3.86,4.13-4.27,1.45-.29,3.15-.02,4.41,1.16,1.4,1.27,1.6,3.48,1.99,5.41l2.26,11.24c.07.35-.19.69-.54.76l-3.42.69c-.36.03-.69-.19-.75-.5l-1.9-9.44c-.15-.75-.45-2.65-.75-3.33-.51-1.12-1.33-1.32-2.36-1.12-.82.17-1.61.9-1.8,1.87s.17,2.46.38,3.48l1.9,9.44c.07.35-.19.69-.54.76l-3.46.7c-.36.03-.69-.19-.75-.5l-1.9-9.44c-.4-1.97-.68-4.97-3.12-4.48s-1.83,3.32-1.41,5.4l1.9,9.44c.02.32-.2.65-.59.73h.02Zm60.19-32.3c5.15-1.04,8.83,2.8,9.96,8.43,1.13,5.63-1.1,10.37-5.98,11.35s-8.67-2.83-9.78-8.34c-1.16-5.54.77-10.43,5.8-11.44h0Zm.74,3.66c-2.56.52-2.01,4.05-1.57,6.21s1.33,6.81,4.05,6.26,2.08-4.31,1.62-6.59c-.3-1.49-.74-3.29-1.46-4.61-.64-1.18-1.52-1.49-2.63-1.27h0Zm17.75,12.79l-3.46.7c-.36.03-.69-.19-.75-.5l-3.59-17.81c-.02-.32.2-.65.55-.72l3.23-.65c.31-.06.6.12.73.38l.55,2.72.08-.02c.49-2.64,1.6-4.05,3.99-4.53,1.53-.31,3.18-.07,4.47,1.27,1.19,1.23,1.67,3.63,2.02,5.37l2.26,11.21c.02.32-.2.61-.56.68l-3.46.7c-.32.02-.64-.16-.74-.42l-1.95-9.68c-.4-1.97-.73-4.84-3.13-4.36-.82.17-1.5.87-1.73,1.82-.25,1.19-.11,2.28.13,3.49l1.93,9.6c.03.36-.23.7-.58.77h0Zm-47.91.81c.27,1.33.54,2.47.12,3.82-.35,1.09-1.1,1.85-2.09,2.05-1.33.27-2.33-.59-2.63-2.09-.59-2.95,1.93-4.03,4.44-4.54l.15.75h.01Zm5.2,7.75c-.2.24-.5.35-.81.24-1.33-.71-1.66-1.14-2.48-1.92-1.5,2.31-2.76,3.18-5.2,3.67-2.91.59-5.55-.77-6.27-4.35-.57-2.83.58-5.02,2.55-6.41,1.73-1.2,4.32-1.89,6.28-2.53l-.09-.43c-.17-.82-.29-1.83-.94-2.43-.56-.54-1.4-.66-2.11-.51-1.33.27-2.39,1.17-2.37,2.65-.02.33-.15.68-.46.75l-3.41.32c-.29-.02-.64-.16-.65-.6-.04-4.25,3.37-6.21,6.67-6.87,1.69-.34,3.98-.35,5.57.67,2,1.23,2.27,3.39,2.73,5.67l1.09,5.39c.32,1.61,1.13,2.19,1.94,2.96.3.27.42.65.18.9-.63.74-1.67,2.09-2.26,2.83h.02Zm-50.62,1.4c.27,1.33.54,2.47.12,3.82-.35,1.09-1.1,1.85-2.09,2.05-1.33.27-2.33-.59-2.63-2.09-.59-2.95,1.93-4.03,4.44-4.54l.15.75h.01Zm5.16,7.75c-.2.24-.5.35-.81.24-1.33-.71-1.66-1.14-2.48-1.92-1.5,2.31-2.76,3.18-5.2,3.67-2.91.59-5.55-.77-6.27-4.35-.57-2.83.58-5.02,2.55-6.41,1.73-1.2,4.32-1.89,6.28-2.53l-.09-.43c-.17-.82-.29-1.83-.94-2.43-.56-.54-1.4-.66-2.11-.51-1.33.27-2.39,1.17-2.37,2.65-.02.33-.15.68-.46.75l-3.41.32c-.29-.02-.64-.16-.65-.6-.04-4.25,3.37-6.21,6.67-6.87,1.69-.34,3.98-.35,5.57.67,2,1.23,2.27,3.39,2.73,5.67l1.09,5.39c.32,1.61,1.13,2.19,1.94,2.96.3.27.42.65.18.9-.63.74-1.67,2.09-2.26,2.83h.02Z"/>
      </g>
    </g>
          <animateTransform
      attributeName="transform"
      type="translate"
      values="0,0;0,20;0,0;"
      begin="0s"
      dur="10s"
      repeatCount="indefinite"/>
      </g>
      <animateTransform
      attributeName="transform"
      type="rotate"
      values="0, 600, 200; 10, 600, 200; 0,600,200"
      begin="0s"
      dur="5s"
      repeatCount="indefinite"/>
  </g>
  <g id="uber" class="cls-22">
    <g>
    <g>
      <rect class="cls-76" x="651.88" y="147.19" width="178.04" height="108.66" rx="15.61" ry="15.61" transform="translate(-25.78 159.84) rotate(-12.1)"/>
      <rect class="cls-95" x="650.83" y="142.3" width="178.04" height="108.66" rx="15.61" ry="15.61" transform="translate(-24.78 159.51) rotate(-12.1)"/>
      <g>
        <path class="cls-7" d="m739.83,209.25l.39,1.84c-2.12-1.11-4.65-1.51-7.2-.96l-.28.06h-.07c-6.01,1.3-9.84,7.22-8.55,13.23,1.29,6.01,7.2,9.84,13.22,8.55l.33-.07.09-.02c2.5-.54,4.6-1.91,6.09-3.75l.4,1.87,5.32-1.14-4.45-20.73-5.29,1.13h0Zm2.29,10.31h0c.75,3.49-1.47,6.92-4.95,7.67l-.09.02c-3.52.74-6.98-1.51-7.74-5.03s1.49-7.01,5.02-7.77h.03c3.52-.73,6.95,1.52,7.71,5.03,0,0,.02.08.02.08Z"/>
        <path class="cls-7" d="m774,201.37c-5.55,1.19-8.98,4.29-8.05,8.64.65,3.02,3.22,4.53,8.06,4.49l5.32.07c2.08-.05,2.73.37,2.9,1.18.28,1.3-1.08,2.44-3.5,2.96-3.07.66-4.97.37-6.15-1.79l-5.38,1.15c1.7,4.15,5.6,6.32,12.23,4.89h0c6.14-1.32,9-4.93,8.14-8.91-.61-2.83-3.11-4.5-7.59-4.49l-4.73.05c-2.73.08-3.67-.22-3.87-1.17-.27-1.25.84-2.29,3.18-2.79,2.53-.54,4.53-.27,5.57,1.92l5.32-1.14c-1.23-4.24-5.01-6.44-11.46-5.06h0Z"/>
        <path class="cls-7" d="m750.16,200.85l1.27,5.91-4.04.87,1.01,4.69,4.05-.87,2.36,11.02h0c.59,2.77,3.32,4.53,6.09,3.94.22-.05.42-.1.62-.17h-.03s5.76-1.23,5.76-1.23l-1.03-4.69-4,.86c-1.22.26-2.12-.1-2.35-1.19l-2.08-9.7,6-1.29-1-4.66-5.98,1.28-1.27-5.91-5.38,1.15h0Z"/>
        <polygon class="cls-7" points="698.8 210.36 704.79 238.31 724.86 234.01 723.83 229.22 709.19 232.35 707.71 225.44 721.96 222.39 720.97 217.78 706.72 220.84 705.25 213.98 719.89 210.84 718.86 206.06 698.8 210.36"/>
        <path d="m730.34,174.01l-.31.07h0c-2.88.62-5.24,2.35-6.72,4.65l-2.2-10.27-4.12.88,6.01,28.01,4.08-.87-.55-2.56c2.3,1.49,5.18,2.1,8.07,1.48h0l.29-.06c5.9-1.26,9.64-7.07,8.38-12.96-1.26-5.89-7.07-9.64-12.96-8.38h.03Zm3.26,17.86c-3.91.84-7.77-1.65-8.61-5.57-.42-1.95-.01-3.87.97-5.42,1-1.55,2.57-2.73,4.51-3.17l.08-.02c3.91-.84,7.77,1.65,8.61,5.57.84,3.92-1.65,7.77-5.57,8.61h0Z"/>
        <path d="m753.4,169.08l-.2.04h0c-5.87,1.26-9.61,7.04-8.35,12.91s7.04,9.61,12.91,8.35l.44-.09.21-.04c3.56-.76,6.36-3.14,7.79-6.2v-.03s-3.43-1.52-3.43-1.52c-.93,2.11-2.81,3.75-5.2,4.27l-.15.03-.08.02c-3.42.73-6.8-1.15-8.05-4.3v-.04s16.88-3.62,16.88-3.62l-.29-1.33-.09-.4c-1.21-5.64-6.76-9.23-12.4-8.02h0Zm-4.71,10.16c-.04-3.09,2.06-5.84,5.13-6.55l.09-.02c3.13-.67,6.21.99,7.44,3.8v.04s-12.66,2.72-12.66,2.72h0Z"/>
        <path d="m774.85,164.72h-.05c-2.01.44-3.55,1.89-4.19,3.69v.03s-.54-2.52-.54-2.52l-4.08.87,4.38,20.42,4.12-.88-2.49-11.61c-.05-.14-.1-.32-.14-.49-.56-2.59,1.09-5.14,3.67-5.71l1.74-.37-.81-3.76-1.6.34h0Z"/>
        <path d="m691.19,174.88l3.76,17.52c.03.16.06.33.1.51,1.24,5.78,6.93,9.46,12.71,8.22l.37-.08h-.02s.16-.03.16-.03c2.88-.62,5.24-2.35,6.72-4.65h0l.56,2.6,4.24-.91-6.01-28.02-4.28.92,3.71,17.3c.03.13.07.27.1.43.83,3.87-1.64,7.68-5.51,8.51s-7.68-1.64-8.51-5.51c-.03-.15-.07-.3-.09-.45v.02s-3.71-17.3-3.71-17.3l-4.32.93h.02Z"/>
      </g>
    </g>
                      <animateTransform
      attributeName="transform"
      type="translate"
      values="0,0;0,30;0,0;"
      begin="0s"
      dur="10s"
      repeatCount="indefinite"/>
      </g>
          <animateTransform
      attributeName="transform"
      type="rotate"
      values="0, 750, 200; -15, 750, 200; 15, 750, 200; 0,750, 200"
      begin="0s"
      dur="5s"
      repeatCount="indefinite"/>
  </g>
  <g id="btc">
    <g>
      <circle class="cls-79" cx="596.49" cy="99.68" r="35.04"/>
      <path class="cls-38" d="m569.44,89.54l-4.38-1.64c2.96-7.9,8.72-14.34,16.21-18.14l2.12,4.17c-6.44,3.27-11.39,8.81-13.94,15.61h0Z"/>
      <path class="cls-38" d="m567.89,95.53l-4.62-.68c.2-1.34.48-2.68.83-3.98l4.51,1.23c-.31,1.12-.55,2.28-.72,3.43h0Z"/>
      <circle class="cls-42" cx="596.49" cy="99.68" r="26.84"/>
      <path class="cls-43" d="m578.73,110.34c-5.07-13.93,2.1-29.33,16.03-34.41,3.5-1.28,7.1-1.78,10.6-1.59-5.65-1.98-11.99-2.09-18.06.11-13.93,5.07-21.11,20.48-16.03,34.41,3.8,10.42,13.38,17.07,23.81,17.62-7.33-2.57-13.48-8.28-16.35-16.14h0Z"/>
      <path class="cls-7" d="m603.24,96.27s2.09-1.38,1.03-5.19c-.79-2.85-5.24-4.33-8.88-2.75l-1.51-4.64-2.88.96,1.61,4.79-2.16.68-1.64-4.62-2.87,1,1.72,4.65-5.59,2.23.98,3.08,2.23-.85s1.52-.9,2.15.81c.63,1.71,4.26,11.58,4.26,11.58,0,0,.61,1.51-.66,1.97-1.27.46-1.64.5-1.64.5l.43,3.76,5.82-2.17,1.54,4.59,2.87-1-1.77-4.69,2.19-.77,1.64,4.7,2.91-1.04-1.73-4.7s7.77-2.07,5.98-8.88c-1.03-3.9-6.03-4-6.03-4h0Zm-11.59-3.01s6.46-3.07,7.67.24c1.45,3.97-5.56,5.41-5.56,5.41l-2.11-5.65Zm5.37,14.44l-2.22-6.01s7.71-3.69,8.92-.02c1.42,4.33-6.7,6.02-6.7,6.02h0Z"/>
    </g>
  </g>
  <g id="bnb">
    <g>
      <circle class="cls-67" cx="471.47" cy="324.45" r="33.19"/>
      <path class="cls-38" d="m450.68,306.66l-3.36-2.88c5.2-6.07,12.41-9.93,20.3-10.89l.53,4.39c-6.79.82-13,4.15-17.47,9.37h0Z"/>
      <path class="cls-38" d="m447.36,311.49l-3.9-2.1c.61-1.13,1.29-2.23,2.03-3.28l3.61,2.56c-.64.9-1.22,1.85-1.75,2.82h0Z"/>
      <circle class="cls-50" cx="471.47" cy="324.45" r="25.42"/>
      <path class="cls-40" d="m452.21,328.18c0-14.04,11.38-25.42,25.42-25.42,3.53,0,6.89.72,9.95,2.02-4.38-3.59-9.99-5.75-16.11-5.75-14.04,0-25.42,11.38-25.42,25.42,0,10.51,6.38,19.53,15.47,23.4-5.69-4.66-9.31-11.74-9.31-19.67h0Z"/>
      <g>
        <rect class="cls-7" x="481.55" y="321.88" width="5.04" height="5.22" transform="translate(-87.67 437.33) rotate(-45)"/>
        <polygon class="cls-7" points="465.85 321.71 471.78 315.78 471.82 315.81 474.44 318.43 477.78 321.77 481.35 318.21 471.62 308.48 462.13 317.98 465.85 321.71"/>
        <polygon class="cls-7" points="477.78 327.09 474.51 330.36 471.85 333.02 469.19 330.36 465.85 327.03 461.93 330.95 471.62 340.64 481.48 330.78 477.78 327.09"/>
        <rect class="cls-7" x="469.5" y="322.04" width="4.63" height="4.72" transform="translate(-91.19 428.64) rotate(-45)"/>
        <rect class="cls-7" x="456.6" y="321.83" width="5.55" height="5.27" transform="translate(-94.88 419.86) rotate(-45)"/>
      </g>
    </g>
  </g>
  <g id="ltc">
    <g>
      <circle class="cls-62" cx="143.89" cy="156.26" r="29.74"/>
      <path class="cls-38" d="m120.07,150.46l-3.85-.94c1.7-6.96,5.9-12.96,11.82-16.92l2.2,3.3c-5.1,3.4-8.71,8.58-10.17,14.56h0Z"/>
      <path class="cls-38" d="m119.38,155.66l-3.96-.1c.03-1.15.13-2.3.3-3.44l3.92.58c-.15.98-.23,1.97-.26,2.96h0Z"/>
      <circle class="cls-4" cx="143.89" cy="156.26" r="22.78"/>
      <path class="cls-31" d="m130.01,167.04c-5.68-11.22-1.2-24.93,10.03-30.61,2.82-1.43,5.8-2.22,8.77-2.41-4.96-1.1-10.32-.55-15.2,1.92-11.22,5.68-15.71,19.39-10.03,30.61,4.25,8.4,13,13.02,21.84,12.44-6.43-1.43-12.2-5.61-15.41-11.95h0Z"/>
      <polygon class="cls-7" points="146.24 162.22 145.05 157.23 146.56 155.54 145.46 151.53 144.06 153.1 141.93 144.16 134.72 147.81 137.69 160.26 136.29 161.82 137.3 165.92 138.67 164.39 140.35 171.38 141.93 170.58 147.56 167.73 157.55 162.67 156.15 157.2 146.24 162.22"/>
    </g>
  </g>
  <g id="doge">
    <g>
      <circle class="cls-68" cx="1070.25" cy="174.87" r="32.2"/>
      <path class="cls-38" d="m1053.73,154.09l-2.67-3.36c6.07-4.82,13.65-7.17,21.35-6.62l-.3,4.28c-6.62-.47-13.15,1.55-18.37,5.71h0Z"/>
      <path class="cls-38" d="m1049.69,158.08l-3.32-2.72c.79-.96,1.64-1.88,2.54-2.75l2.97,3.1c-.77.74-1.51,1.53-2.19,2.36h0Z"/>
      <circle class="cls-61" cx="1070.25" cy="174.87" r="24.66"/>
      <path class="cls-44" d="m1051.22,174.87c2.59-13.37,15.53-22.11,28.9-19.52,3.36.65,6.43,1.96,9.1,3.76-3.51-4.23-8.46-7.32-14.28-8.45-13.37-2.59-26.31,6.15-28.9,19.52-1.94,10.01,2.47,19.77,10.42,25.14-4.56-5.49-6.71-12.9-5.24-20.45h0Z"/>
      <g>
        <path class="cls-10" d="m1068.93,158.73c.09-.07.17-.14.26-.21.11.07.22.13.33.2.08.66.27,1.35.07,2.01-.11.45-.3.91-.16,1.38.05.26.26.42.44.6-.14.07-.27.14-.42.2-.57.11-1.06.41-1.53.74l-.45-.09c1.03-.84,1.65-2.09,1.9-3.37.12-.54-.22-1.02-.44-1.47h0Z"/>
        <path class="cls-59" d="m1069.52,158.73c.75.6,1.14,1.58,1.19,2.52.04.51.28.96.56,1.37-.01.06-.05.17-.06.23-.41-.23-.93-.43-1.35-.11-.17-.18-.39-.35-.44-.6-.15-.46.05-.93.16-1.38.2-.67.02-1.35-.07-2.01h0Z"/>
        <path class="cls-66" d="m1068.93,158.73c.22.45.55.92.43,1.45-.25,1.29-.87,2.54-1.9,3.37l-.23-.04c.46-.48.94-1.02,1.12-1.69.26-.94.14-1.94.42-2.88.03-.04.12-.16.15-.22h0Z"/>
        <path class="cls-69" d="m1068.36,160.25c.1-.44.15-.91.41-1.29-.28.93-.17,1.95-.42,2.88-.17.67-.64,1.2-1.12,1.69l-.14-.03c.69-.95,1.04-2.11,1.27-3.25h0Z"/>
        <path class="cls-52" d="m1080.5,162.06c.4-.52,1.24-.35,1.67.04.38.47.38,1.12.41,1.7-.03,1.11-.08,2.24-.52,3.27-.25.58-.43,1.22-.96,1.63-.05-.17-.11-.33-.15-.51-.04-.25-.06-.51-.09-.76.42-.6.7-1.28.93-1.97.2-.62-.13-1.22-.47-1.72-.1-.64-.47-1.17-.82-1.68h0Z"/>
        <path class="cls-65" d="m1080.44,162.18s.04-.09.06-.12c.36.52.73,1.04.84,1.67-.05.17-.12.35-.32.38-.56.16-1.18.24-1.64.63-.33.28-.86.36-.99.82.05.05.14.15.18.2-.06.06-.19.17-.25.22.05.08.1.15.16.24.33-.23.76-.17,1.13-.24-.09.13-.16.25-.25.38.16,0,.32-.01.47,0-.23.18-.48.33-.73.47l-.09-.07c-.25-.18-.47-.43-.78-.5,0-.05-.02-.15-.03-.19-.17-.05-.34-.1-.48-.19.07-.1.19-.31.27-.42-.1.03-.31.07-.42.11.33-.37.66-.75,1-1.13.03-.03.07-.09.1-.11.47-.58,1.07-1,1.55-1.58.16-.16.19-.38.21-.59h0Z"/>
        <path class="cls-72" d="m1080.44,162.18c-.03.22-.06.43-.21.59-.47.57-1.08,1-1.55,1.58.1-.54.27-1.07.71-1.43.41-.14.77-.41,1.06-.73h0Z"/>
        <path class="cls-58" d="m1077.38,164.11c.77-.22,1.28-.91,2.01-1.19-.44.36-.62.89-.71,1.43-.02.03-.07.09-.1.11.05-.2.07-.41.09-.63-.47.62-.96,1.22-1.58,1.71-.27-.14-.57-.22-.87-.28.23-.29.5-.53.78-.76-1.11-.5-2.37-.47-3.53-.81.87-.08,1.72.05,2.58.12.46.04.86.36,1.32.31h0Z"/>
        <path class="cls-25" d="m1081.34,163.73c.34.5.66,1.11.47,1.72-.22.7-.5,1.38-.93,1.97-.25.14-.51.26-.75.39-.09-.09-.18-.2-.28-.29l-.04-.04c.49-.66,1.17-1.24,1.37-2.07-.65-.1-1.32-.12-1.98-.04-.26.01-.44.22-.62.4-.05-.05-.14-.15-.18-.2.12-.45.67-.54.99-.82.47-.39,1.08-.47,1.64-.63.19-.04.28-.22.32-.38h0Z"/>
        <path class="cls-45" d="m1078.66,163.84c-.01.21-.03.41-.09.63-.33.38-.66.75-1,1.13.1-.03.31-.07.42-.11-.07.1-.19.31-.27.42-.21-.12-.42-.24-.64-.35.6-.5,1.1-1.11,1.57-1.72h0Z"/>
        <path class="cls-14" d="m1069.87,162.72c.43-.3.95-.11,1.35.11.73.3,1.5.57,2.25.85,1.16.34,2.41.31,3.53.81-.28.23-.55.49-.78.76-1.91-.37-3.82-.73-5.73-1.11-.03-.29.02-.63-.19-.85s-.55-.29-.84-.37c.15-.06.28-.13.42-.2h0Z"/>
        <path class="cls-56" d="m1067.93,163.65c.47-.32.96-.63,1.53-.74.29.09.63.15.84.37s.16.58.19.85c-.86-.15-1.71-.32-2.56-.48h0Z"/>
        <path class="cls-83" d="m1079.18,165.36c.66-.08,1.32-.07,1.98.04-.2.83-.88,1.41-1.37,2.07-.21-.23-.45-.43-.69-.64.26-.14.5-.3.73-.47-.16,0-.32,0-.47,0,.09-.13.16-.25.25-.38-.38.06-.8,0-1.13.24l-.16-.24c.06-.06.19-.17.25-.22.17-.16.35-.38.61-.39h0Z"/>
        <path class="cls-47" d="m1064.76,163.05c.78.14,1.56.3,2.33.45l3.38.66c1.9.38,3.82.74,5.73,1.11.3.06.6.14.87.28.22.1.43.22.64.35.16.09.32.15.48.19,0,.05.02.15.03.19.31.07.54.3.78.5-.27.42-.69.68-1.09.96.25.22.52.45.74.7.4-.28.8-.6,1.18-.91.09.09.18.2.28.29.2.21.37.43.55.66,1.52,2,1.97,4.61,1.68,7.05-.04.33-.1.64-.15.96-.26,1.25-.61,2.49-1.17,3.64-.39.8-.87,1.56-1.46,2.23-.4.42-.82.82-1.31,1.14-.32.22-.64.43-.98.6-.12-.1-.25-.2-.36-.29-.25.09-.5.25-.79.19-.37-.05-.76.05-1.13.04.46-.47,1.26-.72,1.29-1.48-.2-.03-.41-.05-.61-.09.12-.25.23-.5.34-.75-.06-.06-.18-.17-.23-.23.28-.21.55-.41.81-.63-.47.02-.92.17-1.38.25,1.05-1.04,2.03-2.17,2.89-3.37.5-.76,1.13-1.47,1.31-2.38.15-.58-.13-1.15-.03-1.74.08-.68.23-1.44-.24-2.02-.99,0-1.92-.36-2.85-.65-.24-.08-.51-.09-.77-.1-.04-.06-.07-.13-.1-.18-.24-.35-.49-.72-.87-.95-.36-.13-.75-.16-1.12-.23l-.04-.02c-.38-.26-.76-.58-1.24-.59-.4-.04-.7.27-1.04.4-.36.14-.71.29-1.02.54.22.61.73,1.02,1.3,1.29-.09.35-.19.71-.29,1.04-.39.05-.76.16-1.13.33-.1-.39-.1-.8-.19-1.2-.12-.26-.33-.47-.52-.71-.08.15-.15.29-.23.44-.12.04-.24.08-.37.12.04-.28.08-.54.08-.82-.01-.51-.29-.94-.38-1.43.12-.46.35-.88.45-1.35-.25.05-.5.09-.74.15-.33.06-.55.36-.85.49-.29.07-.57.05-.85.07l.05-.09c.28-.17.41-.46.53-.75-.17.04-.34.08-.51.14-.14-.31.18-.43.38-.58-.21-.28-.51-.52-.86-.46-.61.09-.98.68-1.15,1.22-.24-.03-.47-.08-.7-.12.13-.15.24-.3.37-.46-.07-.27-.3-.43-.53-.56.14-.64.25-1.27.37-1.92.04-.19.08-.37.12-.56.1-.33.12-.73.34-1.05h0Z"/>
        <path class="cls-85" d="m1079.02,166.76l.09.07c.25.2.48.41.69.64l.04.04c-.38.31-.76.63-1.18.91-.22-.25-.49-.48-.74-.7.41-.27.83-.54,1.1-.96h0Z"/>
        <path class="cls-13" d="m1061.59,168.25c.56-1.6,1.39-3.2,2.86-4.12-.04.19-.07.37-.12.56-1,.71-1.7,1.77-2.15,2.9-.16.38-.41.71-.65,1.05.01-.12.02-.25.06-.38h0Z"/>
        <path class="cls-23" d="m1080.12,167.82c.26-.12.5-.25.75-.39.03.25.05.5.09.76-.08.07-.23.21-.3.29-.15-.23-.35-.45-.54-.66h0Z"/>
        <path class="cls-34" d="m1062.17,167.59c.45-1.12,1.15-2.19,2.15-2.9-.12.64-.23,1.28-.37,1.92-.46.26-.74.77-1.28.88-.14.33-.33.64-.59.89-.18.16-.38.31-.57.47,0-.05.01-.14.03-.2.23-.34.47-.68.64-1.05h0Z"/>
        <path class="cls-39" d="m1065.97,166.52c.37-.05.67.18.86.46-.2.15-.53.27-.38.58.17-.04.34-.08.51-.14-.12.29-.25.58-.53.75-.3-.11-.62-.17-.94-.2.06-.18.11-.38.19-.54.17-.13.39-.16.59-.22-.09-.13-.15-.29-.28-.39-.36.03-.75.21-.88.58-.02.17-.03.34-.04.51-.06-.01-.17-.05-.23-.06h-.07s.05-.13.05-.13c.17-.55.54-1.13,1.15-1.22h0Z"/>
        <path class="cls-94" d="m1080.1,169.49c.3-.04.62-.08.94-.1.14.48-.04.94-.34,1.33l.32.06c-.05.37-.16.9-.61.93-.13-.58-.66-1-.69-1.62.06-.23.25-.41.39-.6h0Z"/>
        <path class="cls-78" d="m1065.11,167.4c.12-.36.51-.56.88-.58.13.1.19.26.28.39-.2.06-.41.09-.59.22-.08.17-.13.36-.19.54-.11,0-.31-.03-.41-.05,0-.16,0-.34.02-.51h0Z"/>
        <path class="cls-90" d="m1068.07,167.71c.25-.06.5-.1.74-.15-.1.46-.33.89-.45,1.35.09.49.36.94.38,1.43,0,.27-.04.55-.08.82.12-.04.24-.08.37-.12.08-.15.15-.29.23-.44.18.23.38.44.52.71.09.39.09.81.19,1.2.35-.17.73-.28,1.13-.33.1-.35.2-.7.29-1.04l.03-.15c-.18-.22-.49-.39-.45-.72.05-.41.37-.71.71-.9.08.03.15.06.23.09.16.02.25-.06.28-.23.2.03.42.08.62.13-.27.24-.59.47-.96.46-.04.19-.07.38-.1.59-.05.19-.11.39-.16.58l-.03.13c-.09.45-.18.92-.25,1.38-.45,2.3-.9,4.58-1.33,6.87,0,.05,0,.14.01.19,1.05.13,2.16.68,3.19.18,1.43-.66,2.25-2.13,2.67-3.59.48-1.72.53-3.65-.29-5.28.26,0,.53.02.77.1.93.29,1.86.67,2.85.65.45.58.31,1.35.24,2.02-.09.59.18,1.16.03,1.74-.19.91-.81,1.63-1.31,2.38-.86,1.2-1.83,2.32-2.89,3.37.46-.08.91-.23,1.38-.25-.27.22-.54.43-.81.63.06.06.18.17.23.23-.11.25-.23.5-.34.75.2.03.41.05.61.09-.02.76-.83,1.03-1.29,1.48.38.01.76-.09,1.13-.04.28.05.53-.12.79-.19.12.1.25.2.36.29-1.65.82-3.57,1.05-5.38.66-1.57-.3-3.14-.6-4.71-.93l-3.99-.77c-.67-.13-1.34-.23-2-.39-.24-.02-.29-.3-.25-.49.07-.54.21-1.06.3-1.6.12-.61.25-1.21.34-1.81.05-.26.14-.52.24-.76.86.08,1.69.35,2.53.45l.3-1.52c.01.2.05.41.07.61.41,0,.88-.02,1.11.4.82-.48,1.85-.26,2.76-.44.27-.44.77-.74.82-1.3-.03-.02-.1-.05-.12-.06-.83-.45-1.76-.05-2.63-.14-.56-.17-1.05-.55-1.34-1.06.06-.12.12-.24.17-.36-.07-.09-.14-.17-.21-.26.04-.25.09-.51.15-.76.14-.28.38-.48.68-.56.17-.44.34-.87.5-1.31-.18-.34-.45-.61-.78-.81l.18-.94c.11-.52.2-1.05.3-1.56,0-.03.03-.09.04-.12.29-.02.57-.01.85-.07.33-.16.53-.45.87-.51h0Z"/>
        <path class="cls-53" d="m1062.66,167.48c.54-.11.82-.62,1.28-.88-.06.3-.1.6-.15.91.08.03.24.08.32.11.24.05.47.08.7.12l-.05.12c-.32-.06-.64-.14-.96-.2-.07.17-.14.34-.18.53-.67.12-1.16.63-1.75.92.05-.25.11-.5.18-.73.26-.27.47-.58.6-.91h0Z"/>
        <path class="cls-75" d="m1063.95,166.61c.23.13.48.28.53.56-.13.15-.24.3-.37.46-.08-.03-.24-.08-.32-.11.05-.31.1-.61.16-.91h0Z"/>
        <path class="cls-39" d="m1071.09,169.3c.35-.13.64-.44,1.04-.4.48,0,.86.33,1.24.59-.2-.04-.4-.08-.6-.13s-.41-.11-.62-.13c-.17-.02-.26.05-.28.23-.08-.03-.16-.07-.23-.09-.34.21-.65.5-.71.9-.03.31.27.5.45.72l-.03.15c-.56-.27-1.08-.68-1.3-1.29.31-.25.66-.4,1.02-.54h0Z"/>
        <path class="cls-11" d="m1063.81,167.66c.32.06.64.14.96.2h.07c.08.29.2.55.44.74.06.07.13.15.19.23-.32.33-.75.57-1.01.96-.19.04-.39.09-.58.11-.03-.03-.11-.1-.14-.12.05-.05.14-.17.19-.22-.12-.06-.26-.11-.39-.17,0-.4.03-.8.08-1.19.05-.19.11-.36.18-.53h0Z"/>
        <path class="cls-18" d="m1064.85,167.87c.06.01.17.05.23.06-.12.47.44.53.77.53-.11-.17-.23-.33-.36-.49.32.03.64.1.94.2l-.05.09s-.03.08-.04.12c-.37,0-.68.34-1.06.22-.21-.18-.35-.44-.43-.71h0Z"/>
        <path class="cls-35" d="m1065.07,167.93c.11,0,.31.03.41.05.12.16.25.32.36.49-.33-.03-.89-.07-.77-.55h0Z"/>
        <path class="cls-6" d="m1071.88,169.45c0-.19.11-.25.28-.23-.02.17-.12.25-.28.23h0Z"/>
        <path class="cls-55" d="m1072.78,169.36c.2.05.4.08.6.13l.04.02c.23.22.46.46.64.73-.35.49-.89.85-1.49.97-.35.03-.7-.06-1.04-.12l.03-.13c.26.05.51.09.78.12-.26-.18-.5-.39-.62-.7.02-.19.06-.38.1-.59.37,0,.69-.2.95-.45h0Z"/>
        <path class="cls-86" d="m1073.44,169.51c.37.07.76.1,1.12.23.38.22.63.59.87.95-.46.32-.8.76-1.21,1.14s-1.01.35-1.51.51c-.46.15-.94.21-1.43.16.09-.46.18-.92.25-1.38.35.05.69.15,1.04.12.59-.12,1.13-.49,1.49-.97-.17-.29-.39-.52-.62-.74h0Z"/>
        <path class="cls-57" d="m1065.29,168.6c.38.11.68-.21,1.06-.22-.1.52-.19,1.05-.3,1.56-.3.02-.63.11-.9-.06-.21-.13-.44-.15-.67-.09.26-.4.69-.62,1.01-.96-.06-.06-.13-.15-.19-.22h0Z"/>
        <path class="cls-82" d="m1072.77,169.66c.38.11-.27.32,0,0h0Z"/>
        <path class="cls-63" d="m1061.89,169.11c.59-.31,1.07-.81,1.75-.92-.05.4-.08.8-.08,1.19.12.06.26.11.39.17-.05.05-.14.17-.19.22-.46.23-1.03.36-1.33.82-.35.58-.45,1.25-.66,1.87-.11-.17-.32-.33-.26-.57.06-.49.28-.93.41-1.42-.29.28-.49.62-.69.96-.1.22-.39.22-.59.29-.19.04-.38.06-.58.1.06-.2.12-.38.2-.58.19.01.38.04.57.05-.2-.03-.41-.05-.61-.08.31-.84.59-1.78,1.28-2.4.19-.15.39-.31.57-.47-.06.25-.11.5-.17.74h0Z"/>
        <path class="cls-2" d="m1072.8,170.14c.39-.11-.04.39,0,0h0Z"/>
        <path class="cls-36" d="m1075.42,170.67c.04.06.08.11.1.18.82,1.63.77,3.56.29,5.28-.21.07-.42.13-.61.22-.34.14-.57.47-.92.61-.59.16-1.24-.03-1.78.27-.34.26-.58.59-.94.79.14.2.28.4.4.61.05.16-.02.33.04.49.13.15.28.28.42.42-.44-.02-.87-.12-1.3-.26-.39-.15-.79,0-1.17.07.43-2.29.89-4.58,1.33-6.87.48.06.97,0,1.43-.16.5-.16,1.1-.12,1.51-.51.41-.38.75-.82,1.21-1.14h0Z"/>
        <path class="cls-36" d="m1071.72,170.39c.12.29.36.52.62.7-.26-.04-.52-.07-.78-.12.05-.19.11-.39.16-.58h0Z"/>
        <path class="cls-71" d="m1064.46,169.8c.23-.05.46-.04.67.09.28.17.6.08.9.06l-.18.9c-.53-.31-1.08-.58-1.7-.66-.09-.09-.17-.18-.27-.27.18-.05.37-.09.57-.13h0Z"/>
        <path class="cls-46" d="m1062.43,170.59c.3-.46.87-.59,1.33-.82.03.03.11.1.14.12.09.09.17.18.27.27-.55-.08-1.16.16-1.33.72-.24.71-.62,1.36-.83,2.08-.17.51.25.95.3,1.43,0,.26-.04.51-.02.77-.14.31-.25.62-.38.93-.11-.02-.21-.04-.32-.05-.16.24-.35.46-.48.72,0,.54.06,1.09.09,1.62-.04.06-.11.17-.14.22-.21-.34-.27-.76-.58-1.01-.05-.16-.12-.33-.19-.49-.35-1-.53-2.07-.48-3.13.1-.29.23-.59.33-.87.13.48,0,1,.22,1.45.21,0,.41-.03.62-.01l.07.14c.27-.27.53-.55.64-.93-.18.16-.34.33-.5.51-.12-.29-.27-.58-.31-.9.02-.35.1-.7.13-1.05-.13,0-.26,0-.38,0l.11-.08c.13-.1.26-.21.4-.32-.14-.05-.29-.1-.43-.13l-.09-.02c.2-.09.48-.08.59-.29.2-.34.41-.69.69-.96-.12.47-.34.92-.41,1.42-.06.23.13.4.26.57.22-.65.33-1.32.68-1.9h0Z"/>
        <path class="cls-55" d="m1062.83,170.9c.17-.56.77-.8,1.33-.72.61.08,1.18.35,1.7.66l-.33,1.73c-.22.15-.41.29-.63.44-.33.19-.73.22-1.11.24-.03.08-.09.22-.13.3s-.11.25-.14.33c-.42-.58-.6-1.26-.81-1.93-.12-.34.03-.71.13-1.05h0Z"/>
        <path class="cls-51" d="m1065.86,170.89c.33.2.6.46.78.81-.17.44-.33.87-.5,1.31-.3.09-.55.28-.68.56.09-.35.1-.72.1-1.08.08-.53.19-1.06.3-1.6h0Z"/>
        <path class="cls-49" d="m1057.72,169.47c.39.03.76.13,1.15.2l-.21.18c.6.07,1.19.23,1.73.51-.5-.21-1.01-.39-1.56-.45-.21-.01-.36-.14-.5-.27-.18-.06-.52.09-.61-.17h0Z"/>
        <path class="cls-9" d="m1061.99,172.98c.21-.71.6-1.37.83-2.08-.1.34-.25.71-.13,1.06.23.66.4,1.35.81,1.93.04-.08.11-.25.14-.33.19.05.36.1.55.14.22.27.47.51.65.8.34-.42.08-.94.21-1.41-.04-.02-.14-.06-.18-.07.2-.15.42-.3.63-.44l-.47,2.43c-.86-.46-1.77-.99-2.8-.86.82.58,1.82.81,2.72,1.24l-.16.81c-.48.1-.92.3-1.39.44-.38-.38-.62-.89-1-1.27-.04-.04-.11-.15-.14-.19-.01-.26.01-.52.02-.77-.04-.51-.46-.94-.29-1.45h-.01Z"/>
        <path class="cls-26" d="m1058.52,171.44c.5-.16,1.05-.18,1.57-.18-.07.11-.18.15-.3.16-.43.03-.85.1-1.26.01h0Z"/>
        <path class="cls-77" d="m1082.34,175.52c.12.67-.03,1.35.09,2.02.08.93.4,1.88.13,2.82-.08-.23-.16-.45-.1-.69.1-.51-.09-1-.11-1.52-.04-.56-.09-1.12-.16-1.67.06-.32.11-.63.15-.96h0Z"/>
        <path class="cls-48" d="m1065.55,172.48c0,.36,0,.73-.1,1.08-.06.25-.11.51-.15.76.07.09.14.17.21.26-.06.12-.12.24-.17.36-.08.17-.12.37-.16.56,1.21.7,2.77,1.34,4.13.64.03.02.1.05.12.06-.05.56-.55.86-.82,1.3-.9.18-1.93-.05-2.76.44-.23-.41-.69-.39-1.11-.4-.02-.2-.06-.41-.07-.61.04-.25.08-.49.13-.74l.7-3.62.03-.11h0Z"/>
        <path class="cls-89" d="m1060.73,171.77c.14.04.29.09.43.13-.13.11-.26.21-.4.32-.27.08-.54.16-.81.23.03-.13.06-.38.07-.5.24-.07.47-.12.7-.17h0Z"/>
        <path class="cls-63" d="m1060.66,172.3c.13,0,.26,0,.38,0-.04.35-.12.69-.13,1.05.04.32.19.6.31.9-.08.1-.15.18-.23.28-.21,0-.42,0-.62.01-.22-.45-.1-.98-.22-1.45-.1.29-.23.59-.33.87.03-.46.05-.93.14-1.39.19-.15.48-.17.71-.27h0Z"/>
        <path class="cls-64" d="m1063.79,173.26c.38-.03.78-.05,1.11-.24.04.02.14.06.18.07-.14.47.12.99-.21,1.41-.18-.29-.43-.54-.65-.8-.19-.05-.36-.1-.55-.14.03-.07.09-.22.12-.29h0Z"/>
        <path class="cls-84" d="m1082.19,176.48c.05.55.1,1.12.16,1.67.03.5.21,1.01.11,1.52-.06.23.02.47.1.69-.23.66.01,1.35-.15,2.01-.06.25-.13.48-.19.73-.06-.17-.13-.33-.23-.49-.21.38-.22.89-.6,1.14-.1-.23-.11-.58-.39-.67-.4-.15-.85-.02-1.18.23-.45.32-1.03.23-1.54.18.48-.33.9-.73,1.31-1.14.26.14.49-.06.72-.17.24-.14.51-.14.77-.22.25-.27.46-.58.61-.92-.02-.24-.09-.49-.1-.72-.13,0-.25.01-.37.01-.04-.06-.13-.15-.18-.21.54-1.15.91-2.39,1.15-3.64h0Z"/>
        <path class="cls-60" d="m1059.38,172.6c.2-.05.15.19,0,.2-.14.03-.31.15-.46.05.02-.18.3-.2.45-.25h0Z"/>
        <path class="cls-97" d="m1075.19,176.34c.2-.09.41-.14.61-.22-.42,1.45-1.23,2.94-2.67,3.59-1.03.51-2.14-.06-3.19-.18,0-.05,0-.14-.01-.19.38-.07.8-.23,1.17-.07.42.14.86.24,1.3.26-.15-.14-.3-.25-.42-.42-.05-.16.02-.33-.04-.49-.12-.21-.27-.41-.4-.61.36-.2.62-.55.94-.79.55-.3,1.21-.1,1.78-.27.36-.14.59-.45.93-.61h0Z"/>
        <path class="cls-93" d="m1061.22,174.25c.16-.18.31-.35.5-.51-.11.38-.37.66-.64.93l-.07-.14c.07-.1.13-.18.21-.28h0Z"/>
        <path class="cls-18" d="m1062.26,174.15c1.02-.12,1.94.4,2.8.86l-.07.38c-.9-.43-1.91-.67-2.72-1.24h0Z"/>
        <path class="cls-49" d="m1065.18,175.51c.04-.19.07-.38.16-.56.28.51.78.89,1.34,1.06.87.09,1.8-.31,2.63.14-1.36.7-2.92.07-4.13-.64h0Z"/>
        <path class="cls-3" d="m1062.28,175.18s.11.15.14.19c-.07.59.19,1.13.37,1.69.14.45.46.82.79,1.15.26.13.54.17.82.24-.86-.1-1.68-.37-2.53-.45-.11.24-.21.49-.24.76-.14-.12-.26-.25-.4-.36-.02-.55-.1-1.08-.09-1.62.14-.26.32-.48.48-.72.11.02.22.03.32.05.1-.32.22-.62.35-.92h0Z"/>
        <path class="cls-81" d="m1062.42,175.37c.38.38.62.89,1,1.27.1.13.19.27.29.41.22.25.54.39.83.53l-.17.86c-.27-.08-.56-.12-.82-.24-.33-.32-.64-.69-.79-1.15-.17-.54-.42-1.08-.35-1.68h0Z"/>
        <path class="cls-19" d="m1063.43,176.64c.47-.14.92-.33,1.39-.44-.05.25-.09.49-.13.74-.33-.02-.69-.11-.96.12-.11-.15-.2-.29-.3-.42h0Z"/>
        <path class="cls-87" d="m1063.72,177.05c.28-.23.64-.13.96-.12l-.13.67c-.3-.16-.62-.28-.83-.54h0Z"/>
        <path class="cls-74" d="m1081.03,180.12c.04.06.13.15.18.21.13,0,.25-.01.37-.01,0,.25.08.48.1.72-.15.34-.36.65-.61.92-.25.09-.54.09-.77.22-.23.09-.47.31-.72.17.58-.68,1.07-1.42,1.46-2.23h0Z"/>
        <path class="cls-91" d="m1060.29,177.11c.05.16.13.32.19.49.06,1.03.21,2.12.78,2.98-.09.54-.23,1.05-.3,1.6-.04.19,0,.47.25.49.66.15,1.33.26,2,.39-.33.29-.22.74-.28,1.12-.07.45.09.89.06,1.35-.28.44-.67.79-1.01,1.19-.26-.01-.5-.16-.75-.13-.18.16-.32.43-.59.43-1.13-1.05-2.15-2.21-2.98-3.51.63-.84,1.22-1.76,1.33-2.83.01-.44.41-.72.55-1.13.03-.24-.11-.47-.17-.69.51-.47.77-1.1.92-1.75h0Z"/>
        <path class="cls-5" d="m1060.48,177.6c.31.26.37.69.58,1.01.04-.06.11-.17.14-.22.14.12.26.25.4.36-.1.61-.22,1.22-.34,1.81-.57-.87-.72-1.96-.78-2.97h0Z"/>
        <path class="cls-21" d="m1082,182.61c.08.15.16.32.23.49-.08.71-.06,1.45-.18,2.16-.17.97-.34,1.94-.48,2.9-1.29.92-2.72,1.66-4.23,2.17-.44-.47-1.09-.3-1.61-.09.11-.15.27-.27.44-.36.33-.18.52-.54.87-.72.36-.22.81-.3,1.12-.6.35-.49.95-.67,1.36-1.09.38-.37.96-.68,1.02-1.27.07-.5.27-.97.43-1.45.08-.35.21-.71.43-1,.39-.26.39-.76.6-1.14h0Z"/>
        <path class="cls-12" d="m1079.81,183.31c.34-.24.78-.37,1.18-.23.29.08.29.44.39.67-.22.29-.34.65-.43,1-.15.48-.34.95-.43,1.45-.07.59-.64.89-1.02,1.27-.41.41-1,.6-1.36,1.09-.17-.03-.34-.07-.51-.09.56-.58.98-1.28,1.46-1.92.11-.1.1-.24.07-.37-.04-.22.11-.41.14-.63,0-.22-.05-.44-.08-.66-.36-.14-.71-.31-1.09-.36-.48,0-.89.32-1.34.43-.22.04-.45.02-.66.11-.43.25-.63.78-1.11.96-.49.2-.92.49-1.38.73-.28.17-.58-.05-.88-.06-.27.08-.49.28-.75.37-.32.05-.68-.07-.97.11-.49.28-1.07.05-1.57.29-.54.16-.87.67-1.4.85-.4.15-.73.4-1.08.64-.05-.11-.12-.22-.17-.32-.44.15-.83.46-1.31.46-.13-.22-.24-.49-.52-.56.07-.09.13-.17.18-.26-.07-.15-.17-.29-.34-.3-.42-.13-.88-.13-1.3-.24-.27-.21-.47-.5-.58-.82.41-.33.66-.8,1.02-1.17.21-.2.44.04.63.12.12-.19.26-.36.38-.54.12.04.23.07.34.11.33-.19.55-.51.74-.84.2-.02.4-.03.59-.06.06-.31.26-.56.52-.72,1.57.32,3.14.61,4.71.93,1.8.39,3.73.15,5.38-.66.34-.17.67-.38.98-.6.55.03,1.14.12,1.58-.2h0Z"/>
        <path class="cls-88" d="m1076.8,184.96c.45-.11.86-.43,1.34-.43.39.05.74.22,1.09.36.03.22.09.44.08.66-.03.22-.18.4-.14.63.01.13.02.26-.07.37-.48.65-.9,1.33-1.46,1.92.17.03.34.07.51.09-.32.3-.75.37-1.12.6-.34.17-.54.54-.87.72-.17.09-.33.21-.44.36-.7.28-1.46.33-2.18.54.02-.12.03-.24.06-.37-.5.02-.99.02-1.48.06-.43.03-.73.35-1.13.47-.31.05-.63.01-.89.21-2.2-.24-4.35-.88-6.31-1.93.24-.03.49-.06.74-.1.08-.24.26-.43.47-.58.28.07.39.33.52.56.48,0,.88-.31,1.31-.46.05.11.12.22.17.32.34-.24.68-.5,1.08-.64.53-.18.85-.7,1.4-.85.5-.24,1.09-.01,1.57-.29.29-.18.64-.06.97-.11.26-.1.48-.3.75-.37.29,0,.6.24.88.06.45-.25.91-.53,1.38-.73.48-.18.68-.72,1.11-.96.2-.06.43-.04.65-.08h0Z"/>
        <path class="cls-33" d="m1063.2,183.06l.44.09c.25.47.61.99,1.17,1.1.45.04.34-.53.33-.81l2.05.4c-.27.17-.46.41-.52.72-.2.02-.4.03-.59.06-.18.34-.41.65-.74.84-.12-.04-.23-.07-.34-.11-.12.17-.26.36-.38.54-.19-.09-.43-.33-.63-.12-.36.38-.61.85-1.02,1.17l-.11-.39c-.3.07-.59.13-.89.17.33-.39.73-.75,1.01-1.19.01-.45-.15-.89-.06-1.35.06-.38-.05-.83.28-1.12h0Z"/>
        <path class="cls-5" d="m1063.65,183.14l1.5.29c0,.29.12.85-.33.81-.56-.11-.9-.63-1.17-1.1h0Z"/>
        <path class="cls-92" d="m1061.98,186.71c.3-.05.59-.11.89-.17l.11.39c.13.32.33.61.58.82.42.12.88.11,1.3.24.19,0,.27.15.34.3-.07.09-.12.17-.18.26-.22.15-.4.32-.47.58-.24.04-.5.08-.74.1-1.12-.64-2.18-1.37-3.16-2.22.28,0,.41-.27.59-.43.25-.03.49.12.75.13h0Z"/>
        <path class="cls-28" d="m1075.73,190.24c.52-.21,1.17-.37,1.61.09-2.3.8-4.8,1.11-7.24.82.26-.2.59-.16.89-.21.39-.12.7-.44,1.13-.47.49-.04.99-.05,1.48-.06-.02.12-.03.24-.06.37.72-.21,1.48-.26,2.18-.54h0Z"/>
      </g>
    </g>
  </g>
  <g id="dollar4">
    <g>
      <circle class="cls-73" cx="363.09" cy="113.16" r="23.61"/>
      <path class="cls-38" d="m348.3,100.5l-2.39-2.05c3.7-4.32,8.83-7.06,14.44-7.74l.38,3.13c-4.83.58-9.25,2.95-12.43,6.67h0Z"/>
      <path class="cls-38" d="m345.94,103.94l-2.77-1.49c.43-.8.92-1.58,1.44-2.33l2.57,1.82c-.45.64-.87,1.32-1.24,2.01Z"/>
      <circle class="cls-70" cx="363.09" cy="113.16" r="18.08"/>
      <path class="cls-20" d="m349.39,115.81c0-9.99,8.1-18.08,18.08-18.08,2.51,0,4.9.51,7.08,1.44-3.12-2.56-7.11-4.09-11.46-4.09-9.99,0-18.08,8.1-18.08,18.08,0,7.47,4.54,13.89,11.01,16.64-4.04-3.32-6.63-8.35-6.63-13.99h0Z"/>
      <g>
        <path class="cls-20" d="m364.95,127.42h-1.94v-2.67c-3.57-.3-5.86-2.03-6.85-5.19l3.1-.72c.56,2.03,1.81,3.12,3.76,3.27v-5.7c-2.54-.59-4.2-1.33-4.97-2.23-.77-.9-1.15-1.97-1.15-3.22,0-3.24,2.04-5.11,6.12-5.61v-2.08h1.94v2.08c2.99.38,4.87,1.86,5.66,4.43l-2.92.62c-.5-1.48-1.41-2.28-2.74-2.39v5.03c1.88.54,3.15.95,3.8,1.24.65.29,1.24.85,1.76,1.69.52.84.78,1.82.78,2.94,0,1.6-.54,2.92-1.63,3.98-1.08,1.06-2.66,1.68-4.72,1.86v2.67h0Zm-1.94-19.41c-.84,0-1.53.22-2.09.63-.56.41-.84,1.01-.84,1.81,0,1.35.98,2.15,2.94,2.41v-4.84h0Zm1.94,14.1c.9,0,1.66-.27,2.27-.79.61-.52.91-1.2.91-2.03,0-1.4-1.06-2.3-3.18-2.7v5.52h0Z"/>
        <path class="cls-30" d="m364,125.69h-1.94v-2.67c-3.57-.3-5.86-2.03-6.85-5.19l3.1-.72c.56,2.03,1.81,3.12,3.76,3.27v-5.7c-2.54-.59-4.2-1.33-4.97-2.23-.77-.9-1.15-1.97-1.15-3.22,0-3.24,2.04-5.11,6.12-5.61v-2.08h1.94v2.08c2.99.38,4.87,1.86,5.66,4.43l-2.92.62c-.5-1.48-1.41-2.28-2.74-2.39v5.03c1.88.54,3.15.95,3.8,1.24.65.29,1.24.85,1.76,1.69.52.84.78,1.82.78,2.94,0,1.6-.54,2.92-1.63,3.98-1.08,1.06-2.66,1.68-4.72,1.86v2.67h0Zm-1.94-19.41c-.84,0-1.53.22-2.09.63-.56.41-.84,1.01-.84,1.81,0,1.35.98,2.15,2.94,2.41v-4.84h0Zm1.94,14.1c.9,0,1.66-.27,2.27-.79.61-.52.91-1.2.91-2.03,0-1.4-1.06-2.3-3.18-2.7v5.52h0Z"/>
      </g>
    </g>
  </g>
  <g id="dollar3">
    <g>
      <circle class="cls-73" cx="764.52" cy="287.45" r="29.92"/>
      <path class="cls-38" d="m745.78,271.41l-3.03-2.6c4.69-5.47,11.19-8.95,18.3-9.81l.48,3.96c-6.12.74-11.72,3.74-15.75,8.45h0Z"/>
      <path class="cls-38" d="m742.79,275.76l-3.51-1.89c.55-1.02,1.16-2.01,1.83-2.95l3.26,2.3c-.57.81-1.1,1.67-1.58,2.54Z"/>
      <circle class="cls-70" cx="764.52" cy="287.45" r="22.92"/>
      <path class="cls-20" d="m747.16,290.81c0-12.66,10.26-22.92,22.92-22.92,3.18,0,6.21.65,8.97,1.82-3.95-3.24-9.01-5.19-14.52-5.19-12.66,0-22.92,10.26-22.92,22.92,0,9.47,5.75,17.6,13.95,21.09-5.13-4.2-8.4-10.58-8.4-17.73h0Z"/>
      <g>
        <path class="cls-20" d="m766.88,305.53h-2.46v-3.38c-4.53-.38-7.42-2.57-8.69-6.58l3.92-.91c.71,2.57,2.29,3.95,4.76,4.15v-7.22c-3.22-.74-5.32-1.68-6.3-2.82-.97-1.14-1.46-2.5-1.46-4.08,0-4.11,2.59-6.48,7.76-7.11v-2.63h2.46v2.63c3.78.49,6.17,2.36,7.17,5.61l-3.7.79c-.63-1.88-1.79-2.89-3.47-3.03v6.38c2.38.68,3.99,1.21,4.82,1.57.83.37,1.57,1.08,2.24,2.14.66,1.06.99,2.3.99,3.73,0,2.02-.69,3.7-2.06,5.04-1.38,1.34-3.37,2.13-5.99,2.36v3.38h0Zm-2.46-24.6c-1.06.01-1.94.28-2.66.79-.71.52-1.07,1.28-1.07,2.29,0,1.71,1.24,2.72,3.72,3.05v-6.14h0Zm2.46,17.87c1.14-.01,2.1-.35,2.87-1.01.77-.66,1.16-1.52,1.16-2.58,0-1.78-1.34-2.92-4.03-3.42v7h0Z"/>
        <path class="cls-30" d="m765.68,303.34h-2.46v-3.38c-4.53-.38-7.42-2.57-8.69-6.58l3.92-.91c.71,2.57,2.29,3.95,4.76,4.15v-7.22c-3.22-.74-5.32-1.68-6.3-2.82-.97-1.14-1.46-2.5-1.46-4.08,0-4.11,2.59-6.48,7.76-7.11v-2.63h2.46v2.63c3.78.49,6.17,2.36,7.17,5.61l-3.7.79c-.63-1.88-1.79-2.89-3.47-3.03v6.38c2.38.68,3.99,1.21,4.82,1.57.83.37,1.57,1.08,2.24,2.14.66,1.06.99,2.3.99,3.73,0,2.02-.69,3.7-2.06,5.04-1.38,1.34-3.37,2.13-5.99,2.36v3.38h0Zm-2.46-24.6c-1.06.01-1.94.28-2.66.79-.71.52-1.07,1.28-1.07,2.29,0,1.71,1.24,2.72,3.72,3.05v-6.14h0Zm2.46,17.87c1.14-.01,2.1-.35,2.87-1.01.77-.66,1.16-1.52,1.16-2.58,0-1.78-1.34-2.92-4.03-3.42v7h0Z"/>
      </g>
    </g>
  </g>
  <g id="dollar1">
    <g>
      <circle class="cls-73" cx="1177.35" cy="275.06" r="22.64"/>
      <path class="cls-38" d="m1172.56,257.02l-.77-2.92c5.27-1.4,10.82-.78,15.62,1.74l-1.4,2.67c-4.13-2.17-8.91-2.7-13.44-1.5h0Z"/>
      <path class="cls-38" d="m1168.83,258.45l-1.38-2.69c.78-.4,1.59-.75,2.41-1.05l1.04,2.83c-.71.26-1.4.57-2.07.91Z"/>
      <circle class="cls-70" cx="1177.35" cy="275.06" r="17.34"/>
      <path class="cls-20" d="m1165.09,269.7c5.43-7.89,16.23-9.88,24.12-4.44,1.98,1.37,3.59,3.07,4.81,4.99-1.07-3.72-3.39-7.1-6.82-9.47-7.89-5.43-18.69-3.44-24.12,4.44-4.07,5.9-3.97,13.44-.36,19.13-1.39-4.82-.69-10.2,2.38-14.65h0Z"/>
      <g>
        <path class="cls-20" d="m1171.06,287.34l-1.54-1.06,1.45-2.11c-2.66-2.18-3.52-4.79-2.59-7.83l2.84,1.11c-.66,1.9-.27,3.45,1.19,4.63l3.1-4.5c-1.69-1.85-2.59-3.33-2.71-4.46-.12-1.13.16-2.18.84-3.17,1.76-2.56,4.39-2.93,7.88-1.1l1.13-1.64,1.54,1.06-1.13,1.64c2.15,1.93,2.84,4.12,2.06,6.57l-2.65-1.1c.41-1.44.13-2.57-.86-3.38l-2.74,3.97c1.19,1.45,1.97,2.46,2.33,3.05.36.58.52,1.35.48,2.29-.04.95-.37,1.86-.98,2.75-.87,1.26-2.02,2.01-3.45,2.26-1.43.25-3.01-.12-4.74-1.1l-1.45,2.11h0Zm9.02-16.39c-.66-.45-1.33-.66-2-.64-.67.02-1.22.34-1.65.97-.73,1.06-.4,2.23,1.01,3.5l2.64-3.83h0Zm-6.14,12.2c.72.48,1.46.69,2.22.61.76-.08,1.37-.45,1.83-1.11.76-1.11.41-2.4-1.05-3.86l-3,4.36h0Z"/>
        <path class="cls-30" d="m1171.26,285.46l-1.54-1.06,1.45-2.11c-2.66-2.18-3.52-4.79-2.59-7.83l2.84,1.11c-.66,1.9-.27,3.45,1.19,4.63l3.1-4.5c-1.69-1.85-2.59-3.33-2.71-4.46-.12-1.13.16-2.18.84-3.17,1.76-2.56,4.39-2.93,7.88-1.1l1.13-1.64,1.54,1.06-1.13,1.64c2.15,1.93,2.84,4.12,2.06,6.57l-2.65-1.1c.41-1.44.13-2.57-.86-3.38l-2.74,3.97c1.19,1.45,1.97,2.46,2.33,3.05.36.58.52,1.35.48,2.29-.04.95-.37,1.86-.98,2.75-.87,1.26-2.02,2.01-3.45,2.26-1.43.25-3.01-.12-4.74-1.1l-1.45,2.11h0Zm9.02-16.39c-.66-.45-1.33-.66-2-.64-.67.02-1.22.34-1.65.97-.73,1.06-.4,2.23,1.01,3.5l2.64-3.83h0Zm-6.14,12.2c.72.48,1.46.69,2.22.61.76-.08,1.37-.45,1.83-1.11.76-1.11.41-2.4-1.05-3.86l-3,4.36h0Z"/>
      </g>
    </g>
  </g>
  <g id="dollar2">
    <g>
      <circle class="cls-73" cx="23.61" cy="291.26" r="23.61"/>
      <path class="cls-38" d="m4.56,287.29l-3.08-.64c1.16-5.56,4.33-10.44,8.93-13.74l1.84,2.56c-3.95,2.84-6.68,7.04-7.68,11.83h0Z"/>
      <path class="cls-38" d="m4.15,291.43l-3.15.03c0-.91.04-1.83.14-2.74l3.13.36c-.09.78-.13,1.57-.12,2.36Z"/>
      <circle class="cls-70" cx="23.61" cy="291.26" r="18.08"/>
      <path class="cls-20" d="m12.88,300.18c-4.81-8.75-1.61-19.75,7.14-24.55,2.2-1.21,4.54-1.91,6.89-2.15-3.97-.74-8.2-.16-12.01,1.93-8.75,4.81-11.95,15.8-7.14,24.55,3.6,6.55,10.66,9.99,17.66,9.29-5.14-.96-9.83-4.13-12.54-9.07h0Z"/>
      <g>
        <path class="cls-20" d="m32.11,302.87l-1.7.94-1.28-2.34c-3.27,1.46-6.11,1.04-8.51-1.25l2.37-2.12c1.46,1.51,3.09,1.86,4.87,1.06l-2.74-4.99c-2.51.71-4.32.86-5.43.44-1.11-.42-1.96-1.17-2.56-2.27-1.56-2.84-.67-5.46,2.66-7.86l-1-1.82,1.7-.94,1,1.82c2.8-1.1,5.16-.72,7.09,1.15l-2.26,1.95c-1.15-1.06-2.33-1.32-3.55-.78l2.42,4.41c1.91-.43,3.22-.68,3.93-.74.71-.06,1.5.15,2.36.63.86.48,1.56,1.21,2.1,2.2.77,1.4.93,2.82.49,4.27-.44,1.45-1.52,2.75-3.24,3.9l1.28,2.34h0Zm-11.05-16.07c-.73.41-1.24.93-1.53,1.56-.3.63-.25,1.29.13,1.99.65,1.18,1.89,1.41,3.73.7l-2.33-4.25h0Zm8.49,11.42c.79-.44,1.32-1.04,1.61-1.79.28-.75.23-1.49-.18-2.22-.68-1.23-2.04-1.51-4.09-.83l2.66,4.84h0Z"/>
        <path class="cls-30" d="m30.45,301.8l-1.7.94-1.28-2.34c-3.27,1.46-6.11,1.04-8.51-1.25l2.37-2.12c1.46,1.51,3.09,1.86,4.87,1.06l-2.74-4.99c-2.51.71-4.32.86-5.43.44-1.11-.42-1.96-1.17-2.56-2.27-1.56-2.84-.67-5.46,2.66-7.86l-1-1.82,1.7-.94,1,1.82c2.8-1.1,5.16-.72,7.09,1.15l-2.26,1.95c-1.15-1.06-2.33-1.32-3.55-.78l2.42,4.41c1.91-.43,3.22-.68,3.93-.74.71-.06,1.5.15,2.36.63.86.48,1.56,1.21,2.1,2.2.77,1.4.93,2.82.49,4.27-.44,1.45-1.52,2.75-3.24,3.9l1.28,2.34h0Zm-11.05-16.07c-.73.41-1.24.93-1.53,1.56-.3.63-.25,1.29.13,1.99.65,1.18,1.89,1.41,3.73.7l-2.33-4.25h0Zm8.49,11.42c.79-.44,1.32-1.04,1.61-1.79.28-.75.23-1.49-.18-2.22-.68-1.23-2.04-1.51-4.09-.83l2.66,4.84h0Z"/>
      </g>
    </g>
  </g>
  <g id="paypal">
  <g>
    <rect class="cls-27" x="485.31" y="176.15" width="178.04" height="108.66" rx="15.61" ry="15.61" transform="translate(115.52 -184.81) rotate(20.28)"/>
    <rect class="cls-96" x="487.05" y="171.46" width="178.04" height="108.66" rx="15.61" ry="15.61" transform="translate(114 -185.7) rotate(20.28)"/>
    <g>
      <g id="Group">
        <path id="Shape" class="cls-7" d="m568.71,215.92c-.76-1.08-1.97-1.92-3.61-2.53l-6.37-2.35c-.5-.19-.88-.04-1.11.45l-8.59,15.28c-.09.15-.1.31-.04.48.06.17.17.29.32.35l3.02,1.12c.53.2.91.05,1.15-.43l2.33-4.11c.1-.2.26-.34.47-.41.21-.07.44-.09.69-.04.25.05.49.11.7.19s.46.18.74.32c.28.13.46.22.54.25,2.28.84,4.31.86,6.09.06,1.78-.81,3.08-2.35,3.93-4.63.58-1.57.49-2.89-.27-3.97Zm-5.08,3.66c-.48.88-1.05,1.36-1.71,1.45-.67.09-1.51-.06-2.55-.44l-1.33-.45,2.25-4.01c.16-.27.39-.35.68-.25l.76.28c1.06.39,1.77.83,2.14,1.31.36.48.29,1.18-.24,2.11Z"/>
        <path id="Shape-2" data-name="Shape" class="cls-7" d="m636.3,239.7l-2.94-1.09c-.29-.11-.52-.03-.68.25l-8.71,15.6-.07.06c-.05.13-.04.28.02.44.06.16.17.27.33.33l2.63.97c.5.19.87.04,1.12-.45l8.6-15.32v-.04c.15-.37.05-.62-.3-.75Z"/>
        <path id="Shape-3" data-name="Shape" class="cls-7" d="m598.35,232.96c.05-.13.04-.28-.02-.44-.06-.16-.16-.26-.29-.31l-3.06-1.13c-.29-.11-.58-.06-.86.13l-6.51,4.65.46-6.62c.02-.47-.19-.79-.64-.96l-2.98-1.1c-.13-.05-.27-.03-.42.05-.15.08-.25.19-.3.32-.02.05-.05.93-.09,2.63-.04,1.7-.09,3.54-.14,5.51-.05,1.97-.08,3.02-.09,3.13-3.27,2.17-4.95,3.36-5.03,3.57-.13.35-.02.58.33.71l3.06,1.13c.29.11.58.06.86-.13l15.56-10.89c.07-.03.13-.12.18-.25Z"/>
        <path id="Shape-4" data-name="Shape" class="cls-7" d="m627.09,242.95l-3.02-1.12c-.37-.14-.76.22-1.16,1.06-.3-1.32-1.36-2.31-3.19-2.99s-3.8-.59-5.67.35c-1.87.94-3.16,2.37-3.88,4.31-.58,1.57-.58,2.98,0,4.25.57,1.27,1.63,2.18,3.17,2.75.77.28,1.61.41,2.52.39.91-.02,1.69-.22,2.34-.58,0,.03-.08.14-.21.33-.13.19-.22.34-.26.45-.16.42-.06.7.28.83l2.75,1.01c.5.19.89.04,1.15-.43l5.47-9.78c.09-.15.1-.31.04-.48-.06-.17-.17-.29-.32-.35Zm-8.09,5.92c-.92.41-1.86.44-2.81.09-.77-.28-1.31-.73-1.64-1.33-.32-.6-.34-1.27-.07-2.02.36-.98,1-1.69,1.91-2.12.91-.43,1.86-.47,2.84-.1.74.27,1.28.72,1.61,1.34.33.62.35,1.31.07,2.08-.35.95-.99,1.64-1.91,2.05Z"/>
        <path id="Shape-5" data-name="Shape" class="cls-7" d="m581.88,226.24l-3.02-1.12c-.37-.14-.76.22-1.16,1.06-.32-1.33-1.39-2.32-3.19-2.99-1.91-.71-3.8-.59-5.67.35-1.87.94-3.16,2.37-3.88,4.31-.58,1.57-.58,2.98,0,4.25.57,1.27,1.63,2.18,3.17,2.75.74.27,1.57.4,2.48.38.91-.02,1.71-.21,2.38-.57-.22.28-.38.54-.47.78-.16.42-.06.7.28.83l2.75,1.01c.5.19.89.04,1.15-.43l5.47-9.78c.08-.15.1-.31.04-.48-.06-.17-.17-.29-.32-.35Zm-8.1,5.94c-.92.4-1.87.42-2.85.06-.77-.28-1.31-.72-1.62-1.32-.31-.6-.32-1.26-.05-2.01.36-.98,1-1.69,1.91-2.12.91-.43,1.86-.47,2.84-.1.74.27,1.28.72,1.61,1.34.33.62.35,1.31.07,2.08-.36.98-1,1.67-1.92,2.07Z"/>
        <path id="Shape-6" data-name="Shape" class="cls-7" d="m613.92,232.63c-.76-1.08-1.96-1.92-3.61-2.53l-6.33-2.34c-.53-.2-.92-.05-1.15.43l-8.59,15.28c-.09.15-.1.31-.04.48.06.17.17.29.32.35l3.26,1.21c.32.12.59.02.83-.28l2.42-4.35c.1-.2.26-.34.47-.41.21-.07.44-.09.69-.04.25.05.49.11.7.19s.46.18.74.32c.28.13.46.22.54.25,2.28.84,4.31.86,6.09.06,1.78-.81,3.08-2.35,3.93-4.63.58-1.56.49-2.89-.27-3.97Zm-6.5,5.04c-.73.18-1.68.06-2.85-.37l-1.29-.43,2.25-4.01c.16-.27.39-.35.68-.25l.72.26c.58.22,1.04.41,1.36.59.32.18.6.47.81.87.22.4.22.86.03,1.39-.41,1.11-.98,1.76-1.71,1.94Z"/>
      </g>
      <path class="cls-7" d="m546.59,211.68c-.09.54-.25,1.13-.47,1.72-.27.72-.61,1.4-1.01,2.02l.04-.06c-3.05,5-7.47,6.43-13.28,4.28l-.8-.3h-.01c-.3-.12-.62-.11-.9,0h0c-.3.11-.55.32-.72.6h0s-.2.33-.2.33l-3.33,5.93-.14.26c-.17.29-.43.5-.73.61h0c-.28.11-.61.12-.92,0h0s-4.57-1.69-4.57-1.69c0,0-.02,0-.03-.01-.23-.08-.39-.27-.47-.48h0c-.06-.18-.06-.38.01-.58.02-.05.04-.1.07-.14h0c.36-.63.9-1.59,1.61-2.88s1.25-2.24,1.61-2.88.9-1.59,1.62-2.86c.72-1.27,1.26-2.22,1.62-2.86.15-.37.57-.56.95-.42.03.01.06.02.08.04h0s2.38.88,2.38.88c.15.06.33.13.51.2,1.34.5,2.7.84,4.06,1.03l-.13-.02c2.18.34,4.3.07,6.2-.7h-.01c1.71-.74,3.23-1.88,4.43-3.36l.05-.07c.49-.58,1.02-1.32,1.48-2.09l.05-.09c.02-.05.06-.09.1-.12h0s.04,0,.06,0c0,0,.01,0,.02,0,.04.03.06.07.08.11.67,1.04.95,2.31.7,3.57v.03s0,0,0,0Zm-1.23-6.29c-.61,1.54-1.46,2.9-2.49,4.06l.06-.08c-1.84,2.37-4.63,3.72-7.55,3.71h-.07c-1.55-.03-3.23-.33-4.87-.94h0s-.55-.18-1.65-.59l-1.63-.63c-.06-.03-.13-.06-.2-.09-1.01-.37-2.13.09-2.59,1.03h0c-.06.1-1.76,3.12-5.11,9.09-.04.1-.15.15-.26.11,0,0-.02,0-.03-.01h0s-5.37-1.98-5.37-1.98c-.48-.18-.73-.72-.55-1.2.02-.04.03-.08.06-.12h0s14.13-25.22,14.13-25.22c.19-.33.48-.57.82-.68h0c.33-.12.7-.13,1.05,0h0s10.89,4.03,10.89,4.03c.63.26,1.21.57,1.75.93l-.06-.04c.72.44,1.33.89,1.89,1.39l-.07-.06c1.06.89,1.79,2.05,2.14,3.32v.02c.3,1.2.25,2.52-.22,3.79-.02.06-.04.11-.07.17h0s0,0,0,0Z"/>
    </g>
        <animateTransform
      attributeName="transform"
      type="translate"
      values="0,0;0,-50;0,0;"
      begin="0s"
      dur="10s"
      repeatCount="indefinite"/>
      </g>
          <animateTransform
      attributeName="transform"
      type="rotate"
      values="0, 700, 200; 10, 700, 200; 0,700,200"
      begin="0s"
      dur="5s"
      repeatCount="indefinite"/>
  </g>
</svg>