<?xml version="1.0" encoding="UTF-8"?>
<svg id="new-coinpayu" xmlns="http://www.w3.org/2000/svg" viewBox="0 0 200 200">
  <defs>
    <style>
      .cls-1 {
        fill: #77706a;
      }
    </style>
  </defs>
  <path class="cls-1" d="m100,27.27c19.2,0,36.9,6.37,51.25,17.01l12.42-12.42c3.55-3.55,9.3-3.55,12.85,0,3.55,3.55,3.55,9.3,0,12.85l-11.86,11.87c13.97,15.72,21.69,36.02,21.7,57.05,0,47.62-38.75,86.36-86.36,86.36S13.64,161.25,13.64,113.64,52.38,27.27,100,27.27Zm0,18.18c-37.6,0-68.18,30.58-68.18,68.18s30.58,68.18,68.18,68.18,68.18-30.58,68.18-68.18-30.58-68.18-68.18-68.18Zm-4.55,27.27c5.02,0,9.09,4.07,9.09,9.09h0v31.5l23.23,15.48c4.06,2.96,4.95,8.65,1.99,12.71-2.79,3.82-8.04,4.87-12.08,2.41l-27.27-18.18c-2.53-1.69-4.05-4.52-4.05-7.56v-36.36c0-5.02,4.07-9.09,9.09-9.09ZM131.82,0c5.02,0,9.09,4.07,9.09,9.09,0,5.02-4.07,9.09-9.09,9.09h-63.64c-5.02,0-9.09-4.07-9.09-9.09S63.16,0,68.18,0h63.64Z"/>
</svg>