<?xml version="1.0" encoding="utf-8"?>
<!-- Generator: Adobe Illustrator 21.0.0, SVG Export Plug-In . SVG Version: 6.00 Build 0)  -->
<svg version="1.1" id="图层_1" xmlns="http://www.w3.org/2000/svg" xmlns:xlink="http://www.w3.org/1999/xlink" x="0px" y="0px"
	 viewBox="0 0 20 20" style="enable-background:new 0 0 20 20;" xml:space="preserve">
<style type="text/css">
	.st0{fill:#FF5822;}
	.st1{fill:#FFFFFF;}
</style>
<ellipse class="st0" cx="10" cy="9.9" rx="9.5" ry="8.6"/>
<polygon class="st0" points="2.1,14.2 0.7,17.8 5.7,16.6 "/>
<g>
	<path class="st1" d="M9,6.4l-2.6,7h-1l-2.5-7h1l1.9,5.4c0.1,0.2,0.1,0.4,0.1,0.6h0c0-0.2,0.1-0.4,0.2-0.6L8,6.4H9z"/>
	<path class="st1" d="M10.9,6.4v7H10v-7H10.9z"/>
	<path class="st1" d="M13.6,10.8v2.6h-0.9v-7h2c0.8,0,1.3,0.2,1.7,0.5C16.8,7.3,17,7.9,17,8.5c0,0.7-0.2,1.2-0.7,1.7
		c-0.5,0.4-1.1,0.6-1.8,0.6H13.6z M13.6,7.2V10h0.8c0.5,0,1-0.1,1.2-0.4s0.4-0.6,0.4-1.1c0-0.9-0.5-1.3-1.6-1.3H13.6z"/>
</g>
</svg>
