<?xml version="1.0" standalone="no"?><!DOCTYPE svg PUBLIC "-//W3C//DTD SVG 1.1//EN" "http://www.w3.org/Graphics/SVG/1.1/DTD/svg11.dtd"><svg t="1733668929953" class="icon" viewBox="0 0 1024 1024" version="1.1" xmlns="http://www.w3.org/2000/svg" p-id="1207" xmlns:xlink="http://www.w3.org/1999/xlink" width="64" height="64"><path d="M674.17975467 300.1099757c18.64135111 55.92405333 43.49648592 100.04191763 86.99297185 143.53840355 37.28270222-37.28270222 62.13783703-87.61435022 80.77918815-143.53840355h-167.77216z m-411.35248119 311.93194193H425.00702815L344.22784 393.93810963c-0.62137837-0.62137837-81.40056652 218.103808-81.40056652 218.103808z" p-id="1208" fill="currentColor"></path><path d="M886.06977897 13.03316859H137.93022103c-68.35162075 0-124.89705245 55.92405333-124.89705244 124.89705244v748.7609363c0 68.35162075 55.92405333 124.89705245 124.89705244 124.89705245h748.13955794c68.35162075 0 124.89705245-55.92405333 124.89705244-124.89705245V137.93022103c-0.62137837-68.97299911-50.331648-124.89705245-124.89705244-124.89705244zM580.35162075 817.71815822c-12.42756741 12.42756741-24.85513482 12.42756741-37.28270223 12.42756741-6.2137837 0-18.64135111 0-24.85513482-6.21378371s-12.42756741 0-12.4275674-6.2137837-6.2137837-12.42756741-12.42756741-24.85513481-6.2137837-18.64135111-12.42756741-31.06891852l-24.85513481-68.35162074H237.97213867l-24.85513482 68.35162074c-12.42756741 24.85513482-18.64135111 43.49648592-24.85513482 55.92405333s-18.64135111 12.42756741-37.28270221 12.42756741c-12.42756741 0-24.85513482-6.2137837-37.28270223-12.42756741-12.42756741-12.42756741-18.64135111-18.64135111-18.64135111-31.06891852 0-6.2137837 0-12.42756741 6.2137837-24.85513481s6.2137837-18.64135111 12.42756741-31.06891852L251.02108445 381.51054222c6.2137837-12.42756741 6.2137837-24.85513482 12.4275674-37.28270222s12.42756741-24.85513482 18.64135112-31.06891852 12.42756741-18.64135111 24.85513481-24.85513481 24.85513482-6.2137837 37.28270222-6.2137837 24.85513482 0 37.28270222 6.2137837 18.64135111 12.42756741 24.85513481 24.85513481c6.2137837 6.2137837 12.42756741 18.64135111 18.64135112 31.06891852s12.42756741 24.85513482 18.6413511 43.49648592l137.32461986 343.00086045c12.42756741 24.85513482 18.64135111 43.49648592 18.64135111 55.92405333-6.83516208 6.2137837-13.04894578 18.64135111-19.26272947 31.06891852z m343.00086043-243.58032119c-68.35162075-24.85513482-118.68326875-55.92405333-162.17975466-93.82813392-43.49648592 43.49648592-99.42053925 74.56540445-168.39353837 93.82813392l-18.64135112-31.06891851c68.35162075-18.64135111 124.89705245-43.49648592 168.39353838-87.61435022-43.49648592-43.49648592-80.77918815-100.04191763-93.20675556-162.17975467h-62.13783703v-24.85513481h168.39353836c-12.42756741-18.64135111-24.85513482-43.49648592-37.28270221-62.13783704l18.64135111-6.2137837c12.42756741 18.64135111 31.06891852 43.49648592 43.49648592 68.35162074h155.96597097v31.06891851h-62.13783705c-18.64135111 62.13783703-49.71026963 118.68326875-86.99297184 155.96597097 43.49648592 37.28270222 93.20675555 68.35162075 162.17975467 87.61435022l-26.09789157 31.06891851z" p-id="1209" fill="currentColor"></path></svg>